<svg xmlns="http://www.w3.org/2000/svg" xmlns:xlink="http://www.w3.org/1999/xlink" viewBox="0 0 3776.95 856.57"><defs><style>.a{fill:none;}.b{clip-path:url(#a);}.c{fill:url(#b);}.d{fill:url(#c);}.e,.g{fill:#fff;}.f{clip-path:url(#d);}.g{opacity:0.2;}.h{fill:url(#e);}.i{fill:url(#f);}</style><clipPath id="a"><rect class="a" x="1473.65" y="1225.78" width="3697.48" height="1312.2"/></clipPath><linearGradient id="b" x1="6006.99" y1="3396.9" x2="1831.12" y2="1180.97" gradientTransform="translate(115.26 -11.2)" gradientUnits="userSpaceOnUse"><stop offset="0" stop-color="#1abc9c"/><stop offset="0.54" stop-color="#1f7ea7"/><stop offset="1" stop-color="#16292e"/></linearGradient><linearGradient id="c" x1="641.79" y1="121.95" x2="58.89" y2="979.74" gradientUnits="userSpaceOnUse"><stop offset="0" stop-color="#1abc9c"/><stop offset="1" stop-color="#1a5daf"/></linearGradient><clipPath id="d"><circle class="a" cx="433.63" cy="428.28" r="320.39"/></clipPath><linearGradient id="e" x1="433.28" y1="111.53" x2="343.29" y2="711.95" xlink:href="#c"/><linearGradient id="f" x1="529.35" y1="125.93" x2="439.36" y2="726.35" xlink:href="#c"/></defs><title>1.16.17</title><g class="b"><rect class="c" x="1149.89" y="1071.63" width="7193.25" height="3168" transform="translate(205.04 -337.16) rotate(4.16)"/></g><circle class="d" cx="433.63" cy="428.28" r="320.39"/><path class="e" d="M304.33,352.67h0l0,.18.07-.19Z"/><g class="f"><polygon class="g" points="723.71 431 623.37 676.58 570.27 551.25 618.69 432.95 592.53 432.95 553.1 531.34 514.05 432.95 488.28 432.95 536.7 551.25 483.99 676.58 383.26 431 332.67 311.86 384.77 186.53 485.11 432.11 514.78 432.11 397.26 154.91 373.06 154.91 314.88 290.95 256.32 154.91 232.5 154.91 115.37 432.11 144.66 432.11 245.39 186.53 298.1 311.86 249.68 430.16 275.45 430.16 314.49 331.77 353.98 431 471.11 708.2 494.92 708.2 553.49 571.16 611.66 708.2 635.87 708.2 753.39 431 723.71 431"/><path class="h" d="M457,553.47a101.47,101.47,0,0,1-23.41,2.73c-55.89,0-103.42-42.57-106.85-105.69-.43-7.91,4-28.38,5.76-35.79l-86.42-36.81c-8.81,22.3-13.65,51.66-13.65,77.09,0,108.31,92.86,196.11,201.17,196.11a195.56,195.56,0,0,0,72.71-13.92Z"/><path class="i" d="M433.63,248.44A195.39,195.39,0,0,0,352,266.2l48.67,82.66a101,101,0,0,1,33-5.5c49.47,0,101.92,41.49,107,92.53l-140.71.61,219.37,93c11.46-24.91,15.22-54.06,15.22-83.27C634.49,337.87,541.94,248.44,433.63,248.44Z"/><path class="e" d="M304.33,352.67h0l0,.18.07-.19Z"/><path class="e" d="M457,532a101.47,101.47,0,0,1-23.41,2.72c-55.89,0-103.42-42.56-106.85-105.69-.43-7.91,4-28.38,5.76-35.78l-86.42-36.81c-8.81,22.3-13.65,51.66-13.65,77.09,0,108.31,92.86,196.11,201.17,196.11a195.56,195.56,0,0,0,72.71-13.92Z"/><path class="e" d="M433.63,227A195.39,195.39,0,0,0,352,244.7l48.67,82.66a101,101,0,0,1,33-5.5c49.47,0,101.92,41.49,107,92.53L399.9,415l219.37,93c11.46-24.91,15.22-54.06,15.22-83.27C634.49,316.38,541.94,227,433.63,227Z"/></g><path class="e" d="M1146.7,524V380.28l-55.95,107h-22.93l-55.95-107V524H969.68V306.91h45.25l64.2,123.51,64.81-123.51h44.94V524Z"/><path class="e" d="M1236.58,555.16a79.71,79.71,0,0,0,10.09,2.29,55.38,55.38,0,0,0,8.25.76,17.57,17.57,0,0,0,7.34-1.53,15.76,15.76,0,0,0,6.11-5.35,52.36,52.36,0,0,0,5.5-10.55q2.75-6.73,5.81-16.82l-63.29-160.2h42.19L1302,488.51l38.52-124.74H1379l-67.26,192a57.42,57.42,0,0,1-19.87,27.51q-14.07,10.7-34.85,10.7a66.62,66.62,0,0,1-9.94-.76,63.68,63.68,0,0,1-10.55-2.6Z"/><path class="e" d="M1559.12,487v37H1408.39V306.91h148v37H1450.58v52.28H1542v34.24h-91.41V487Z"/><path class="e" d="M1682.94,515.72a182.77,182.77,0,0,1-20.18,7.34,84.8,84.8,0,0,1-25.07,3.67,58.28,58.28,0,0,1-16.05-2.14,35.17,35.17,0,0,1-13.15-6.88,33.5,33.5,0,0,1-9-12.23q-3.37-7.49-3.36-18.19v-92H1575V363.77h21.1v-52h41v52h33.63v31.49h-33.63v78.27q0,8.56,4.43,12.08a16.91,16.91,0,0,0,10.85,3.52A37.64,37.64,0,0,0,1664.9,487q6.11-2.13,9.78-3.67Z"/><path class="e" d="M1856.28,524h-41V434.09q0-19-7-28t-19.87-9a31.32,31.32,0,0,0-11.62,2.45,45.45,45.45,0,0,0-11.62,6.88A58.69,58.69,0,0,0,1755.08,417a41.65,41.65,0,0,0-6.73,13.45V524h-41V300.79h41v92.63a61.75,61.75,0,0,1,24-24,67.78,67.78,0,0,1,33.48-8.41q15.59,0,25.38,5.35a40.4,40.4,0,0,1,15.29,14.22,58.58,58.58,0,0,1,7.64,20.18,125,125,0,0,1,2.14,23.24Z"/><path class="e" d="M1969.39,527a88.94,88.94,0,0,1-34.85-6.57A78.61,78.61,0,0,1,1891,476.28a84.37,84.37,0,0,1-6-31.49,89.2,89.2,0,0,1,5.81-32.25,78.67,78.67,0,0,1,16.82-26.6,80.26,80.26,0,0,1,26.75-18.19q15.74-6.72,35.31-6.73t35,6.73a80.62,80.62,0,0,1,26.29,18,76.81,76.81,0,0,1,16.51,26.29,87.62,87.62,0,0,1,5.66,31.18q0,4-.15,7.64a31.46,31.46,0,0,1-.76,6.11H1928.43a47.51,47.51,0,0,0,4.59,16.81,41.18,41.18,0,0,0,22.62,20.48,43.17,43.17,0,0,0,15.29,2.75,47.25,47.25,0,0,0,23.08-6q10.85-6,14.83-15.75l35.16,9.78q-8.87,18.34-28.28,30.11T1969.39,527ZM2011,430.42q-1.53-18-13.3-28.89t-28.58-10.85a40.82,40.82,0,0,0-15.44,2.9,40.34,40.34,0,0,0-12.69,8.1,42,42,0,0,0-9,12.54,44.12,44.12,0,0,0-4.13,16.2Z"/><path class="e" d="M2176.68,399.24q-18.65.31-33.32,7.18t-21.09,20.64V524h-41V363.77h37.6V398A73,73,0,0,1,2129,383.19a77.69,77.69,0,0,1,12.54-11.46,58.24,58.24,0,0,1,13.6-7.49,37.61,37.61,0,0,1,13.3-2.6h5a16.59,16.59,0,0,1,3.21.31Z"/><path class="e" d="M2281.54,307.52h38.83l24.46,71.85,24.46-71.85h39.13l-37,98.75,27.52,69.4,61.45-168.76h45.86L2417.89,524h-35.46l-37.6-91.11L2307.22,524h-35.46L2184,306.91h45.25L2291,475.67l26.9-69.4Z"/><path class="e" d="M2556.08,527a60.78,60.78,0,0,1-21.71-3.82,52.14,52.14,0,0,1-17.43-10.7,49.82,49.82,0,0,1-11.46-16.05,48.6,48.6,0,0,1-4.13-20.18,44.45,44.45,0,0,1,5-20.94A48,48,0,0,1,2520.47,439,69.82,69.82,0,0,1,2542,428.43a94.07,94.07,0,0,1,27.52-3.82,118.62,118.62,0,0,1,20.94,1.83,85.46,85.46,0,0,1,18.19,5.2v-9.17q0-15.89-9-24.46t-26.75-8.56a70.84,70.84,0,0,0-25.07,4.59,116.47,116.47,0,0,0-25.07,13.45l-12.54-26Q2541.1,361,2576.87,361q34.54,0,53.65,17t19.11,49.07v49.83q0,6.42,2.29,9.17t7.49,3.06V524a91.46,91.46,0,0,1-18,2.14q-11.62,0-17.88-5.2a22.32,22.32,0,0,1-7.8-13.76l-.92-8.87a70.93,70.93,0,0,1-26,21.4A74.63,74.63,0,0,1,2556.08,527Zm11.62-30a53.41,53.41,0,0,0,19.72-3.67q9.32-3.67,14.52-9.78,6.72-5.19,6.73-11.62V453.66a100.58,100.58,0,0,0-15.9-4.43,85.89,85.89,0,0,0-16.51-1.68q-15.9,0-26,7.18t-10.09,18.19a21.88,21.88,0,0,0,7.95,17.27Q2556.08,497.07,2567.7,497.07Z"/><path class="e" d="M2690.6,300.79h41V472.61q0,8.87,4.28,13.76t12.23,4.89a30.65,30.65,0,0,0,8.1-1.22,54.69,54.69,0,0,0,8.41-3.06l5.5,31.18a79,79,0,0,1-19.26,6.11,105.35,105.35,0,0,1-19.87,2.14q-19.26,0-29.81-10.24T2690.6,487Z"/><path class="e" d="M2790.57,300.79h41V472.61q0,8.87,4.28,13.76t12.23,4.89a30.65,30.65,0,0,0,8.1-1.22,54.69,54.69,0,0,0,8.41-3.06l5.5,31.18a79,79,0,0,1-19.26,6.11,105.35,105.35,0,0,1-19.87,2.14q-19.26,0-29.81-10.24T2790.57,487Z"/><path class="e" d="M2965.14,527a88.94,88.94,0,0,1-34.85-6.57,78.61,78.61,0,0,1-43.57-44.18,84.37,84.37,0,0,1-6-31.49,89.2,89.2,0,0,1,5.81-32.25,78.67,78.67,0,0,1,16.82-26.6,80.26,80.26,0,0,1,26.75-18.19q15.74-6.72,35.31-6.73t35,6.73a80.62,80.62,0,0,1,26.29,18,76.81,76.81,0,0,1,16.51,26.29,87.62,87.62,0,0,1,5.66,31.18q0,4-.15,7.64A31.45,31.45,0,0,1,3048,457H2924.17a47.51,47.51,0,0,0,4.59,16.81,41.18,41.18,0,0,0,22.62,20.48,43.17,43.17,0,0,0,15.29,2.75,47.25,47.25,0,0,0,23.08-6q10.85-6,14.83-15.75l35.16,9.78q-8.87,18.34-28.28,30.11T2965.14,527Zm41.58-96.61q-1.53-18-13.3-28.89t-28.59-10.85a40.82,40.82,0,0,0-15.44,2.9,40.34,40.34,0,0,0-12.69,8.1,42,42,0,0,0-9,12.54,44.12,44.12,0,0,0-4.13,16.2Z"/><path class="e" d="M3171.81,515.72a182.77,182.77,0,0,1-20.18,7.34,84.8,84.8,0,0,1-25.07,3.67,58.28,58.28,0,0,1-16.05-2.14,35.17,35.17,0,0,1-13.15-6.88,33.5,33.5,0,0,1-9-12.23Q3085,498,3085,487.29v-92h-21.1V363.77H3085v-52h41v52h33.63v31.49h-33.63v78.27q0,8.56,4.43,12.08a16.91,16.91,0,0,0,10.85,3.52,37.64,37.64,0,0,0,12.53-2.14q6.11-2.13,9.78-3.67Z"/><path class="e" d="M3263.52,413.91a112.41,112.41,0,0,1,7.18-39.29,105.36,105.36,0,0,1,54.57-59.46q19.87-9.47,45.25-9.48,30,0,51.82,13.15t32.56,34.24l-32.41,22.32A55.52,55.52,0,0,0,3412.1,360,52.18,52.18,0,0,0,3399,350a59.17,59.17,0,0,0-14.68-5.35,69.79,69.79,0,0,0-15-1.68q-15.9,0-27.67,6.42a60.88,60.88,0,0,0-19.57,16.66,73.47,73.47,0,0,0-11.77,23.24,87.91,87.91,0,0,0-4,25.83,84.25,84.25,0,0,0,4.59,27.67,73.59,73.59,0,0,0,13,23.39,64.94,64.94,0,0,0,20.18,16.2,55.14,55.14,0,0,0,25.83,6.12,68,68,0,0,0,15.29-1.84,58.09,58.09,0,0,0,15.13-5.81,57.35,57.35,0,0,0,13.3-10.24,47.24,47.24,0,0,0,9.78-15.13L3458,475.36a65.25,65.25,0,0,1-14.83,21.55,95.35,95.35,0,0,1-21.71,15.75,110.85,110.85,0,0,1-25.83,9.78,113.19,113.19,0,0,1-26.9,3.36,92.43,92.43,0,0,1-42.5-9.78A110.55,110.55,0,0,1,3293,490.5a118.33,118.33,0,0,1-21.71-35.77A111.61,111.61,0,0,1,3263.52,413.91Z"/><path class="e" d="M3510.24,306.91l54.11,80.71,53.81-80.71h45.55L3586.37,417l74.9,107h-45.55l-51.36-77.65L3512.69,524h-45.86l74.9-107-77.35-110.06Z"/></svg>