<svg xmlns="http://www.w3.org/2000/svg" xmlns:xlink="http://www.w3.org/1999/xlink" viewBox="0 0 3191 1749.53"><defs><style>.a{fill:none;}.b,.e{fill:#fff;}.c{fill:url(#a);}.d{clip-path:url(#b);}.e{opacity:0.2;}.f{fill:url(#c);}.g{fill:url(#d);}.h{fill:url(#e);}.i{fill:url(#f);}.j{fill:url(#g);}.k{fill:url(#h);}.l{fill:url(#i);}.m{fill:url(#j);}.n{fill:url(#k);}.o{fill:url(#l);}.p{fill:url(#m);}.q{fill:url(#n);}.r{fill:url(#o);}.s{fill:url(#p);}.t{fill:url(#q);}</style><linearGradient id="a" x1="1892.26" y1="286.86" x2="1057.14" y2="1515.8" gradientUnits="userSpaceOnUse"><stop offset="0" stop-color="#1abc9c"/><stop offset="1" stop-color="#1a5daf"/></linearGradient><clipPath id="b"><circle class="a" cx="1594.02" cy="725.74" r="459.02"/></clipPath><linearGradient id="c" x1="1593.53" y1="271.93" x2="1464.59" y2="1132.15" xlink:href="#a"/><linearGradient id="d" x1="1731.16" y1="292.56" x2="1602.23" y2="1152.78" xlink:href="#a"/><linearGradient id="e" x1="608.34" y1="696.44" x2="641.35" y2="1623.53" gradientUnits="userSpaceOnUse"><stop offset="0" stop-color="#1abc9c"/><stop offset="0.54" stop-color="#1f7ea7"/><stop offset="1" stop-color="#16292e"/></linearGradient><linearGradient id="f" x1="820.67" y1="688.77" x2="853.67" y2="1615.87" xlink:href="#e"/><linearGradient id="g" x1="996.66" y1="682.62" x2="1029.66" y2="1609.71" xlink:href="#e"/><linearGradient id="h" x1="1141.72" y1="677.45" x2="1174.73" y2="1604.55" xlink:href="#e"/><linearGradient id="i" x1="1290.44" y1="672.16" x2="1323.44" y2="1599.25" xlink:href="#e"/><linearGradient id="j" x1="1475.79" y1="665.56" x2="1508.79" y2="1592.65" xlink:href="#e"/><linearGradient id="k" x1="1634.28" y1="659.92" x2="1667.28" y2="1587.01" xlink:href="#e"/><linearGradient id="l" x1="1847.4" y1="652.33" x2="1880.41" y2="1579.42" xlink:href="#e"/><linearGradient id="m" x1="2071.75" y1="644.35" x2="2104.76" y2="1571.44" xlink:href="#e"/><linearGradient id="n" x1="2218.96" y1="639.11" x2="2251.96" y2="1566.2" xlink:href="#e"/><linearGradient id="o" x1="2319.04" y1="635.54" x2="2352.05" y2="1562.64" xlink:href="#e"/><linearGradient id="p" x1="2602.57" y1="625.45" x2="2635.58" y2="1552.54" xlink:href="#e"/><linearGradient id="q" x1="2453.65" y1="630.75" x2="2486.65" y2="1557.84" xlink:href="#e"/></defs><title>1.16.17</title><circle class="b" cx="1595.5" cy="725.74" r="511.16"/><circle class="c" cx="1594.02" cy="725.74" r="459.02"/><path class="b" d="M1408.78,617.42h0l.07.26.1-.27Z"/><g class="d"><polygon class="e" points="2009.63 729.63 1865.87 1081.47 1789.79 901.91 1859.16 732.42 1821.68 732.42 1765.18 873.38 1709.24 732.42 1672.33 732.42 1741.69 901.91 1666.17 1081.47 1521.86 729.63 1449.38 558.94 1524.02 379.39 1667.78 731.23 1710.29 731.23 1541.92 334.08 1507.24 334.08 1423.9 528.98 1339.99 334.08 1305.87 334.08 1138.06 731.23 1180.01 731.23 1324.33 379.39 1399.84 558.94 1330.48 728.43 1367.4 728.43 1423.34 587.47 1479.9 729.63 1647.71 1126.78 1681.84 1126.78 1765.74 930.44 1849.09 1126.78 1883.77 1126.78 2052.14 729.63 2009.63 729.63"/><path class="f" d="M1627.55,905.1A145.35,145.35,0,0,1,1594,909c-80.07,0-148.17-61-153.09-151.42-.62-11.34,5.78-40.67,8.25-51.27l-123.81-52.74c-12.62,31.95-19.56,74-19.56,110.45,0,155.17,133,281,288.21,281A280.2,280.2,0,0,0,1698.19,1025Z"/><path class="g" d="M1594,468.09a279.94,279.94,0,0,0-117,25.44l69.74,118.42a144.73,144.73,0,0,1,47.23-7.88c70.88,0,146,59.44,153.26,132.56l-201.59.88L1860,870.68c16.41-35.69,21.81-77.45,21.81-119.3C1881.8,596.21,1749.19,468.09,1594,468.09Z"/><path class="b" d="M1408.78,617.42h0l.07.26.1-.27Z"/><path class="b" d="M1627.55,874.31a145.34,145.34,0,0,1-33.53,3.9c-80.07,0-148.17-61-153.09-151.42-.62-11.34,5.78-40.66,8.25-51.27l-123.81-52.74c-12.62,31.95-19.56,74-19.56,110.45,0,155.17,133,281,288.21,281a280.21,280.21,0,0,0,104.16-19.95Z"/><path class="b" d="M1594,437.29a279.94,279.94,0,0,0-117,25.44l69.74,118.42a144.73,144.73,0,0,1,47.23-7.88c70.88,0,146,59.44,153.26,132.56l-201.59.88L1860,839.89c16.41-35.69,21.81-77.45,21.81-119.3C1881.8,565.42,1749.19,437.29,1594,437.29Z"/></g><path class="b" d="M2719.82,1318.47l-2.9-27.5a344.49,344.49,0,0,1-9.79-100.46l-1.64-45.71a17.66,17.66,0,0,0-17.39-17.62l-13.1-.2a1.2,1.2,0,0,1-1.2-1.2l-.22-26.92c-1.47-27-1.47-27-26.07-27l-61.9,0c-34.5,0-34.5,0-33.78,27v26.58l-9.5.14a17.66,17.66,0,0,0-15.29,9.3c-.5-.23-1-.47-1.49-.69-15-6.52-31.74-9.83-49.79-9.83a126.15,126.15,0,0,0-49.82,9.72,117.8,117.8,0,0,0-39,26.69l0,0a1,1,0,0,1-1.79-.71l-.32-63.6a23.19,23.19,0,0,0-23.13-23.05l-76.76-.19h-21.77l-73.61.26a26.51,26.51,0,0,0-26.41,26.35l-.2,43.41a1.2,1.2,0,0,1-1.9,1c-18.68-13.18-42.17-19.86-70-19.86a153.62,153.62,0,0,0-33.09,3.56,1.2,1.2,0,0,1-1.39-1.61,38.86,38.86,0,0,0-36.06-53.06l-76.65-.22-238.18.37a38,38,0,0,0-35.36,51.92,1.2,1.2,0,0,1-1.11,1.65l-75.13.25c-18.74-1.14-25.09,5.39-25.66,10.38-.49,4.25-4.7,5.11-8.48,3.11-4.37-2.31-9.62-5-13.11-6.53-15-6.52-31.74-9.83-49.79-9.83a126.15,126.15,0,0,0-49.82,9.72,117.8,117.8,0,0,0-39,26.69l-.43.45a79.68,79.68,0,0,0-29-26.7c-12.34-6.74-27.15-10.16-44-10.16a113.74,113.74,0,0,0-11.8.61,1,1,0,0,1-1.16-1l-35-50.18-340.64-.46A42.12,42.12,0,0,0,904,1115.12s-.17,11.19-.33,11.39a1.2,1.2,0,0,1-.95.46H773.62a1.2,1.2,0,0,1-1.2-1.2l-3.17-23.93c-.11-15.78-9.92-28.51-25.7-28.54l-67.83-.12a20.77,20.77,0,0,0-18.34,11.08l-23.48,43.44a7.89,7.89,0,0,1-13.89,0l-18.3-37.31a31.1,31.1,0,0,0-28.08-17.4l-69.46.37a22.52,22.52,0,0,0-22.48,22.49l-.32,248a3.21,3.21,0,0,0,.77,2.11c13.16,15.06,42.54,19.78,70.49,19.78,28.84,0,74.26-16.78,74.26-16.78s19.72,16.78,70.86,16.78c18.39,0,31.44-2.65,40.4-10.06v57.11A1.2,1.2,0,0,0,739,1414l27.61,9.2a102.6,102.6,0,0,0,17,4.13,105.29,105.29,0,0,0,15.61,1.19c22.38,0,42-6.27,58.24-18.65a95.54,95.54,0,0,0,32.92-45.5l7.38-21.07,29.29,8.92c18.87,7.55,45.14,13.8,80.49,13.8a388.09,388.09,0,0,0,47.83-3.22,295.66,295.66,0,0,0,50.76-10.57l2.93-1,1,1c11.67,7.55,27.92,13.8,49.78,13.8a150.27,150.27,0,0,0,29.58-3.22,125.1,125.1,0,0,0,31.4-10.57s2-1.13,4.51-2.48c19.56,9,46.13,16.26,81.18,16.26a331.75,331.75,0,0,0,50.32-4.19,260.39,260.39,0,0,0,53.41-13.74s4.41-1.87,9.33-3.9c7.95,3.17,22.5,9,28,11.32a126,126,0,0,0,49.2,9.5c24.64,0,46.67-5.78,65.48-17.18q2.16-1.31,4.22-2.68a1.21,1.21,0,0,1,1.89,1c.18,8.68,7.27,19.62,15.95,19.63l94.34,0c8.87,0,16.24-10.85,16.87-19.7,1.77-25-3-73,12.26-73,14.25,0,25.41,34,42.91,61.92,6.23,10,12.33,27.75,31.59,29.51,11.39,1,51,0,51,0,11.43,0,24.48-8.32,29-18.82a1.21,1.21,0,0,1,2.22,0c4.45,10.44,17.38,18.78,28.74,18.8h38.14c18.8,0,33.77-14,40.93-31.37l9.92-24.09a1.19,1.19,0,0,1,2.21,0q.49,1.2,1,2.39a88.81,88.81,0,0,0,20.35,28.49,91.05,91.05,0,0,0,30.24,18.7,99.34,99.34,0,0,0,35.31,6.32,112.49,112.49,0,0,0,45.46-9.42.75.75,0,0,1,.67,0c8.22,4.62,19.64,8.52,34.77,8.52a128.22,128.22,0,0,0,25.47-2.88l25.79-5.3a1.18,1.18,0,0,1,.76.1c9.85,4.82,22.54,8.37,38.54,8.37a141.66,141.66,0,0,0,26.76-2.79,116.61,116.61,0,0,0,28.4-9.16h0c10.56,6.55,25.26,12,45,12a141.65,141.65,0,0,0,26.76-2.79,116.6,116.6,0,0,0,28.4-9.16l10.89-5.25a1.19,1.19,0,0,1,1.13.06,123.48,123.48,0,0,0,16.13,8.23,126,126,0,0,0,49.2,9.5c24.64,0,46.67-5.78,65.48-17.18a117.8,117.8,0,0,0,21.87-16.95,1.23,1.23,0,0,1,1.9.2,71.12,71.12,0,0,0,13.69,15.36,74.79,74.79,0,0,0,27.78,14.65,97,97,0,0,0,26.62,3.62,122.29,122.29,0,0,0,36-5.32,215.16,215.16,0,0,0,23.8-8.7l14.91-6.74A22,22,0,0,0,2719.82,1318.47Z"/><polygon class="h" points="626.78 1215.82 570.33 1107.23 515.55 1107.23 515.55 1327.88 570.33 1327.88 570.33 1214.25 611.55 1293.08 642.24 1293.08 683.46 1214.25 683.46 1327.88 738.24 1327.88 738.24 1107.23 683.76 1107.23 626.78 1215.82"/><path class="i" d="M841.35,1263.2l-35.51-102H749.72l63.06,159.64c-1.59,5.07-3.11,9.38-4.52,12.85a43,43,0,0,1-4.38,8.49,8,8,0,0,1-2.86,2.67,9.29,9.29,0,0,1-3.91.79,45.61,45.61,0,0,1-6.69-.64,68.27,68.27,0,0,1-8.63-2l-9.46-2.78V1389l5,1.68a68.19,68.19,0,0,0,11.24,2.76,71,71,0,0,0,10.52.81c14.73,0,27.36-3.92,37.53-11.66A61.94,61.94,0,0,0,858,1353.1l67.24-191.93H872.86Z"/><polygon class="j" points="992.92 1239.14 1079.63 1239.14 1079.63 1191.9 992.92 1191.9 992.92 1157.08 1093.26 1157.08 1093.26 1107.23 938.14 1107.23 938.14 1327.88 1095.87 1327.88 1095.87 1278.03 992.92 1278.03 992.92 1239.14"/><path class="k" d="M1202.36,1275.12c-2.17.91-5.15,2-8.87,3.32a28.53,28.53,0,0,1-9.45,1.62,8.71,8.71,0,0,1-5.71-1.74c-.88-.7-1.4-2.81-1.4-5.67V1205.8h31.9v-44.63h-31.9v-49.3H1123.3v49.3h-20v44.63h20v79.9c0,7.79,1.29,14.62,3.84,20.28a39.24,39.24,0,0,0,10.55,14.23,40.84,40.84,0,0,0,15.19,8,62.9,62.9,0,0,0,17.25,2.31,88.14,88.14,0,0,0,25.95-3.81,181.51,181.51,0,0,0,20-7.27l5.69-2.53-11.48-45.06Z"/><path class="l" d="M1379.52,1180.6a45.79,45.79,0,0,0-17.23-16.07c-7.26-4-16.55-6-27.61-6a71.87,71.87,0,0,0-35.34,8.9,65.46,65.46,0,0,0-11.8,8.37v-74.4h-53.62v226.45h53.62v-95a32.37,32.37,0,0,1,4.9-9.44,48.54,48.54,0,0,1,8.29-8.68,36,36,0,0,1,9.13-5.42,22.54,22.54,0,0,1,8.28-1.79c5.85,0,10,1.82,13,5.71,3.34,4.29,5.11,11.9,5.11,22v92.64h53.62V1225.67a126.59,126.59,0,0,0-2.16-23.41A63.18,63.18,0,0,0,1379.52,1180.6Z"/><path class="m" d="M1560.45,1184.31a84.17,84.17,0,0,0-27.32-18.77c-10.66-4.64-22.82-7-36.15-7a92.22,92.22,0,0,0-36.39,7,83.83,83.83,0,0,0-27.8,18.93,82.29,82.29,0,0,0-17.52,27.69,92.34,92.34,0,0,0-6,33.24,87.72,87.72,0,0,0,6.18,32.6,81.93,81.93,0,0,0,45.31,46,92.05,92.05,0,0,0,35.92,6.81c18.3,0,34.37-4.12,47.76-12.23s25.7-18.43,31.91-31.28l-49.1-15.65c-1.87,4.61-5.4,8.29-10.78,11.24a37.2,37.2,0,0,1-18.34,4.74,33.79,33.79,0,0,1-11.91-2.14,31.68,31.68,0,0,1-17.45-15.82,32.61,32.61,0,0,1-2.06-5.27h114.33l1.39-5.6a36.75,36.75,0,0,0,.94-7.28c.1-2.43.15-5,.15-7.55a90.84,90.84,0,0,0-5.84-32.19A80.51,80.51,0,0,0,1560.45,1184.31ZM1466,1224.38a31.66,31.66,0,0,1,1.83-4.8,32.65,32.65,0,0,1,7-9.71,31.09,31.09,0,0,1,9.73-6.21,31.54,31.54,0,0,1,11.88-2.22c8.79,0,16,2.73,22.11,8.34a30.71,30.71,0,0,1,8.85,14.6Z"/><path class="n" d="M1697.28,1159.13h-4.78a43.19,43.19,0,0,0-15.23,2.94,62.8,62.8,0,0,0-14.63,8,79.92,79.92,0,0,0-9.74,8.38v-17.33h-50.43v166.71h53.62v-97.59c3.37-6.44,8.54-11.23,15.76-14.61,8.28-3.88,17.91-5.94,28.6-6.12l7.26-.12v-48.71l-6-1.17A23.23,23.23,0,0,0,1697.28,1159.13Z"/><polygon class="o" points="1967.74 1107.23 1914.33 1253.91 1896.43 1208.78 1934.26 1107.81 1881.21 1107.81 1863.29 1160.43 1845.38 1107.81 1792.68 1107.81 1829.88 1208.79 1812.46 1253.75 1758.84 1107.23 1699.82 1107.23 1789.01 1327.88 1832.56 1327.88 1863.29 1253.43 1894.02 1327.88 1937.57 1327.88 2027.38 1107.23 1967.74 1107.23"/><path class="p" d="M2167.86,1279.75a11.64,11.64,0,0,1-.47-3.91v-47.27c0-22.4-6.93-39.92-20.6-52.06-13.42-11.91-32.19-18-55.79-18-24,0-46.63,7-67.3,20.66l-5.37,3.56,18.43,38.21,7.1-4.9a103.65,103.65,0,0,1,22.18-11.92,60.13,60.13,0,0,1,21.19-3.88c9.2,0,16,2,20.29,6.09,3.93,3.73,6,9.06,6.23,16.25q-4.08-1.1-8.54-1.9a120.46,120.46,0,0,0-21.17-1.86,97,97,0,0,0-28.25,3.95,73.81,73.81,0,0,0-22.7,11.15,53.1,53.1,0,0,0-15.47,18,49.67,49.67,0,0,0-5.63,23.29,53.64,53.64,0,0,0,4.57,22.17A54.8,54.8,0,0,0,2029.1,1315a57,57,0,0,0,19,11.67,65.29,65.29,0,0,0,23.2,4.1,78.45,78.45,0,0,0,34.22-7.69,73.34,73.34,0,0,0,16.78-11.12,27.78,27.78,0,0,0,8.23,11.3c5.3,4.4,12.6,6.63,21.68,6.63a94.4,94.4,0,0,0,18.59-2.18l5.9-1.21v-46l-7-.4A6.12,6.12,0,0,1,2167.86,1279.75Zm-54.09-8.55c0,.61,0,2.46-3.51,5.18l-.61.47-.5.59a26.91,26.91,0,0,1-10.85,7.19,43.55,43.55,0,0,1-16,3c-5.57,0-10.06-1.55-13.73-4.73a13.41,13.41,0,0,1-5-10.8c0-2.85.67-7.11,6.47-11.24,5.08-3.61,11.93-5.45,20.37-5.45a74.48,74.48,0,0,1,14.23,1.46c3.18.63,6.23,1.38,9.12,2.26Z"/><path class="q" d="M2271.54,1278.71a44.64,44.64,0,0,1-6.85,2.49,21.89,21.89,0,0,1-5.72.89c-3.76,0-5.25-1.21-6.05-2.12-1.48-1.69-2.23-4.44-2.23-8.18V1101.43h-53.62v184c0,14,4.12,25.1,12.24,33s19.3,11.8,33.42,11.8A107.68,107.68,0,0,0,2263,1328a82.59,82.59,0,0,0,20.07-6.4l5-2.43-7.85-44.51Z"/><path class="r" d="M2371.76,1278.71a44.64,44.64,0,0,1-6.85,2.49,21.89,21.89,0,0,1-5.72.89c-3.76,0-5.25-1.21-6-2.12-1.48-1.69-2.23-4.44-2.23-8.18V1101.43h-53.62v184c0,14,4.12,25.1,12.24,33s19.3,11.8,33.42,11.8a107.68,107.68,0,0,0,20.25-2.17,82.59,82.59,0,0,0,20.07-6.4l5-2.43-7.85-44.51Z"/><path class="s" d="M2672.95,1271.82l-7.89,3.3c-2.17.91-5.15,2-8.87,3.32a28.53,28.53,0,0,1-9.45,1.62,8.71,8.71,0,0,1-5.71-1.74c-.88-.7-1.4-2.81-1.4-5.67V1205.8h31.9v-44.63h-31.9v-49.3H2586v49.3h-20v44.63h20v79.9c0,7.79,1.29,14.62,3.84,20.28a39.25,39.25,0,0,0,10.55,14.23,40.84,40.84,0,0,0,15.19,8,62.9,62.9,0,0,0,17.25,2.31,88.14,88.14,0,0,0,25.95-3.81,181.27,181.27,0,0,0,20-7.27l5.69-2.53Z"/><path class="t" d="M2539.51,1183.15a84.16,84.16,0,0,0-27.32-18.77c-10.66-4.64-22.82-7-36.15-7a92.22,92.22,0,0,0-36.39,7,83.82,83.82,0,0,0-27.8,18.93,82.29,82.29,0,0,0-17.52,27.69,92.34,92.34,0,0,0-6,33.24,87.72,87.72,0,0,0,6.18,32.6,81.93,81.93,0,0,0,45.31,46,92.05,92.05,0,0,0,35.92,6.81c18.3,0,34.37-4.12,47.76-12.23s25.7-18.43,31.91-31.28l-49.1-15.65c-1.87,4.61-5.4,8.29-10.78,11.24a37.2,37.2,0,0,1-18.34,4.74,33.79,33.79,0,0,1-11.91-2.14,31.68,31.68,0,0,1-17.45-15.82,32.6,32.6,0,0,1-2.06-5.27H2560.1l1.39-5.6a36.74,36.74,0,0,0,.94-7.28c.1-2.43.15-5,.15-7.55a90.84,90.84,0,0,0-5.84-32.19A80.51,80.51,0,0,0,2539.51,1183.15Zm-94.45,40.07a31.66,31.66,0,0,1,1.83-4.8,32.65,32.65,0,0,1,7-9.71,31.1,31.1,0,0,1,9.73-6.21,31.54,31.54,0,0,1,11.88-2.22c8.79,0,16,2.73,22.11,8.34a30.71,30.71,0,0,1,8.85,14.6Z"/></svg>