<svg xmlns="http://www.w3.org/2000/svg" xmlns:xlink="http://www.w3.org/1999/xlink" viewBox="0 0 688.94 686.72"><defs><style>.a{fill:none;}.b{fill:url(#a);}.c,.e{fill:#fff;}.d{clip-path:url(#b);}.e{opacity:0.2;}.f{fill:url(#c);}.g{fill:url(#d);}</style><linearGradient id="a" x1="679.44" y1="-151.16" x2="73.71" y2="740.23" gradientUnits="userSpaceOnUse"><stop offset="0" stop-color="#cd3b43"/><stop offset="1" stop-color="#51014b"/></linearGradient><clipPath id="b"><circle class="a" cx="343.39" cy="343.36" r="332.94"/></clipPath><linearGradient id="c" x1="343.04" y1="14.2" x2="249.51" y2="638.14" xlink:href="#a"/><linearGradient id="d" x1="442.87" y1="29.16" x2="349.35" y2="653.11" xlink:href="#a"/></defs><title>1.16.17</title><circle class="b" cx="343.39" cy="343.36" r="332.94"/><path class="c" d="M209,264.79h0l0,.19.07-.19Z"/><g class="d"><polygon class="e" points="644.84 346.18 540.57 601.38 485.39 471.14 535.7 348.2 508.52 348.2 467.54 450.45 426.97 348.2 400.19 348.2 450.5 471.14 395.73 601.38 291.05 346.18 238.48 222.38 292.62 92.14 396.89 347.34 427.73 347.34 305.61 59.27 280.45 59.27 220 200.64 159.14 59.27 134.39 59.27 12.67 347.34 43.1 347.34 147.78 92.14 202.55 222.38 152.24 345.31 179.02 345.31 219.59 243.07 260.62 346.18 382.34 634.24 407.09 634.24 467.95 491.83 528.4 634.24 553.55 634.24 675.68 346.18 644.84 346.18"/><path class="f" d="M367.72,473.45a105.43,105.43,0,0,1-24.32,2.83c-58.08,0-107.47-44.23-111-109.83-.45-8.22,4.19-29.5,6-37.19L148.53,291c-9.16,23.17-14.19,53.68-14.19,80.11,0,112.55,96.5,203.79,209.05,203.79a203.24,203.24,0,0,0,75.55-14.47Z"/><path class="g" d="M343.39,156.47a203.05,203.05,0,0,0-84.84,18.45l50.58,85.89a105,105,0,0,1,34.26-5.71c51.41,0,105.91,43.11,111.17,96.15l-146.22.64,228,96.6c11.9-25.88,15.82-56.18,15.82-86.53C552.13,249.4,455.95,156.47,343.39,156.47Z"/><path class="c" d="M209,264.79h0l0,.19.07-.19Z"/><path class="c" d="M367.72,451.12a105.43,105.43,0,0,1-24.32,2.83c-58.08,0-107.47-44.23-111-109.83-.45-8.22,4.19-29.49,6-37.19l-89.81-38.25c-9.16,23.17-14.19,53.68-14.19,80.11,0,112.55,96.5,203.79,209.05,203.79a203.24,203.24,0,0,0,75.55-14.47Z"/><path class="c" d="M343.39,134.14a203.05,203.05,0,0,0-84.84,18.45l50.58,85.89a105,105,0,0,1,34.26-5.71c51.41,0,105.91,43.11,111.17,96.15l-146.22.64,228,96.6c11.9-25.89,15.82-56.18,15.82-86.53C552.13,227.07,455.95,134.14,343.39,134.14Z"/></g></svg>