<svg xmlns="http://www.w3.org/2000/svg" xmlns:xlink="http://www.w3.org/1999/xlink" viewBox="0 0 3565.43 1144.28"><defs><style>.a{fill:none;}.b{clip-path:url(#a);}.c{fill:url(#b);}.d{clip-path:url(#c);}.e{fill:url(#d);}.f{fill:url(#e);}.g,.i,.l{fill:#fff;}.h{clip-path:url(#f);}.i{opacity:0.2;}.j{fill:url(#g);}.k{fill:url(#h);}.l{font-size:317.7px;font-family:Raleway-Bold, Raleway;font-weight:700;letter-spacing:0.01em;}.m{letter-spacing:0em;}.n{letter-spacing:0.01em;}.o{letter-spacing:-0.04em;}.p{letter-spacing:0.01em;}</style><clipPath id="a"><rect class="a" x="-60.02" y="-60.02" width="3697.48" height="1312.2"/></clipPath><linearGradient id="b" x1="4473.32" y1="2111.1" x2="297.45" y2="-104.83" gradientTransform="translate(115.32 -11.17)" gradientUnits="userSpaceOnUse"><stop offset="0" stop-color="#1abc9c"/><stop offset="0.54" stop-color="#1f7ea7"/><stop offset="1" stop-color="#16292e"/></linearGradient><clipPath id="c"><rect class="a" x="-20" y="1486.31" width="3233" height="1592"/></clipPath><linearGradient id="d" x1="4687.99" y1="3688.12" x2="512.12" y2="1472.19" gradientTransform="translate(0.41 0.25)" xlink:href="#b"/><linearGradient id="e" x1="739.77" y1="253.81" x2="134.03" y2="1145.2" gradientUnits="userSpaceOnUse"><stop offset="0" stop-color="#1abc9c"/><stop offset="1" stop-color="#1a5daf"/></linearGradient><clipPath id="f"><circle class="a" cx="523.44" cy="572.14" r="332.94"/></clipPath><linearGradient id="g" x1="523.09" y1="242.98" x2="429.56" y2="866.92" xlink:href="#e"/><linearGradient id="h" x1="622.92" y1="257.94" x2="529.4" y2="881.89" xlink:href="#e"/></defs><title>1.16.17</title><g class="b"><rect class="c" x="-383.78" y="-214.18" width="7193.25" height="3168" transform="translate(107.78 -229.35) rotate(4.16)"/></g><g class="d"><rect class="e" x="-284" y="1374.31" width="7193.25" height="3168" transform="translate(223.22 -232.4) rotate(4.16)"/></g><circle class="f" cx="523.44" cy="572.14" r="332.94"/><path class="g" d="M389.08,493.57h0l0,.19.07-.19Z"/><g class="h"><polygon class="i" points="824.89 574.96 720.62 830.16 665.44 699.92 715.75 576.99 688.57 576.99 647.59 679.23 607.02 576.99 580.24 576.99 630.55 699.92 575.78 830.16 471.1 574.96 418.53 451.16 472.67 320.92 576.94 576.12 607.78 576.12 485.66 288.06 460.5 288.06 400.05 429.43 339.19 288.06 314.44 288.06 192.72 576.12 223.15 576.12 327.83 320.92 382.6 451.16 332.29 574.09 359.07 574.09 399.64 471.85 440.67 574.96 562.39 863.02 587.14 863.02 648 720.61 708.45 863.02 733.61 863.02 855.73 574.96 824.89 574.96"/><path class="j" d="M547.77,702.23a105.43,105.43,0,0,1-24.32,2.83c-58.08,0-107.47-44.23-111-109.83-.45-8.22,4.19-29.5,6-37.19l-89.81-38.25c-9.16,23.17-14.19,53.68-14.19,80.11,0,112.55,96.5,203.79,209.05,203.79A203.24,203.24,0,0,0,599,789.23Z"/><path class="k" d="M523.44,385.25A203.05,203.05,0,0,0,438.6,403.7l50.58,85.89a105,105,0,0,1,34.26-5.71c51.41,0,105.91,43.11,111.17,96.15l-146.22.64,228,96.6c11.9-25.88,15.82-56.18,15.82-86.53C732.18,478.19,636,385.25,523.44,385.25Z"/><path class="g" d="M389.08,493.57h0l0,.19.07-.19Z"/><path class="g" d="M547.77,679.9a105.43,105.43,0,0,1-24.32,2.83c-58.08,0-107.47-44.23-111-109.83-.45-8.22,4.19-29.49,6-37.19l-89.81-38.25c-9.16,23.17-14.19,53.68-14.19,80.11,0,112.55,96.5,203.79,209.05,203.79A203.24,203.24,0,0,0,599,766.89Z"/><path class="g" d="M523.44,362.92a203.05,203.05,0,0,0-84.84,18.45l50.58,85.89a105,105,0,0,1,34.26-5.71c51.41,0,105.91,43.11,111.17,96.15l-146.22.64,228,96.6c11.9-25.89,15.82-56.18,15.82-86.53C732.18,455.85,636,362.92,523.44,362.92Z"/></g><text class="l" transform="translate(1056.99 671.58)">My<tspan class="m" x="455.9" y="0">E</tspan><tspan class="n" x="645.57" y="0">ther</tspan><tspan class="o" x="1285.42" y="0">W</tspan><tspan x="1607.25" y="0">all</tspan><tspan class="p" x="2000.56" y="0">e</tspan><tspan x="2192.77" y="0">t</tspan></text></svg>