<svg xmlns="http://www.w3.org/2000/svg" viewBox="0 0 4536 2198.38"><title>myetherwallet-circle</title><path d="M647.16,1522.78a336.19,336.19,0,1,1,131.26-26.5A335.11,335.11,0,0,1,647.16,1522.78Zm0-642.39A305.2,305.2,0,1,0,863,969.77,303.2,303.2,0,0,0,647.16,880.38Zm0,523a216.83,216.83,0,0,1-83.45-16.67,221.21,221.21,0,0,1-69.22-45.4c-41.92-40.48-65-93.94-65-150.53,0-28.61,5.53-59.7,14.8-83.16a16,16,0,0,1,21.15-8.84l86.64,36.9a16,16,0,0,1,9.31,18.35c-.27,1.16-.61,2.66-1,4.39q-.14.64-.33,1.26a90.25,90.25,0,0,0-3.86,22.1q0,.35,0,.69a23.13,23.13,0,0,0-.15,2.94l.07,1.07c0,.27,0,.55,0,.83a90.36,90.36,0,0,0,90.35,89.3,90.86,90.86,0,0,0,20.69-2.38,16,16,0,0,1,17.44,7.46l49.25,83.62a16,16,0,0,1-7.85,23A211.55,211.55,0,0,1,647.16,1403.42ZM468.9,1135.07a220.32,220.32,0,0,0-7.42,55.74c0,47.83,19.62,93.12,55.23,127.51,35.46,34.24,81.78,53.09,130.44,53.09a180.34,180.34,0,0,0,49.14-6.76l-33.62-57.09a123.16,123.16,0,0,1-16.22,1.07,122.36,122.36,0,0,1-122.34-120.48h0c0-.33,0-.65-.06-1a51.67,51.67,0,0,1,.21-7.25,122.54,122.54,0,0,1,2.71-20.12Zm364.35,146.39a16,16,0,0,1-6.24-1.27L607.1,1187a16,16,0,0,1,6.17-30.73l121.14-.53c-5.07-13.72-14.38-26.61-27.23-37.41-17.72-14.9-39.6-23.44-60-23.44a85.27,85.27,0,0,0-27.84,4.64,16,16,0,0,1-19-7l-48.8-82.86A16,16,0,0,1,558.64,987a210.9,210.9,0,0,1,88.52-19.25,213.87,213.87,0,0,1,83.48,17,221.32,221.32,0,0,1,69.11,46c41.77,40.88,64.77,94.6,64.77,151.27,0,36.2-5.47,65.69-16.72,90.17A16,16,0,0,1,833.25,1281.46Zm-141.95-93.53,133,56.36c5.52-17.4,8.22-38,8.22-62.31,0-98.78-84.89-182.23-185.37-182.23a179.54,179.54,0,0,0-58.62,9.71l33.11,56.22a117.65,117.65,0,0,1,25.51-2.78c27.84,0,57.22,11.28,80.62,30.94,24.62,20.7,39.73,47.77,42.55,76.24a16,16,0,0,1-15.85,17.58Z" style="fill:#1a96a4"/><path d="M1230.73,1059.06a16.38,16.38,0,0,1,16.09-16.09h3.71c7,0,12,3.71,15.26,8.66l103.14,155.12,103.14-155.12a17.5,17.5,0,0,1,15.26-8.66H1491a16.38,16.38,0,0,1,16.09,16.09v259.5c0,9.08-7.43,16.5-16.09,16.5a16.82,16.82,0,0,1-16.5-16.5V1103.21l-92.41,135.73c-3.71,5.36-7.84,8.25-13.61,8.25s-10.31-2.89-14-8.25l-92-135.32V1319a15.88,15.88,0,1,1-31.77,0Z" style="fill:#1a96a4"/><path d="M1564.85,1394.05c-5-2.06-9.9-6.19-9.9-13.61a13.73,13.73,0,0,1,13.61-13.61,24.12,24.12,0,0,1,7.84,1.65,65.57,65.57,0,0,0,23.1,3.71c19.8,0,31.35-12,42.91-38l1.65-3.3L1554.95,1142a22.17,22.17,0,0,1-2.06-8.66,15.76,15.76,0,0,1,16.09-15.68c8.66,0,13.2,5.36,16.09,12.38l74.26,167.5,66-167.91c2.48-6.6,7-12,15.26-12a15.67,15.67,0,0,1,15.68,15.68,26.63,26.63,0,0,1-1.65,7.84L1671.29,1340c-18.56,44.14-39.19,60.23-71.37,60.23C1585.89,1400.24,1575.58,1397.77,1564.85,1394.05Z" style="fill:#1a96a4"/><path d="M1801.65,1316.5V1060.71c0-9.08,7.43-16.5,16.09-16.5H1997.2a14.85,14.85,0,1,1,0,29.7h-163v98.6h144.39a15.06,15.06,0,0,1,14.85,14.85,14.79,14.79,0,0,1-14.85,14.85H1834.24v101.08h165a14.85,14.85,0,0,1,0,29.7H1817.74C1809.08,1333,1801.65,1325.57,1801.65,1316.5Z" style="fill:#1a96a4"/><path d="M2062.55,1276.48V1147.76h-17.33a14.46,14.46,0,0,1-14-14,14.17,14.17,0,0,1,14-14h17.33v-50.33c0-8.66,6.6-16.09,15.68-16.09a16.38,16.38,0,0,1,16.09,16.09v50.33h55.28c7.84,0,14.44,6.6,14.44,14a14.27,14.27,0,0,1-14.44,14h-55.28v124.59c0,26,14.44,35.48,35.89,35.48,11.14,0,16.91-2.89,19.39-2.89a13.74,13.74,0,0,1,13.61,13.61c0,5.78-3.71,10.31-9.08,12.38-9.08,3.71-19,5.78-31.35,5.78C2088.54,1336.71,2062.55,1319.8,2062.55,1276.48Z" style="fill:#1a96a4"/><path d="M2203.72,1045.86c0-8.66,7-16.09,15.68-16.09a16.11,16.11,0,0,1,16.09,16.09v111c14-23.1,36.3-41.67,73-41.67,51.57,0,81.69,34.65,81.69,85.4V1319a15.88,15.88,0,1,1-31.77,0V1208.41c0-39.6-21.45-64.36-59-64.36-36.72,0-63.95,26.82-63.95,66.83V1319c0,9.08-6.6,16.09-15.68,16.09a15.85,15.85,0,0,1-16.09-16.09Z" style="fill:#1a96a4"/><path d="M2542.71,1337.95c-58.58,0-106.44-45-106.44-111v-.83c0-61.47,43.32-111,102.31-111,63.12,0,99,51.57,99,108.09a14.79,14.79,0,0,1-14.85,14.85H2468.45c4.54,46.21,37.13,72.2,75.08,72.2,26.4,0,45.79-10.31,61.47-24.75a13.72,13.72,0,0,1,23.1,9.9,13.69,13.69,0,0,1-5,10.31C2602.94,1325.16,2579,1337.95,2542.71,1337.95Zm63.12-123.35c-3.3-38.78-25.58-72.61-68.07-72.61-37.13,0-65.18,30.94-69.31,72.61Z" style="fill:#1a96a4"/><path d="M2685.29,1133.73c0-8.66,7-16.09,15.68-16.09a15.85,15.85,0,0,1,16.09,16.09v40c15.68-35.48,46.62-56.93,73.43-56.93,9.49,0,15.68,7,15.68,16.09,0,8.66-5.78,14.85-14,16.09-41.25,5-75.08,35.89-75.08,97.36V1319c0,8.66-6.6,16.09-15.68,16.09a15.85,15.85,0,0,1-16.09-16.09Z" style="fill:#1a96a4"/><path d="M2828.65,1066.08a24.09,24.09,0,0,1-1.65-7.43c0-8.66,7.84-16.5,16.92-16.5,8.25,0,14.44,6.19,16.91,13.61l79.62,229.38,75.5-230.2c2.47-7.43,7.43-12.79,16.09-12.79h2.06c8.25,0,13.61,5.36,16.09,12.79l75.5,230.2,80-230.2c2.48-7.43,7.84-12.79,15.68-12.79,8.66,0,16.5,7.84,16.5,16.09,0,2.48-1.24,5.36-2.06,7.84l-92.41,256.61c-2.89,8.25-8.66,14-16.92,14H3124c-8.25,0-14-5.78-16.91-14l-75.08-222-74.67,222c-2.89,8.25-8.66,14-16.91,14H2938c-8.25,0-14-5.36-16.92-14Z" style="fill:#1a96a4"/><path d="M3250.69,1271.11v-.83c0-45,37.13-68.9,91.17-68.9a226.5,226.5,0,0,1,65.6,9.08V1203c0-38.37-23.51-58.17-63.53-58.17a133.16,133.16,0,0,0-55.28,12,16.21,16.21,0,0,1-5.78,1.24c-7.43,0-14-6.19-14-13.61a14.55,14.55,0,0,1,8.66-13.2,168.19,168.19,0,0,1,69.72-14.44c30.12,0,53.22,7.84,68.9,23.51,14.44,14.44,21.87,35.07,21.87,62.3v116.75c0,9.08-6.6,15.68-15.26,15.68-9.08,0-15.26-6.6-15.26-14.85v-19.39c-14.85,19.39-39.6,36.72-77.15,36.72C3290.7,1337.54,3250.69,1314.84,3250.69,1271.11Zm157.18-16.5V1234a222.48,222.48,0,0,0-62.71-9.08c-40,0-62.29,17.33-62.29,44.14v.83c0,26.82,24.75,42.49,53.63,42.49C3375.69,1312.37,3407.87,1288.44,3407.87,1254.61Z" style="fill:#1a96a4"/><path d="M3498.71,1045.86c0-8.66,7-16.09,15.68-16.09a16.11,16.11,0,0,1,16.09,16.09V1319c0,9.08-6.6,16.09-15.68,16.09a15.85,15.85,0,0,1-16.09-16.09Z" style="fill:#1a96a4"/><path d="M3594.33,1045.86c0-8.66,7-16.09,15.68-16.09a16.11,16.11,0,0,1,16.09,16.09V1319c0,9.08-6.6,16.09-15.68,16.09a15.85,15.85,0,0,1-16.09-16.09Z" style="fill:#1a96a4"/><path d="M3782.62,1337.95c-58.58,0-106.44-45-106.44-111v-.83c0-61.47,43.32-111,102.31-111,63.12,0,99,51.57,99,108.09a14.79,14.79,0,0,1-14.85,14.85H3708.36c4.54,46.21,37.13,72.2,75.08,72.2,26.4,0,45.79-10.31,61.47-24.75a13.72,13.72,0,0,1,23.1,9.9,13.69,13.69,0,0,1-5,10.31C3842.85,1325.16,3818.92,1337.95,3782.62,1337.95Zm63.12-123.35c-3.3-38.78-25.58-72.61-68.07-72.61-37.13,0-65.18,30.94-69.31,72.61Z" style="fill:#1a96a4"/><path d="M3930.06,1276.48V1147.76h-17.33a14.46,14.46,0,0,1-14-14,14.17,14.17,0,0,1,14-14h17.33v-50.33c0-8.66,6.6-16.09,15.68-16.09a16.38,16.38,0,0,1,16.09,16.09v50.33h55.28c7.84,0,14.44,6.6,14.44,14a14.27,14.27,0,0,1-14.44,14h-55.28v124.59c0,26,14.44,35.48,35.89,35.48,11.14,0,16.91-2.89,19.39-2.89a13.74,13.74,0,0,1,13.61,13.61c0,5.78-3.71,10.31-9.08,12.38-9.08,3.71-19,5.78-31.35,5.78C3956,1336.71,3930.06,1319.8,3930.06,1276.48Z" style="fill:#1a96a4"/></svg>