<svg xmlns="http://www.w3.org/2000/svg" xmlns:xlink="http://www.w3.org/1999/xlink" viewBox="0 0 3257.35 856.57"><defs><style>.a{fill:none;}.b{fill:url(#a);}.c,.e{fill:#fff;}.d{clip-path:url(#b);}.e{opacity:0.2;}.f{fill:url(#c);}.g{fill:url(#d);}</style><linearGradient id="a" x1="625.05" y1="121.95" x2="42.15" y2="979.73" gradientUnits="userSpaceOnUse"><stop offset="0" stop-color="#1abc9c"/><stop offset="1" stop-color="#1a5daf"/></linearGradient><clipPath id="b"><circle class="a" cx="416.88" cy="428.28" r="320.39"/></clipPath><linearGradient id="c" x1="416.53" y1="111.53" x2="326.54" y2="711.95" xlink:href="#a"/><linearGradient id="d" x1="512.6" y1="125.93" x2="422.61" y2="726.35" xlink:href="#a"/></defs><title>1.16.17</title><circle class="b" cx="416.88" cy="428.28" r="320.39"/><path class="c" d="M287.58,352.67h0l0,.18.07-.19Z"/><g class="d"><polygon class="e" points="706.97 431 606.62 676.58 553.52 551.25 601.94 432.95 575.78 432.95 536.35 531.34 497.3 432.95 471.54 432.95 519.95 551.25 467.24 676.58 366.51 431 315.92 311.86 368.02 186.53 468.36 432.11 498.04 432.11 380.52 154.91 356.31 154.91 298.13 290.95 239.57 154.91 215.75 154.91 98.63 432.11 127.91 432.11 228.64 186.53 281.35 311.86 232.93 430.16 258.7 430.16 297.74 331.77 337.23 431 454.36 708.2 478.17 708.2 536.74 571.16 594.91 708.2 619.12 708.2 736.64 431 706.97 431"/><path class="f" d="M440.28,553.47a101.45,101.45,0,0,1-23.4,2.73C361,556.2,313.46,513.63,310,450.51c-.43-7.91,4-28.38,5.76-35.79l-86.42-36.81c-8.81,22.3-13.65,51.66-13.65,77.09,0,108.31,92.86,196.11,201.17,196.11a195.58,195.58,0,0,0,72.71-13.92Z"/><path class="g" d="M416.88,248.44a195.4,195.4,0,0,0-81.64,17.75l48.68,82.66a101,101,0,0,1,33-5.5c49.47,0,101.92,41.49,107,92.53l-140.71.61,219.37,93c11.46-24.91,15.22-54.06,15.22-83.27C617.74,337.87,525.19,248.44,416.88,248.44Z"/><path class="c" d="M287.58,352.67h0l0,.18.07-.19Z"/><path class="c" d="M440.28,532a101.45,101.45,0,0,1-23.4,2.72C361,534.7,313.46,492.14,310,429c-.43-7.91,4-28.38,5.76-35.78l-86.42-36.81c-8.81,22.3-13.65,51.66-13.65,77.09,0,108.31,92.86,196.11,201.17,196.11a195.58,195.58,0,0,0,72.71-13.92Z"/><path class="c" d="M416.88,227a195.4,195.4,0,0,0-81.64,17.75l48.68,82.66a101,101,0,0,1,33-5.5c49.47,0,101.92,41.49,107,92.53L383.15,415l219.37,93C614,483,617.74,453.9,617.74,424.69,617.74,316.38,525.19,227,416.88,227Z"/></g><path class="c" d="M1129.95,524V380.28l-55.95,107h-22.93l-55.95-107V524H952.93V306.91h45.25l64.2,123.51,64.81-123.51h44.94V524Z"/><path class="c" d="M1219.83,555.16a79.69,79.69,0,0,0,10.09,2.29,55.37,55.37,0,0,0,8.25.76,17.57,17.57,0,0,0,7.34-1.53,15.76,15.76,0,0,0,6.11-5.35,52.35,52.35,0,0,0,5.5-10.55q2.75-6.73,5.81-16.82l-63.29-160.2h42.19l43.41,124.74,38.52-124.74h38.52l-67.26,192a57.42,57.42,0,0,1-19.87,27.51Q1261.1,594,1240.31,594a66.62,66.62,0,0,1-9.94-.76,63.68,63.68,0,0,1-10.55-2.6Z"/><path class="c" d="M1542.37,487v37H1391.64V306.91h148v37H1433.83v52.28h91.41v34.24h-91.41V487Z"/><path class="c" d="M1666.19,515.72a182.77,182.77,0,0,1-20.18,7.34,84.8,84.8,0,0,1-25.07,3.67,58.28,58.28,0,0,1-16.05-2.14,35.17,35.17,0,0,1-13.15-6.88,33.5,33.5,0,0,1-9-12.23q-3.37-7.49-3.36-18.19v-92h-21.1V363.77h21.1v-52h41v52H1654v31.49h-33.63v78.27q0,8.56,4.43,12.08a16.91,16.91,0,0,0,10.85,3.52,37.64,37.64,0,0,0,12.53-2.14q6.11-2.13,9.78-3.67Z"/><path class="c" d="M1839.53,524h-41V434.09q0-19-7-28t-19.87-9a31.32,31.32,0,0,0-11.62,2.45,45.46,45.46,0,0,0-11.62,6.88A58.7,58.7,0,0,0,1738.33,417a41.66,41.66,0,0,0-6.73,13.45V524h-41V300.79h41v92.63a61.75,61.75,0,0,1,24-24,67.78,67.78,0,0,1,33.48-8.41q15.59,0,25.38,5.35a40.4,40.4,0,0,1,15.29,14.22,58.58,58.58,0,0,1,7.64,20.18,125,125,0,0,1,2.14,23.24Z"/><path class="c" d="M1952.65,527a88.94,88.94,0,0,1-34.85-6.57,78.61,78.61,0,0,1-43.57-44.18,84.37,84.37,0,0,1-6-31.49,89.2,89.2,0,0,1,5.81-32.25,78.67,78.67,0,0,1,16.82-26.6,80.27,80.27,0,0,1,26.75-18.19Q1933.38,361,1953,361t35,6.73a80.62,80.62,0,0,1,26.29,18,76.81,76.81,0,0,1,16.51,26.29,87.62,87.62,0,0,1,5.66,31.18q0,4-.15,7.64a31.45,31.45,0,0,1-.76,6.11H1911.68a47.51,47.51,0,0,0,4.59,16.81,41.18,41.18,0,0,0,22.62,20.48,43.17,43.17,0,0,0,15.29,2.75,47.25,47.25,0,0,0,23.08-6q10.85-6,14.83-15.75l35.16,9.78q-8.87,18.34-28.28,30.11T1952.65,527Zm41.58-96.61q-1.53-18-13.3-28.89t-28.58-10.85a40.82,40.82,0,0,0-15.44,2.9,40.34,40.34,0,0,0-12.69,8.1,42,42,0,0,0-9,12.54,44.12,44.12,0,0,0-4.13,16.2Z"/><path class="c" d="M2159.93,399.24q-18.65.31-33.32,7.18t-21.09,20.64V524h-41V363.77h37.6V398a73,73,0,0,1,10.09-14.83,77.69,77.69,0,0,1,12.54-11.46,58.23,58.23,0,0,1,13.6-7.49,37.61,37.61,0,0,1,13.3-2.6h5a16.6,16.6,0,0,1,3.21.31Z"/><path class="c" d="M2264.79,307.52h38.83l24.46,71.85,24.46-71.85h39.13l-37,98.75,27.52,69.4,61.45-168.76h45.86L2401.15,524h-35.46l-37.6-91.11L2290.47,524H2255l-87.74-217.07h45.25l61.76,168.76,26.9-69.4Z"/><path class="c" d="M2539.34,527a60.77,60.77,0,0,1-21.71-3.82,52.14,52.14,0,0,1-17.43-10.7,49.82,49.82,0,0,1-11.46-16.05,48.6,48.6,0,0,1-4.13-20.18,44.46,44.46,0,0,1,5-20.94A48,48,0,0,1,2503.72,439a69.82,69.82,0,0,1,21.55-10.55,94.07,94.07,0,0,1,27.52-3.82,118.63,118.63,0,0,1,20.94,1.83,85.46,85.46,0,0,1,18.19,5.2v-9.17q0-15.89-9-24.46t-26.75-8.56a70.84,70.84,0,0,0-25.07,4.59A116.46,116.46,0,0,0,2506,407.49l-12.54-26Q2524.35,361,2560.13,361q34.54,0,53.65,17t19.11,49.07v49.83q0,6.42,2.29,9.17t7.49,3.06V524a91.47,91.47,0,0,1-18,2.14q-11.62,0-17.88-5.2a22.32,22.32,0,0,1-7.8-13.76l-.92-8.87a70.93,70.93,0,0,1-26,21.4A74.63,74.63,0,0,1,2539.34,527Zm11.62-30a53.41,53.41,0,0,0,19.72-3.67q9.32-3.67,14.52-9.78,6.72-5.19,6.73-11.62V453.66a100.57,100.57,0,0,0-15.9-4.43,85.88,85.88,0,0,0-16.51-1.68q-15.9,0-26,7.18t-10.09,18.19a21.88,21.88,0,0,0,7.95,17.27Q2539.33,497.07,2551,497.07Z"/><path class="c" d="M2673.85,300.79h41V472.61q0,8.87,4.28,13.76t12.23,4.89a30.65,30.65,0,0,0,8.1-1.22,54.68,54.68,0,0,0,8.41-3.06l5.5,31.18a79,79,0,0,1-19.26,6.11,105.35,105.35,0,0,1-19.87,2.14q-19.26,0-29.81-10.24T2673.85,487Z"/><path class="c" d="M2773.82,300.79h41V472.61q0,8.87,4.28,13.76t12.23,4.89a30.65,30.65,0,0,0,8.1-1.22,54.68,54.68,0,0,0,8.41-3.06l5.5,31.18a79,79,0,0,1-19.26,6.11,105.35,105.35,0,0,1-19.87,2.14q-19.26,0-29.81-10.24T2773.82,487Z"/><path class="c" d="M2948.39,527a88.94,88.94,0,0,1-34.85-6.57A78.61,78.61,0,0,1,2870,476.28a84.37,84.37,0,0,1-6-31.49,89.2,89.2,0,0,1,5.81-32.25,78.67,78.67,0,0,1,16.82-26.6,80.27,80.27,0,0,1,26.75-18.19q15.74-6.72,35.31-6.73t35,6.73a80.62,80.62,0,0,1,26.29,18,76.81,76.81,0,0,1,16.51,26.29,87.62,87.62,0,0,1,5.66,31.18q0,4-.15,7.64a31.45,31.45,0,0,1-.76,6.11H2907.42a47.51,47.51,0,0,0,4.59,16.81,41.18,41.18,0,0,0,22.62,20.48,43.17,43.17,0,0,0,15.29,2.75,47.25,47.25,0,0,0,23.08-6q10.85-6,14.83-15.75l35.16,9.78q-8.87,18.34-28.28,30.11T2948.39,527ZM2990,430.42q-1.53-18-13.3-28.89t-28.59-10.85a40.82,40.82,0,0,0-15.44,2.9,40.34,40.34,0,0,0-12.69,8.1,42,42,0,0,0-9,12.54,44.12,44.12,0,0,0-4.13,16.2Z"/><path class="c" d="M3155.06,515.72a182.78,182.78,0,0,1-20.18,7.34,84.8,84.8,0,0,1-25.07,3.67,58.28,58.28,0,0,1-16.05-2.14,35.17,35.17,0,0,1-13.15-6.88,33.5,33.5,0,0,1-9-12.23q-3.37-7.49-3.36-18.19v-92h-21.1V363.77h21.1v-52h41v52h33.63v31.49H3109.2v78.27q0,8.56,4.43,12.08a16.91,16.91,0,0,0,10.85,3.52A37.64,37.64,0,0,0,3137,487q6.11-2.13,9.78-3.67Z"/></svg>