<svg xmlns="http://www.w3.org/2000/svg" xmlns:xlink="http://www.w3.org/1999/xlink" viewBox="0 0 3191 1511.53"><defs><style>.a{fill:none;}.b{clip-path:url(#a);}.c{fill:url(#b);}.d{clip-path:url(#c);}.e{fill:url(#d);}.f{fill:url(#e);}.g,.i,.l{fill:#fff;}.h{clip-path:url(#f);}.i{opacity:0.2;}.j{fill:url(#g);}.k{fill:url(#h);}.l{font-size:373.25px;font-family:Raleway-Bold, Raleway;font-weight:700;letter-spacing:0.01em;}.m{letter-spacing:0em;}.n{letter-spacing:-0.04em;}.o{letter-spacing:0.01em;}</style><clipPath id="a"><rect class="a" x="-60.02" y="-1581.33" width="3697.48" height="1312.2"/></clipPath><linearGradient id="b" x1="4473.32" y1="589.79" x2="297.45" y2="-1626.14" gradientTransform="translate(115.33 -11.12)" gradientUnits="userSpaceOnUse"><stop offset="0" stop-color="#1abc9c"/><stop offset="0.54" stop-color="#1f7ea7"/><stop offset="1" stop-color="#16292e"/></linearGradient><clipPath id="c"><rect class="a" x="-20" y="-35" width="3233" height="1592"/></clipPath><linearGradient id="d" x1="4687.99" y1="2166.81" x2="512.12" y2="-49.12" gradientTransform="translate(0.42 0.3)" xlink:href="#b"/><linearGradient id="e" x1="1826.82" y1="136.4" x2="1175.86" y2="1094.34" gradientUnits="userSpaceOnUse"><stop offset="0" stop-color="#1abc9c"/><stop offset="1" stop-color="#1a5daf"/></linearGradient><clipPath id="f"><circle class="a" cx="1594.35" cy="478.5" r="357.8"/></clipPath><linearGradient id="g" x1="1593.96" y1="124.76" x2="1493.46" y2="795.29" xlink:href="#e"/><linearGradient id="h" x1="1701.25" y1="140.84" x2="1600.74" y2="811.37" xlink:href="#e"/></defs><title>1.16.17</title><g class="b"><rect class="c" x="-383.78" y="-1735.49" width="7193.25" height="3168" transform="translate(-2.53 -233.35) rotate(4.16)"/></g><g class="d"><rect class="e" x="-284" y="-147" width="7193.25" height="3168" transform="translate(112.91 -236.4) rotate(4.16)"/></g><circle class="f" cx="1594.35" cy="478.5" r="357.8"/><path class="g" d="M1450,394.06h0l.05.21.08-.21Z"/><g class="h"><polygon class="i" points="1918.31 481.53 1806.25 755.78 1746.95 615.82 1801.02 483.71 1771.8 483.71 1727.76 593.58 1684.16 483.71 1655.38 483.71 1709.45 615.82 1650.59 755.78 1538.1 481.53 1481.6 348.48 1539.79 208.52 1651.84 482.78 1684.98 482.78 1553.74 173.2 1526.7 173.2 1461.74 325.13 1396.34 173.2 1369.74 173.2 1238.93 482.78 1271.63 482.78 1384.13 208.52 1442.99 348.48 1388.92 480.6 1417.7 480.6 1461.3 370.72 1505.39 481.53 1636.2 791.1 1662.8 791.1 1728.2 638.06 1793.17 791.1 1820.2 791.1 1951.44 481.53 1918.31 481.53"/><path class="j" d="M1620.48,618.31a113.3,113.3,0,0,1-26.14,3c-62.42,0-115.5-47.54-119.33-118-.48-8.84,4.5-31.7,6.43-40l-96.51-41.11c-9.84,24.9-15.24,57.69-15.24,86.09,0,121,103.7,219,224.66,219a218.42,218.42,0,0,0,81.19-15.55Z"/><path class="k" d="M1594.35,277.66a218.21,218.21,0,0,0-91.18,19.83l54.36,92.31a112.81,112.81,0,0,1,36.82-6.14c55.25,0,113.82,46.33,119.47,103.33l-157.14.68,245,103.81c12.79-27.82,17-60.37,17-93C1818.66,377.53,1715.3,277.66,1594.35,277.66Z"/><path class="g" d="M1450,394.06h0l.05.21.08-.21Z"/><path class="g" d="M1620.48,594.3a113.3,113.3,0,0,1-26.14,3c-62.42,0-115.5-47.53-119.33-118-.48-8.84,4.5-31.7,6.43-40l-96.51-41.11c-9.84,24.9-15.24,57.69-15.24,86.09,0,121,103.7,219,224.66,219a218.41,218.41,0,0,0,81.19-15.55Z"/><path class="g" d="M1594.35,253.66a218.21,218.21,0,0,0-91.18,19.83l54.36,92.31a112.81,112.81,0,0,1,36.82-6.14c55.25,0,113.82,46.33,119.47,103.33l-157.14.68,245,103.81c12.79-27.82,17-60.37,17-93C1818.66,353.53,1715.3,253.66,1594.35,253.66Z"/></g><text class="l" transform="translate(233.91 1305.36)">My<tspan class="m" x="535.6" y="0">E</tspan><tspan x="758.43" y="0">ther</tspan><tspan class="n" x="1510.14" y="0">W</tspan><tspan x="1888.24" y="0">all</tspan><tspan class="o" x="2350.3" y="0">e</tspan><tspan x="2576.12" y="0">t</tspan></text></svg>