<?xml version="1.0" encoding="iso-8859-1"?>
<!-- Generator: Adobe Illustrator 19.0.0, SVG Export Plug-In . SVG Version: 6.00 Build 0)  -->
<svg version="1.1" id="Capa_1" xmlns="http://www.w3.org/2000/svg" xmlns:xlink="http://www.w3.org/1999/xlink" x="0px" y="0px"
	 viewBox="0 0 512 512" style="enable-background:new 0 0 512 512;" xml:space="preserve">
<path style="fill:#303C42;" d="M469.333,85.333c0-23.531-19.146-42.667-42.667-42.667h-64v-32C362.667,4.771,357.896,0,352,0
	c-5.896,0-10.667,4.771-10.667,10.667v32h-192v-32C149.333,4.771,144.563,0,138.667,0S128,4.771,128,10.667v32H42.667
	C19.146,42.667,0,61.802,0,85.333v341.333c0,23.531,19.146,42.667,42.667,42.667h309.313v-0.004l0.021,0.004
	c2.771,0,5.5-1.083,7.542-3.125l106.667-106.667c2.034-2.042,2.708-4.767,2.711-7.542h0.414V85.333z"/>
<path style="fill:#D32F2F;" d="M42.667,64H128v21.333c-11.771,0-21.333,9.573-21.333,21.333S116.229,128,128,128
	c11.771,0,21.333-9.573,21.333-21.333V64h192v21.333c-11.771,0-21.333,9.573-21.333,21.333S329.563,128,341.333,128
	s21.333-9.573,21.333-21.333V64h64C438.438,64,448,73.573,448,85.333v64H21.333v-64C21.333,73.573,30.896,64,42.667,64z"/>
<g>
	<rect x="149.333" y="64" style="opacity:0.2;fill:#FFFFFF;enable-background:new    ;" width="192" height="10.667"/>
	<path style="opacity:0.2;fill:#FFFFFF;enable-background:new    ;" d="M42.667,74.667H128V64H42.667
		c-11.771,0-21.333,9.573-21.333,21.333V96C21.333,84.24,30.896,74.667,42.667,74.667z"/>
	<path style="opacity:0.2;fill:#FFFFFF;enable-background:new    ;" d="M426.667,64h-64v10.667h64C438.438,74.667,448,84.24,448,96
		V85.333C448,73.573,438.438,64,426.667,64z"/>
	<path style="fill:#FFFFFF;" d="M341.333,384v64H42.667c-11.771,0-21.333-9.573-21.333-21.333v-256H448v170.667h-64
		C360.479,341.333,341.333,360.469,341.333,384z"/>
</g>
<path style="fill:#E6E6E6;" d="M362.667,432.917V384c0-11.76,9.563-21.333,21.333-21.333h48.917L362.667,432.917z"/>
<linearGradient id="SVGID_1_" gradientUnits="userSpaceOnUse" x1="-40.7031" y1="643.4844" x2="-26.7031" y2="629.4844" gradientTransform="matrix(21.3333 0 0 -21.3333 996.3334 13791.667)">
	<stop  offset="0" style="stop-color:#000000;stop-opacity:0.1"/>
	<stop  offset="1" style="stop-color:#000000;stop-opacity:0"/>
</linearGradient>
<path style="fill:url(#SVGID_1_);" d="M341.333,448v-64c0-23.531,19.146-42.667,42.667-42.667h64V170.667H21.333L298.667,448
	H341.333z"/>
<g>
	<path style="fill:#303C42;" d="M192,234.667c-23.521,0-42.667,19.135-42.667,42.667c0,5.896,4.771,10.667,10.667,10.667
		c5.896,0,10.667-4.771,10.667-10.667c0-11.76,9.563-21.333,21.333-21.333c11.771,0,21.333,9.573,21.333,21.333
		s-9.563,21.333-21.333,21.333c-5.896,0-10.667,4.771-10.667,10.667S186.104,320,192,320c11.771,0,21.333,9.573,21.333,21.333
		s-9.563,21.333-21.333,21.333c-11.771,0-21.333-9.573-21.333-21.333c0-5.896-4.771-10.667-10.667-10.667
		c-5.896,0-10.667,4.771-10.667,10.667C149.333,364.865,168.479,384,192,384s42.667-19.135,42.667-42.667
		c0-12.729-5.604-24.177-14.479-32c8.875-7.823,14.479-19.271,14.479-32C234.667,253.802,215.521,234.667,192,234.667z"/>
	<path style="fill:#303C42;" d="M288,234.667c0,0,0,0-0.021,0l-21.292,0.021c-5.896,0.01-10.667,4.781-10.667,10.677
		c0,5.885,4.771,10.656,10.667,10.656c0,0,0,0,0.021,0l10.625-0.01v117.323c0,5.896,4.771,10.667,10.667,10.667
		c5.896,0,10.667-4.771,10.667-10.667v-128c0-2.833-1.125-5.542-3.125-7.542S290.833,234.667,288,234.667z"/>
	<circle style="fill:#303C42;" cx="394.667" cy="394.667" r="117.333"/>
</g>
<circle style="fill:#7CB342;" cx="394.667" cy="394.667" r="96"/>
<path style="fill:#303C42;" d="M437.333,384h-32v-32c0-5.896-4.771-10.667-10.667-10.667c-5.896,0-10.667,4.771-10.667,10.667v32
	h-32c-5.896,0-10.667,4.771-10.667,10.667c0,5.896,4.771,10.667,10.667,10.667h32v32c0,5.896,4.771,10.667,10.667,10.667
	c5.896,0,10.667-4.771,10.667-10.667v-32h32c5.896,0,10.667-4.771,10.667-10.667C448,388.771,443.229,384,437.333,384z"/>
<linearGradient id="SVGID_2_" gradientUnits="userSpaceOnUse" x1="-47.9315" y1="640.2933" x2="-22.0278" y2="628.2139" gradientTransform="matrix(21.3333 0 0 -21.3333 996.3334 13791.667)">
	<stop  offset="0" style="stop-color:#FFFFFF;stop-opacity:0.2"/>
	<stop  offset="1" style="stop-color:#FFFFFF;stop-opacity:0"/>
</linearGradient>
<path style="fill:url(#SVGID_2_);" d="M469.333,304.228V85.333c0-23.531-19.146-42.667-42.667-42.667h-64v-32
	C362.667,4.771,357.896,0,352,0c-5.896,0-10.667,4.771-10.667,10.667v32h-192v-32C149.333,4.771,144.563,0,138.667,0
	S128,4.771,128,10.667v32H42.667C19.146,42.667,0,61.802,0,85.333v341.333c0,23.531,19.146,42.667,42.667,42.667h261.561
	C325.767,495.376,358.31,512,394.667,512C459.365,512,512,459.365,512,394.667C512,358.31,495.376,325.767,469.333,304.228z"/>
<g>
</g>
<g>
</g>
<g>
</g>
<g>
</g>
<g>
</g>
<g>
</g>
<g>
</g>
<g>
</g>
<g>
</g>
<g>
</g>
<g>
</g>
<g>
</g>
<g>
</g>
<g>
</g>
<g>
</g>
</svg>
