<?xml version="1.0" encoding="iso-8859-1"?>
<!-- Generator: Adobe Illustrator 19.0.0, SVG Export Plug-In . SVG Version: 6.00 Build 0)  -->
<svg version="1.1" id="Capa_1" xmlns="http://www.w3.org/2000/svg" xmlns:xlink="http://www.w3.org/1999/xlink" x="0px" y="0px"
	 viewBox="0 0 469.333 469.333" style="enable-background:new 0 0 469.333 469.333;" xml:space="preserve">
<path style="fill:#303C42;" d="M234.667,64c-105.865,0-192,86.135-192,192c0,47.589,17.507,91.098,46.285,124.681l-24.421,74.673
	c-1.542,4.688,0.344,9.823,4.552,12.406c1.729,1.052,3.656,1.573,5.583,1.573c2.75,0,5.49-1.063,7.542-3.125l48.829-48.829
	C160.969,436.668,196.49,448,234.667,448s73.698-11.332,103.629-30.621l48.829,48.829c2.052,2.063,4.792,3.125,7.542,3.125
	c1.927,0,3.854-0.521,5.583-1.573c4.208-2.583,6.094-7.719,4.552-12.406l-24.421-74.673c28.779-33.583,46.285-77.092,46.285-124.681
	C426.667,150.135,340.531,64,234.667,64z"/>
<path style="fill:#D32F2F;" d="M98.677,419.573l7.09-21.693c2.552,2.322,5.049,4.697,7.724,6.879L98.677,419.573z"/>
<circle style="fill:#E6E6E6;" cx="234.667" cy="256" r="170.667"/>
<path style="opacity:0.1;enable-background:new    ;" d="M85.333,277.333c0-94.104,76.563-170.667,170.667-170.667
	c41.632,0,79.793,15.026,109.448,39.885c-31.332-37.376-78.309-61.219-130.781-61.219C140.563,85.333,64,161.896,64,256
	c0,52.473,23.842,99.449,61.219,130.781C100.359,357.126,85.333,318.965,85.333,277.333z"/>
<g>
	<path style="fill:#303C42;" d="M163.885,43.198c2-2,3.125-4.719,3.125-7.542c0-2.833-1.125-5.542-3.125-7.542
		C145.74,9.979,121.635,0,96,0C43.063,0,0,43.063,0,96c0,25.635,9.979,49.74,28.115,67.885c2,2,4.708,3.125,7.542,3.125
		c2.833,0,5.542-1.125,7.542-3.125L163.885,43.198z"/>
	<path style="fill:#303C42;" d="M373.333,0c-25.635,0-49.74,9.979-67.885,28.115c-2,2-3.125,4.708-3.125,7.542
		c0,2.823,1.125,5.542,3.125,7.542l120.688,120.688c2,2,4.719,3.125,7.542,3.125c2.833,0,5.542-1.125,7.542-3.125
		c18.135-18.146,28.115-42.25,28.115-67.885C469.333,43.063,426.271,0,373.333,0z"/>
</g>
<g>
	<path style="fill:#D32F2F;" d="M355.842,404.759c2.674-2.182,5.172-4.557,7.724-6.879l7.09,21.693L355.842,404.759z"/>
	<path style="fill:#D32F2F;" d="M21.333,96c0-41.167,33.5-74.667,74.667-74.667c16.344,0,31.885,5.219,44.729,14.854L36.188,140.729
		C26.552,127.885,21.333,112.344,21.333,96z"/>
	<path style="fill:#D32F2F;" d="M433.146,140.729L328.604,36.188c12.844-9.635,28.385-14.854,44.729-14.854
		C414.5,21.333,448,54.833,448,96C448,112.344,442.781,127.885,433.146,140.729z"/>
</g>
<path style="fill:#303C42;" d="M254.948,261.197c0.441-1.706,1.052-3.354,1.052-5.197c0-7.792-4.409-14.329-10.667-18.053v-99.28
	c0-5.896-4.771-10.667-10.667-10.667S224,132.771,224,138.667v99.28c-6.258,3.724-10.667,10.262-10.667,18.053
	c0,11.76,9.573,21.333,21.333,21.333c1.842,0,3.492-0.612,5.199-1.053l51.27,51.262c2.083,2.083,4.813,3.125,7.542,3.125
	s5.458-1.042,7.542-3.125c4.167-4.167,4.167-10.917,0-15.083L254.948,261.197z"/>
<linearGradient id="SVGID_1_" gradientUnits="userSpaceOnUse" x1="-55.7285" y1="618.0351" x2="-55.7275" y2="618.0351" gradientTransform="matrix(21.3333 0 0 -21.3333 1430.1112 13315.2227)">
	<stop  offset="0" style="stop-color:#000000;stop-opacity:0.1"/>
	<stop  offset="1" style="stop-color:#000000;stop-opacity:0"/>
</linearGradient>
<polygon style="fill:url(#SVGID_1_);" points="241.249,130.474 241.247,130.473 241.247,130.473 "/>
<linearGradient id="SVGID_2_" gradientUnits="userSpaceOnUse" x1="-57.5394" y1="616.0721" x2="-49.1769" y2="607.7116" gradientTransform="matrix(21.3333 0 0 -21.3333 1430.1112 13315.2227)">
	<stop  offset="0" style="stop-color:#000000;stop-opacity:0.1"/>
	<stop  offset="1" style="stop-color:#000000;stop-opacity:0"/>
</linearGradient>
<path style="fill:url(#SVGID_2_);" d="M242.859,132.085c1.469,1.828,2.474,4.052,2.474,6.582v99.28
	C251.591,241.671,256,248.208,256,256c0,1.842-0.611,3.491-1.052,5.197l51.271,51.262c4.167,4.167,4.167,10.917,0,15.083
	c-2.083,2.083-4.813,3.125-7.542,3.125s-5.458-1.042-7.542-3.125l-51.27-51.262c-1.707,0.441-3.357,1.053-5.199,1.053
	c-3.772,0-7.135-1.249-10.215-2.975l-0.034,0.286l115.46,115.46c31.021-24.391,53.478-59.182,61.832-99.169L242.859,132.085z"/>
<linearGradient id="SVGID_3_" gradientUnits="userSpaceOnUse" x1="-67.9536" y1="618.6813" x2="-45.4111" y2="608.17" gradientTransform="matrix(21.3333 0 0 -21.3333 1430.1112 13315.2227)">
	<stop  offset="0" style="stop-color:#FFFFFF;stop-opacity:0.2"/>
	<stop  offset="1" style="stop-color:#FFFFFF;stop-opacity:0"/>
</linearGradient>
<path style="fill:url(#SVGID_3_);" d="M234.667,64c-105.865,0-192,86.135-192,192c0,47.589,17.507,91.098,46.285,124.681
	l-24.421,74.673c-1.542,4.688,0.344,9.823,4.552,12.406c1.729,1.052,3.656,1.573,5.583,1.573c2.75,0,5.49-1.063,7.542-3.125
	l48.829-48.829C160.969,436.668,196.49,448,234.667,448s73.698-11.332,103.629-30.621l48.829,48.829
	c2.052,2.063,4.792,3.125,7.542,3.125c1.927,0,3.854-0.521,5.583-1.573c4.208-2.583,6.094-7.719,4.552-12.406l-24.421-74.673
	c28.779-33.583,46.285-77.092,46.285-124.681C426.667,150.135,340.531,64,234.667,64z M163.885,43.198c2-2,3.125-4.719,3.125-7.542
	c0-2.833-1.125-5.542-3.125-7.542C145.74,9.979,121.635,0,96,0C43.063,0,0,43.063,0,96c0,25.635,9.979,49.74,28.115,67.885
	c2,2,4.708,3.125,7.542,3.125c2.833,0,5.542-1.125,7.542-3.125L163.885,43.198z M373.333,0c-25.635,0-49.74,9.979-67.885,28.115
	c-2,2-3.125,4.708-3.125,7.542c0,2.823,1.125,5.542,3.125,7.542l120.688,120.688c2,2,4.719,3.125,7.542,3.125
	c2.833,0,5.542-1.125,7.542-3.125c18.135-18.146,28.115-42.25,28.115-67.885C469.333,43.063,426.271,0,373.333,0z"/>
<g>
</g>
<g>
</g>
<g>
</g>
<g>
</g>
<g>
</g>
<g>
</g>
<g>
</g>
<g>
</g>
<g>
</g>
<g>
</g>
<g>
</g>
<g>
</g>
<g>
</g>
<g>
</g>
<g>
</g>
</svg>
