<?xml version="1.0" encoding="iso-8859-1"?>
<!-- Generator: Adobe Illustrator 19.0.0, SVG Export Plug-In . SVG Version: 6.00 Build 0)  -->
<svg version="1.1" id="Layer_1" xmlns="http://www.w3.org/2000/svg" xmlns:xlink="http://www.w3.org/1999/xlink" x="0px" y="0px"
	 viewBox="0 0 512 512" style="enable-background:new 0 0 512 512;" xml:space="preserve">
<rect x="56.295" y="445.577" style="fill:#898890;" width="399.411" height="58.807"/>
<path style="fill:#FF3502;" d="M256,88.018L256,88.018c-91.026,0-164.817,73.791-164.817,164.817v192.746h329.636V252.836
	C420.817,161.809,347.026,88.018,256,88.018z"/>
<path style="fill:#CD2A01;" d="M289.266,91.378c-10.744-2.202-21.87-3.359-33.266-3.359l0,0
	c-91.026,0-164.817,73.791-164.817,164.817v192.746h66.533V252.836C157.715,173.205,214.186,106.765,289.266,91.378z"/>
<rect x="91.186" y="400.324" style="fill:#ACABB1;" width="329.639" height="45.26"/>
<rect x="91.186" y="400.324" style="fill:#898890;" width="66.535" height="45.26"/>
<rect x="56.295" y="445.577" style="fill:#77767E;" width="66.535" height="58.503"/>
<g>
	<path style="fill:#FEBCAC;" d="M370.15,189.096c-14.285-25.39-36.925-45.542-63.747-56.744l5.867-14.048
		c29.939,12.504,55.205,34.994,71.146,63.327L370.15,189.096z"/>
	<path style="fill:#FEBCAC;" d="M383.396,223.034c-1.814-7.697-4.35-15.274-7.539-22.519l13.934-6.131
		c3.562,8.095,6.396,16.559,8.421,25.16L383.396,223.034z"/>
</g>
<path d="M428.429,392.711V252.836c0-95.078-77.352-172.429-172.429-172.429c-95.078,0-172.429,77.352-172.429,172.429v139.875v45.26
	H48.685V512h414.629v-74.029h-34.885L428.429,392.711L428.429,392.711z M98.794,252.836C98.794,166.152,169.316,95.63,256,95.63
	s157.206,70.522,157.206,157.206v139.875H98.794V252.836z M98.794,407.934h314.413v30.037H98.794V407.934z M448.091,453.194v43.583
	H63.908v-7.592H177.2v-15.223H63.908v-20.768h19.663H428.43L448.091,453.194L448.091,453.194z"/>
<rect x="248.389" width="15.223" height="41.691"/>
<rect x="466.504" y="244.583" width="41.691" height="15.223"/>
<rect x="3.806" y="244.583" width="41.691" height="15.223"/>
<rect x="411.972" y="67.752" transform="matrix(-0.7071 -0.7071 0.7071 -0.7071 653.626 447.9356)" width="15.223" height="41.69"/>
<rect x="71.56" y="80.996" transform="matrix(-0.7071 -0.7071 0.7071 -0.7071 95.0907 216.6026)" width="41.69" height="15.223"/>
<rect x="188.999" y="473.963" width="45.257" height="15.223"/>
<g>
</g>
<g>
</g>
<g>
</g>
<g>
</g>
<g>
</g>
<g>
</g>
<g>
</g>
<g>
</g>
<g>
</g>
<g>
</g>
<g>
</g>
<g>
</g>
<g>
</g>
<g>
</g>
<g>
</g>
</svg>
