<?xml version="1.0" encoding="iso-8859-1"?>
<!-- Generator: Adobe Illustrator 19.0.0, SVG Export Plug-In . SVG Version: 6.00 Build 0)  -->
<svg version="1.1" id="Capa_1" xmlns="http://www.w3.org/2000/svg" xmlns:xlink="http://www.w3.org/1999/xlink" x="0px" y="0px"
	 viewBox="0 0 469.333 469.333" style="enable-background:new 0 0 469.333 469.333;" xml:space="preserve">
<path style="fill:#303C42;" d="M412.917,338.177C400.708,319.958,384,295.01,384,224v-32c0-67.512-45.066-124.63-106.667-143.043
	v-6.29C277.333,19.135,258.188,0,234.667,0S192,19.135,192,42.667v6.29C130.401,67.37,85.333,124.488,85.333,192v32
	c0,71.01-16.708,95.958-28.917,114.177c-7.063,10.552-13.75,20.521-13.75,35.156c0,34.775,72.495,46.978,131.271,51.181
	c8.241,26.383,32.432,44.819,60.729,44.819s52.488-18.436,60.729-44.819c58.776-4.203,131.271-16.406,131.271-51.181
	C426.667,358.698,419.979,348.729,412.917,338.177z M256,44.371c-6.987-1.007-14.072-1.704-21.333-1.704s-14.346,0.698-21.333,1.704
	v-1.704c0-11.76,9.563-21.333,21.333-21.333S256,30.906,256,42.667V44.371z"/>
<path style="fill:#FFCA28;" d="M234.667,448c-15.944,0-29.947-8.799-37.221-22.147c15.115,0.638,28.24,0.814,37.221,0.814
	c8.983,0,22.107-0.176,37.223-0.814C264.615,439.201,250.611,448,234.667,448z"/>
<path style="opacity:0.1;enable-background:new    ;" d="M234.667,448c-15.944,0-29.947-8.799-37.221-22.147
	c15.115,0.638,28.24,0.814,37.221,0.814c8.983,0,22.107-0.176,37.223-0.814C264.615,439.201,250.611,448,234.667,448z"/>
<path style="fill:#FFCA28;" d="M234.667,405.333c-97.688,0-170.667-16.896-170.667-32c0-7.802,3.292-13.063,10.146-23.281
	C87.083,330.719,106.667,301.5,106.667,224v-32c0-70.583,57.417-128,128-128s128,57.417,128,128v32
	c0,77.5,19.583,106.719,32.521,126.052c6.854,10.219,10.146,15.479,10.146,23.281C405.333,388.438,332.354,405.333,234.667,405.333z
	"/>
<path style="opacity:0.2;fill:#FFFFFF;enable-background:new    ;" d="M106.667,192v32c0,77.5-19.583,106.719-32.521,126.052
	C67.292,360.271,64,365.531,64,373.333c0,8.758,24.637,18.095,64.296,24.415c0.641-6.289,2.579-11.835,6.046-20.879
	c8.086-21.146,20.326-53.104,20.326-137.87v-35c0-77.201,35.885-140,80-140C164.083,64,106.667,121.417,106.667,192z"/>
<path style="opacity:0.1;enable-background:new    ;" d="M395.188,350.052C382.25,330.719,362.667,301.5,362.667,224v-32
	c0-70.583-57.417-128-128-128c44.115,0,80,62.799,80,140v35c0,84.766,12.24,116.724,20.326,137.87
	c3.466,9.044,5.405,14.59,6.046,20.879c39.659-6.32,64.296-15.658,64.296-24.415C405.333,365.531,402.042,360.271,395.188,350.052z"
	/>
<linearGradient id="SVGID_1_" gradientUnits="userSpaceOnUse" x1="-63.2116" y1="616.3248" x2="-46.1253" y2="608.3566" gradientTransform="matrix(21.3333 0 0 -21.3333 1430.1112 13315.2227)">
	<stop  offset="0" style="stop-color:#FFFFFF;stop-opacity:0.2"/>
	<stop  offset="1" style="stop-color:#FFFFFF;stop-opacity:0"/>
</linearGradient>
<path style="fill:url(#SVGID_1_);" d="M412.917,338.177C400.708,319.958,384,295.01,384,224v-32
	c0-67.512-45.066-124.63-106.667-143.043v-6.29C277.333,19.135,258.188,0,234.667,0S192,19.135,192,42.667v6.29
	C130.401,67.37,85.333,124.488,85.333,192v32c0,71.01-16.708,95.958-28.917,114.177c-7.063,10.552-13.75,20.521-13.75,35.156
	c0,34.775,72.495,46.978,131.271,51.181c8.241,26.383,32.432,44.819,60.729,44.819s52.488-18.436,60.729-44.819
	c58.776-4.203,131.271-16.406,131.271-51.181C426.667,358.698,419.979,348.729,412.917,338.177z M256,44.371
	c-6.987-1.007-14.072-1.704-21.333-1.704s-14.346,0.698-21.333,1.704v-1.704c0-11.76,9.563-21.333,21.333-21.333
	S256,30.906,256,42.667V44.371z"/>
<g>
</g>
<g>
</g>
<g>
</g>
<g>
</g>
<g>
</g>
<g>
</g>
<g>
</g>
<g>
</g>
<g>
</g>
<g>
</g>
<g>
</g>
<g>
</g>
<g>
</g>
<g>
</g>
<g>
</g>
</svg>
