<?xml version="1.0" encoding="iso-8859-1"?>
<!-- Generator: Adobe Illustrator 19.0.0, SVG Export Plug-In . SVG Version: 6.00 Build 0)  -->
<svg version="1.1" id="Capa_1" xmlns="http://www.w3.org/2000/svg" xmlns:xlink="http://www.w3.org/1999/xlink" x="0px" y="0px"
	 viewBox="0 0 512 512" style="enable-background:new 0 0 512 512;" xml:space="preserve">
<path style="fill:#303C42;" d="M496.375,139.958L372.042,15.625C361.969,5.552,348.573,0,334.323,0H177.677
	c-14.25,0-27.646,5.552-37.719,15.625L15.625,139.958C5.552,150.031,0,163.427,0,177.677v156.646
	c0,14.25,5.552,27.646,15.625,37.719l124.333,124.333C150.031,506.448,163.427,512,177.677,512h156.646
	c14.25,0,27.646-5.552,37.719-15.625l124.333-124.333C506.448,361.969,512,348.573,512,334.323V177.677
	C512,163.427,506.448,150.031,496.375,139.958z"/>
<path style="fill:#D32F2F;" d="M490.667,334.323c0,8.552-3.333,16.583-9.375,22.635L356.958,481.292
	c-6.052,6.042-14.083,9.375-22.635,9.375H177.677c-8.552,0-16.583-3.333-22.635-9.375L30.708,356.958
	c-6.042-6.052-9.375-14.083-9.375-22.635V177.677c0-8.552,3.333-16.583,9.375-22.635L155.042,30.708
	c6.052-6.042,14.083-9.375,22.635-9.375h156.646c8.552,0,16.583,3.333,22.635,9.375l124.333,124.333
	c6.042,6.052,9.375,14.083,9.375,22.635V334.323z"/>
<g>
	<path style="fill:#303C42;" d="M256,106.667c-5.896,0-10.667,4.771-10.667,10.667v213.333c0,5.896,4.771,10.667,10.667,10.667
		c5.896,0,10.667-4.771,10.667-10.667V117.333C266.667,111.438,261.896,106.667,256,106.667z"/>
	<circle style="fill:#303C42;" cx="256" cy="394.667" r="10.667"/>
</g>
<linearGradient id="SVGID_1_" gradientUnits="userSpaceOnUse" x1="-34.7069" y1="627.9687" x2="-30.3167" y2="623.5785" gradientTransform="matrix(21.3333 0 0 -21.3333 996.3334 13791.667)">
	<stop  offset="0" style="stop-color:#000000;stop-opacity:0.1"/>
	<stop  offset="1" style="stop-color:#000000;stop-opacity:0"/>
</linearGradient>
<path style="fill:url(#SVGID_1_);" d="M356.887,481.35l-91.398-91.398l-0.026,0.018c0.715,1.432,1.204,2.987,1.204,4.697
	c0,5.891-4.776,10.667-10.667,10.667c-2.879,0-5.47-1.168-7.389-3.022l88.12,88.12C344.332,489.861,351.422,486.773,356.887,481.35z
	"/>
<linearGradient id="SVGID_2_" gradientUnits="userSpaceOnUse" x1="-37.1731" y1="638.4514" x2="-26.3096" y2="627.5839" gradientTransform="matrix(21.3333 0 0 -21.3333 996.3334 13791.667)">
	<stop  offset="0" style="stop-color:#000000;stop-opacity:0.1"/>
	<stop  offset="1" style="stop-color:#000000;stop-opacity:0"/>
</linearGradient>
<path style="fill:url(#SVGID_2_);" d="M264.094,110.604c1.536,1.848,2.573,4.135,2.573,6.729v213.333
	c0,5.896-4.771,10.667-10.667,10.667c-2.926,0-5.566-1.184-7.492-3.087l125.749,125.747l107.035-107.035
	c5.418-5.427,8.509-12.477,9.121-20.035L264.094,110.604z"/>
<linearGradient id="SVGID_3_" gradientUnits="userSpaceOnUse" x1="-46.1793" y1="639.8364" x2="-23.227" y2="629.1323" gradientTransform="matrix(21.3333 0 0 -21.3333 996.3334 13791.667)">
	<stop  offset="0" style="stop-color:#FFFFFF;stop-opacity:0.2"/>
	<stop  offset="1" style="stop-color:#FFFFFF;stop-opacity:0"/>
</linearGradient>
<path style="fill:url(#SVGID_3_);" d="M496.375,139.958L372.042,15.625C361.969,5.552,348.573,0,334.323,0H177.677
	c-14.25,0-27.646,5.552-37.719,15.625L15.625,139.958C5.552,150.031,0,163.427,0,177.677v156.646
	c0,14.25,5.552,27.646,15.625,37.719l124.333,124.333C150.031,506.448,163.427,512,177.677,512h156.646
	c14.25,0,27.646-5.552,37.719-15.625l124.333-124.333C506.448,361.969,512,348.573,512,334.323V177.677
	C512,163.427,506.448,150.031,496.375,139.958z"/>
<g>
</g>
<g>
</g>
<g>
</g>
<g>
</g>
<g>
</g>
<g>
</g>
<g>
</g>
<g>
</g>
<g>
</g>
<g>
</g>
<g>
</g>
<g>
</g>
<g>
</g>
<g>
</g>
<g>
</g>
</svg>
