<?xml version="1.0" encoding="iso-8859-1"?>
<!-- Generator: Adobe Illustrator 19.0.0, SVG Export Plug-In . SVG Version: 6.00 Build 0)  -->
<svg version="1.1" id="Capa_1" xmlns="http://www.w3.org/2000/svg" xmlns:xlink="http://www.w3.org/1999/xlink" x="0px" y="0px"
	 viewBox="0 0 512 512" style="enable-background:new 0 0 512 512;" xml:space="preserve">
<path style="fill:#303C42;" d="M507.333,424.604c0,0,0,0-0.01-0.01C473.238,354.677,416.1,255.51,365.692,168.021
	c-26.376-45.792-51.294-89.031-69.305-121.896c-8.5-15.521-23.605-24.792-40.397-24.792s-31.897,9.271-40.397,24.792
	c-18.022,32.885-42.95,76.167-69.357,121.99C95.858,255.583,38.741,354.708,4.667,424.604C1.573,430.969,0,437.708,0,444.615
	c0,25.396,20.511,46.052,45.731,46.052L256,490.646l210.269,0.021c25.22,0,45.731-20.656,45.731-46.052
	C512,437.708,510.427,430.969,507.333,424.604z"/>
<path style="fill:#FFCA28;" d="M466.271,469.344H45.75c-13.448,0-24.396-11.104-24.396-24.729c0-3.646,0.844-7.24,2.51-10.667
	c33.75-69.229,90.667-168.021,140.875-255.177c26.458-45.927,51.448-89.313,69.573-122.396c9.396-17.167,33.979-17.167,43.375,0
	c18.115,33.063,43.083,76.406,69.521,122.292c50.24,87.188,107.177,186.021,140.938,255.271c1.677,3.438,2.521,7.031,2.521,10.677
	C490.667,458.24,479.719,469.344,466.271,469.344z"/>
<g>
	<path style="fill:#303C42;" d="M256,128.01c-5.896,0-10.667,4.771-10.667,10.667V352.01c0,5.896,4.771,10.667,10.667,10.667
		c5.896,0,10.667-4.771,10.667-10.667V138.677C266.667,132.781,261.896,128.01,256,128.01z"/>
	<circle style="fill:#303C42;" cx="256" cy="416" r="10.667"/>
</g>
<linearGradient id="SVGID_1_" gradientUnits="userSpaceOnUse" x1="-34.7069" y1="626.9682" x2="-31.88" y2="624.1413" gradientTransform="matrix(21.3333 0 0 -21.3333 996.3334 13791.667)">
	<stop  offset="0" style="stop-color:#000000;stop-opacity:0.1"/>
	<stop  offset="1" style="stop-color:#000000;stop-opacity:0"/>
</linearGradient>
<path style="fill:url(#SVGID_1_);" d="M265.488,411.296l-0.026,0.018c0.715,1.432,1.204,2.987,1.204,4.697
	c0,5.891-4.776,10.667-10.667,10.667c-2.879,0-5.47-1.168-7.389-3.022l45.689,45.689h29.237L265.488,411.296z"/>
<linearGradient id="SVGID_2_" gradientUnits="userSpaceOnUse" x1="-37.1744" y1="637.4478" x2="-24.2925" y2="624.5699" gradientTransform="matrix(21.3333 0 0 -21.3333 996.3334 13791.667)">
	<stop  offset="0" style="stop-color:#000000;stop-opacity:0.1"/>
	<stop  offset="1" style="stop-color:#000000;stop-opacity:0"/>
</linearGradient>
<path style="fill:url(#SVGID_2_);" d="M488.146,433.938c-23.026-47.23-56.865-108.238-91.974-169.911L264.094,131.948
	c1.536,1.848,2.573,4.135,2.573,6.729V352.01c0,5.896-4.771,10.667-10.667,10.667c-2.926,0-5.566-1.184-7.492-3.087l109.754,109.754
	h108.009c13.448,0,24.396-11.104,24.396-24.729C490.667,440.969,489.823,437.375,488.146,433.938z"/>
<linearGradient id="SVGID_3_" gradientUnits="userSpaceOnUse" x1="-42.2345" y1="635.6962" x2="-22.1564" y2="626.3342" gradientTransform="matrix(21.3333 0 0 -21.3333 996.3334 13791.667)">
	<stop  offset="0" style="stop-color:#FFFFFF;stop-opacity:0.2"/>
	<stop  offset="1" style="stop-color:#FFFFFF;stop-opacity:0"/>
</linearGradient>
<path style="fill:url(#SVGID_3_);" d="M507.333,424.604c0,0,0,0-0.01-0.01C473.238,354.677,416.1,255.51,365.692,168.021
	c-26.376-45.792-51.294-89.031-69.305-121.896c-8.5-15.521-23.605-24.792-40.397-24.792s-31.897,9.271-40.397,24.792
	c-18.022,32.885-42.95,76.167-69.357,121.99C95.858,255.583,38.741,354.708,4.667,424.604C1.573,430.969,0,437.708,0,444.615
	c0,25.396,20.511,46.052,45.731,46.052L256,490.646l210.269,0.021c25.22,0,45.731-20.656,45.731-46.052
	C512,437.708,510.427,430.969,507.333,424.604z"/>
<g>
</g>
<g>
</g>
<g>
</g>
<g>
</g>
<g>
</g>
<g>
</g>
<g>
</g>
<g>
</g>
<g>
</g>
<g>
</g>
<g>
</g>
<g>
</g>
<g>
</g>
<g>
</g>
<g>
</g>
</svg>
