<?xml version="1.0" encoding="iso-8859-1"?>
<!-- Generator: Adobe Illustrator 19.0.0, SVG Export Plug-In . SVG Version: 6.00 Build 0)  -->
<svg version="1.1" id="Capa_1" xmlns="http://www.w3.org/2000/svg" xmlns:xlink="http://www.w3.org/1999/xlink" x="0px" y="0px"
	 viewBox="0 0 512 512" style="enable-background:new 0 0 512 512;" xml:space="preserve">
<path style="fill:#303C42;" d="M256,0C114.833,0,0,114.844,0,256s114.833,256,256,256s256-114.844,256-256S397.167,0,256,0z"/>
<path style="fill:#FFCA28;" d="M256,490.667C126.604,490.667,21.333,385.396,21.333,256S126.604,21.333,256,21.333
	S490.667,126.604,490.667,256S385.396,490.667,256,490.667z"/>
<linearGradient id="SVGID_1_" gradientUnits="userSpaceOnUse" x1="-33.0941" y1="632.8748" x2="-26.9331" y2="626.7137" gradientTransform="matrix(21.3333 0 0 -21.3333 996.3334 13791.667)">
	<stop  offset="0" style="stop-color:#000000;stop-opacity:0.1"/>
	<stop  offset="1" style="stop-color:#000000;stop-opacity:0"/>
</linearGradient>
<path style="fill:url(#SVGID_1_);" d="M406.04,174.723c13.151,24.18,20.626,51.872,20.626,81.277
	c0,94.104-76.563,170.667-170.667,170.667c-29.431,0-57.146-7.491-81.34-20.663l-0.001,0.001l84.694,84.492
	c126.767-1.803,229.438-104.521,231.152-231.31L406.04,174.723z"/>
<path style="fill:#303C42;" d="M256,64C150.125,64,64,150.135,64,256s86.125,192,192,192s192-86.135,192-192S361.875,64,256,64z"/>
<circle style="fill:#CCCCCC;" cx="256" cy="256" r="170.667"/>
<path style="fill:#303C42;" d="M296.042,251.792c8.229-8.615,13.292-20.292,13.292-33.125c0-16.603-8.484-31.25-21.333-39.872V160
	c0-5.896-4.771-10.667-10.667-10.667s-10.667,4.771-10.667,10.667v11.206c-1.773-0.199-3.507-0.539-5.333-0.539h-16V160
	c0-5.896-4.771-10.667-10.667-10.667S224,154.104,224,160v10.667h-21.333c-5.896,0-10.667,4.771-10.667,10.667
	c0,5.896,4.771,10.667,10.667,10.667h10.667v128h-10.667c-5.896,0-10.667,4.771-10.667,10.667c0,5.896,4.771,10.667,10.667,10.667
	H224V352c0,5.896,4.771,10.667,10.667,10.667s10.667-4.771,10.667-10.667v-10.667h21.333V352c0,5.896,4.771,10.667,10.667,10.667
	S288,357.896,288,352v-13.616c18.579-6.626,32-24.221,32-45.051C320,275.615,310.354,260.115,296.042,251.792z M261.333,192
	C276.042,192,288,203.958,288,218.667s-11.958,26.667-26.667,26.667h-26.667V192H261.333z M272,320h-37.333v-53.333H272
	c14.708,0,26.667,11.958,26.667,26.667S286.708,320,272,320z"/>
<linearGradient id="SVGID_2_" gradientUnits="userSpaceOnUse" x1="-45.5785" y1="639.5551" x2="-23.8277" y2="629.4137" gradientTransform="matrix(21.3333 0 0 -21.3333 996.3334 13791.667)">
	<stop  offset="0" style="stop-color:#FFFFFF;stop-opacity:0.2"/>
	<stop  offset="1" style="stop-color:#FFFFFF;stop-opacity:0"/>
</linearGradient>
<path style="fill:url(#SVGID_2_);" d="M256,0C114.833,0,0,114.844,0,256s114.833,256,256,256s256-114.844,256-256S397.167,0,256,0z"
	/>
<g>
</g>
<g>
</g>
<g>
</g>
<g>
</g>
<g>
</g>
<g>
</g>
<g>
</g>
<g>
</g>
<g>
</g>
<g>
</g>
<g>
</g>
<g>
</g>
<g>
</g>
<g>
</g>
<g>
</g>
</svg>
