<?xml version="1.0" encoding="iso-8859-1"?>
<!-- Generator: Adobe Illustrator 19.0.0, SVG Export Plug-In . SVG Version: 6.00 Build 0)  -->
<svg version="1.1" id="Capa_1" xmlns="http://www.w3.org/2000/svg" xmlns:xlink="http://www.w3.org/1999/xlink" x="0px" y="0px"
	 viewBox="0 0 512 512" style="enable-background:new 0 0 512 512;" xml:space="preserve">
<path style="fill:#FFDE47;" d="M269.884,92.278c-3.934-0.385-7.913-0.617-11.935-0.672c-78.177-1.06-141.835,60.872-142.824,139.049
	c-0.719,56.851,32.242,106.08,80.185,129v24.61c0,6.783,5.499,12.282,12.282,12.282h27.859h68.955
	c6.783,0,12.282-5.499,12.282-12.282v-24.61c47.43-22.674,80.198-71.098,80.198-127.177
	C396.887,159.354,341.175,99.252,269.884,92.278z"/>
<path style="fill:#57555C;" d="M290.733,469.189h-47.797h-21.668c-0.001,0.117-0.009,0.234-0.009,0.351
	c0,19.188,15.555,34.741,34.741,34.741c3.784,0,7.423-0.613,10.834-1.732c13.88-4.553,23.907-17.607,23.907-33.009
	C290.741,469.423,290.734,469.306,290.733,469.189z"/>
<path style="fill:#ADACB2;" d="M230.293,396.548h-21.668v62.816c0,5.427,4.4,9.825,9.825,9.825h21.668h53.43
	c5.427,0,9.825-4.4,9.825-9.825v-62.816H230.293z"/>
<path style="fill:#3C3B41;" d="M242.926,469.54c0-0.117,0.008-0.234,0.009-0.351h-21.668c-0.001,0.117-0.009,0.234-0.009,0.351
	c0,19.188,15.555,34.741,34.741,34.741c3.784,0,7.423-0.613,10.834-1.732C252.953,497.996,242.926,484.943,242.926,469.54z"/>
<path style="fill:#8A8891;" d="M230.293,459.363v-62.816h-21.668v62.816c0,5.427,4.4,9.825,9.825,9.825h21.668
	C234.692,469.189,230.293,464.79,230.293,459.363z"/>
<path style="fill:#FFCE00;" d="M223.169,384.264v-24.61c-47.944-22.92-80.905-72.148-80.185-129
	c0.921-72.795,56.181-131.493,126.9-138.377c-3.934-0.385-7.913-0.617-11.935-0.672c-78.177-1.06-141.835,60.872-142.824,139.049
	c-0.719,56.851,32.242,106.08,80.185,129v24.61c0,6.783,5.499,12.282,12.282,12.282h27.859
	C228.668,396.548,223.169,391.049,223.169,384.264z"/>
<path d="M304.406,404.266h-96.813c-11.029,0-20.002-8.973-20.002-20.002v-19.833c-23.313-12.102-42.999-30.142-57.14-52.415
	c-15.443-24.326-23.412-52.494-23.046-81.458c0.499-39.509,16.166-76.442,44.112-104c28.405-28.008,66.324-43.251,106.535-42.67
	c39.263,0.532,76.091,16.225,103.698,44.188c27.635,27.989,42.854,65.068,42.854,104.403c0,28.588-8.14,56.353-23.539,80.291
	c-14.104,21.922-33.623,39.702-56.658,51.661v19.833C324.408,395.293,315.435,404.266,304.406,404.266z M255.972,99.311
	c-73.719,0-132.196,57.736-133.129,131.442c-0.654,51.749,29.099,99.613,75.798,121.938l4.389,2.098v29.475
	c0,2.516,2.047,4.564,4.564,4.564h96.813c2.516,0,4.564-2.047,4.564-4.564v-29.475l4.39-2.098
	c46.051-22.016,75.807-69.201,75.807-120.212c0-72.442-58.911-132.174-131.324-133.156C257.22,99.315,256.592,99.311,255.972,99.311
	z"/>
<g>
	<path style="fill:#FFF4CA;" d="M320.2,311.759l-7.021-13.749c22.592-11.536,38.473-32.496,40.459-53.398l15.37,1.46
		C366.532,272.099,347.375,297.882,320.2,311.759z"/>
	<path style="fill:#FFF4CA;" d="M370.067,226.654H354.63c0-51.637-41.993-94.217-93.61-94.917l0.209-15.436
		c29.159,0.395,56.509,12.049,77.013,32.817C358.764,169.905,370.067,197.442,370.067,226.654z"/>
</g>
<path d="M293.548,476.909h-75.099c-9.674,0-17.545-7.87-17.545-17.545v-70.535h110.188v70.535
	C311.094,469.038,303.224,476.909,293.548,476.909z M216.343,404.266v55.097c0,1.162,0.946,2.108,2.108,2.108h75.099
	c1.162,0,2.108-0.946,2.108-2.108v-55.097H216.343z"/>
<path d="M255.999,512c-23.413,0-42.461-19.048-42.461-42.46c0-0.158,0.004-0.315,0.01-0.471l0.065-7.653l7.653,0.055h77.119
	l0.066,7.653c0.005,0.103,0.009,0.259,0.009,0.417C298.461,492.952,279.413,512,255.999,512z M229.997,476.909
	c3.214,11.332,13.655,19.655,26.003,19.655c12.348,0,22.789-8.323,26.003-19.655H229.997z"/>
<path d="M300.566,404.266h-89.133V286.295l26.143,26.889l18.423-18.95l18.423,18.95l26.143-26.889L300.566,404.266L300.566,404.266
	L300.566,404.266z M226.87,388.829h58.258v-64.511l-10.705,11.011L256,316.38l-18.423,18.949l-10.705-11.011v64.511L226.87,388.829
	L226.87,388.829z"/>
<rect x="208.092" y="413.39" width="95.81" height="15.437"/>
<rect x="208.092" y="437.46" width="95.81" height="15.437"/>
<rect x="248.282" width="15.437" height="55.801"/>
<rect x="74.371" y="83.851" transform="matrix(0.7071 0.7071 -0.7071 0.7071 94.704 -45.497)" width="55.8" height="15.437"/>
<rect x="402.008" y="63.665" transform="matrix(0.7071 0.7071 -0.7071 0.7071 184.7528 -262.9015)" width="15.437" height="55.8"/>
<rect x="94.547" y="371.128" transform="matrix(0.7071 0.7071 -0.7071 0.7071 312.1086 44.5602)" width="15.437" height="55.8"/>
<rect x="381.827" y="391.305" transform="matrix(0.7071 0.7071 -0.7071 0.7071 402.1587 -172.8498)" width="55.8" height="15.437"/>
<rect x="431.812" y="237.58" width="55.801" height="15.437"/>
<rect x="24.387" y="237.58" width="55.801" height="15.437"/>
<g>
</g>
<g>
</g>
<g>
</g>
<g>
</g>
<g>
</g>
<g>
</g>
<g>
</g>
<g>
</g>
<g>
</g>
<g>
</g>
<g>
</g>
<g>
</g>
<g>
</g>
<g>
</g>
<g>
</g>
</svg>
