<?xml version="1.0" encoding="iso-8859-1"?>
<!-- Generator: Adobe Illustrator 19.0.0, SVG Export Plug-In . SVG Version: 6.00 Build 0)  -->
<svg version="1.1" id="Layer_1" xmlns="http://www.w3.org/2000/svg" xmlns:xlink="http://www.w3.org/1999/xlink" x="0px" y="0px"
	 viewBox="0 0 512.024 512.024" style="enable-background:new 0 0 512.024 512.024;" xml:space="preserve">
<g>
	
		<rect x="371.265" y="99.491" transform="matrix(0.7071 0.7071 -0.7071 0.7071 196.144 -250.5722)" style="fill:#378B4F;" width="58.549" height="23.98"/>
	<path style="fill:#378B4F;" d="M113.202,501.645L10.374,398.818c39.061-46.359,55.729-64.823,79.032-86.33l110.115,110.115
		C178.022,445.911,158.817,463.546,113.202,501.645z"/>
	<path style="fill:#378B4F;" d="M298.865,173.547c-51.249,37.424-70.722,29.694-131.166,73.033l97.692,97.692
		c43.139-60.263,35.519-79.796,73.057-131.124l-31.117-8.46L298.865,173.547z"/>
</g>
<g>
	
		<rect x="394.638" y="109.166" transform="matrix(0.7071 0.7071 -0.7071 0.7071 205.8225 -254.5875)" style="fill:#317E46;" width="31.174" height="23.98"/>
	<path style="fill:#317E46;" d="M113.202,501.645c45.615-38.099,64.82-55.734,86.319-79.042l-56.398-56.398l-82.681,82.681
		L113.202,501.645z"/>
	<path style="fill:#317E46;" d="M265.391,344.272c43.139-60.263,35.519-79.796,73.057-131.124l-31.117-8.46l-0.575-2.115
		l-91.532,91.532L265.391,344.272z"/>
</g>
<g>
	<path style="fill:#FFDE56;" d="M265.391,344.272c-13.586,18.979-34.113,43.903-65.869,78.332L89.405,312.488
		c34.431-31.776,59.345-52.321,78.294-65.908L265.391,344.272z"/>
	<path style="fill:#FFDE56;" d="M376.599,104.495c-33.437,33.437-57.951,54.607-77.734,69.053l8.466,31.141l31.117,8.46
		c14.477-19.795,35.662-44.313,69.077-77.728L376.599,104.495z"/>
</g>
<g>
	<circle style="fill:#FECE00;" cx="181.42" cy="330.574" r="28.431"/>
	
		<rect x="441.497" y="37.446" transform="matrix(-0.7071 -0.7071 0.7071 -0.7071 722.2871 424.9105)" style="fill:#FECE00;" width="15.297" height="50.837"/>
	
		<rect x="460.112" y="114.006" transform="matrix(0.9386 -0.3449 0.3449 0.9386 -12.1657 174.9306)" style="fill:#FECE00;" width="50.834" height="15.297"/>
	
		<rect x="382.692" y="1.105" transform="matrix(-0.9386 -0.3449 0.3449 -0.9386 747.5799 186.0511)" style="fill:#FECE00;" width="15.297" height="50.835"/>
</g>
<path d="M360.546,99.259l5.22,5.22c-27.956,27.64-51.364,48.253-71.412,62.892c-24.171,17.65-41.079,24.974-58.98,32.727
	c-18.706,8.103-38.017,16.47-66.823,36.518l-0.034-0.034l-5.276,3.783l-7.326,5.251l0.074,0.074
	c-18.384,13.782-40.218,32.275-66.362,56.204l-0.012-0.012l-5.4,4.984l-5.85,5.399l0.039,0.039
	c-21.514,20.401-39.272,40.509-73.88,81.583L0,399.259l112.738,112.738l5.367-4.483c41.812-34.922,61.7-52.86,81.604-73.908
	l0.036,0.036l5.399-5.854l4.981-5.399l-0.012-0.012c23.909-26.139,42.393-47.985,56.173-66.395l0.074,0.074l5.25-7.334
	c0.015-0.021,0.03-0.041,0.044-0.062l3.732-5.212l-0.034-0.034c19.887-28.622,28.246-47.872,36.339-66.52
	c7.8-17.97,15.167-34.943,32.931-59.233c14.67-20.059,35.293-43.467,62.919-71.41l5.22,5.22l27.773-27.773L388.32,71.484
	L360.546,99.259z M113.661,491.288l-92.91-92.91c33.635-39.814,49.656-57.465,68.471-75.255l92.104,92.103l7.561,7.561
	C170.2,442.574,151.506,459.568,113.661,491.288z M199.286,411.552l-98.83-98.83c26.401-24.146,48.254-42.595,66.463-56.103
	l44.216,44.216l44.22,44.22C241.85,363.292,223.41,385.157,199.286,411.552z M297.658,270.805
	c-7.573,17.447-15.381,35.438-33.303,61.614l-84.808-84.808c26.352-18.076,44.403-25.895,61.907-33.476
	c16.419-7.111,32.041-13.878,52.894-28.044l6.75,24.829l24.797,6.741C311.626,238.627,304.816,254.316,297.658,270.805z
	 M335.421,204.398l-21.857-5.942l-5.948-21.878c19.704-14.842,42.362-34.974,68.968-61.282l20.139,20.139
	C370.43,162.028,350.287,184.688,335.421,204.398z M412.76,129.84l-30.58-30.581l6.14-6.139l30.58,30.58L412.76,129.84z"/>
<g>
	<polygon style="fill:#FFDE56;" points="158.927,88.791 174.225,88.791 174.225,78.358 184.659,78.358 184.659,63.061 
		174.225,63.061 174.225,52.627 158.927,52.627 158.927,63.061 148.493,63.061 148.493,78.358 158.927,78.358 	"/>
	<polygon style="fill:#FFDE56;" points="474.796,331.043 459.499,331.043 459.499,341.477 449.065,341.477 449.065,356.775 
		459.499,356.775 459.499,367.208 474.796,367.208 474.796,356.775 485.229,356.775 485.229,341.477 474.796,341.477 	"/>
	<polygon style="fill:#FFDE56;" points="307.146,421.735 291.848,421.735 291.848,432.169 281.414,432.169 281.414,447.466 
		291.848,447.466 291.848,457.9 307.146,457.9 307.146,447.466 317.58,447.466 317.58,432.169 307.146,432.169 	"/>
	<rect x="34.616" y="244.5" style="fill:#FFDE56;" width="16.716" height="15.298"/>
	<rect x="373.231" y="295.879" style="fill:#FFDE56;" width="16.716" height="15.298"/>
	<rect x="83.097" y="172.346" style="fill:#FFDE56;" width="16.716" height="15.298"/>
</g>
<g>
	<polygon style="fill:#FFFFFF;" points="113.433,482.09 84.341,452.999 95.159,442.182 114.261,461.285 143.532,436.345 
		153.454,447.988 	"/>
	
		<rect x="64.169" y="424.786" transform="matrix(-0.7071 -0.7071 0.7071 -0.7071 -178.418 790.9666)" style="fill:#FFFFFF;" width="20.874" height="15.297"/>
</g>
<g>
</g>
<g>
</g>
<g>
</g>
<g>
</g>
<g>
</g>
<g>
</g>
<g>
</g>
<g>
</g>
<g>
</g>
<g>
</g>
<g>
</g>
<g>
</g>
<g>
</g>
<g>
</g>
<g>
</g>
</svg>
