<?xml version="1.0" encoding="iso-8859-1"?>
<!-- Generator: Adobe Illustrator 19.0.0, SVG Export Plug-In . SVG Version: 6.00 Build 0)  -->
<svg version="1.1" id="Capa_1" xmlns="http://www.w3.org/2000/svg" xmlns:xlink="http://www.w3.org/1999/xlink" x="0px" y="0px"
	 viewBox="0 0 512 512" style="enable-background:new 0 0 512 512;" xml:space="preserve">
<path style="fill:#303C42;" d="M256,0C114.844,0,0,114.844,0,256s114.844,256,256,256s256-114.844,256-256S397.156,0,256,0z"/>
<path style="fill:#7CB342;" d="M256,490.667C126.604,490.667,21.333,385.396,21.333,256S126.604,21.333,256,21.333
	S490.667,126.604,490.667,256S385.396,490.667,256,490.667z"/>
<path style="opacity:0.2;fill:#FFFFFF;enable-background:new    ;" d="M42.667,277.333c0-129.396,105.271-234.667,234.667-234.667
	c59.277,0,113.332,22.267,154.682,58.651C388.978,52.406,326.118,21.333,256,21.333C126.604,21.333,21.333,126.604,21.333,256
	c0,70.118,31.073,132.978,79.984,176.016C64.934,390.665,42.667,336.611,42.667,277.333z"/>
<path style="fill:#303C42;" d="M387.125,152.458L202.667,336.917l-99.125-99.125c-4.167-4.167-10.917-4.167-15.083,0
	s-4.167,10.917,0,15.083l106.667,106.667c2.083,2.083,4.813,3.125,7.542,3.125s5.458-1.042,7.542-3.125l192-192
	c4.167-4.167,4.167-10.917,0-15.083C398.042,148.292,391.292,148.292,387.125,152.458z"/>
<linearGradient id="SVGID_1_" gradientUnits="userSpaceOnUse" x1="-32.7031" y1="634.4844" x2="-25.9338" y2="627.7151" gradientTransform="matrix(21.3333 0 0 -21.3333 996.3334 13791.667)">
	<stop  offset="0" style="stop-color:#000000;stop-opacity:0.1"/>
	<stop  offset="1" style="stop-color:#000000;stop-opacity:0"/>
</linearGradient>
<path style="fill:url(#SVGID_1_);" d="M489.862,240.112l-87.654-87.654c4.167,4.167,4.167,10.917,0,15.083l-192,192
	c-2.083,2.083-4.813,3.125-7.542,3.125s-5.458-1.042-7.542-3.125l122.612,122.611c99.492-27.203,172.93-118.15,172.93-226.152
	C490.667,250.637,490.217,245.387,489.862,240.112z"/>
<linearGradient id="SVGID_2_" gradientUnits="userSpaceOnUse" x1="-45.5784" y1="639.555" x2="-23.8278" y2="629.4138" gradientTransform="matrix(21.3333 0 0 -21.3333 996.3334 13791.667)">
	<stop  offset="0" style="stop-color:#FFFFFF;stop-opacity:0.2"/>
	<stop  offset="1" style="stop-color:#FFFFFF;stop-opacity:0"/>
</linearGradient>
<path style="fill:url(#SVGID_2_);" d="M256,0C114.844,0,0,114.844,0,256s114.844,256,256,256s256-114.844,256-256S397.156,0,256,0z"
	/>
<g>
</g>
<g>
</g>
<g>
</g>
<g>
</g>
<g>
</g>
<g>
</g>
<g>
</g>
<g>
</g>
<g>
</g>
<g>
</g>
<g>
</g>
<g>
</g>
<g>
</g>
<g>
</g>
<g>
</g>
</svg>
