<?xml version="1.0" encoding="iso-8859-1"?>
<!-- Generator: Adobe Illustrator 19.0.0, SVG Export Plug-In . SVG Version: 6.00 Build 0)  -->
<svg version="1.1" id="Layer_1" xmlns="http://www.w3.org/2000/svg" xmlns:xlink="http://www.w3.org/1999/xlink" x="0px" y="0px"
	 viewBox="0 0 511.999 511.999" style="enable-background:new 0 0 511.999 511.999;" xml:space="preserve">
<path style="fill:#FFA5B6;" d="M142.985,140.577c7.309,5.551,7.131,11.389,18.677,16.778c14.091,6.576,17.473-0.67,31.565,5.907
	c14.094,6.577,10.712,13.823,24.806,20.401c11.548,5.389,15.908,1.503,24.859,3.54l13.107-28.084l-99.908-46.627L142.985,140.577z"
	/>
<path style="fill:#FE0B37;" d="M218.034,183.663c-14.093-6.577-10.712-13.823-24.806-20.401c-14.091-6.576-17.473,0.67-31.565-5.907
	c-11.547-5.389-11.368-11.227-18.677-16.778L84.072,266.812c-10.612,22.739-8.198,49.425,6.324,69.89l13.207,18.613l22.749-1.833
	c25.013-2.015,47.016-17.305,57.628-40.044l58.913-126.235C233.943,185.166,229.583,189.053,218.034,183.663z"/>
<path style="fill:#FF728C;" d="M204.461,135.067l-12.628,27.577c0.454,0.192,0.917,0.397,1.396,0.619
	c14.093,6.577,10.712,13.823,24.806,20.401c11.548,5.389,15.908,1.503,24.859,3.54L256,159.12L204.461,135.067z"/>
<path style="fill:#C60024;" d="M218.034,183.663c-14.093-6.577-10.712-13.823-24.806-20.401c-0.478-0.223-0.941-0.427-1.396-0.619
	l-88.23,192.672l22.749-1.833c25.013-2.015,47.016-17.305,57.628-40.044l58.913-126.235
	C233.943,185.166,229.583,189.053,218.034,183.663z"/>
<path style="fill:#FF728C;" d="M290.703,175.498c13.869-6.473,17.197,0.658,31.065-5.816c13.867-6.472,10.539-13.602,24.407-20.074
	c11.732-5.475,15.922-1.217,25.331-3.694l-15.598-33.423l-99.908,46.627l15.598,33.423
	C279.541,186.921,278.968,180.974,290.703,175.498z"/>
<path style="fill:#C60024;" d="M427.927,266.812l-56.422-120.896c-9.409,2.477-13.599-1.782-25.331,3.694
	c-13.867,6.472-10.539,13.602-24.407,20.074c-13.869,6.473-17.197-0.658-31.065,5.816c-11.733,5.476-11.16,11.422-19.104,17.044
	l56.422,120.896c10.612,22.739,32.617,38.028,57.628,40.044l22.749,1.833l13.207-18.613
	C436.125,316.236,438.539,289.551,427.927,266.812z"/>
<path style="fill:#FFA5B6;" d="M346.175,149.61c11.732-5.475,15.922-1.217,25.331-3.694l-15.598-33.423l-48.369,22.573
	l15.555,33.968C335.43,162.738,332.769,155.866,346.175,149.61z"/>
<path style="fill:#FE0B37;" d="M421.604,336.702c14.521-20.466,16.936-47.151,6.324-69.89l-56.422-120.896
	c-9.409,2.477-13.599-1.782-25.331,3.694c-13.406,6.256-10.745,13.128-23.08,19.425l85.301,186.28l0,0L421.604,336.702z"/>
<g>
	<polygon style="fill:#FFA5B6;" points="93.636,485.703 10.069,446.702 11.243,444.185 62.224,443.979 94.81,483.185 	"/>
	<polygon style="fill:#FFA5B6;" points="418.364,485.703 501.931,446.702 500.757,444.185 449.776,443.979 417.189,483.185 	"/>
</g>
<g>
	
		<rect x="150.884" y="176.851" transform="matrix(-0.9062 -0.4229 0.4229 -0.9062 221.23 417.9335)" style="fill:#720017;" width="12.181" height="15.15"/>
	
		<rect x="168.682" y="200.941" transform="matrix(-0.9062 -0.4229 0.4229 -0.9062 244.9674 471.3793)" style="fill:#720017;" width="12.181" height="15.15"/>
	
		<rect x="174.362" y="257.895" transform="matrix(-0.9062 -0.4229 0.4229 -0.9062 231.7106 582.3469)" style="fill:#720017;" width="12.181" height="15.15"/>
	
		<rect x="111.716" y="266.551" transform="matrix(-0.9062 -0.4229 0.4229 -0.9062 108.634 572.3531)" style="fill:#720017;" width="12.181" height="15.15"/>
	
		<rect x="120.724" y="318.104" transform="matrix(-0.9062 -0.4229 0.4229 -0.9062 104.0048 674.4316)" style="fill:#720017;" width="12.181" height="15.15"/>
	
		<rect x="364.135" y="220.01" transform="matrix(-0.4229 -0.9062 0.9062 -0.4229 324.0162 658.5526)" style="fill:#720017;" width="15.15" height="12.181"/>
	
		<rect x="329.653" y="186.91" transform="matrix(-0.4229 -0.9062 0.9062 -0.4229 304.9462 580.2087)" style="fill:#720017;" width="15.15" height="12.181"/>
	
		<rect x="318.446" y="230.387" transform="matrix(-0.4229 -0.9062 0.9062 -0.4229 249.6014 631.9166)" style="fill:#720017;" width="15.15" height="12.181"/>
	
		<rect x="353.094" y="282.676" transform="matrix(-0.4229 -0.9062 0.9062 -0.4229 251.5185 737.7147)" style="fill:#720017;" width="15.15" height="12.181"/>
	
		<rect x="388.638" y="290.813" transform="matrix(-0.4229 -0.9062 0.9062 -0.4229 294.7197 781.5025)" style="fill:#720017;" width="15.15" height="12.181"/>
</g>
<g>
	<rect x="248.429" y="16.229" style="fill:#C60024;" width="15.15" height="47.164"/>
	
		<rect x="310.84" y="30.976" transform="matrix(-0.9076 -0.4198 0.4198 -0.9076 584.5099 237.7462)" style="fill:#C60024;" width="15.15" height="47.162"/>
	
		<rect x="169.998" y="46.979" transform="matrix(-0.4198 -0.9076 0.9076 -0.4198 225.3307 253.1508)" style="fill:#C60024;" width="47.162" height="15.15"/>
</g>
<path d="M505.589,436.629l-50.98-0.205l-37.484-80.319l10.656-15.02c16.062-22.637,18.749-52.324,7.009-77.477l-56.846-121.803
	l-18.378-39.38L256,150.76l-103.568-48.334l-12.34,26.442l0,0l-5.753,12.326l-0.803,1.72l0,0L77.207,263.608
	c-11.738,25.153-9.052,54.84,7.009,77.477l10.656,15.019l-37.484,80.319l-50.98,0.205L0,450.363l97.297,45.407l6.408-13.735
	L71.119,442.83l37.484-80.319l18.356-1.479c27.667-2.229,52.146-19.238,63.885-44.39l56.328-120.696l0,0l8.827-18.915l6.059,12.981
	l0,0l59.097,126.628c11.739,25.152,36.219,42.162,63.885,44.39l18.356,1.479l37.484,80.319l-32.587,39.205l6.408,13.735
	l97.297-45.407L505.589,436.629z M359.95,139.067c-0.059-0.001-0.118-0.001-0.178-0.002c0.005,0.004,0.009,0.009,0.014,0.013
	c-0.315-0.006-0.62-0.023-0.939-0.023c-3.94,0-8.906,0.439-15.876,3.691c-8.594,4.012-12.139,8.585-14.987,12.261
	c-2.408,3.107-4.147,5.352-9.419,7.812c-4.486,2.094-7.239,2.269-9.467,2.269c-0.875,0-1.724-0.034-2.573-0.067
	c-1.04-0.039-2.082-0.078-3.153-0.078c-3.938,0-8.904,0.439-15.873,3.691c-7.59,3.542-11.241,7.522-13.953,10.935
	c0.014-0.228,0.013-0.461,0.037-0.687l-7.515-16.103l86.179-40.219L359.95,139.067z M159.753,122.561l86.179,40.219l-7.572,16.225
	c-0.028-0.001-0.058,0-0.086-0.001c0,0.003-0.001,0.005-0.002,0.007c-0.51-0.019-1.019-0.038-1.55-0.038
	c-1.084,0-2.136,0.038-3.189,0.078c-0.863,0.032-1.725,0.067-2.612,0.067c-2.281,0-5.098-0.179-9.684-2.319
	c-5.386-2.514-7.161-4.805-9.619-7.976c-2.887-3.725-6.479-8.361-15.187-12.425c-7.058-3.295-12.087-3.738-16.075-3.738
	c-1.089,0-2.145,0.038-3.202,0.079c-0.866,0.033-1.73,0.068-2.622,0.068c-2.276,0-5.087-0.179-9.668-2.316
	c-5.386-2.514-7.164-4.806-9.623-7.978c-0.904-1.167-1.872-2.408-3.028-3.688c0.001,0,0.001-0.001,0.002-0.002
	c-0.012-0.013-0.023-0.026-0.035-0.04L159.753,122.561z M38.581,451.65l20.101-0.082l12.849,15.458L38.581,451.65z M177.116,310.235
	c-9.439,20.226-29.124,33.905-51.373,35.697l-18.455,1.487l-10.714-15.099c-12.917-18.203-15.076-42.077-5.637-62.304
	l54.121-115.966c2.683,3.243,6.379,6.892,13.403,10.17c7.058,3.294,12.087,3.738,16.074,3.738c1.088,0,2.145-0.038,3.201-0.079
	c0.866-0.033,1.73-0.068,2.622-0.068c2.276,0,5.087,0.179,9.668,2.317c5.386,2.513,7.162,4.805,9.619,7.976
	c2.887,3.725,6.479,8.361,15.187,12.425c7.053,3.292,12.034,3.751,16.069,3.74c0.007,0,0.015,0,0.022,0
	c0.008,0,0.015-0.001,0.022-0.001c0.097,0,0.197,0,0.293,0L177.116,310.235z M334.884,310.235l-54.017-115.744
	c1.458-1.532,2.602-3.007,3.615-4.314c2.409-3.108,4.15-5.353,9.424-7.814c4.486-2.094,7.239-2.269,9.466-2.269
	c0.875,0,1.725,0.034,2.573,0.067c1.041,0.039,2.082,0.078,3.153,0.078c3.938,0,8.904-0.438,15.873-3.691
	c8.595-4.012,12.14-8.586,14.987-12.261c2.408-3.107,4.147-5.352,9.418-7.812c4.487-2.094,7.241-2.269,9.469-2.269
	c0.874,0,1.723,0.034,2.571,0.067c1.039,0.04,2.08,0.078,3.15,0.078c0.628,0,1.38-0.016,2.211-0.063c0,0,0,0,0,0.001
	c0.006,0,0.013-0.001,0.018-0.001c0.086-0.005,0.16-0.005,0.247-0.011l54.016,115.742c9.439,20.226,7.28,44.1-5.637,62.304
	l-10.714,15.099l-18.455-1.487C364.008,344.139,344.323,330.461,334.884,310.235z M440.469,467.027l12.849-15.458l20.101,0.082
	L440.469,467.027z"/>
<g>
	<polygon style="fill:#FF728C;" points="316.093,376.496 300.943,376.496 300.943,385.377 292.062,385.377 292.062,400.527 
		300.943,400.527 300.943,409.406 316.093,409.406 316.093,400.527 324.974,400.527 324.974,385.377 316.093,385.377 	"/>
	<polygon style="fill:#FF728C;" points="200.807,439.125 185.657,439.125 185.657,448.006 176.776,448.006 176.776,463.155 
		185.657,463.155 185.657,472.036 200.807,472.036 200.807,463.155 209.688,463.155 209.688,448.006 200.807,448.006 	"/>
	<polygon style="fill:#FF728C;" points="44.864,219.912 60.014,219.912 60.014,211.032 68.895,211.032 68.895,195.882 
		60.014,195.882 60.014,187.001 44.864,187.001 44.864,195.882 35.983,195.882 35.983,211.032 44.864,211.032 	"/>
	<polygon style="fill:#FF728C;" points="437.967,108.873 453.117,108.873 453.117,99.993 461.998,99.993 461.998,84.843 
		453.117,84.843 453.117,75.962 437.967,75.962 437.967,84.843 429.086,84.843 429.086,99.993 437.967,99.993 	"/>
</g>
<g>
</g>
<g>
</g>
<g>
</g>
<g>
</g>
<g>
</g>
<g>
</g>
<g>
</g>
<g>
</g>
<g>
</g>
<g>
</g>
<g>
</g>
<g>
</g>
<g>
</g>
<g>
</g>
<g>
</g>
</svg>
