<?xml version="1.0" encoding="iso-8859-1"?>
<!-- Generator: Adobe Illustrator 19.0.0, SVG Export Plug-In . SVG Version: 6.00 Build 0)  -->
<svg version="1.1" id="Capa_1" xmlns="http://www.w3.org/2000/svg" xmlns:xlink="http://www.w3.org/1999/xlink" x="0px" y="0px"
	 viewBox="0 0 512 512" style="enable-background:new 0 0 512 512;" xml:space="preserve">
<path style="fill:#303C42;" d="M394.667,64H117.333C52.635,64,0,116.635,0,181.333v224C0,428.865,19.135,448,42.667,448h426.667
	C492.865,448,512,428.865,512,405.333v-224C512,116.635,459.365,64,394.667,64z"/>
<g>
	<path style="fill:#FFD54F;" d="M394.667,85.333c49.285,0,89.536,37.465,94.922,85.333h-42.228
		c-3.779-35.259-26.06-66.016-58.551-85.333H394.667z"/>
	<rect x="85.333" y="192" style="fill:#FFD54F;" width="85.333" height="42.667"/>
</g>
<path style="fill:#6D4C41;" d="M224,298.667h64c25.754,0,47.298-18.353,52.254-42.667h86.413v106.667H85.333V320h53.333
	c5.896,0,10.667-4.771,10.667-10.667s-4.771-10.667-10.667-10.667H85.333V256h86.413C176.702,280.314,198.246,298.667,224,298.667z"
	/>
<path style="fill:#E6E6E6;" d="M192,245.333v-74.667h128v74.667c0,17.646-14.354,32-32,32h-64
	C206.354,277.333,192,262.979,192,245.333z"/>
<path style="opacity:0.2;fill:#FFFFFF;enable-background:new    ;" d="M213.333,245.333v-74.667H192v74.667
	c0,17.646,14.354,32,32,32h21.333C227.688,277.333,213.333,262.979,213.333,245.333z"/>
<path style="opacity:0.1;enable-background:new    ;" d="M298.667,170.667v74.667c0,17.646-14.354,32-32,32H288
	c17.646,0,32-14.354,32-32v-74.667H298.667z"/>
<rect x="85.333" y="384" style="fill:#FFD54F;" width="341.333" height="42.667"/>
<rect x="85.333" y="416" style="opacity:0.1;enable-background:new    ;" width="341.333" height="10.667"/>
<rect x="85.333" y="352" style="opacity:0.1;enable-background:new    ;" width="341.333" height="10.667"/>
<rect x="341.333" y="192" style="fill:#FFD54F;" width="85.333" height="42.667"/>
<rect x="85.333" y="224" style="opacity:0.1;enable-background:new    ;" width="85.333" height="10.667"/>
<rect x="341.333" y="224" style="opacity:0.1;enable-background:new    ;" width="85.333" height="10.667"/>
<path style="fill:#6D4C41;" d="M309.333,85.333c60.288,0,110.053,37.402,116.565,85.333h-84.565V160
	c0-5.896-4.771-10.667-10.667-10.667H181.333c-5.896,0-10.667,4.771-10.667,10.667v10.667H86.102
	c6.512-47.931,56.277-85.333,116.565-85.333H309.333z"/>
<path style="opacity:0.2;fill:#FFFFFF;enable-background:new    ;" d="M202.667,96h106.667c60.288,0,110.053,32.727,116.565,74.667
	c-6.512-47.931-56.277-85.333-116.565-85.333H202.667c-60.288,0-110.053,37.402-116.565,85.333
	C92.613,128.727,142.379,96,202.667,96z"/>
<g>
	<path style="fill:#FFD54F;" d="M117.333,85.333h5.857c-32.491,19.318-54.772,50.074-58.551,85.333H22.411
		C27.797,122.798,68.048,85.333,117.333,85.333z"/>
	<path style="fill:#FFD54F;" d="M21.333,405.333V192H64v234.667H42.667C30.906,426.667,21.333,417.094,21.333,405.333z"/>
</g>
<g>
	<path style="opacity:0.2;fill:#FFFFFF;enable-background:new    ;" d="M120.603,87.053c0.883-0.552,1.688-1.185,2.587-1.72h-5.857
		c-49.285,0-89.536,37.465-94.922,85.333h21.333C48.454,128.802,79.836,94.9,120.603,87.053z"/>
	<path style="opacity:0.2;fill:#FFFFFF;enable-background:new    ;" d="M42.667,405.333V192H21.333v213.333
		c0,11.76,9.573,21.333,21.333,21.333H64C52.24,426.667,42.667,417.094,42.667,405.333z"/>
</g>
<path style="opacity:0.1;enable-background:new    ;" d="M391.397,87.053c-0.883-0.552-1.688-1.185-2.587-1.72h5.857
	c49.285,0,89.536,37.465,94.922,85.333h-21.333C463.546,128.802,432.164,94.9,391.397,87.053z"/>
<path style="fill:#FFD54F;" d="M490.667,405.333c0,11.76-9.573,21.333-21.333,21.333H448V192h42.667V405.333z"/>
<g>
	<path style="fill:#303C42;" d="M160,128h64c5.896,0,10.667-4.771,10.667-10.667s-4.771-10.667-10.667-10.667h-64
		c-5.896,0-10.667,4.771-10.667,10.667S154.104,128,160,128z"/>
	<path style="fill:#303C42;" d="M266.667,128H288c5.896,0,10.667-4.771,10.667-10.667s-4.771-10.667-10.667-10.667h-21.333
		c-5.896,0-10.667,4.771-10.667,10.667S260.771,128,266.667,128z"/>
	<path style="fill:#303C42;" d="M202.667,341.333h64c5.896,0,10.667-4.771,10.667-10.667c0-5.896-4.771-10.667-10.667-10.667h-64
		c-5.896,0-10.667,4.771-10.667,10.667C192,336.563,196.771,341.333,202.667,341.333z"/>
	<path style="fill:#303C42;" d="M352,320h42.667c5.896,0,10.667-4.771,10.667-10.667s-4.771-10.667-10.667-10.667H352
		c-5.896,0-10.667,4.771-10.667,10.667S346.104,320,352,320z"/>
</g>
<path style="opacity:0.1;enable-background:new    ;" d="M469.333,405.333V192h21.333v213.333c0,11.76-9.573,21.333-21.333,21.333
	H448C459.76,426.667,469.333,417.094,469.333,405.333z"/>
<linearGradient id="SVGID_1_" gradientUnits="userSpaceOnUse" x1="-34.8925" y1="636.2749" x2="-32.3449" y2="633.7263" gradientTransform="matrix(21.3333 0 0 -21.3333 996.3334 13791.667)">
	<stop  offset="0" style="stop-color:#000000;stop-opacity:0.1"/>
	<stop  offset="1" style="stop-color:#000000;stop-opacity:0"/>
</linearGradient>
<path style="fill:url(#SVGID_1_);" d="M271.253,198.517c3.733,3.845,6.081,9.049,6.081,14.816c0,7.792-4.409,14.329-10.667,18.053
	v13.947c0,5.896-4.771,10.667-10.667,10.667c-2.738,0-5.174-1.104-7.061-2.797l-0.049,0.13l24,24H288
	c17.046,0,30.892-13.43,31.823-30.246L271.253,198.517z"/>
<path style="fill:#303C42;" d="M245.333,231.387v13.947c0,5.896,4.771,10.667,10.667,10.667c5.896,0,10.667-4.771,10.667-10.667
	v-13.947c6.258-3.724,10.667-10.262,10.667-18.053c0-11.76-9.573-21.333-21.333-21.333c-11.76,0-21.333,9.573-21.333,21.333
	C234.667,221.125,239.076,227.663,245.333,231.387z"/>
<linearGradient id="SVGID_2_" gradientUnits="userSpaceOnUse" x1="-34.6483" y1="636.5184" x2="-25.6587" y2="627.5288" gradientTransform="matrix(21.3333 0 0 -21.3333 996.3334 13791.667)">
	<stop  offset="0" style="stop-color:#000000;stop-opacity:0.1"/>
	<stop  offset="1" style="stop-color:#000000;stop-opacity:0"/>
</linearGradient>
<path style="fill:url(#SVGID_2_);" d="M377.755,192h-36.422v42.667h79.089L377.755,192z M330.034,426.667h96.633V384H287.367
	L330.034,426.667z M340.254,256c-4.956,24.314-26.5,42.667-52.254,42.667h-64c-14.587,0-27.693-6.02-37.329-15.544l-0.098,0.083
	l79.461,79.461h160.633V256H340.254z"/>
<linearGradient id="SVGID_3_" gradientUnits="userSpaceOnUse" x1="-46.6106" y1="639.4015" x2="-22.2387" y2="628.037" gradientTransform="matrix(21.3333 0 0 -21.3333 996.3334 13791.667)">
	<stop  offset="0" style="stop-color:#FFFFFF;stop-opacity:0.2"/>
	<stop  offset="1" style="stop-color:#FFFFFF;stop-opacity:0"/>
</linearGradient>
<path style="fill:url(#SVGID_3_);" d="M394.667,64H117.333C52.635,64,0,116.635,0,181.333v224C0,428.865,19.135,448,42.667,448
	h426.667C492.865,448,512,428.865,512,405.333v-224C512,116.635,459.365,64,394.667,64z"/>
<g>
</g>
<g>
</g>
<g>
</g>
<g>
</g>
<g>
</g>
<g>
</g>
<g>
</g>
<g>
</g>
<g>
</g>
<g>
</g>
<g>
</g>
<g>
</g>
<g>
</g>
<g>
</g>
<g>
</g>
</svg>
