<?xml version="1.0" encoding="iso-8859-1"?>
<!-- Generator: Adobe Illustrator 19.0.0, SVG Export Plug-In . SVG Version: 6.00 Build 0)  -->
<svg version="1.1" id="Capa_1" xmlns="http://www.w3.org/2000/svg" xmlns:xlink="http://www.w3.org/1999/xlink" x="0px" y="0px"
	 viewBox="0 0 469.333 469.333" style="enable-background:new 0 0 469.333 469.333;" xml:space="preserve">
<path style="fill:#303C42;" d="M277.333,89.144V52.607C277.333-17.536,0-17.536,0,52.607v213.706
	c0,27.574,43.163,44.763,95.089,50.874C76.096,325.706,64,337.211,64,351.795v64.112c0,35.072,69.76,53.426,138.667,53.426
	s138.667-18.355,138.667-53.426v-32.233c65.254-1.793,128-19.988,128-53.249V138.09C469.333,93.808,358.837,77.515,277.333,89.144z"
	/>
<path style="fill:#FFD553;" d="M448,138.667c0,10.865-41.417,32-117.333,32s-117.333-21.135-117.333-32s41.417-32,117.333-32
	S448,127.802,448,138.667z"/>
<path style="fill:#303C42;" d="M213.333,296.349c2.03,1.221,4.142,2.408,6.409,3.536c-2.135-0.089-4.266-0.176-6.409-0.232V296.349z
	"/>
<path style="fill:#FFD553;" d="M138.667,21.333c75.917,0,117.333,21.135,117.333,32s-41.417,32-117.333,32
	s-117.333-21.135-117.333-32S62.75,21.333,138.667,21.333z"/>
<g>
	<path style="fill:#FFCA28;" d="M21.333,83.016c25.883,15.578,71.73,23.651,117.333,23.651S230.117,98.594,256,83.016v10.6
		c-37.069,8.221-64,23.234-64,45.051v6.311c-16.717,2.682-34.762,4.355-53.333,4.355c-75.917,0-117.333-21.135-117.333-32V83.016z"
		/>
	<path style="fill:#FFCA28;" d="M21.333,147.016c25.883,15.578,71.73,23.651,117.333,23.651c18.464,0,36.411-1.658,53.333-4.186
		v53.164c-16.717,2.682-34.762,4.355-53.333,4.355c-75.917,0-117.333-21.135-117.333-32V147.016z"/>
	<path style="fill:#FFCA28;" d="M21.333,266.667v-44.984c25.883,15.578,71.73,23.651,117.333,23.651
		c18.464,0,36.411-1.658,53.333-4.186v53.164c-16.717,2.682-34.762,4.355-53.333,4.355C62.75,298.667,21.333,277.531,21.333,266.667
		z"/>
</g>
<path style="fill:#FFD553;" d="M202.667,320C278.583,320,320,341.135,320,352c0,10.865-41.417,32-117.333,32
	S85.333,362.865,85.333,352C85.333,341.135,126.75,320,202.667,320z"/>
<g>
	<path style="fill:#FFCA28;" d="M202.667,448c-75.917,0-117.333-21.135-117.333-32v-34.318
		c25.883,15.578,71.73,23.651,117.333,23.651c43.652,0,87.587-7.378,113.971-21.669c1.108,0.042,2.249,0.047,3.362,0.081V416
		C320,426.865,278.583,448,202.667,448z"/>
	<path style="fill:#FFCA28;" d="M341.333,362.297V352c0-13.327-10.085-24.099-26.353-32.353c5.216,0.211,10.448,0.353,15.686,0.353
		c45.603,0,91.451-8.073,117.333-23.651v34.318C448,340.991,410.204,360.375,341.333,362.297z"/>
	<path style="fill:#FFCA28;" d="M330.667,298.667c-75.917,0-117.333-21.135-117.333-32v-34.318
		C239.216,247.927,285.064,256,330.667,256s91.451-8.073,117.333-23.651v34.318C448,277.531,406.583,298.667,330.667,298.667z"/>
</g>
<path style="opacity:0.1;enable-background:new    ;" d="M314.98,319.647c16.268,8.254,26.353,19.026,26.353,32.353v10.297
	c7.54-0.211,14.547-0.708,21.333-1.302c0-4.491,0-7.823,0-8.995c0-12.69-4.73-23.414-12.667-32.529
	c-6.417,0.323-12.868,0.529-19.333,0.529C325.428,320,320.197,319.858,314.98,319.647z"/>
<path style="opacity:0.1;enable-background:new    ;" d="M223.995,277.94c15.517,9.396,48.32,19.085,96.43,20.372
	C294.092,285.967,258.749,279.725,223.995,277.94z"/>
<path style="opacity:0.1;enable-background:new    ;" d="M181.333,220.952c3.538-0.46,7.233-0.757,10.667-1.307V166.48
	c-3.46,0.517-7.126,0.806-10.667,1.243C181.333,183.505,181.333,203.168,181.333,220.952z"/>
<path style="opacity:0.1;enable-background:new    ;" d="M181.333,266.667c0,9.934,3.952,18.568,10.667,26.089v-51.608
	c-3.46,0.517-7.126,0.806-10.667,1.243C181.333,256.645,181.333,266.667,181.333,266.667z"/>
<path style="opacity:0.1;enable-background:new    ;" d="M181.333,138.667c0,0.727,0,3.484,0,7.618
	c3.538-0.46,7.233-0.757,10.667-1.307v-6.311c0-21.816,26.931-36.829,64-45.051v-10.6c-12.383,7.453-29.408,13.135-48.716,17.09
	C191.241,109.926,181.333,122.677,181.333,138.667z"/>
<path style="fill:#FFCA28;" d="M330.667,234.667c-75.917,0-117.333-21.135-117.333-32v-34.318
	C239.216,183.927,285.064,192,330.667,192s91.451-8.073,117.333-23.651v34.318C448,213.531,406.583,234.667,330.667,234.667z"/>
<linearGradient id="SVGID_1_" gradientUnits="userSpaceOnUse" x1="-68.9381" y1="617.8747" x2="-45.6726" y2="607.029" gradientTransform="matrix(21.3333 0 0 -21.3333 1430.1112 13315.2227)">
	<stop  offset="0" style="stop-color:#FFFFFF;stop-opacity:0.2"/>
	<stop  offset="1" style="stop-color:#FFFFFF;stop-opacity:0"/>
</linearGradient>
<path style="fill:url(#SVGID_1_);" d="M277.333,89.144V52.607C277.333-17.536,0-17.536,0,52.607v213.706
	c0,27.574,43.163,44.763,95.089,50.874C76.096,325.706,64,337.211,64,351.795v64.112c0,35.072,69.76,53.426,138.667,53.426
	s138.667-18.355,138.667-53.426v-32.233c65.254-1.793,128-19.988,128-53.249V138.09C469.333,93.808,358.837,77.515,277.333,89.144z"
	/>
<g>
</g>
<g>
</g>
<g>
</g>
<g>
</g>
<g>
</g>
<g>
</g>
<g>
</g>
<g>
</g>
<g>
</g>
<g>
</g>
<g>
</g>
<g>
</g>
<g>
</g>
<g>
</g>
<g>
</g>
</svg>
