<?xml version="1.0" encoding="iso-8859-1"?>
<!-- Generator: Adobe Illustrator 19.0.0, SVG Export Plug-In . SVG Version: 6.00 Build 0)  -->
<svg version="1.1" id="Layer_1" xmlns="http://www.w3.org/2000/svg" xmlns:xlink="http://www.w3.org/1999/xlink" x="0px" y="0px"
	 viewBox="0 0 512 512" style="enable-background:new 0 0 512 512;" xml:space="preserve">
<g>
	<path style="fill:#EEBF00;" d="M177.357,384.43H32.364v50.429h178.883C197.136,420.309,185.599,403.257,177.357,384.43z"/>
	<path style="fill:#EEBF00;" d="M211.957,435.587c-0.238-0.242-0.475-0.485-0.712-0.729H32.364H14.752v51.887h317.168v-0.024
		C284.945,486.214,242.527,466.739,211.957,435.587z"/>
	<path style="fill:#EEBF00;" d="M163.092,316.041c0-11.617,1.166-22.961,3.377-33.927H19.932v50.429h143.957
		C163.368,327.112,163.092,321.609,163.092,316.041z"/>
	<path style="fill:#EEBF00;" d="M177.038,383.701c-6.798-15.727-11.305-32.675-13.085-50.429c-0.024-0.242-0.041-0.486-0.065-0.729
		H19.932H7.5v51.887h24.864h144.993C177.251,384.187,177.143,383.945,177.038,383.701z"/>
	<path style="fill:#EEBF00;" d="M7.5,230.228v51.887h12.432h146.537c0.049-0.243,0.096-0.486,0.146-0.729
		c3.773-18.294,10.477-35.514,19.592-51.158H7.5z"/>
	<path style="fill:#EEBF00;" d="M233.433,177.956H37.544v51.887h148.891C198.376,209.471,214.419,191.8,233.433,177.956z"/>
</g>
<g>
	<path style="fill:#CBA400;" d="M211.957,435.587c-0.238-0.242-0.475-0.485-0.712-0.729c-14.109-14.55-25.647-31.602-33.89-50.429
		c-0.106-0.243-0.214-0.485-0.319-0.729c-6.798-15.727-11.305-32.675-13.085-50.429c-0.024-0.242-0.041-0.486-0.065-0.729
		c-0.521-5.431-0.797-10.935-0.797-16.503c0-11.617,1.166-22.961,3.377-33.927c0.049-0.243,0.096-0.486,0.146-0.729
		c3.773-18.294,10.477-35.514,19.592-51.158h-31.122c-7.79,16.195-13.435,33.614-16.587,51.887
		c-1.902,11.025-2.904,22.358-2.904,33.927c0,5.558,0.241,11.06,0.689,16.503c1.492,18.093,5.404,35.499,11.429,51.887
		c6.696,18.215,15.991,35.174,27.434,50.429c15.658,20.874,35.345,38.546,57.899,51.887h98.874v-0.024
		C284.945,486.214,242.527,466.739,211.957,435.587z"/>
	<path style="fill:#CBA400;" d="M233.433,177.956h-41.805c-14.724,15.157-27.052,32.652-36.357,51.887h31.162
		C198.376,209.471,214.419,191.8,233.433,177.956z"/>
</g>
<path id="SVGCleanerId_0" style="fill:#EEBF00;" d="M333.795,145.337c-94.277,0-170.705,76.427-170.705,170.705
	s76.427,170.704,170.705,170.704S504.5,410.319,504.5,316.04S428.074,145.337,333.795,145.337z M333.795,462.309
	c-80.781,0-146.268-65.486-146.268-146.268s65.486-146.268,146.268-146.268s146.268,65.486,146.268,146.268
	S414.578,462.309,333.795,462.309z"/>
<path style="fill:#FED322;" d="M333.795,169.772c-80.781,0-146.268,65.486-146.268,146.268s65.486,146.268,146.268,146.268
	s146.268-65.486,146.268-146.268S414.578,169.772,333.795,169.772z M333.795,409.09c-51.39,0-93.048-41.66-93.048-93.048
	s41.66-93.048,93.048-93.048s93.048,41.66,93.048,93.048S385.185,409.09,333.795,409.09z"/>
<circle style="fill:#EEBF00;" cx="333.797" cy="316.046" r="93.049"/>
<g>
	<path id="SVGCleanerId_0_1_" style="fill:#EEBF00;" d="M333.795,145.337c-94.277,0-170.705,76.427-170.705,170.705
		s76.427,170.704,170.705,170.704S504.5,410.319,504.5,316.04S428.074,145.337,333.795,145.337z M333.795,462.309
		c-80.781,0-146.268-65.486-146.268-146.268s65.486-146.268,146.268-146.268s146.268,65.486,146.268,146.268
		S414.578,462.309,333.795,462.309z"/>
</g>
<path d="M333.795,215.492c-55.443,0-100.548,45.106-100.548,100.548s45.106,100.548,100.548,100.548s100.548-45.106,100.548-100.548
	S389.238,215.492,333.795,215.492z M333.795,401.59c-47.172,0-85.548-38.377-85.548-85.548s38.377-85.548,85.548-85.548
	s85.548,38.377,85.548,85.548S380.967,401.59,333.795,401.59z"/>
<path d="M365.593,318.408c-2.909-2.366-6.458-4.337-10.648-5.916c-4.101-1.542-8.655-2.989-13.649-4.345v-26.07
	c0.583,0.121,1.165,0.243,1.744,0.392c3.055,0.791,5.89,1.752,8.504,2.884c2.611,1.134,4.83,2.292,6.655,3.476
	c1.823,1.183,3.081,2.121,3.771,2.81l9.021-16.564c-4.636-3.154-10.057-5.891-16.269-8.208c-4.203-1.567-8.683-2.591-13.428-3.099
	v-16.595h-15v16.802c-2.385,0.357-4.693,0.874-6.919,1.56c-4.636,1.43-8.703,3.526-12.202,6.285
	c-3.501,2.762-6.237,6.212-8.208,10.353c-1.974,4.141-2.958,8.874-2.958,14.198c0,4.044,0.615,7.52,1.849,10.426
	c1.232,2.91,3.081,5.472,5.546,7.691c2.463,2.218,5.546,4.141,9.243,5.768c3.697,1.627,8.061,3.131,13.089,4.511
	c0.191,0.055,0.37,0.106,0.56,0.16v26.028c-0.681-0.143-1.363-0.281-2.039-0.455c-3.845-0.984-7.346-2.193-10.5-3.624
	c-3.157-1.428-5.893-2.858-8.208-4.289c-2.318-1.428-3.919-2.588-4.807-3.476l-9.021,17.599c6.112,4.34,13.015,7.691,20.705,10.057
	c4.588,1.412,9.212,2.393,13.87,2.962v17.009h15v-16.674c3.157-0.263,6.235-0.728,9.213-1.448c4.682-1.132,8.823-2.933,12.423-5.398
	c3.598-2.463,6.457-5.694,8.578-9.687c2.119-3.993,3.18-8.8,3.18-14.419c0-4.83-0.791-8.897-2.366-12.202
	C370.744,323.61,368.5,320.774,365.593,318.408z M323.074,302.287c-1.974-1.083-3.476-2.341-4.511-3.771
	c-1.035-1.428-1.553-3.229-1.553-5.398c0-3.746,1.38-6.655,4.141-8.726c1.364-1.024,3.081-1.792,5.145-2.31v21.706
	C325.103,303.311,324.025,302.811,323.074,302.287z M341.295,351.663v-22.209c1.558,0.579,2.986,1.184,4.258,1.821
	c2.366,1.183,4.189,2.565,5.472,4.141c1.28,1.579,1.922,3.501,1.922,5.768C352.948,347.165,349.055,350.651,341.295,351.663z"/>
<rect x="297.279" y="46.799" transform="matrix(-0.0014 -1 1 -0.0014 279.9818 388.1887)" width="73.07" height="15"/>
<rect x="423.042" y="40.499" transform="matrix(-0.9082 -0.4186 0.4186 -0.9082 789.3038 327.2164)" width="15" height="73.071"/>
<rect x="200.609" y="69.787" transform="matrix(-0.4211 -0.907 0.907 -0.4211 266.9048 324.924)" width="73.068" height="15"/>
<path d="M512,316.041c0-98.262-79.942-178.205-178.205-178.205c-38.194,0-73.617,12.083-102.656,32.62H30.044v52.272H0v7.307v52.272
	v7.308h12.432v35.429H0v66.886h24.864v35.43H7.252v66.886h324.666l1.5-0.005c0.126,0,0.251,0.005,0.377,0.005
	c0.211,0,0.42-0.007,0.63-0.008l4.993-0.016v-0.074C435.089,491.166,512,412.42,512,316.041z M156.947,294.064
	c-0.126,1.024-0.244,2.05-0.353,3.077c-0.05,0.473-0.098,0.946-0.145,1.42c-0.094,0.964-0.179,1.93-0.258,2.896
	c-0.031,0.387-0.068,0.774-0.097,1.162c-0.096,1.289-0.177,2.579-0.246,3.869c-0.022,0.417-0.039,0.835-0.058,1.252
	c-0.046,0.987-0.083,1.973-0.113,2.96c-0.012,0.421-0.026,0.843-0.035,1.265c-0.031,1.358-0.052,2.717-0.052,4.076
	c0,3.019,0.077,6.02,0.226,9.002h-4.239v-35.429h5.966c-0.176,1.184-0.338,2.371-0.49,3.559
	C157.016,293.469,156.984,293.767,156.947,294.064z M69.881,340.043v36.887H41.107v-36.887H69.881z M42.245,427.359v-35.43h28.775
	v35.43H42.245z M113.655,340.043v36.887H84.881v-36.887H113.655z M86.019,427.359v-35.43h28.775v35.43H86.019z M129.794,427.359
	v-35.43h28.774v35.43H129.794z M173.568,427.359v-33.3c5.782,11.865,12.82,23.011,21.068,33.3H173.568z M155.434,376.93h-26.778
	v-36.887h26.795L155.434,376.93z M107.804,325.043v-35.429h28.775v35.429H107.804z M58.775,274.615v-36.887h28.774v36.887H58.775z
	 M131.323,237.728v36.887h-28.775v-36.887L131.323,237.728L131.323,237.728z M146.323,274.615v-36.887h27.363
	c-5.776,11.779-10.213,24.128-13.25,36.887H146.323z M182.197,222.343h-17.384v-36.887h21.523v30.535
	C184.92,218.079,183.53,220.188,182.197,222.343z M149.813,222.343h-28.774v-36.887h28.775v36.887H149.813z M106.039,222.343H77.264
	v-36.887h28.775V222.343z M43.775,274.615H15v-36.887h28.775V274.615z M92.804,289.614v35.429H64.029v-35.429L92.804,289.614
	L92.804,289.614z M74.127,442.359v36.887H45.353v-36.887H74.127z M89.127,442.359h28.774v36.887H89.127V442.359z M132.901,442.359
	h28.775v36.887h-28.775V442.359z M176.676,442.359h28.775v36.887h-28.775V442.359z M220.45,453.563
	c9.004,7.449,18.641,13.929,28.775,19.407v6.276H220.45V453.563z M201.335,196.841v-11.385h11.189
	C208.614,189.082,204.894,192.889,201.335,196.841z M45.044,185.456h17.221v36.887H45.044V185.456z M27.432,289.614H49.03v35.429
	H27.432V289.614z M15,376.93v-36.887h11.107v36.887h-1.243H15z M22.252,442.359h2.612h5.489v36.887h-8.101V442.359z
	 M333.968,479.243L332,479.222c-2.689-0.029-5.367-0.124-8.033-0.281c-0.085-0.005-0.169-0.011-0.254-0.016
	c-1.213-0.074-2.423-0.161-3.63-0.261c-0.261-0.022-0.52-0.047-0.781-0.07c-1.016-0.089-2.03-0.186-3.042-0.293
	c-0.537-0.058-1.071-0.121-1.606-0.184c-0.722-0.084-1.444-0.169-2.164-0.262c-0.932-0.122-1.861-0.254-2.789-0.391
	c-0.312-0.046-0.624-0.089-0.935-0.137C238.718,466.5,183.234,410.97,172.481,340.896c-0.005-0.034-0.01-0.068-0.015-0.102
	c-0.187-1.225-0.358-2.454-0.518-3.688c-0.023-0.179-0.047-0.357-0.069-0.536c-0.156-1.238-0.299-2.48-0.427-3.727l-0.05-0.524
	c-0.038-0.385-0.068-0.773-0.103-1.159c-0.099-1.073-0.193-2.147-0.271-3.221c-0.013-0.174-0.021-0.348-0.033-0.522
	c-0.08-1.15-0.152-2.3-0.208-3.447c-0.014-0.291-0.021-0.584-0.033-0.876c-0.044-1.021-0.086-2.043-0.111-3.06
	c-0.032-1.328-0.051-2.658-0.051-3.994c0-1.382,0.018-2.759,0.052-4.133c0.019-0.744,0.054-1.487,0.083-2.23
	c0.024-0.625,0.04-1.252,0.072-1.876c0.043-0.856,0.103-1.711,0.159-2.567c0.034-0.514,0.06-1.029,0.098-1.542
	c0.06-0.8,0.137-1.599,0.209-2.398c0.052-0.574,0.096-1.15,0.153-1.723c0.064-0.642,0.143-1.282,0.215-1.923
	c0.084-0.742,0.161-1.485,0.255-2.223c0.051-0.404,0.112-0.806,0.166-1.209c0.133-0.988,0.265-1.975,0.415-2.957
	c0.016-0.105,0.035-0.21,0.051-0.315c12.108-78.119,79.816-138.109,161.275-138.109c89.991,0,163.205,73.213,163.205,163.205
	C497,405.975,423.88,479.149,333.968,479.243z"/>
<path d="M487.514,312.078c-2.076-81.647-68.107-147.68-149.756-149.756c-1.317-0.034-2.638-0.05-3.963-0.05s-2.646,0.017-3.963,0.05
	c-81.647,2.076-147.68,68.107-149.756,149.756c-0.034,1.317-0.05,2.638-0.05,3.963s0.017,2.646,0.05,3.963
	c2.076,81.647,68.107,147.68,149.756,149.756c1.317,0.034,2.638,0.05,3.963,0.05s2.646-0.017,3.963-0.05
	c81.647-2.076,147.68-68.107,149.756-149.756c0.034-1.317,0.05-2.638,0.05-3.963S487.547,313.395,487.514,312.078z M333.795,454.809
	c-76.517,0-138.769-62.251-138.769-138.769s62.252-138.769,138.769-138.769s138.769,62.251,138.769,138.769
	S410.313,454.809,333.795,454.809z"/>
<g>
</g>
<g>
</g>
<g>
</g>
<g>
</g>
<g>
</g>
<g>
</g>
<g>
</g>
<g>
</g>
<g>
</g>
<g>
</g>
<g>
</g>
<g>
</g>
<g>
</g>
<g>
</g>
<g>
</g>
</svg>
