<?xml version="1.0" encoding="iso-8859-1"?>
<!-- Generator: Adobe Illustrator 19.0.0, SVG Export Plug-In . SVG Version: 6.00 Build 0)  -->
<svg version="1.1" id="Layer_1" xmlns="http://www.w3.org/2000/svg" xmlns:xlink="http://www.w3.org/1999/xlink" x="0px" y="0px"
	 viewBox="0 0 511.963 511.963" style="enable-background:new 0 0 511.963 511.963;" xml:space="preserve">
<g>
	<polygon style="fill:#FECD57;" points="470.97,96.987 10.507,360.462 44.004,421.959 500.968,151.983 	"/>
	<polygon style="fill:#FECD57;" points="42.505,96.987 10.507,153.983 470.97,418.46 500.968,360.462 	"/>
</g>
<g>
	<polygon style="fill:#EC5564;" points="371.977,150.983 358.978,232.979 439.972,182.982 445.472,112.486 	"/>
	<polygon style="fill:#EC5564;" points="76.003,322.965 63.003,404.961 143.999,354.963 149.499,284.467 	"/>
	<path style="fill:#EC5564;" d="M106.252,133.484l-75.246,25.999l86.495,39.998c3-1,67.496-24.499,67.496-24.499L106.252,133.484z"
		/>
	<path style="fill:#EC5564;" d="M398.225,306.466l-75.245,25.998l86.494,39.998c3-1,67.496-24.498,67.496-24.498L398.225,306.466z"
		/>
</g>
<path style="fill:#ED5564;" d="M335.479,255.993c0,43.896-35.591,79.487-79.487,79.487c-43.903,0-79.495-35.592-79.495-79.487
	c0-43.904,35.592-79.495,79.495-79.495C299.888,176.498,335.479,212.089,335.479,255.993z"/>
<path d="M506.625,351.448l-16.904-9.765l0,0L351.76,262.038c0.125-2,0.188-4.015,0.188-6.046c0-2.031-0.062-4.046-0.188-6.046
	l154.865-89.417c5.125-2.953,6.844-9.468,3.906-14.577l-31.998-55.403c-1.406-2.438-3.719-4.234-6.469-4.969
	c-2.719-0.719-5.624-0.344-8.093,1.062l-154.897,89.432c-15.217-10.125-33.466-16.062-53.098-16.062
	c-19.608,0-37.872,5.937-53.09,16.062L47.989,86.644c-2.453-1.406-5.358-1.781-8.093-1.062c-2.734,0.734-5.062,2.531-6.469,4.969
	L1.429,145.953c-2.938,5.109-1.203,11.624,3.906,14.577L160.2,249.947c-0.125,2-0.188,4.015-0.188,6.046s0.062,4.046,0.188,6.046
	l-82.526,47.646h-0.016L5.336,351.432c-5.109,2.953-6.844,9.468-3.906,14.577l31.998,55.418c1.406,2.438,3.734,4.219,6.469,4.969
	c0.906,0.234,1.828,0.344,2.75,0.344c1.858,0,3.702-0.469,5.343-1.422l154.897-89.432c15.218,10.141,33.481,16.077,53.09,16.077
	c19.632,0,37.881-5.937,53.098-16.077l154.897,89.447c1.656,0.938,3.5,1.406,5.343,1.406c0.906,0,1.844-0.109,2.75-0.344
	c2.75-0.75,5.062-2.531,6.469-4.969l31.998-55.418C513.468,360.9,511.75,354.385,506.625,351.448z M382.882,304.623l-54.84,14.687
	c8.812-10.03,15.592-21.937,19.654-34.998L382.882,304.623z M461.534,112.673l3.875-2.219l21.343,36.936l-40.811,23.561
	L461.534,112.673z M387.664,155.327l47.747-27.561l-15.593,58.262l-47.779,27.576L387.664,155.327z M346.884,225.167
	c-4.406-12.921-11.468-24.608-20.561-34.404l35.217-20.342L346.884,225.167z M25.225,147.39l21.326-36.936l40.811,23.561
	l-58.263,15.608L25.225,147.39z M55.223,164.701l58.262-15.608l47.747,27.577l-58.262,15.608L55.223,164.701z M129.093,207.355
	l54.841-14.687c-8.828,10.031-15.608,21.92-19.655,34.998L129.093,207.355z M50.426,399.289l-3.875,2.234l-21.326-36.936
	l40.81-23.561L50.426,399.289z M124.296,356.634l-47.763,27.577l15.624-58.278l47.748-27.561L124.296,356.634z M165.091,286.811
	c4.391,12.905,11.468,24.608,20.562,34.404l-35.232,20.343L165.091,286.811z M181.34,255.993c0-41.169,33.482-74.636,74.636-74.636
	c41.162,0,74.66,33.467,74.66,74.636c0,41.146-33.498,74.628-74.66,74.628C214.823,330.621,181.34,297.138,181.34,255.993z
	 M350.728,335.308l58.277-15.608l47.748,27.577l-58.278,15.607L350.728,335.308z M465.409,401.523l-40.81-23.561l58.277-15.609
	l3.875,2.234L465.409,401.523z"/>
<path d="M255.976,277.312c5.891,0,10.672-4.781,10.672-10.648v-53.325c0-5.89-4.781-10.671-10.672-10.671
	c-5.874,0-10.655,4.781-10.655,10.671v53.325C245.321,272.531,250.102,277.312,255.976,277.312z"/>
<path d="M255.976,287.967c-5.874,0-10.655,4.78-10.655,10.671s4.781,10.672,10.655,10.672c5.891,0,10.672-4.781,10.672-10.672
	S261.867,287.967,255.976,287.967z"/>
<g>
</g>
<g>
</g>
<g>
</g>
<g>
</g>
<g>
</g>
<g>
</g>
<g>
</g>
<g>
</g>
<g>
</g>
<g>
</g>
<g>
</g>
<g>
</g>
<g>
</g>
<g>
</g>
<g>
</g>
</svg>
