<?xml version="1.0" encoding="iso-8859-1"?>
<!-- Generator: Adobe Illustrator 19.0.0, SVG Export Plug-In . SVG Version: 6.00 Build 0)  -->
<svg version="1.1" id="Capa_1" xmlns="http://www.w3.org/2000/svg" xmlns:xlink="http://www.w3.org/1999/xlink" x="0px" y="0px"
	 viewBox="0 0 512 512" style="enable-background:new 0 0 512 512;" xml:space="preserve">
<path style="fill:#303C42;" d="M469.333,170.667V85.333c0-23.531-19.146-42.667-42.667-42.667h-384C19.146,42.667,0,61.802,0,85.333
	v85.333c0,12.805,5.786,24.174,14.746,32C5.786,210.492,0,221.862,0,234.667V320c0,23.531,19.146,42.667,42.667,42.667h384
	c23.521,0,42.667-19.135,42.667-42.667v-85.333c0-12.805-5.786-24.174-14.746-32C463.547,194.841,469.333,183.471,469.333,170.667z"
	/>
<g>
	<path style="fill:#E6E6E6;" d="M448,234.667V320c0,11.76-9.563,21.333-21.333,21.333h-384c-11.771,0-21.333-9.573-21.333-21.333
		v-85.333c0-11.76,9.563-21.333,21.333-21.333h384C438.438,213.333,448,222.906,448,234.667z"/>
	<path style="fill:#E6E6E6;" d="M42.667,192c-11.771,0-21.333-9.573-21.333-21.333V85.333C21.333,73.573,30.896,64,42.667,64h384
		C438.438,64,448,73.573,448,85.333v85.333c0,11.76-9.563,21.333-21.333,21.333H42.667z"/>
</g>
<path style="opacity:0.1;enable-background:new    ;" d="M426.667,213.333h-19.201c10.594,0,19.201,9.573,19.201,21.333V320
	c0,11.76-8.607,21.333-19.201,21.333h19.201C438.438,341.333,448,331.76,448,320v-85.333
	C448,222.906,438.438,213.333,426.667,213.333z"/>
<g>
	<path style="opacity:0.2;fill:#FFFFFF;enable-background:new    ;" d="M42.667,320v-85.333c0-11.76,8.607-21.333,19.201-21.333
		H42.667c-11.771,0-21.333,9.573-21.333,21.333V320c0,11.76,9.563,21.333,21.333,21.333h19.201
		C51.273,341.333,42.667,331.76,42.667,320z"/>
	<path style="opacity:0.2;fill:#FFFFFF;enable-background:new    ;" d="M42.667,170.667V85.333C42.667,73.573,51.273,64,61.867,64
		H42.667c-11.771,0-21.333,9.573-21.333,21.333v85.333c0,11.76,9.563,21.333,21.333,21.333h19.201
		C51.273,192,42.667,182.427,42.667,170.667z"/>
</g>
<path style="opacity:0.1;enable-background:new    ;" d="M426.667,64h-19.201c10.594,0,19.201,9.573,19.201,21.333v85.333
	c0,11.76-8.607,21.333-19.201,21.333h19.201c11.771,0,21.333-9.573,21.333-21.333V85.333C448,73.573,438.438,64,426.667,64z"/>
<g>
	<path style="fill:#303C42;" d="M74.667,170.667C68.771,170.667,64,165.896,64,160V96c0-5.896,4.771-10.667,10.667-10.667
		c5.896,0,10.667,4.771,10.667,10.667v64C85.333,165.896,80.563,170.667,74.667,170.667z"/>
	<path style="fill:#303C42;" d="M117.333,170.667c-5.896,0-10.667-4.771-10.667-10.667V96c0-5.896,4.771-10.667,10.667-10.667
		S128,90.104,128,96v64C128,165.896,123.229,170.667,117.333,170.667z"/>
	<path style="fill:#303C42;" d="M160,170.667c-5.896,0-10.667-4.771-10.667-10.667V96c0-5.896,4.771-10.667,10.667-10.667
		c5.896,0,10.667,4.771,10.667,10.667v64C170.667,165.896,165.896,170.667,160,170.667z"/>
	<path style="fill:#303C42;" d="M74.667,320C68.771,320,64,315.229,64,309.333v-64c0-5.896,4.771-10.667,10.667-10.667
		c5.896,0,10.667,4.771,10.667,10.667v64C85.333,315.229,80.563,320,74.667,320z"/>
	<path style="fill:#303C42;" d="M117.333,320c-5.896,0-10.667-4.771-10.667-10.667v-64c0-5.896,4.771-10.667,10.667-10.667
		S128,239.438,128,245.333v64C128,315.229,123.229,320,117.333,320z"/>
	<path style="fill:#303C42;" d="M160,320c-5.896,0-10.667-4.771-10.667-10.667v-64c0-5.896,4.771-10.667,10.667-10.667
		c5.896,0,10.667,4.771,10.667,10.667v64C170.667,315.229,165.896,320,160,320z"/>
	<circle style="fill:#303C42;" cx="384" cy="128" r="21.333"/>
	<circle style="fill:#303C42;" cx="320" cy="128" r="21.333"/>
	<circle style="fill:#303C42;" cx="384" cy="277.333" r="21.333"/>
	<circle style="fill:#303C42;" cx="320" cy="277.333" r="21.333"/>
	<circle style="fill:#303C42;" cx="394.667" cy="352" r="117.333"/>
</g>
<circle style="fill:#7CB342;" cx="394.667" cy="352" r="96"/>
<path style="fill:#303C42;" d="M440.458,312.458l-67.125,67.125l-24.458-24.458c-4.167-4.167-10.917-4.167-15.083,0
	c-4.167,4.167-4.167,10.917,0,15.083l32,32c2.083,2.083,4.813,3.125,7.542,3.125s5.458-1.042,7.542-3.125l74.667-74.667
	c4.167-4.167,4.167-10.917,0-15.083C451.375,308.292,444.625,308.292,440.458,312.458z"/>
<linearGradient id="SVGID_1_" gradientUnits="userSpaceOnUse" x1="-47.0148" y1="642.2591" x2="-21.8771" y2="630.5372" gradientTransform="matrix(21.3333 0 0 -21.3333 996.3334 13791.667)">
	<stop  offset="0" style="stop-color:#FFFFFF;stop-opacity:0.2"/>
	<stop  offset="1" style="stop-color:#FFFFFF;stop-opacity:0"/>
</linearGradient>
<path style="fill:url(#SVGID_1_);" d="M469.333,261.561v-26.895c0-12.805-5.786-24.174-14.746-32
	c8.96-7.826,14.746-19.195,14.746-32V85.333c0-23.531-19.146-42.667-42.667-42.667h-384C19.146,42.667,0,61.802,0,85.333v85.333
	c0,12.805,5.786,24.174,14.746,32C5.786,210.492,0,221.862,0,234.667V320c0,23.531,19.146,42.667,42.667,42.667h235.207
	c5.414,59.711,55.695,106.667,116.793,106.667C459.365,469.333,512,416.698,512,352C512,315.643,495.376,283.1,469.333,261.561z"/>
<g>
</g>
<g>
</g>
<g>
</g>
<g>
</g>
<g>
</g>
<g>
</g>
<g>
</g>
<g>
</g>
<g>
</g>
<g>
</g>
<g>
</g>
<g>
</g>
<g>
</g>
<g>
</g>
<g>
</g>
</svg>
