<?xml version="1.0" encoding="iso-8859-1"?>
<!-- Generator: Adobe Illustrator 19.0.0, SVG Export Plug-In . SVG Version: 6.00 Build 0)  -->
<svg version="1.1" id="Capa_1" xmlns="http://www.w3.org/2000/svg" xmlns:xlink="http://www.w3.org/1999/xlink" x="0px" y="0px"
	 viewBox="0 0 512 512" style="enable-background:new 0 0 512 512;" xml:space="preserve">
<path style="fill:#303C42;" d="M507.448,108.594c-2.844-2-6.49-2.49-9.76-1.281l-86.958,31.625
	c-10.781,3.917-19.365,11.813-24.167,22.229c-0.9,1.953-1.491,3.982-2.083,6.008c-14.932-4.245-42.682-13.111-70.26-27.32
	c-41.673-21.473-73.51-10.867-100.816,9.961c-13.836,0.272-32.906,1.908-51.652,3.56c-11.958,1.055-23.259,2.026-32.423,2.585
	c-0.225-5.504-1.513-10.966-3.889-16.126c-4.802-10.417-13.385-18.313-24.167-22.229L14.312,85.979
	c-3.26-1.198-6.927-0.708-9.76,1.281C1.698,89.261,0,92.521,0,96v213.333C0,315.229,4.771,320,10.667,320h31.156
	c13.251,0,25.579-6.25,33.548-16.342c4.245,3.228,9.273,7.008,14.546,10.967c12.448,9.365,26.073,19.583,32.052,24.594
	c39.719,33.25,87.469,69.156,96.979,75.406c8.885,5.833,24.885,12.042,37.052,12.042c4.76,0,16.75,0,25.167-7.115
	c8.677,3.406,18.031,3.24,26.729-0.594c8.677-3.823,15.698-11.031,19.781-19.792c8.333,1.708,17.906,0.458,26.583-3.896
	c8.135-4.073,14.125-10.24,17.333-17.448c7.708,0.708,15.938-1.802,23.302-7.438c10.522-8.043,15.34-19.921,13.977-31.639
	l27.057-14.969c7.924,10.741,20.518,17.556,34.247,17.556h31.156c5.896,0,10.667-4.771,10.667-10.667V117.334
	C512,113.854,510.302,110.594,507.448,108.594z"/>
<path style="fill:#FDD1B0;" d="M304.448,158.813c33.164,17.099,65.895,26.767,79.635,30.419c0.397,1.598,0.685,3.212,1.271,4.779
	l41.417,110.451l-26.523,14.673c-14.212-19.012-45.02-44.449-75.039-69.186c-20.01-16.49-38.906-32.063-51-44.156
	c-3.333-3.313-8.448-4.063-12.573-1.865c-10.865,5.823-15.76,8.229-28.031,9.458c-3.271,0.333-6.208,2.146-7.958,4.927
	c-8.365,13.271-31.615,19.583-38.99,14.979c-4.188-2.625-5-5.292-5.229-7.323c-1.031-9.073,8.156-24.781,23.396-40.031
	C242.563,148.198,269.542,140.813,304.448,158.813z"/>
<path style="fill:#8D6E63;" d="M304.448,158.813c33.164,17.099,65.895,26.767,79.635,30.419c0.397,1.598,0.685,3.212,1.271,4.779
	l41.417,110.451l-26.523,14.673c-14.212-19.012-45.02-44.449-75.039-69.186c-20.01-16.49-38.906-32.063-51-44.156
	c-3.333-3.313-8.448-4.063-12.573-1.865c-10.865,5.823-15.76,8.229-28.031,9.458c-3.271,0.333-6.208,2.146-7.958,4.927
	c-8.365,13.271-31.615,19.583-38.99,14.979c-4.188-2.625-5-5.292-5.229-7.323c-1.031-9.073,8.156-24.781,23.396-40.031
	C242.563,148.198,269.542,140.813,304.448,158.813z"/>
<path style="fill:#FDD1B0;" d="M381.948,353.438c-3.615,2.771-8.677,4.313-10.927,2.063c-0.115-0.115-0.293-0.104-0.411-0.214
	c-0.204-0.189-0.305-0.444-0.526-0.62c-7.625-6.021-41.792-40.979-62.906-63c-4.073-4.26-10.833-4.417-15.073-0.323
	c-4.26,4.073-4.406,10.823-0.323,15.073c4.956,5.173,44.74,46.608,60.663,61.099c-1.189,4.684-5.531,7.576-7.736,8.682
	c-6.833,3.427-13.958,2.854-16.625,0.375c-0.079-0.074-0.197-0.07-0.279-0.142c-0.13-0.116-0.188-0.279-0.326-0.389
	c-12.792-10.219-44.885-44.323-52.146-52.219c-3.99-4.344-10.729-4.615-15.073-0.635c-4.333,3.99-4.625,10.74-0.635,15.073
	c0.35,0.379,31.802,34.306,49.467,50.065c-1.736,4.988-5.273,9.118-9.811,11.122c-3.349,1.488-8.587,2.251-14.572-2.172
	c-15.318-12.988-46.059-45.711-52.105-52.182c-4.01-4.313-10.781-4.531-15.073-0.51c-4.302,4.021-4.531,10.771-0.51,15.073
	c7.168,7.672,28.355,30.128,44.461,45.333c-1.799,0.219-3.688,0.344-5.482,0.344c-7.063,0-19.198-4.51-25.333-8.542
	c-7.479-4.917-54.438-39.958-94.99-73.917c-6.135-5.146-20.135-15.677-32.948-25.302c-6.867-5.155-13.194-9.908-17.857-13.495
	l39.938-106.516c10.367-0.453,24.188-1.648,38.815-2.938c8.273-0.729,16.555-1.44,24.469-2.056
	c-12.164,12.487-30.249,34.852-27.865,55.816c1.094,9.542,6.313,17.49,15.115,22.99c17.427,10.906,49.688,1.76,65.229-17.354
	c10.031-1.448,16.813-4.01,24.208-7.677c12.5,11.75,29.26,25.563,46.865,40.073c30.646,25.25,65.385,53.875,74.573,69.927
	C391.333,345.271,384.24,351.688,381.948,353.438z"/>
<path style="fill:#5C6671;" d="M490.667,320h-20.49c-8.844,0-16.875-5.563-19.979-13.844l-44.865-119.635
	c-2.01-5.375-1.802-11.208,0.604-16.417c2.396-5.208,6.688-9.156,12.083-11.125l72.646-26.417V320z"/>
<path style="fill:#0288D1;" d="M490.667,320h-20.49c-8.844,0-16.875-5.563-19.979-13.844l-44.865-119.635
	c-2.01-5.375-1.802-11.208,0.604-16.417c2.396-5.208,6.688-9.156,12.083-11.125l72.646-26.417V320z"/>
<path style="fill:#546E7A;" d="M20.649,111.229l72.646,26.417c5.396,1.969,9.688,5.917,12.083,11.125
	c2.406,5.208,2.615,11.042,0.604,16.417L61.118,284.823c-3.104,8.281-11.135,13.844-19.979,13.844h-20.49V111.229z"/>
<linearGradient id="SVGID_1_" gradientUnits="userSpaceOnUse" x1="-37.162" y1="636.3757" x2="-29.7455" y2="628.9603" gradientTransform="matrix(21.3333 0 0 -21.3333 996.3334 13791.667)">
	<stop  offset="0" style="stop-color:#000000;stop-opacity:0.1"/>
	<stop  offset="1" style="stop-color:#000000;stop-opacity:0"/>
</linearGradient>
<path style="fill:url(#SVGID_1_);" d="M352.444,367.516c-15.923-14.491-55.707-55.926-60.663-61.099
	c-4.083-4.25-3.938-11,0.323-15.073c4.24-4.094,11-3.938,15.073,0.323c21.115,22.021,55.281,56.979,62.906,63
	c0.221,0.176,0.322,0.431,0.526,0.62c0.118,0.109,0.297,0.099,0.411,0.214c2.25,2.25,7.313,0.708,10.927-2.063
	c2.292-1.75,9.385-8.167,4.271-17.094c-9.188-16.052-43.927-44.677-74.573-69.927c-17.604-14.51-34.365-28.323-46.865-40.073
	c-7.396,3.667-14.177,6.229-24.208,7.677c-15.542,19.115-47.802,28.26-65.229,17.354c-1.576-0.984-2.896-2.137-4.24-3.273
	l-0.06,0.053l86.371,86.37c-1.342-3.888-0.375-8.372,2.845-11.337c4.344-3.979,11.083-3.708,15.073,0.635
	c7.26,7.896,39.354,42,52.146,52.219c0.138,0.111,0.195,0.273,0.326,0.389c0.082,0.072,0.199,0.068,0.279,0.142
	c2.667,2.479,9.792,3.052,16.625-0.375C346.913,375.091,351.255,372.2,352.444,367.516z"/>
<path style="opacity:0.1;enable-background:new    ;" d="M20.65,202.667v96h20.49c8.844,0,16.875-5.563,19.979-13.844l30.81-82.156
	H20.65z"/>
<path style="opacity:0.1;enable-background:new    ;" d="M490.666,224v96h-20.49c-8.844,0-16.875-5.563-19.979-13.844L419.388,224
	H490.666z"/>
<linearGradient id="SVGID_2_" gradientUnits="userSpaceOnUse" x1="-46.7094" y1="642.0816" x2="-22.6966" y2="630.8871" gradientTransform="matrix(21.3333 0 0 -21.3333 996.3334 13791.667)">
	<stop  offset="0" style="stop-color:#FFFFFF;stop-opacity:0.2"/>
	<stop  offset="1" style="stop-color:#FFFFFF;stop-opacity:0"/>
</linearGradient>
<path style="fill:url(#SVGID_2_);" d="M507.448,108.594c-2.844-2-6.49-2.49-9.76-1.281l-86.958,31.625
	c-10.781,3.917-19.365,11.813-24.167,22.229c-0.9,1.953-1.491,3.982-2.083,6.008c-14.932-4.245-42.682-13.111-70.26-27.32
	c-41.673-21.473-73.51-10.867-100.816,9.961c-13.836,0.272-32.906,1.908-51.652,3.56c-11.958,1.055-23.259,2.026-32.423,2.585
	c-0.225-5.504-1.513-10.966-3.889-16.126c-4.802-10.417-13.385-18.313-24.167-22.229L14.312,85.979
	c-3.26-1.198-6.927-0.708-9.76,1.281C1.698,89.261,0,92.521,0,96v213.333C0,315.229,4.771,320,10.667,320h31.156
	c13.251,0,25.579-6.25,33.548-16.342c4.245,3.228,9.273,7.008,14.546,10.967c12.448,9.365,26.073,19.583,32.052,24.594
	c39.719,33.25,87.469,69.156,96.979,75.406c8.885,5.833,24.885,12.042,37.052,12.042c4.76,0,16.75,0,25.167-7.115
	c8.677,3.406,18.031,3.24,26.729-0.594c8.677-3.823,15.698-11.031,19.781-19.792c8.333,1.708,17.906,0.458,26.583-3.896
	c8.135-4.073,14.125-10.24,17.333-17.448c7.708,0.708,15.938-1.802,23.302-7.438c10.522-8.043,15.34-19.921,13.977-31.639
	l27.057-14.969c7.924,10.741,20.518,17.556,34.247,17.556h31.156c5.896,0,10.667-4.771,10.667-10.667V117.334
	C512,113.854,510.302,110.594,507.448,108.594z"/>
<g>
</g>
<g>
</g>
<g>
</g>
<g>
</g>
<g>
</g>
<g>
</g>
<g>
</g>
<g>
</g>
<g>
</g>
<g>
</g>
<g>
</g>
<g>
</g>
<g>
</g>
<g>
</g>
<g>
</g>
</svg>
