<?xml version="1.0" encoding="iso-8859-1"?>
<!-- Generator: Adobe Illustrator 19.0.0, SVG Export Plug-In . SVG Version: 6.00 Build 0)  -->
<svg version="1.1" id="Capa_1" xmlns="http://www.w3.org/2000/svg" xmlns:xlink="http://www.w3.org/1999/xlink" x="0px" y="0px"
	 viewBox="0 0 512 512" style="enable-background:new 0 0 512 512;" xml:space="preserve">
<path style="fill:#303C42;" d="M434.25,359.51c-12.208-18.219-28.917-43.167-28.917-114.177v-32
	c0-67.512-45.066-124.63-106.667-143.043V64c0-23.531-19.146-42.667-42.667-42.667S213.333,40.469,213.333,64v6.29
	c-61.599,18.413-106.667,75.531-106.667,143.043v32c0,71.01-16.708,95.958-28.917,114.177C70.688,370.063,64,380.031,64,394.667
	c0,34.775,72.495,46.978,131.271,51.181c8.241,26.383,32.432,44.819,60.729,44.819s52.488-18.436,60.729-44.819
	C375.505,441.645,448,429.441,448,394.667C448,380.031,441.313,370.063,434.25,359.51z M277.333,65.704
	C270.346,64.698,263.262,64,256,64c-7.262,0-14.346,0.698-21.333,1.704V64c0-11.76,9.563-21.333,21.333-21.333
	c11.771,0,21.333,9.573,21.333,21.333V65.704z"/>
<path style="fill:#FFCA28;" d="M256,426.667c-97.688,0-170.667-16.896-170.667-32c0-7.802,3.292-13.063,10.146-23.281
	C108.417,352.052,128,322.833,128,245.333v-32c0-70.583,57.417-128,128-128s128,57.417,128,128v32
	c0,77.5,19.583,106.719,32.521,126.052c6.854,10.219,10.146,15.479,10.146,23.281C426.667,409.771,353.688,426.667,256,426.667z"/>
<path style="opacity:0.2;fill:#FFFFFF;enable-background:new    ;" d="M128,213.333v32c0,77.5-19.583,106.719-32.521,126.052
	c-6.854,10.219-10.146,15.479-10.146,23.281c0,8.758,24.637,18.095,64.296,24.415c0.641-6.289,2.579-11.835,6.046-20.879
	C163.76,377.057,176,345.099,176,260.333v-35c0-77.201,35.885-140,80-140C185.417,85.333,128,142.75,128,213.333z"/>
<path style="opacity:0.1;enable-background:new    ;" d="M416.521,371.385C403.583,352.052,384,322.833,384,245.333v-32
	c0-70.583-57.417-128-128-128c44.115,0,80,62.799,80,140v35c0,84.766,12.24,116.724,20.326,137.87
	c3.466,9.044,5.405,14.59,6.046,20.879c39.659-6.32,64.296-15.658,64.296-24.415C426.667,386.865,423.375,381.604,416.521,371.385z"
	/>
<path style="fill:#303C42;" d="M508.875,493.792L18.208,3.125c-4.167-4.167-10.917-4.167-15.083,0s-4.167,10.917,0,15.083
	l490.667,490.667c2.083,2.083,4.813,3.125,7.542,3.125c2.729,0,5.458-1.042,7.542-3.125
	C513.042,504.708,513.042,497.958,508.875,493.792z"/>
<path style="fill:#FFCA28;" d="M256,469.333c-15.944,0-29.947-8.799-37.221-22.147C233.893,447.824,247.018,448,256,448
	c8.983,0,22.107-0.176,37.223-0.814C285.948,460.534,271.944,469.333,256,469.333z"/>
<path style="opacity:0.1;enable-background:new    ;" d="M256,469.333c-15.944,0-29.947-8.799-37.221-22.147
	C233.893,447.824,247.018,448,256,448c8.983,0,22.107-0.176,37.223-0.814C285.948,460.534,271.944,469.333,256,469.333z"/>
<linearGradient id="SVGID_1_" gradientUnits="userSpaceOnUse" x1="-49.0731" y1="641.0129" x2="-20.4651" y2="627.6729" gradientTransform="matrix(21.3333 0 0 -21.3333 996.3333 13791.667)">
	<stop  offset="0" style="stop-color:#FFFFFF;stop-opacity:0.2"/>
	<stop  offset="1" style="stop-color:#FFFFFF;stop-opacity:0"/>
</linearGradient>
<path style="fill:url(#SVGID_1_);" d="M508.875,493.792l-75.452-75.452c9.046-6.424,14.577-14.184,14.577-23.673
	c0-14.635-6.688-24.604-13.75-35.156c-12.208-18.219-28.917-43.167-28.917-114.177v-32c0-67.512-45.066-124.63-106.667-143.043V64
	c0-23.531-19.146-42.667-42.667-42.667S213.333,40.469,213.333,64v6.29c-30.432,9.096-56.766,27.695-75.688,52.272L18.208,3.125
	c-4.167-4.167-10.917-4.167-15.083,0s-4.167,10.917,0,15.083l122.613,122.613c-12.038,21.503-19.072,46.159-19.072,72.512v32
	c0,71.01-16.708,95.958-28.917,114.177C70.688,370.063,64,380.031,64,394.667c0,34.775,72.495,46.978,131.271,51.181
	c8.241,26.383,32.432,44.819,60.729,44.819s52.488-18.436,60.729-44.819c33.03-2.362,70.388-7.251,96.783-17.253l80.28,80.28
	c2.083,2.083,4.813,3.125,7.542,3.125c2.729,0,5.458-1.042,7.542-3.125C513.042,504.708,513.042,497.958,508.875,493.792z
	 M234.667,64c0-11.76,9.563-21.333,21.333-21.333c11.771,0,21.333,9.573,21.333,21.333v1.704C270.346,64.698,263.262,64,256,64
	c-7.262,0-14.346,0.698-21.333,1.704V64z"/>
<g>
</g>
<g>
</g>
<g>
</g>
<g>
</g>
<g>
</g>
<g>
</g>
<g>
</g>
<g>
</g>
<g>
</g>
<g>
</g>
<g>
</g>
<g>
</g>
<g>
</g>
<g>
</g>
<g>
</g>
</svg>
