<?xml version="1.0" encoding="iso-8859-1"?>
<!-- Generator: Adobe Illustrator 19.0.0, SVG Export Plug-In . SVG Version: 6.00 Build 0)  -->
<svg version="1.1" id="Capa_1" xmlns="http://www.w3.org/2000/svg" xmlns:xlink="http://www.w3.org/1999/xlink" x="0px" y="0px"
	 viewBox="0 0 512 512" style="enable-background:new 0 0 512 512;" xml:space="preserve">
<circle style="fill:#303C42;" cx="224" cy="160" r="160"/>
<circle style="fill:#FFCA28;" cx="224" cy="160" r="138.667"/>
<path style="opacity:0.2;fill:#FFFFFF;enable-background:new    ;" d="M106.667,181.333c0-76.458,62.208-138.667,138.667-138.667
	c32.805,0,62.938,11.51,86.708,30.625C306.604,41.66,267.654,21.333,224,21.333C147.542,21.333,85.333,83.542,85.333,160
	c0,43.654,20.327,82.604,51.958,108.042C118.177,244.271,106.667,214.138,106.667,181.333z"/>
<g>
	<path style="fill:#303C42;" d="M229.333,202.667H192c-5.896,0-10.667,4.771-10.667,10.667c0,5.896,4.771,10.667,10.667,10.667
		h21.333v10.667c0,5.896,4.771,10.667,10.667,10.667c5.896,0,10.667-4.771,10.667-10.667v-11.206c18.046-2.615,32-18.036,32-36.794
		c0-20.583-16.75-37.333-37.333-37.333h-10.667c-8.823,0-16-7.177-16-16c0-8.823,7.177-16,16-16H256
		c5.896,0,10.667-4.771,10.667-10.667C266.667,100.771,261.896,96,256,96h-21.333V85.333c0-5.896-4.771-10.667-10.667-10.667
		c-5.896,0-10.667,4.771-10.667,10.667v11.206c-18.046,2.615-32,18.036-32,36.794c0,20.583,16.75,37.333,37.333,37.333h10.667
		c8.823,0,16,7.177,16,16S238.156,202.667,229.333,202.667z"/>
	<path style="fill:#303C42;" d="M437.333,298.667H352c-5.896,0-10.667,4.771-10.667,10.667S346.104,320,352,320h59.583
		l-134.25,134.25l-77.792-77.792c-4.167-4.167-10.917-4.167-15.083,0L67.125,493.792c-4.167,4.167-4.167,10.917,0,15.083
		c2.083,2.083,4.813,3.125,7.542,3.125c2.729,0,5.458-1.042,7.542-3.125L192,399.083l77.792,77.792
		c4.167,4.167,10.917,4.167,15.083,0l141.792-141.792v59.583c0,5.896,4.771,10.667,10.667,10.667S448,400.563,448,394.667v-85.333
		C448,303.438,443.229,298.667,437.333,298.667z"/>
</g>
<linearGradient id="SVGID_1_" gradientUnits="userSpaceOnUse" x1="-45.2104" y1="637.4142" x2="-25.5329" y2="628.238" gradientTransform="matrix(21.3333 0 0 -21.3333 996.3334 13791.667)">
	<stop  offset="0" style="stop-color:#FFFFFF;stop-opacity:0.2"/>
	<stop  offset="1" style="stop-color:#FFFFFF;stop-opacity:0"/>
</linearGradient>
<path style="fill:url(#SVGID_1_);" d="M224,320c88.229,0,160-71.771,160-160S312.229,0,224,0S64,71.771,64,160S135.771,320,224,320z
	 M437.333,298.667H352c-5.896,0-10.667,4.771-10.667,10.667S346.104,320,352,320h59.583l-134.25,134.25l-77.792-77.792
	c-4.167-4.167-10.917-4.167-15.083,0L67.125,493.792c-4.167,4.167-4.167,10.917,0,15.083c2.083,2.083,4.813,3.125,7.542,3.125
	c2.729,0,5.458-1.042,7.542-3.125L192,399.083l77.792,77.792c4.167,4.167,10.917,4.167,15.083,0l141.792-141.792v59.583
	c0,5.896,4.771,10.667,10.667,10.667S448,400.563,448,394.667v-85.333C448,303.438,443.229,298.667,437.333,298.667z"/>
<g>
</g>
<g>
</g>
<g>
</g>
<g>
</g>
<g>
</g>
<g>
</g>
<g>
</g>
<g>
</g>
<g>
</g>
<g>
</g>
<g>
</g>
<g>
</g>
<g>
</g>
<g>
</g>
<g>
</g>
</svg>
