<?xml version="1.0" encoding="iso-8859-1"?>
<!-- Generator: Adobe Illustrator 19.0.0, SVG Export Plug-In . SVG Version: 6.00 Build 0)  -->
<svg version="1.1" id="Capa_1" xmlns="http://www.w3.org/2000/svg" xmlns:xlink="http://www.w3.org/1999/xlink" x="0px" y="0px"
	 viewBox="0 0 469.337 469.337" style="enable-background:new 0 0 469.337 469.337;" xml:space="preserve">
<path style="fill:#303C42;" d="M319.486,149.85C314.207,66.356,244.802,0.002,160,0.002c-88.229,0-160,71.771-160,160
	c0,84.802,66.354,154.207,149.848,159.486c5.279,83.493,74.684,149.848,159.486,149.848c88.229,0,160-71.771,160-160
	C469.333,224.533,402.979,155.128,319.486,149.85z"/>
<path style="fill:#FFCA28;" d="M21.333,160.002C21.333,83.544,83.542,21.335,160,21.335c73.049,0,132.947,56.822,138.155,128.566
	c-31.987,2.227-61.35,13.861-85.439,32.198c0.331-1.995,0.617-4.01,0.617-6.098c0-13.344-7.042-25.083-17.604-31.677
	c4.365-6.115,6.938-13.594,6.938-21.656c0-18.758-13.954-34.18-32-36.794V74.669c0-5.896-4.771-10.667-10.667-10.667
	c-5.896,0-10.667,4.771-10.667,10.667v10.667H128c-5.896,0-10.667,4.771-10.667,10.667c0,5.896,4.771,10.667,10.667,10.667v85.333
	c-5.896,0-10.667,4.771-10.667,10.667c0,5.896,4.771,10.667,10.667,10.667h21.333v10.667c0,5.896,4.771,10.667,10.667,10.667
	c5.896,0,10.667-4.771,10.667-10.667v-10.667H176c2.087,0,4.103-0.286,6.098-0.617c-18.337,24.089-29.971,53.452-32.198,85.439
	C78.155,292.949,21.333,233.052,21.333,160.002z"/>
<path style="opacity:0.2;fill:#FFFFFF;enable-background:new    ;" d="M43.178,181.335c0-76.458,62.208-138.667,138.667-138.667
	c31.887,0,61.26,10.835,84.68,29.003C241.109,40.998,202.872,21.335,160,21.335c-76.458,0-138.667,62.208-138.667,138.667
	c0,44.264,20.941,83.605,53.348,108.97C55.06,245.08,43.178,214.611,43.178,181.335z"/>
<g>
	<path style="fill:#FFCA28;" d="M165.333,106.669c8.823,0,16,7.177,16,16s-7.177,16-16,16h-16v-32H165.333z"/>
	<path style="fill:#FFCA28;" d="M149.333,192.002v-32H176c8.823,0,16,7.177,16,16s-7.177,16-16,16H149.333z"/>
	<circle style="fill:#FFCA28;" cx="309.335" cy="309.335" r="138.667"/>
</g>
<path style="opacity:0.2;fill:#FFFFFF;enable-background:new    ;" d="M192,330.669c0-76.458,62.208-138.667,138.667-138.667
	c32.805,0,62.938,11.51,86.708,30.625c-25.438-31.632-64.388-51.958-108.042-51.958c-76.458,0-138.667,62.208-138.667,138.667
	c0,43.654,20.327,82.604,51.958,108.042C203.51,393.606,192,363.473,192,330.669z"/>
<g>
	<path style="fill:#303C42;" d="M304,266.669h37.333c5.896,0,10.667-4.771,10.667-10.667c0-5.896-4.771-10.667-10.667-10.667H320
		v-10.667c0-5.896-4.771-10.667-10.667-10.667s-10.667,4.771-10.667,10.667v11.206c-18.046,2.615-32,18.036-32,36.794
		c0,20.583,16.75,37.333,37.333,37.333h10.667c8.823,0,16,7.177,16,16c0,8.823-7.177,16-16,16h-37.333
		c-5.896,0-10.667,4.771-10.667,10.667s4.771,10.667,10.667,10.667h21.333v10.667c0,5.896,4.771,10.667,10.667,10.667
		S320,389.898,320,384.002v-11.206c18.046-2.615,32-18.036,32-36.794c0-20.583-16.75-37.333-37.333-37.333H304
		c-8.823,0-16-7.177-16-16S295.177,266.669,304,266.669z"/>
	<path style="fill:#303C42;" d="M330.635,21.335c46.757,0.151,78.969,35.922,91.368,76.408L399.438,86.46
		c-5.271-2.615-11.677-0.5-14.313,4.771c-2.635,5.271-0.5,11.677,4.771,14.313l42.667,21.333c1.531,0.76,3.156,1.125,4.76,1.125
		c3.917,0,7.677-2.156,9.552-5.896l21.333-42.667c2.635-5.271,0.5-11.677-4.771-14.313c-5.281-2.604-11.667-0.5-14.313,4.771
		l-8.272,16.544c-15.997-46.322-54.712-86.268-110.155-86.44h-0.031c-5.875,0-10.646,4.75-10.667,10.635
		C319.979,16.523,324.74,21.315,330.635,21.335z"/>
	<path style="fill:#303C42;" d="M138.833,447.929c-46.757-0.151-78.967-35.923-91.367-76.408l22.565,11.283
		c5.25,2.615,11.677,0.5,14.313-4.771c2.635-5.271,0.5-11.677-4.771-14.313l-42.667-21.333c-5.281-2.604-11.667-0.5-14.313,4.771
		L1.26,389.825c-2.635,5.271-0.5,11.677,4.771,14.313c1.531,0.76,3.156,1.125,4.76,1.125c3.917,0,7.677-2.156,9.552-5.896
		l8.272-16.544c15.997,46.322,54.712,86.268,110.155,86.44h0.031c5.875,0,10.646-4.75,10.667-10.635
		C149.49,452.742,144.729,447.95,138.833,447.929z"/>
</g>
<linearGradient id="SVGID_1_" gradientUnits="userSpaceOnUse" x1="-67.0459" y1="618.2906" x2="-45.0208" y2="608.0208" gradientTransform="matrix(21.3333 0 0 -21.3333 1430.0702 13315.2676)">
	<stop  offset="0" style="stop-color:#FFFFFF;stop-opacity:0.2"/>
	<stop  offset="1" style="stop-color:#FFFFFF;stop-opacity:0"/>
</linearGradient>
<path style="fill:url(#SVGID_1_);" d="M330.635,21.335c46.757,0.151,78.969,35.922,91.368,76.408L399.438,86.46
	c-5.271-2.615-11.677-0.5-14.313,4.771c-2.635,5.271-0.5,11.677,4.771,14.313l42.667,21.333c1.531,0.76,3.156,1.125,4.76,1.125
	c3.917,0,7.677-2.156,9.552-5.896l21.333-42.667c2.635-5.271,0.5-11.677-4.771-14.313c-5.281-2.604-11.667-0.5-14.313,4.771
	l-8.272,16.544c-15.997-46.322-54.712-86.268-110.155-86.44h-0.031c-5.875,0-10.646,4.75-10.667,10.635
	C319.979,16.523,324.74,21.315,330.635,21.335z M319.486,149.85C314.207,66.356,244.802,0.002,160,0.002
	c-88.229,0-160,71.771-160,160c0,84.802,66.354,154.207,149.848,159.486c5.279,83.493,74.684,149.848,159.486,149.848
	c88.229,0,160-71.771,160-160C469.333,224.533,402.979,155.128,319.486,149.85z M138.833,447.929
	c-46.757-0.151-78.967-35.923-91.367-76.408l22.565,11.283c5.25,2.615,11.677,0.5,14.313-4.771c2.635-5.271,0.5-11.677-4.771-14.313
	l-42.667-21.333c-5.281-2.604-11.667-0.5-14.313,4.771L1.26,389.825c-2.635,5.271-0.5,11.677,4.771,14.313
	c1.531,0.76,3.156,1.125,4.76,1.125c3.917,0,7.677-2.156,9.552-5.896l8.272-16.544c15.997,46.322,54.712,86.268,110.155,86.44h0.031
	c5.875,0,10.646-4.75,10.667-10.635C149.49,452.742,144.729,447.95,138.833,447.929z"/>
<g>
</g>
<g>
</g>
<g>
</g>
<g>
</g>
<g>
</g>
<g>
</g>
<g>
</g>
<g>
</g>
<g>
</g>
<g>
</g>
<g>
</g>
<g>
</g>
<g>
</g>
<g>
</g>
<g>
</g>
</svg>
