<?xml version="1.0" encoding="iso-8859-1"?>
<!-- Generator: Adobe Illustrator 19.0.0, SVG Export Plug-In . SVG Version: 6.00 Build 0)  -->
<svg version="1.1" id="Capa_1" xmlns="http://www.w3.org/2000/svg" xmlns:xlink="http://www.w3.org/1999/xlink" x="0px" y="0px"
	 viewBox="0 0 512 512" style="enable-background:new 0 0 512 512;" xml:space="preserve">
<circle style="fill:#303C42;" cx="394.667" cy="160" r="96"/>
<circle style="fill:#FFCA28;" cx="394.667" cy="160" r="74.667"/>
<path style="opacity:0.2;fill:#FFFFFF;enable-background:new    ;" d="M330.667,170.666c0-41.167,33.5-74.667,74.667-74.667
	c17.863,0,34.061,6.568,46.927,17.073c-13.704-16.784-34.29-27.74-57.594-27.74c-41.167,0-74.667,33.5-74.667,74.667
	c0,23.303,10.956,43.889,27.74,57.594C337.234,204.727,330.667,188.529,330.667,170.666z"/>
<g>
	<path style="fill:#303C42;" d="M378.104,137.541l5.896-2.948v68.073c0,5.896,4.771,10.667,10.667,10.667
		c5.896,0,10.667-4.771,10.667-10.667v-85.333c0-3.698-1.917-7.125-5.063-9.073c-3.135-1.969-7.073-2.115-10.375-0.469
		l-21.333,10.667c-5.271,2.635-7.406,9.042-4.771,14.313C366.427,138.041,372.844,140.145,378.104,137.541z"/>
	<path style="fill:#303C42;" d="M448,309.334c-20.827,0-64,11.598-85.885,17.885c-2.904-30.609-42.125-41.444-82.656-49.677
		c-18.5-3.75-32.271-10.385-45.583-16.813c-16.417-7.917-31.917-15.396-52.542-15.396c-23.618,0-45.142,4.831-57.288,8.173
		c-3.211-11.172-12.32-20.177-24.421-22.59L12.75,213.543c-3.125-0.625-6.375,0.188-8.854,2.208C1.437,217.782,0,220.803,0,224.001
		v170.667c0,5.896,4.771,10.667,10.667,10.667H77.5c13.172,0,24.397-8.379,29.223-20.142
		c23.902,11.395,134.358,62.809,181.277,62.809c41.375,0,126.563-41.875,182.917-69.583c14.688-7.219,26.833-13.198,34.708-16.646
		c3.875-1.708,6.375-5.542,6.375-9.771C512,326.876,485.688,309.334,448,309.334z"/>
</g>
<path style="fill:#29B6F6;" d="M77.39,384.001H21.223v-146.99l74.125,14.823c5.542,1.115,9.271,6.365,8.458,11.969L87.952,374.845
	C87.202,380.064,82.661,384.001,77.39,384.001z"/>
<path style="fill:#FDD1B0;" d="M461.39,359.272c-51.271,25.208-137.083,67.396-173.5,67.396
	c-38.792,0-140.688-45.427-176.667-62.927c-0.04-0.02-0.085-0.013-0.125-0.031l12.551-87.904c7.772-2.431,31.518-9.138,57.574-9.138
	c15.75,0,27.896,5.865,43.292,13.281c13.813,6.667,29.479,14.219,50.583,18.51c46.354,9.396,66.125,19.031,66.125,32.208
	c0,2.604-0.792,4.208-2.813,5.719c-6.792,5.073-33.271,13.594-132.813-15.948c-5.729-1.646-11.604,1.552-13.271,7.198
	c-1.667,5.646,1.542,11.583,7.188,13.26c49.146,14.563,86.708,21.823,113.333,21.823c17.354,0,30.083-3.083,38.312-9.24
	c0.708-0.529,3.203-1.74,3.875-1.948c18.854-5.802,72.292-20.865,92.854-20.865c17.396,0,35.708,5.281,41.083,15.208
	C481.536,349.376,472.14,354.001,461.39,359.272z"/>
<linearGradient id="SVGID_1_" gradientUnits="userSpaceOnUse" x1="-42.0687" y1="632.3009" x2="-35.2073" y2="625.4424" gradientTransform="matrix(21.3333 0 0 -21.3333 996.3334 13791.667)">
	<stop  offset="0" style="stop-color:#000000;stop-opacity:0.1"/>
	<stop  offset="1" style="stop-color:#000000;stop-opacity:0"/>
</linearGradient>
<path style="fill:url(#SVGID_1_);" d="M123.318,278.118l-12.22,85.591c0.04,0.018,0.085,0.012,0.125,0.031
	c31.271,15.21,112.292,51.483,158.441,60.724L123.318,278.118z"/>
<path style="opacity:0.1;enable-background:new    ;" d="M21.223,309.334v74.667H77.39c5.271,0,9.813-3.938,10.563-9.156
	l9.353-65.51H21.223z"/>
<linearGradient id="SVGID_2_" gradientUnits="userSpaceOnUse" x1="-45.1613" y1="639.4017" x2="-23.0646" y2="629.0983" gradientTransform="matrix(21.3333 0 0 -21.3333 996.3334 13791.667)">
	<stop  offset="0" style="stop-color:#FFFFFF;stop-opacity:0.2"/>
	<stop  offset="1" style="stop-color:#FFFFFF;stop-opacity:0"/>
</linearGradient>
<path style="fill:url(#SVGID_2_);" d="M394.667,255.999c52.938,0,96-43.063,96-96s-43.063-96-96-96s-96,43.063-96,96
	S341.729,255.999,394.667,255.999z M448,309.334c-20.827,0-64,11.598-85.885,17.885c-2.904-30.609-42.125-41.444-82.656-49.677
	c-18.5-3.75-32.271-10.385-45.583-16.813c-16.417-7.917-31.917-15.396-52.542-15.396c-23.618,0-45.142,4.831-57.288,8.173
	c-3.211-11.172-12.32-20.177-24.421-22.59L12.75,213.542c-3.125-0.625-6.375,0.188-8.854,2.208C1.437,217.782,0,220.802,0,224
	v170.667c0,5.896,4.771,10.667,10.667,10.667H77.5c13.172,0,24.397-8.379,29.223-20.142C130.625,396.586,241.081,448,288,448
	c41.375,0,126.563-41.875,182.917-69.583c14.688-7.219,26.833-13.198,34.708-16.646C509.5,360.063,512,356.229,512,352
	C512,326.875,485.688,309.334,448,309.334z"/>
<g>
</g>
<g>
</g>
<g>
</g>
<g>
</g>
<g>
</g>
<g>
</g>
<g>
</g>
<g>
</g>
<g>
</g>
<g>
</g>
<g>
</g>
<g>
</g>
<g>
</g>
<g>
</g>
<g>
</g>
</svg>
