<?xml version="1.0" encoding="iso-8859-1"?>
<!-- Generator: Adobe Illustrator 19.0.0, SVG Export Plug-In . SVG Version: 6.00 Build 0)  -->
<svg version="1.1" id="Capa_1" xmlns="http://www.w3.org/2000/svg" xmlns:xlink="http://www.w3.org/1999/xlink" x="0px" y="0px"
	 viewBox="0 0 512 512" style="enable-background:new 0 0 512 512;" xml:space="preserve">
<path style="fill:#303C42;" d="M330.667,256c28.938,0,54.883-17.047,67.118-42.982c39.694-1.676,71.548-34.253,71.548-74.352
	c0-41.167-33.5-74.667-74.667-74.667c-29.81,0-55.401,17.684-67.362,43.007C287.725,108.807,256,141.318,256,181.333
	C256,222.5,289.5,256,330.667,256z"/>
<g>
	<circle style="fill:#FFCA28;" cx="394.667" cy="138.667" r="53.333"/>
	<path style="fill:#FFCA28;" d="M320.965,129.118c-0.41,3.16-0.965,6.279-0.965,9.548c0,5.432,0.655,10.702,1.762,15.807
		C320.743,156.109,320,157.93,320,160v42.667c0,5.896,4.771,10.667,10.667,10.667c5.896,0,10.667-4.771,10.667-10.667v-11.91
		c9.108,9.324,20.699,16.031,33.612,19.596c-9.674,14.858-26.158,24.314-44.279,24.314c-29.417,0-53.333-23.927-53.333-53.333
		C277.333,155.423,295.936,133.832,320.965,129.118z"/>
</g>
<path style="opacity:0.1;enable-background:new    ;" d="M341.333,202.667c0,4.639-2.995,8.483-7.126,9.953
	c7.038,5.766,14.622,10.884,23.112,14.483c6.98-4.172,13.098-9.796,17.626-16.75c-12.913-3.565-24.504-10.272-33.612-19.596V202.667
	z"/>
<path style="opacity:0.1;enable-background:new    ;" d="M298.708,139.076c0.098,22.461,8.233,42.862,21.292,59.186V160
	c0-2.07,0.743-3.891,1.762-5.526c-1.107-5.105-1.762-10.375-1.762-15.807c0-3.27,0.555-6.388,0.965-9.548
	C312.652,130.684,305.158,134.246,298.708,139.076z"/>
<g>
	<path style="fill:#303C42;" d="M394.667,170.667c5.896,0,10.667-4.771,10.667-10.667v-42.667c0-5.896-4.771-10.667-10.667-10.667
		c-5.896,0-10.667,4.771-10.667,10.667V160C384,165.896,388.771,170.667,394.667,170.667z"/>
	<path style="fill:#303C42;" d="M448,309.333c-20.827,0-64,11.598-85.885,17.885c-2.904-30.609-42.125-41.444-82.656-49.677
		c-18.5-3.75-32.271-10.385-45.583-16.813c-16.417-7.917-31.917-15.396-52.542-15.396c-23.618,0-45.142,4.831-57.288,8.173
		c-3.211-11.172-12.32-20.177-24.421-22.59L12.75,213.542c-3.125-0.625-6.375,0.188-8.854,2.208C1.437,217.781,0,220.802,0,224
		v170.667c0,5.896,4.771,10.667,10.667,10.667H77.5c13.172,0,24.397-8.379,29.223-20.142C130.625,396.586,241.081,448,288,448
		c41.375,0,126.563-41.875,182.917-69.583c14.688-7.219,26.833-13.198,34.708-16.646C509.5,360.063,512,356.229,512,352
		C512,326.875,485.688,309.333,448,309.333z"/>
</g>
<path style="fill:#29B6F6;" d="M77.5,384H21.333V237.01l74.125,14.823c5.542,1.115,9.271,6.365,8.458,11.969L88.063,374.844
	C87.313,380.063,82.771,384,77.5,384z"/>
<path style="fill:#FFE082;" d="M461.5,359.271c-51.271,25.208-137.083,67.396-173.5,67.396c-38.792,0-140.688-45.427-176.667-62.927
	c-0.04-0.02-0.085-0.013-0.125-0.031l12.551-87.904c7.772-2.431,31.518-9.138,57.574-9.138c15.75,0,27.896,5.865,43.292,13.281
	c13.813,6.667,29.479,14.219,50.583,18.51c46.354,9.396,66.125,19.031,66.125,32.208c0,2.604-0.792,4.208-2.813,5.719
	c-6.792,5.073-33.271,13.594-132.813-15.948c-5.729-1.646-11.604,1.552-13.271,7.198c-1.667,5.646,1.542,11.583,7.188,13.26
	c49.146,14.563,86.708,21.823,113.333,21.823c17.354,0,30.083-3.083,38.313-9.24c0.708-0.529,3.203-1.74,3.875-1.948
	C374,345.729,427.438,330.667,448,330.667c17.396,0,35.708,5.281,41.083,15.208C481.646,349.375,472.25,354,461.5,359.271z"/>
<linearGradient id="SVGID_1_" gradientUnits="userSpaceOnUse" x1="-42.0636" y1="632.301" x2="-35.2021" y2="625.4425" gradientTransform="matrix(21.3333 0 0 -21.3333 996.3334 13791.667)">
	<stop  offset="0" style="stop-color:#000000;stop-opacity:0.1"/>
	<stop  offset="1" style="stop-color:#000000;stop-opacity:0"/>
</linearGradient>
<path style="fill:url(#SVGID_1_);" d="M123.428,278.117l-12.22,85.591c0.04,0.018,0.085,0.012,0.125,0.031
	c31.271,15.21,112.292,51.483,158.441,60.724L123.428,278.117z"/>
<path style="opacity:0.1;enable-background:new    ;" d="M21.333,309.333V384H77.5c5.271,0,9.813-3.938,10.563-9.156l9.353-65.51
	H21.333z"/>
<linearGradient id="SVGID_2_" gradientUnits="userSpaceOnUse" x1="-45.181" y1="639.3593" x2="-23.0845" y2="629.0556" gradientTransform="matrix(21.3333 0 0 -21.3333 996.3334 13791.667)">
	<stop  offset="0" style="stop-color:#FFFFFF;stop-opacity:0.2"/>
	<stop  offset="1" style="stop-color:#FFFFFF;stop-opacity:0"/>
</linearGradient>
<path style="fill:url(#SVGID_2_);" d="M330.667,256c28.938,0,54.883-17.047,67.118-42.982c39.694-1.676,71.548-34.253,71.548-74.352
	c0-41.167-33.5-74.667-74.667-74.667c-29.81,0-55.401,17.684-67.362,43.007C287.725,108.807,256,141.318,256,181.333
	C256,222.5,289.5,256,330.667,256z M448,309.333c-20.827,0-64,11.598-85.885,17.885c-2.904-30.609-42.125-41.444-82.656-49.677
	c-18.5-3.75-32.271-10.385-45.583-16.813c-16.417-7.917-31.917-15.396-52.542-15.396c-23.618,0-45.142,4.831-57.288,8.173
	c-3.211-11.172-12.32-20.177-24.421-22.59L12.75,213.542c-3.125-0.625-6.375,0.188-8.854,2.208C1.437,217.781,0,220.802,0,224
	v170.667c0,5.896,4.771,10.667,10.667,10.667H77.5c13.172,0,24.397-8.379,29.223-20.142C130.625,396.586,241.081,448,288,448
	c41.375,0,126.563-41.875,182.917-69.583c14.688-7.219,26.833-13.198,34.708-16.646C509.5,360.063,512,356.229,512,352
	C512,326.875,485.688,309.333,448,309.333z"/>
<g>
</g>
<g>
</g>
<g>
</g>
<g>
</g>
<g>
</g>
<g>
</g>
<g>
</g>
<g>
</g>
<g>
</g>
<g>
</g>
<g>
</g>
<g>
</g>
<g>
</g>
<g>
</g>
<g>
</g>
</svg>
