<?xml version="1.0" encoding="iso-8859-1"?>
<!-- Generator: Adobe Illustrator 19.0.0, SVG Export Plug-In . SVG Version: 6.00 Build 0)  -->
<svg version="1.1" id="Capa_1" xmlns="http://www.w3.org/2000/svg" xmlns:xlink="http://www.w3.org/1999/xlink" x="0px" y="0px"
	 viewBox="0 0 512 512" style="enable-background:new 0 0 512 512;" xml:space="preserve">
<path style="fill:#303C42;" d="M420.27,319.853c31.599-35.24,49.064-80.156,49.064-127.853c0-51.281-19.969-99.5-56.24-135.76
	C376.833,19.969,328.615,0,277.333,0C229.637,0,184.72,17.465,149.48,49.064l-23.001-23.001c-4.167-4.167-10.917-4.167-15.083,0
	C65.646,71.813,42.667,131.906,42.667,192s22.979,120.188,68.729,165.938c37.602,37.602,84.922,59.48,133.938,66.176V448h-96
	c-23.531,0-42.667,19.135-42.667,42.667v10.667c0,5.896,4.771,10.667,10.667,10.667h277.333c5.896,0,10.667-4.771,10.667-10.667
	v-10.667c0-23.531-19.135-42.667-42.667-42.667h-96v-21.956c3.557,0.16,7.107,0.508,10.667,0.508
	c60.094,0,120.188-22.865,165.938-68.615c2-2,3.125-4.708,3.125-7.542s-1.125-5.542-3.125-7.542L420.27,319.853z M126.479,342.854
	c-80.656-80.656-83.104-210.344-7.354-293.979l15.272,15.272C102.798,99.387,85.333,144.303,85.333,192
	c0,51.281,19.969,99.5,56.24,135.76c36.26,36.271,84.479,56.24,135.76,56.24c47.697,0,92.613-17.465,127.853-49.064l15.272,15.272
	C336.802,425.948,207.115,423.49,126.479,342.854z"/>
<path style="fill:#80DEEA;" d="M448,192c0,45.583-17.75,88.438-49.99,120.677c-23.085,23.085-51.66,38.585-82.734,45.615
	c-8.568-10.116-28.359-33.281-38.724-43.646c-4.208-4.208-5.083-8.781-6.177-15.896c-1.073-7.021-2.417-15.76-9.563-22.906
	c-12.323-12.323-25.406-1.729-30.99,2.781c-3.75,3.031-7.625,6.156-10.823,6.24c-2.073,0.052-4.479,0.01-7.198-0.042
	c-15.582-0.156-43.077-0.668-65.964,15.928c-25.348-30.538-39.172-68.573-39.172-108.751c0-45.583,17.75-88.438,49.99-120.677
	c8.798-8.798,18.445-16.408,28.664-22.982c-5.684,10.728-10.251,21.579-10.081,28.857c0.073,2.844,1.271,5.552,3.344,7.51
	c2.073,1.948,4.823,3.208,7.688,2.896c0.521-0.031,0.948-0.021,1.365-0.01c-0.146,1.302-0.521,3.365-1.469,6.448
	c-4.083,13.344-4.635,33.021,3.813,44.729c4.188,5.802,10.25,9.094,17.063,9.25c1.417,0.021,2.865-0.229,4.177-0.75
	c-2.49,6.24-4.063,13.146-3.896,20.521c0.406,17.823,11.885,27.51,19.479,33.917c1.573,1.333,3.073,2.573,4.323,3.823
	c5.844,5.833,14.135,7.99,22.625,5.813c6.115-1.531,12.271-5.167,17.313-10.208c12.063-12.052,25.448-21.302,30.708-22.563
	c5.635,5.167,10.948,7.365,15.292,9.156c3.635,1.5,6.052,2.49,8.604,5.063c1.583,1.573,1.604,1.688,1.896,3.656
	c0.719,4.76,1.979,9.958,8.563,16.542c11.563,11.563,34.385,13.604,36.948,13.792c0.271,0.021,0.542,0.031,0.802,0.031
	c3.792,0,7.323-2.021,9.24-5.344c2.25-3.885,21.365-38.573,2.24-57.698c-4.438-4.448-4.344-6.406-4.146-10.698
	c0.219-4.635,0.583-12.375-6.552-19.51c-3.031-3.031-6.76-18.958-7.833-33.427c-0.208-2.865-1.583-5.531-3.781-7.385
	c-2.198-1.854-5.146-2.698-7.938-2.448c-4.24,0.427-13.927,0.771-23.646-0.635c1.938-0.885,3.667-2.229,5.063-3.969
	c2.25-2.822,8.517-10.91-0.406-53.806c22.962,8.417,44.085,21.62,61.896,39.431C430.25,103.563,448,146.417,448,192z"/>
<g>
	<path style="fill:#7CB342;" d="M290.415,362.03c-4.34,0.328-8.685,0.637-13.082,0.637c-43.721,0-84.827-16.48-116.569-46.263
		c16.621-10.754,36.667-10.521,50.642-10.247c3.094,0.052,5.813,0.094,8.188,0.042c10.396-0.292,18.052-6.469,23.635-10.979
		c1.063-0.854,2.458-1.99,3.625-2.823c1.229,2.094,1.75,5.104,2.438,9.583c1.188,7.75,2.813,18.375,12.177,27.75
		C268.592,336.853,280.966,351.021,290.415,362.03z"/>
	<path style="fill:#7CB342;" d="M346.635,112c1.625,11.885,5.281,28.99,13.271,36.99c0.115,0.448,0.042,1.969-0.01,3.073
		c-0.271,5.865-0.729,15.677,10.375,26.792c4.49,4.49,1.333,16.646-2.542,25.667c-6.333-1.25-13.448-3.542-16.521-6.615
		c-2.177-2.177-2.25-2.656-2.552-4.656c-0.688-4.563-1.875-9.521-7.896-15.552c-5.573-5.563-11.115-7.854-15.563-9.688
		c-3.844-1.594-6.625-2.74-9.771-5.885c-3.521-3.521-7.719-5-12.292-5c-15.448,0-35.135,16.906-47.167,28.917
		c-2.25,2.271-5.094,4.031-7.406,4.604c-1.74,0.479-2.094,0.063-2.354-0.208c-1.646-1.635-3.583-3.292-5.646-5.031
		c-7.292-6.156-11.729-10.448-11.906-18.104c-0.333-13.917,11.01-26.792,15.906-31.688c4.583-4.583,6.458-5.219,9.563-6.271
		c5.729-1.938,11.177-4.25,19.938-13.01l5.646-5.51c5.698-5.5,11.229-10.833,15.156-16.469c1.698,3.354,5.115,6.917,11.552,10.083
		C319.469,110.854,336.313,112.417,346.635,112z"/>
</g>
<path style="fill:#80DEEA;" d="M264.896,95.469l-5.917,5.781c-5.948,5.948-8.479,6.802-11.688,7.885
	c-5.313,1.802-10.313,3.896-17.813,11.396c-0.76,0.76-1.563,1.594-2.406,2.49c0.219-0.646,0.438-1.292,0.646-1.938
	c2.552-7.656,4.75-14.271,11.031-20.552c16.458-16.458,29.885-23.448,36.646-23.448c1.729,0,3.021,0.458,3.813,1.323
	C279.385,81.49,269.958,90.583,264.896,95.469z"/>
<path style="fill:#7CB342;" d="M312.656,25.053c4.245,18.292,7.074,36.497,6.906,44.842c-5.521,0.552-13.469,2.031-19.167,5.948
	c-0.604-5.125-3.052-9.844-7.292-14.083c-20.656-20.615-55.438,9.698-69.438,23.688c-9.854,9.854-13.365,20.417-16.188,28.906
	c-0.771,2.313-1.479,4.438-2.25,6.406c-0.969-5.021-1.094-12.552,1.333-20.469c2.323-7.583,4.698-18.573-1.427-26.563
	c-1.781-2.323-3.906-3.927-6.115-5.042c3.98-9.206,12.428-23.799,21.9-37.642c17.913-6.264,36.876-9.712,56.413-9.712
	C289.354,21.333,301.16,22.645,312.656,25.053z"/>
<path style="opacity:0.1;enable-background:new    ;" d="M117.24,251.19c6.615,17.889,16.206,34.63,28.599,49.561
	c6.785-4.921,13.97-8.21,21.134-10.577C148.022,280.352,131.21,267.078,117.24,251.19z"/>
<path style="opacity:0.1;enable-background:new    ;" d="M405.125,79.165C412.038,97.716,416,117.706,416,138.667
	c0,85.128-62.393,155.492-143.902,168.363c0.888,2.867,2.158,5.319,4.454,7.616c10.365,10.365,30.156,33.53,38.724,43.646
	c31.074-7.03,59.65-22.53,82.734-45.615C430.25,280.438,448,237.583,448,192C448,149.971,432.749,110.374,405.125,79.165z"/>
<path style="opacity:0.1;enable-background:new    ;" d="M212.889,306.164c-0.536-0.008-0.922,0.001-1.483-0.008
	c-13.975-0.273-34.021-0.507-50.642,10.247c31.742,29.783,72.848,46.263,116.569,46.263c4.397,0,8.742-0.309,13.082-0.637
	c-9.449-11.009-21.823-25.177-28.947-32.301c-6.754-6.762-9.424-14.146-10.867-20.661c-1.766,0.053-3.49,0.266-5.268,0.266
	C234.23,309.333,223.402,308.189,212.889,306.164z"/>
<path style="fill:#546E7A;" d="M384,490.667H128c0-11.76,9.573-21.333,21.333-21.333h213.333
	C374.427,469.333,384,478.906,384,490.667z"/>
<path style="opacity:0.1;enable-background:new    ;" d="M362.667,469.333h-53.333c11.76,0,21.333,9.573,21.333,21.333H384
	C384,478.906,374.427,469.333,362.667,469.333z"/>
<linearGradient id="SVGID_1_" gradientUnits="userSpaceOnUse" x1="-45.3245" y1="638.5966" x2="-24.8279" y2="629.0392" gradientTransform="matrix(21.3333 0 0 -21.3333 996.3334 13791.667)">
	<stop  offset="0" style="stop-color:#FFFFFF;stop-opacity:0.2"/>
	<stop  offset="1" style="stop-color:#FFFFFF;stop-opacity:0"/>
</linearGradient>
<path style="fill:url(#SVGID_1_);" d="M420.27,319.853c31.599-35.24,49.064-80.156,49.064-127.853
	c0-51.281-19.969-99.5-56.24-135.76C376.833,19.969,328.615,0,277.333,0C229.637,0,184.72,17.465,149.48,49.064l-23.001-23.001
	c-4.167-4.167-10.917-4.167-15.083,0C65.646,71.813,42.667,131.906,42.667,192s22.979,120.188,68.729,165.938
	c37.602,37.602,84.922,59.48,133.938,66.176V448h-96c-23.531,0-42.667,19.135-42.667,42.667v10.667
	c0,5.896,4.771,10.667,10.667,10.667h277.333c5.896,0,10.667-4.771,10.667-10.667v-10.667c0-23.531-19.135-42.667-42.667-42.667h-96
	v-21.956c3.557,0.16,7.107,0.508,10.667,0.508c60.094,0,120.188-22.865,165.938-68.615c2-2,3.125-4.708,3.125-7.542
	s-1.125-5.542-3.125-7.542L420.27,319.853z M126.479,342.854c-80.656-80.656-83.104-210.344-7.354-293.979l15.272,15.272
	C102.798,99.387,85.333,144.303,85.333,192c0,51.281,19.969,99.5,56.24,135.76c36.26,36.271,84.479,56.24,135.76,56.24
	c47.697,0,92.613-17.465,127.853-49.064l15.272,15.272C336.802,425.948,207.115,423.49,126.479,342.854z"/>
<g>
</g>
<g>
</g>
<g>
</g>
<g>
</g>
<g>
</g>
<g>
</g>
<g>
</g>
<g>
</g>
<g>
</g>
<g>
</g>
<g>
</g>
<g>
</g>
<g>
</g>
<g>
</g>
<g>
</g>
</svg>
