<?xml version="1.0" encoding="iso-8859-1"?>
<!-- Generator: Adobe Illustrator 19.0.0, SVG Export Plug-In . SVG Version: 6.00 Build 0)  -->
<svg version="1.1" id="Layer_1" xmlns="http://www.w3.org/2000/svg" xmlns:xlink="http://www.w3.org/1999/xlink" x="0px" y="0px"
	 viewBox="0 0 512 512" style="enable-background:new 0 0 512 512;" xml:space="preserve">
<g>
	<circle style="fill:#FFECCA;" cx="298.756" cy="153.386" r="25.653"/>
	<circle style="fill:#FFECCA;" cx="59.324" cy="153.386" r="25.653"/>
</g>
<path id="SVGCleanerId_0" style="fill:#56677E;" d="M288.895,127.733H69.184c-0.86,5.575-1.309,11.286-1.309,17.102
	c0,11.935,1.889,23.428,5.37,34.205h211.59c3.481-10.777,5.37-22.269,5.37-34.205C290.205,139.019,289.756,133.308,288.895,127.733z
	"/>
<circle style="fill:#FFE9C4;" cx="179.04" cy="144.835" r="111.165"/>
<g>
	<path id="SVGCleanerId_0_1_" style="fill:#56677E;" d="M288.895,127.733H69.184c-0.86,5.575-1.309,11.286-1.309,17.102
		c0,11.935,1.889,23.428,5.37,34.205h211.59c3.481-10.777,5.37-22.269,5.37-34.205C290.205,139.019,289.756,133.308,288.895,127.733
		z"/>
</g>
<g>
	<path style="fill:#FF8C78;" d="M196.142,204.693h-34.205c-14.109,0-25.653,11.544-25.653,25.653v17.128
		c13.162,5.489,27.604,8.525,42.756,8.525s29.593-3.037,42.756-8.525v-17.128C221.795,216.237,210.251,204.693,196.142,204.693z"/>
	<path style="fill:#FF8C78;" d="M59.324,16.568C84.977,33.67,141.259,8.017,179.04,8.017s68.409,19.143,68.409,42.756
		s-30.628,42.756-68.409,42.756C93.528,93.528,59.324,33.67,59.324,16.568z"/>
</g>
<path style="fill:#DB6B5E;" d="M204.693,84.977c-68.706,0-104.284-38.638-115.617-62.698c-11.767,0.681-22.116-0.621-29.753-5.711
	c0,17.102,34.205,76.96,119.716,76.96c16.882,0,32.324-3.83,44.255-10.164C217.378,84.407,211.144,84.977,204.693,84.977z"/>
<path style="fill:#ECEEF1;" d="M315.858,503.983H42.221V307.307c0-18.891,15.314-34.205,34.205-34.205h205.228
	c18.891,0,34.205,15.314,34.205,34.205V503.983z"/>
<g>
	<rect x="42.221" y="315.858" style="fill:#56677E;" width="273.637" height="34.205"/>
	<rect x="42.221" y="392.818" style="fill:#56677E;" width="273.637" height="34.205"/>
	<rect x="42.221" y="469.779" style="fill:#56677E;" width="273.637" height="34.205"/>
</g>
<path style="fill:#FFDB66;" d="M332.96,16.568v102.614c0,4.722,3.829,8.551,8.551,8.551h42.756v51.307l51.307-51.307h34.205
	c4.722,0,8.551-3.829,8.551-8.551V16.568c0-4.722-3.829-8.551-8.551-8.551H341.511C336.789,8.017,332.96,11.845,332.96,16.568z"/>
<path style="fill:#F7C14D;" d="M358.614,119.182V16.568c0-4.722,3.829-8.551,8.551-8.551h-25.653c-4.722,0-8.551,3.829-8.551,8.551
	v102.614c0,4.722,3.829,8.551,8.551,8.551h25.653C362.443,127.733,358.614,123.904,358.614,119.182z"/>
<path style="fill:#3CBDE8;" d="M341.511,469.779H256c-4.722,0-8.551-3.829-8.551-8.551V324.409c0-4.722,3.829-8.551,8.551-8.551
	h85.511c4.722,0,8.551,3.829,8.551,8.551v136.818C350.063,465.95,346.234,469.779,341.511,469.779z"/>
<circle style="fill:#FF8C78;" cx="375.716" cy="290.205" r="17.102"/>
<path style="fill:#FFE9C4;" d="M288.067,487.95v-59.858c0-8.855,7.179-16.033,16.033-16.033h55.582
	c8.855,0,16.033,7.179,16.033,16.033v59.858c0,8.855-7.179,16.033-16.033,16.033H304.1
	C295.246,503.983,288.067,496.805,288.067,487.95z"/>
<path style="fill:#F7C14D;" d="M304.1,412.058c-8.855,0-16.033,7.179-16.033,16.033v59.858c0,8.855,7.179,16.033,16.033,16.033
	h18.706v-91.925H304.1z"/>
<path d="M59.324,187.056c2.699,0,5.34-0.322,7.909-0.941c16.828,45.431,60.596,77.901,111.807,77.901s94.979-32.469,111.807-77.901
	c2.577,0.622,5.223,0.941,7.909,0.941c18.566,0,33.67-15.105,33.67-33.67s-15.105-33.67-33.67-33.67
	c-1.059,0-2.119,0.055-3.171,0.154c-5.51-25.832-19.496-49.27-40.212-66.563c0.059-0.839,0.093-1.684,0.093-2.534
	C255.466,22.301,221.895,0,179.04,0c-15.009,0-32.474,3.755-49.365,7.386c-25.9,5.568-52.684,11.326-65.905,2.512
	c-5.231-3.49-12.463,0.395-12.463,6.67c0,11.822,10.47,33.097,30.482,50.885c1.231,1.095,2.538,2.205,3.906,3.321
	c-11.436,14.407-19.343,31.25-23.171,49.099c-1.062-0.1-2.13-0.156-3.199-0.156c-18.566,0-33.67,15.105-33.67,33.67
	S40.758,187.056,59.324,187.056z M282.188,144.835c0,9.046-1.175,17.822-3.372,26.188H79.264
	c-2.198-8.366-3.372-17.142-3.372-26.188c0-3.042,0.138-6.073,0.405-9.086h205.489C282.049,138.755,282.188,141.786,282.188,144.835
	z M144.301,241.958v-11.611c0-9.725,7.912-17.637,17.637-17.637h34.205c9.725,0,17.637,7.912,17.637,17.637v11.611
	c-10.86,3.896-22.555,6.025-34.739,6.025C166.855,247.983,155.161,245.854,144.301,241.958z M229.812,234.594v-4.248
	c0-18.566-15.105-33.67-33.67-33.67h-34.205c-18.566,0-33.67,15.105-33.67,33.67v4.248c-19.023-10.803-34.295-27.474-43.333-47.538
	h188.211C264.108,207.121,248.835,223.791,229.812,234.594z M298.756,135.749c9.725,0,17.637,7.912,17.637,17.637
	c0,9.725-7.912,17.637-17.637,17.637c-1.142,0-2.266-0.113-3.369-0.326c1.85-8.33,2.835-16.983,2.835-25.862
	c0-3.031-0.123-6.046-0.348-9.041C298.167,135.779,298.461,135.749,298.756,135.749z M71.732,29.531
	c17.675,2.913,39.765-1.837,61.313-6.47c16.071-3.456,32.689-7.028,45.994-7.028c32.736,0,60.392,15.908,60.392,34.739
	s-27.657,34.739-60.392,34.739c-43.641,0-71.181-16.337-86.599-30.041C82.389,46.534,75.669,37.091,71.732,29.531z M179.04,101.545
	c32.573,0,59.765-12.891,70.946-31.574c14.363,13.605,24.386,30.856,29.112,49.745H79.025c3.619-14.4,10.319-27.948,19.724-39.606
	C117.103,91.566,143.329,101.545,179.04,101.545z M59.324,135.749c0.301,0,0.601,0.03,0.901,0.045
	c-0.23,3.001-0.367,6.016-0.367,9.041c0,8.874,0.983,17.522,2.831,25.848c-1.1,0.212-2.22,0.34-3.366,0.34
	c-9.725,0-17.637-7.912-17.637-17.637C41.687,143.661,49.599,135.749,59.324,135.749z"/>
<path d="M135.215,161.403h1.069c4.427,0,8.017-3.589,8.017-8.017c0-4.427-3.589-8.017-8.017-8.017h-1.069
	c-4.427,0-8.017,3.589-8.017,8.017C127.198,157.814,130.788,161.403,135.215,161.403z"/>
<path d="M213.244,161.403h1.069c4.427,0,8.017-3.589,8.017-8.017c0-4.427-3.589-8.017-8.017-8.017h-1.069
	c-4.427,0-8.017,3.589-8.017,8.017C205.228,157.814,208.817,161.403,213.244,161.403z"/>
<path d="M187.591,222.33h-17.102c-4.427,0-8.017,3.589-8.017,8.017s3.589,8.017,8.017,8.017h17.102c4.427,0,8.017-3.589,8.017-8.017
	S192.018,222.33,187.591,222.33z"/>
<path d="M469.779,0H341.511c-9.136,0-16.568,7.432-16.568,16.568v18.171c0,4.427,3.589,8.017,8.017,8.017
	c4.427,0,8.017-3.589,8.017-8.017V16.568c0-0.295,0.239-0.534,0.534-0.534h128.267c0.295,0,0.534,0.239,0.534,0.534v102.614
	c0,0.295-0.239,0.534-0.534,0.534h-34.205c-2.126,0-4.165,0.844-5.668,2.348l-37.622,37.622v-31.953
	c0-4.427-3.589-8.017-8.017-8.017h-42.756c-0.295,0-0.534-0.239-0.534-0.534V76.96c0-4.427-3.589-8.017-8.017-8.017
	c-4.427,0-8.017,3.589-8.017,8.017v42.221c0,9.136,7.432,16.568,16.568,16.568h34.739v43.29c0,6.973,8.735,10.621,13.685,5.668
	l48.959-48.959h30.885c9.136,0,16.568-7.432,16.568-16.568V16.568C486.347,7.432,478.915,0,469.779,0z"/>
<path d="M392.818,85.511c-4.427,0-8.017,3.589-8.017,8.017c0,4.427,3.589,8.017,8.017,8.017h9.086v0.534
	c0,4.427,3.589,8.017,8.017,8.017c4.427,0,8.017-3.589,8.017-8.017v-0.534h9.086c4.427,0,8.017-3.589,8.017-8.017V67.875
	c0-4.427-3.589-8.017-8.017-8.017h-26.188v-9.62h26.188c4.427,0,8.017-3.589,8.017-8.017s-3.589-8.017-8.017-8.017h-9.086V33.67
	c0-4.427-3.589-8.017-8.017-8.017c-4.427,0-8.017,3.589-8.017,8.017v0.534h-9.086c-4.427,0-8.017,3.589-8.017,8.017v25.653
	c0,4.427,3.589,8.017,8.017,8.017h26.188v9.62H392.818z"/>
<path d="M375.716,265.086c-13.851,0-25.119,11.268-25.119,25.119c0,13.851,11.268,25.119,25.119,25.119
	c13.851,0,25.119-11.268,25.119-25.119C400.835,276.354,389.567,265.086,375.716,265.086z M375.716,299.29
	c-5.01,0-9.086-4.076-9.086-9.086s4.076-9.086,9.086-9.086s9.086,4.076,9.086,9.086S380.726,299.29,375.716,299.29z"/>
<path d="M375.716,205.228c-4.427,0-8.017,3.589-8.017,8.017s3.589,8.017,8.017,8.017c38.015,0,68.944,30.928,68.944,68.944
	c0,4.427,3.589,8.017,8.017,8.017c4.427,0,8.017-3.589,8.017-8.017C460.693,243.349,422.572,205.228,375.716,205.228z"/>
<path d="M375.716,239.432c-4.427,0-8.017,3.589-8.017,8.017s3.589,8.017,8.017,8.017c19.155,0,34.739,15.584,34.739,34.739
	c0,4.427,3.589,8.017,8.017,8.017c4.427,0,8.017-3.589,8.017-8.017C426.489,262.209,403.711,239.432,375.716,239.432z"/>
<path d="M298.756,333.495h-1.069c-4.427,0-8.017,3.589-8.017,8.017c0,4.427,3.589,8.017,8.017,8.017h1.069
	c4.427,0,8.017-3.589,8.017-8.017C306.772,337.084,303.183,333.495,298.756,333.495z"/>
<path d="M359.683,404.042h-1.603v-79.633c0-9.136-7.432-16.568-16.568-16.568h-17.637v-0.534c0-23.28-18.941-42.221-42.221-42.221
	H76.426c-23.28,0-42.221,18.941-42.221,42.221v196.676c0,4.427,3.589,8.017,8.017,8.017h317.461c13.262,0,24.05-10.788,24.05-24.05
	v-59.858C383.733,414.83,372.944,404.042,359.683,404.042z M342.046,324.409v79.633H304.1c-13.262,0-24.05,10.788-24.05,24.05v33.67
	H256c-0.295,0-0.534-0.239-0.534-0.534V324.409c0-0.295,0.239-0.534,0.534-0.534h85.511
	C341.807,323.875,342.046,324.114,342.046,324.409z M50.238,400.835h189.194v18.171H50.238V400.835z M239.432,384.802H50.238
	v-26.722h189.194V384.802z M50.238,435.04h189.194v26.188c0,0.181,0.021,0.356,0.027,0.534H50.238V435.04z M76.426,281.119h205.228
	c14.44,0,26.188,11.748,26.188,26.188v0.534H128.267c-4.427,0-8.017,3.589-8.017,8.017c0,4.427,3.589,8.017,8.017,8.017h111.192
	c-0.005,0.178-0.027,0.354-0.027,0.534v17.637H50.238v-18.171h34.739c4.427,0,8.017-3.589,8.017-8.017
	c0-4.427-3.589-8.017-8.017-8.017H50.238v-0.534C50.238,292.867,61.986,281.119,76.426,281.119z M50.238,477.795H256h24.05v10.155
	c0,2.81,0.49,5.508,1.379,8.017H50.238V477.795z M367.699,487.95c0,4.421-3.596,8.017-8.017,8.017h-43.825H304.1
	c-4.24,0-7.713-3.311-7.99-7.482h17.61c4.427,0,8.017-3.589,8.017-8.017s-3.589-8.017-8.017-8.017h-17.637v-5.344h17.637
	c4.427,0,8.017-3.589,8.017-8.017s-3.589-8.017-8.017-8.017h-17.637v-5.344h17.637c4.427,0,8.017-3.589,8.017-8.017
	c0-4.427-3.589-8.017-8.017-8.017h-17.637v-1.603c0-4.421,3.596-8.017,8.017-8.017h55.582c4.421,0,8.017,3.596,8.017,8.017V487.95z"
	/>
<g>
</g>
<g>
</g>
<g>
</g>
<g>
</g>
<g>
</g>
<g>
</g>
<g>
</g>
<g>
</g>
<g>
</g>
<g>
</g>
<g>
</g>
<g>
</g>
<g>
</g>
<g>
</g>
<g>
</g>
</svg>
