<?xml version="1.0" encoding="iso-8859-1"?>
<!-- Generator: Adobe Illustrator 19.0.0, SVG Export Plug-In . SVG Version: 6.00 Build 0)  -->
<svg version="1.1" id="Layer_1" xmlns="http://www.w3.org/2000/svg" xmlns:xlink="http://www.w3.org/1999/xlink" x="0px" y="0px"
	 viewBox="0 0 512 512" style="enable-background:new 0 0 512 512;" xml:space="preserve">
<circle style="fill:#FFE9C4;" cx="234.622" cy="170.488" r="111.165"/>
<path style="fill:#F7C14D;" d="M234.622,144.835c46.242,0,85.886,28.238,102.639,68.409c5.489-13.162,8.526-27.604,8.526-42.756
	c0-61.395-49.77-111.165-111.165-111.165s-111.165,49.77-111.165,111.165c0,15.152,3.037,29.593,8.525,42.756
	C148.736,173.073,188.38,144.835,234.622,144.835z"/>
<path style="fill:#435670;" d="M320.133,238.897h-46.141c-17.021,0-30.819-13.798-30.819-30.819v-20.487h76.96V238.897z"/>
<path style="fill:#8E9AA9;" d="M280.584,187.591l-34.187,34.187c2.332,4.684,5.809,8.698,10.081,11.653l45.842-45.842h-21.735
	V187.591z"/>
<path style="fill:#435670;" d="M149.111,238.897h46.141c17.021,0,30.819-13.798,30.819-30.819v-20.487h-76.96V238.897z"/>
<polygon style="fill:#8E9AA9;" points="182.246,187.591 149.111,220.726 149.111,238.897 150.535,238.897 201.842,187.591 "/>
<path style="fill:#A1ABB8;" d="M234.622,8.016c-59.858,8.551-145.37,51.307-145.37,153.921c0,59.858,0,136.818,0,136.818v205.228
	h290.739V298.755c0,0,0-76.96,0-136.818C379.992,59.323,294.48,16.568,234.622,8.016z M191.866,298.755
	c0,0-42.756-51.307-42.756-102.614c0-42.756,42.756-76.96,85.511-76.96s85.511,34.205,85.511,76.96
	c0,51.307-42.756,102.614-42.756,102.614H191.866z"/>
<g>
	<circle style="fill:#DB6B5E;" cx="191.866" cy="358.614" r="17.102"/>
	<circle style="fill:#DB6B5E;" cx="277.378" cy="358.614" r="17.102"/>
</g>
<path style="fill:#8E9AA9;" d="M114.906,264.551c0-103.105,46.798-195.272,120.303-256.446c-0.195-0.029-0.392-0.061-0.587-0.089
	c-59.858,8.551-145.37,51.307-145.37,153.921c0,59.858,0,136.818,0,136.818v205.228h127.035
	C153.773,443.368,114.906,358.505,114.906,264.551z"/>
<path style="fill:#FFE9C4;" d="M139.49,469.778H79.632c-8.855,0-16.033-7.179-16.033-16.033v-29.929
	c0-8.855,7.179-16.033,16.033-16.033h59.858c8.855,0,16.033,7.179,16.033,16.033v29.929
	C155.524,462.601,148.345,469.778,139.49,469.778z"/>
<path style="fill:#F7C14D;" d="M63.599,444.259v9.486c0,8.855,7.179,16.033,16.033,16.033h59.858
	c8.855,0,16.033-7.179,16.033-16.033v-9.486H63.599z"/>
<path style="fill:#3CBDE8;" d="M448.401,503.983H243.173V350.062c0-4.722,3.829-8.551,8.551-8.551H439.85
	c4.722,0,8.551,3.829,8.551,8.551V503.983z"/>
<g>
	<path style="fill:#2C9DD4;" d="M277.378,341.511h-25.653c-4.722,0-8.551,3.829-8.551,8.551v153.921h25.653V350.062
		C268.827,345.34,272.655,341.511,277.378,341.511z"/>
	<circle style="fill:#2C9DD4;" cx="345.787" cy="461.227" r="17.102"/>
</g>
<path style="fill:#3CBDE8;" d="M243.173,503.983H97.804c-4.722,0-8.551-3.829-8.551-8.551v-25.653h153.921V503.983z"/>
<path d="M439.85,333.495h-51.841v-61.461c0-4.427-3.588-8.017-8.017-8.017s-8.017,3.589-8.017,8.017v18.706H293.32
	c13.155-19.134,34.83-56.453,34.83-94.597c0-22.58-10.473-44.092-29.489-60.571c-17.896-15.51-41.238-24.406-64.04-24.406
	s-46.143,8.895-64.04,24.406c-19.016,16.48-29.489,37.992-29.489,60.571c0,38.145,21.676,75.463,34.83,94.597H97.269V161.937
	c0-92.597,73.724-136.34,137.353-145.818c63.629,9.479,137.353,53.221,137.353,145.818v70.191c0,4.427,3.588,8.017,8.017,8.017
	s8.017-3.589,8.017-8.017v-70.191c0-47.849-18.346-88.768-53.057-118.336c-26.307-22.41-62.464-38.273-99.197-43.52
	c-0.751-0.108-1.516-0.108-2.267,0c-36.734,5.248-72.889,21.111-99.197,43.52c-34.709,29.568-53.056,70.487-53.056,118.336v237.829
	h-1.603c-13.262,0-24.05,10.789-24.05,24.05v29.929c0,13.262,10.788,24.05,24.05,24.05h1.603v26.188
	c0,4.427,3.589,8.017,8.017,8.017c1.247,0,77.316,0,77.316,0c4.427,0,8.017-3.589,8.017-8.017c0-4.427-3.589-8.017-8.017-8.017
	H97.804c-0.295,0-0.534-0.239-0.534-0.534v-17.637h137.887v18.171h-25.832c-4.427,0-8.017,3.589-8.017,8.017
	c0,4.427,3.589,8.017,8.017,8.017h239.076c4.428,0,8.017-3.589,8.017-8.017V350.062C456.417,340.927,448.985,333.495,439.85,333.495
	z M371.975,306.772v26.722h-86.58v-26.722H371.975z M191.866,349.528c5.01,0,9.086,4.076,9.086,9.086s-4.076,9.086-9.086,9.086
	s-9.086-4.076-9.086-9.086S186.856,349.528,191.866,349.528z M195.753,290.739c-1.744-2.278-4.372-5.83-7.452-10.391
	c14.497,6.131,30.133,9.322,46.322,9.322c16.18,0,31.807-3.187,46.299-9.313c-3.074,4.557-5.694,8.104-7.434,10.382H195.753z
	 M157.127,196.142c0-0.18,0.016-0.355,0.017-0.534h60.91v12.471c0,12.573-10.229,22.803-22.803,22.803h-31.991
	C159.572,219.716,157.127,207.891,157.127,196.142z M312.117,196.142c0,11.736-2.451,23.565-6.15,34.739h-31.974
	c-12.573,0-22.803-10.229-22.803-22.803v-12.471h60.91C312.102,195.787,312.117,195.962,312.117,196.142z M234.622,127.198
	c31.244,0,65.625,21.516,75,52.376h-66.449c-4.428,0-8.017,3.589-8.017,8.017v20.487c0,21.414,17.422,38.836,38.836,38.836h25.703
	c-0.868,1.932-1.757,3.828-2.663,5.682c-18.059,13.759-39.603,21.04-62.411,21.04c-22.823,0-44.383-7.292-62.451-21.069
	c-0.9-1.846-1.785-3.732-2.647-5.653h25.726c21.415,0,38.837-17.422,38.837-38.836v-20.488c0-4.427-3.589-8.017-8.017-8.017h-66.449
	C168.998,148.714,203.378,127.198,234.622,127.198z M71.616,453.745v-29.929c0-4.421,3.596-8.017,8.017-8.017h59.858
	c4.421,0,8.017,3.596,8.017,8.017v29.929c0,4.24-3.311,7.713-7.482,7.99v-17.61c0-4.427-3.589-8.017-8.017-8.017
	c-4.427,0-8.017,3.589-8.017,8.017v17.637h-5.344v-17.637c0-4.427-3.589-8.017-8.017-8.017s-8.017,3.589-8.017,8.017v17.637h-5.344
	v-17.637c0-4.427-3.589-8.017-8.017-8.017c-4.427,0-8.017,3.589-8.017,8.017v17.637h-1.603
	C75.211,461.762,71.616,458.166,71.616,453.745z M162.162,461.762c0.89-2.509,1.379-5.207,1.379-8.017v-29.929
	c0-13.262-10.788-24.05-24.05-24.05H97.269v-92.994h86.58v28.041c-9.93,3.354-17.102,12.752-17.102,23.8
	c0,13.851,11.268,25.119,25.119,25.119c13.851,0,25.119-11.268,25.119-25.119c0-11.048-7.172-20.446-17.102-23.8v-28.041h69.478
	v26.722h-17.637c-9.136,0-16.568,7.432-16.568,16.568v111.699H162.162z M440.384,495.966H251.19V350.062
	c0-0.295,0.241-0.534,0.534-0.534H439.85c0.294,0,0.534,0.239,0.534,0.534V495.966z"/>
<path d="M345.787,436.108c-13.851,0-25.119,11.268-25.119,25.119s11.268,25.119,25.119,25.119s25.119-11.268,25.119-25.119
	S359.638,436.108,345.787,436.108z M345.787,470.313c-5.01,0-9.086-4.076-9.086-9.086s4.076-9.086,9.086-9.086
	s9.086,4.076,9.086,9.086S350.797,470.313,345.787,470.313z"/>
<path d="M345.787,359.148c-27.267,0-52.902,10.618-72.181,29.899c-3.131,3.131-3.131,8.207,0.001,11.337
	c3.13,3.132,8.206,3.131,11.337,0c16.251-16.251,37.859-25.202,60.844-25.202s44.592,8.951,60.844,25.202
	c1.566,1.566,3.617,2.348,5.669,2.348c2.051,0,4.103-0.782,5.668-2.348c3.132-3.131,3.132-8.206,0.001-11.337
	C398.689,369.766,373.054,359.148,345.787,359.148z"/>
<path d="M345.787,384.801c-20.414,0-39.606,7.949-54.041,22.385c-3.132,3.131-3.132,8.206-0.001,11.337
	c3.132,3.131,8.208,3.131,11.337,0c11.409-11.406,26.574-17.688,42.706-17.688s31.296,6.282,42.704,17.688
	c1.565,1.566,3.616,2.348,5.668,2.348c2.051,0,4.103-0.782,5.669-2.348c3.131-3.131,3.131-8.207-0.001-11.337
	C385.393,392.751,366.201,384.801,345.787,384.801z"/>
<path d="M345.787,410.455c-13.562,0-26.312,5.281-35.902,14.871c-3.131,3.131-3.131,8.207,0.001,11.338
	c3.13,3.131,8.206,3.13,11.337,0c6.561-6.562,15.284-10.175,24.563-10.175c9.279,0,18.003,3.613,24.563,10.175
	c1.566,1.565,3.617,2.348,5.669,2.348c2.051,0,4.103-0.782,5.668-2.347c3.132-3.131,3.132-8.207,0.001-11.338
	C372.099,415.736,359.35,410.455,345.787,410.455z"/>
<g>
</g>
<g>
</g>
<g>
</g>
<g>
</g>
<g>
</g>
<g>
</g>
<g>
</g>
<g>
</g>
<g>
</g>
<g>
</g>
<g>
</g>
<g>
</g>
<g>
</g>
<g>
</g>
<g>
</g>
</svg>
