<?xml version="1.0" encoding="iso-8859-1"?>
<!-- Generator: Adobe Illustrator 19.0.0, SVG Export Plug-In . SVG Version: 6.00 Build 0)  -->
<svg version="1.1" id="Capa_1" xmlns="http://www.w3.org/2000/svg" xmlns:xlink="http://www.w3.org/1999/xlink" x="0px" y="0px"
	 viewBox="0 0 512 512" style="enable-background:new 0 0 512 512;" xml:space="preserve">
<path style="fill:#303C42;" d="M405.333,102.99V64C428.865,64,448,44.865,448,21.333V10.667C448,4.771,443.229,0,437.333,0H74.667
	C68.771,0,64,4.771,64,10.667v10.667C64,44.865,83.135,64,106.667,64v38.99c0,39.25,16.729,76.823,45.906,103.073L208.052,256
	l-55.479,49.938c-29.177,26.25-45.906,63.823-45.906,103.073V448C83.135,448,64,467.135,64,490.667v10.667
	C64,507.229,68.771,512,74.667,512h362.667c5.896,0,10.667-4.771,10.667-10.667v-10.667C448,467.135,428.865,448,405.333,448v-38.99
	c0-39.25-16.729-76.823-45.906-103.073L303.948,256l55.479-49.938C388.604,179.813,405.333,142.24,405.333,102.99z"/>
<g>
	<path style="fill:#8D6E63;" d="M85.333,21.333h341.333c0,11.76-9.573,21.333-21.333,21.333H106.667
		C94.906,42.667,85.333,33.094,85.333,21.333z"/>
	<path style="fill:#8D6E63;" d="M426.667,490.667H85.333c0-11.76,9.573-21.333,21.333-21.333h298.667
		C417.094,469.333,426.667,478.906,426.667,490.667z"/>
</g>
<path style="opacity:0.2;fill:#FFFFFF;enable-background:new    ;" d="M106.667,480h298.667c7.792,0,14.329,4.409,18.053,10.667
	h3.28c0-11.76-9.573-21.333-21.333-21.333H106.667c-11.76,0-21.333,9.573-21.333,21.333h3.28C92.337,484.409,98.875,480,106.667,480
	z"/>
<polygon style="fill:#FFCA28;" points="181.329,448 256,348.448 330.671,448 "/>
<polygon style="opacity:0.2;fill:#FFFFFF;enable-background:new    ;" points="256,348.448 181.329,448 197.495,448 256,370 
	314.505,448 330.671,448 "/>
<path style="fill:#E4F2FD;" d="M280.865,248.073c-2.25,2.021-3.531,4.906-3.531,7.927c0,3.021,1.281,5.906,3.531,7.927
	l64.292,57.865C369.844,344.01,384,375.802,384,409.01V448h-26.672l-92.797-123.729c-4.021-5.375-13.042-5.375-17.063,0L154.672,448
	H128v-38.99c0-33.208,14.156-65,38.844-87.219l64.292-57.865c2.25-2.021,3.531-4.906,3.531-7.927c0-3.021-1.281-5.906-3.531-7.927
	l-64.292-57.865C142.156,167.99,128,136.198,128,102.99V64h256v38.99c0,33.208-14.156,65-38.844,87.219L280.865,248.073z"/>
<linearGradient id="SVGID_1_" gradientUnits="userSpaceOnUse" x1="-43.0787" y1="638.3902" x2="-26.3275" y2="630.5786" gradientTransform="matrix(21.3333 0 0 -21.3333 996.3334 13791.667)">
	<stop  offset="0" style="stop-color:#FFFFFF;stop-opacity:0.2"/>
	<stop  offset="1" style="stop-color:#FFFFFF;stop-opacity:0"/>
</linearGradient>
<path style="fill:url(#SVGID_1_);" d="M280.865,248.073c-2.25,2.021-3.531,4.906-3.531,7.927c0,3.021,1.281,5.906,3.531,7.927
	l64.292,57.865C369.844,344.01,384,375.802,384,409.01V448h-26.672l-92.797-123.729c-4.021-5.375-13.042-5.375-17.063,0L154.672,448
	H128v-38.99c0-33.208,14.156-65,38.844-87.219l64.292-57.865c2.25-2.021,3.531-4.906,3.531-7.927c0-3.021-1.281-5.906-3.531-7.927
	l-64.292-57.865C142.156,167.99,128,136.198,128,102.99V64h256v38.99c0,33.208-14.156,65-38.844,87.219L280.865,248.073z"/>
<path style="fill:#303C42;" d="M329.521,149.333H182.469c-4.219,0-8.042,2.49-9.75,6.344c-1.708,3.865-0.99,8.365,1.854,11.49
	l1.667,1.948c1.531,1.823,3.083,3.635,4.854,5.219l67.75,61.354c2.031,1.844,4.594,2.76,7.156,2.76s5.125-0.917,7.156-2.76
	l67.729-61.344c1.792-1.604,3.344-3.406,4.865-5.229l1.667-1.948c2.844-3.125,3.563-7.625,1.854-11.49
	C337.563,151.823,333.74,149.333,329.521,149.333z"/>
<polygon style="fill:#FFCA28;" points="256,213.385 208.823,170.667 303.167,170.667 "/>
<linearGradient id="SVGID_2_" gradientUnits="userSpaceOnUse" x1="-37.9531" y1="646.2344" x2="-29.9002" y2="638.1814" gradientTransform="matrix(21.3333 0 0 -21.3333 996.3334 13791.667)">
	<stop  offset="0" style="stop-color:#000000;stop-opacity:0.1"/>
	<stop  offset="1" style="stop-color:#000000;stop-opacity:0"/>
</linearGradient>
<path style="fill:url(#SVGID_2_);" d="M213.333,170.667l42.694,42.694l47.139-42.694H213.333z M128,64v21.333l64,64h137.521
	c4.219,0,8.042,2.49,9.75,6.344c1.708,3.865,0.99,8.365-1.854,11.49l-1.667,1.948c-1.521,1.823-3.073,3.625-4.865,5.229
	l-59.754,54.121l14.931,14.931l59.094-53.188C369.844,167.99,384,136.198,384,102.99V64H128z"/>
<linearGradient id="SVGID_3_" gradientUnits="userSpaceOnUse" x1="-46.5431" y1="640.0054" x2="-22.8632" y2="628.9634" gradientTransform="matrix(21.3333 0 0 -21.3333 996.3334 13791.667)">
	<stop  offset="0" style="stop-color:#FFFFFF;stop-opacity:0.2"/>
	<stop  offset="1" style="stop-color:#FFFFFF;stop-opacity:0"/>
</linearGradient>
<path style="fill:url(#SVGID_3_);" d="M405.333,102.99V64C428.865,64,448,44.865,448,21.333V10.667C448,4.771,443.229,0,437.333,0
	H74.667C68.771,0,64,4.771,64,10.667v10.667C64,44.865,83.135,64,106.667,64v38.99c0,39.25,16.729,76.823,45.906,103.073
	L208.052,256l-55.479,49.938c-29.177,26.25-45.906,63.823-45.906,103.073V448C83.135,448,64,467.135,64,490.667v10.667
	C64,507.229,68.771,512,74.667,512h362.667c5.896,0,10.667-4.771,10.667-10.667v-10.667C448,467.135,428.865,448,405.333,448v-38.99
	c0-39.25-16.729-76.823-45.906-103.073L303.948,256l55.479-49.938C388.604,179.813,405.333,142.24,405.333,102.99z"/>
<g>
</g>
<g>
</g>
<g>
</g>
<g>
</g>
<g>
</g>
<g>
</g>
<g>
</g>
<g>
</g>
<g>
</g>
<g>
</g>
<g>
</g>
<g>
</g>
<g>
</g>
<g>
</g>
<g>
</g>
</svg>
