<?xml version="1.0" encoding="iso-8859-1"?>
<!-- Generator: Adobe Illustrator 19.0.0, SVG Export Plug-In . SVG Version: 6.00 Build 0)  -->
<svg version="1.1" id="Capa_1" xmlns="http://www.w3.org/2000/svg" xmlns:xlink="http://www.w3.org/1999/xlink" x="0px" y="0px"
	 viewBox="0 0 469.333 469.333" style="enable-background:new 0 0 469.333 469.333;" xml:space="preserve">
<path style="fill:#303C42;" d="M467.646,260.896l-96-149.333c-1.979-3.052-5.354-4.896-8.979-4.896h-256
	c-3.625,0-7,1.844-8.979,4.896l-96,149.333C0.583,262.615,0,264.625,0,266.667v160c0,23.531,19.146,42.667,42.667,42.667h384
	c23.521,0,42.667-19.135,42.667-42.667v-160C469.333,264.625,468.75,262.615,467.646,260.896z"/>
<g>
	<path style="fill:#546E7A;" d="M112.5,128h244.333l82.293,128h-65.793c-23.521,0-42.667,19.135-42.667,42.667
		c0,11.76-9.563,21.333-21.333,21.333H160c-11.771,0-21.333-9.573-21.333-21.333C138.667,275.135,119.521,256,96,256H30.207
		L112.5,128z"/>
	<path style="fill:#546E7A;" d="M448,426.667c0,11.76-9.563,21.333-21.333,21.333h-384c-11.771,0-21.333-9.573-21.333-21.333
		V277.333H96c11.771,0,21.333,9.573,21.333,21.333c0,23.531,19.146,42.667,42.667,42.667h149.333
		c23.521,0,42.667-19.135,42.667-42.667c0-11.76,9.563-21.333,21.333-21.333H448V426.667z"/>
</g>
<polygon style="opacity:0.2;enable-background:new    ;" points="90.91,256 112.673,213.333 112.5,128 30.207,256 "/>
<g>
	<polygon style="opacity:0.08;fill:#FFFFFF;enable-background:new    ;" points="439.126,256 356.791,128.079 356.791,213.333 
		378.473,256 	"/>
	<polygon style="opacity:0.03;fill:#FFFFFF;enable-background:new    ;" points="356.791,213.333 356.791,128.079 112.5,128 
		112.673,213.333 	"/>
</g>
<linearGradient id="SVGID_1_" gradientUnits="userSpaceOnUse" x1="-59.6942" y1="608.8953" x2="-52.3758" y2="616.2147" gradientTransform="matrix(21.3333 0 0 -21.3333 1430.1112 13315.2227)">
	<stop  offset="0" style="stop-color:#000000;stop-opacity:0"/>
	<stop  offset="1" style="stop-color:#000000;stop-opacity:0.1"/>
</linearGradient>
<path style="fill:url(#SVGID_1_);" d="M112.673,213.333L90.91,256H96c23.521,0,42.667,19.135,42.667,42.667
	c0,11.76,9.563,21.333,21.333,21.333h149.333c11.771,0,21.333-9.573,21.333-21.333c0-23.531,19.146-42.667,42.667-42.667h5.139
	l-21.681-42.667H112.673z"/>
<path style="fill:#303C42;" d="M178.208,195.125c-4.167-4.167-10.917-4.167-15.083,0c-4.167,4.167-4.167,10.917,0,15.083l64,64
	c2.083,2.083,4.813,3.125,7.542,3.125s5.458-1.042,7.542-3.125l64-64c4.167-4.167,4.167-10.917,0-15.083
	c-4.167-4.167-10.917-4.167-15.083,0l-45.792,45.792V10.667C245.333,4.771,240.563,0,234.667,0S224,4.771,224,10.667v230.25
	L178.208,195.125z"/>
<linearGradient id="SVGID_2_" gradientUnits="userSpaceOnUse" x1="-65.3734" y1="615.3291" x2="-44.2175" y2="605.4642" gradientTransform="matrix(21.3333 0 0 -21.3333 1430.1112 13315.2227)">
	<stop  offset="0" style="stop-color:#FFFFFF;stop-opacity:0.2"/>
	<stop  offset="1" style="stop-color:#FFFFFF;stop-opacity:0"/>
</linearGradient>
<path style="fill:url(#SVGID_2_);" d="M467.646,260.896l-96-149.333c-1.979-3.052-5.354-4.896-8.979-4.896H245.333v-96
	C245.333,4.771,240.563,0,234.667,0S224,4.771,224,10.667v96H106.667c-3.625,0-7,1.844-8.979,4.896l-96,149.333
	C0.583,262.615,0,264.625,0,266.667v160c0,23.531,19.146,42.667,42.667,42.667h384c23.521,0,42.667-19.135,42.667-42.667v-160
	C469.333,264.625,468.75,262.615,467.646,260.896z"/>
<g>
</g>
<g>
</g>
<g>
</g>
<g>
</g>
<g>
</g>
<g>
</g>
<g>
</g>
<g>
</g>
<g>
</g>
<g>
</g>
<g>
</g>
<g>
</g>
<g>
</g>
<g>
</g>
<g>
</g>
</svg>
