<?xml version="1.0" encoding="iso-8859-1"?>
<!-- Generator: Adobe Illustrator 19.0.0, SVG Export Plug-In . SVG Version: 6.00 Build 0)  -->
<svg version="1.1" id="Layer_1" xmlns="http://www.w3.org/2000/svg" xmlns:xlink="http://www.w3.org/1999/xlink" x="0px" y="0px"
	 viewBox="0 0 512 512" style="enable-background:new 0 0 512 512;" xml:space="preserve">
<path style="fill:#EEBF00;" d="M256.001,118.236c-104.697,0-189.571,84.873-189.571,189.571c0,28.774,6.426,56.043,17.9,80.47
	c9.632,20.506,22.818,39.012,38.783,54.707h265.776c15.964-15.695,29.151-34.201,38.783-54.707
	c11.474-24.427,17.9-51.695,17.9-80.47C445.571,203.109,360.697,118.236,256.001,118.236z"/>
<path style="fill:#FEDA44;" d="M163.491,442.984H348.51c43.045-29.514,71.286-79.045,71.286-135.178
	c0-90.462-73.334-163.795-163.795-163.795S92.205,217.345,92.205,307.806C92.205,363.939,120.447,413.47,163.491,442.984z"/>
<circle style="fill:#EEBF00;" cx="256.001" cy="307.809" r="91.145"/>
<path style="fill:#A78967;" d="M427.671,388.277c-9.632,20.506-22.818,39.012-38.783,54.707H123.113
	c-15.964-15.695-29.151-34.201-38.783-54.707H13.981v116.112h484.037V388.277H427.671z"/>
<path style="fill:#806749;" d="M408.869,419.892c-6.038,8.227-12.718,15.953-19.98,23.092H123.113
	c-7.261-7.14-13.941-14.866-19.98-23.092H46.833v47.829h418.336v-47.829H408.869z"/>
<path d="M439.257,380.665c9.239-23.15,13.926-47.602,13.926-72.859c0-108.727-88.456-197.181-197.182-197.181
	S58.818,199.08,58.818,307.806c0,25.257,4.687,49.709,13.926,72.859H6.37V512h499.26V380.665H439.257z M256.001,125.847
	c100.333,0,181.959,81.627,181.959,181.958c0,26.982-5.779,52.968-17.178,77.234c-0.428,0.911-0.883,1.806-1.325,2.709
	c0.006,0,0.012,0.001,0.018,0.001c-8.629,17.616-19.957,33.614-33.738,47.623h-0.289h-14.991
	c35.993-32.311,56.951-78.556,56.951-127.567c0-94.514-76.893-171.407-171.407-171.407S84.594,213.291,84.594,307.806
	c0,49.011,20.958,95.255,56.951,127.567h-15.144h-0.137c-14.484-14.725-26.267-31.643-35.045-50.332
	c-11.398-24.266-17.178-50.252-17.178-77.234C74.041,207.474,155.668,125.847,256.001,125.847z M99.817,307.806
	c0-86.121,70.064-156.184,156.184-156.184s156.184,70.064,156.184,156.184c0,50.749-24.651,98.259-66.065,127.567h-180.24
	C124.468,406.065,99.817,358.556,99.817,307.806z M490.408,496.777H21.593V395.888h57.78c0.013-0.095,0.035-0.188,0.05-0.282
	c7.125,14.313,15.909,27.624,26.228,39.768H70.303v15.223h49.694h41.135h189.736h41.135h49.694v-15.223H406.35
	c10.293-12.112,19.057-25.387,26.172-39.658c0.031,0.058,0.067,0.114,0.097,0.173h57.788v100.889H490.408z"/>
<path d="M256.001,209.044c-54.458,0-98.762,44.304-98.762,98.762s44.304,98.762,98.762,98.762s98.762-44.304,98.762-98.762
	S310.458,209.044,256.001,209.044z M256.001,391.346c-46.064,0-83.539-37.476-83.539-83.539s37.476-83.539,83.539-83.539
	s83.539,37.476,83.539,83.539S302.064,391.346,256.001,391.346z"/>
<path d="M287.149,310.125c-2.85-2.318-6.327-4.249-10.431-5.795c-3.943-1.483-8.32-2.875-13.106-4.182v-25.552
	c0.482,0.104,0.964,0.201,1.444,0.325c2.992,0.774,5.771,1.715,8.33,2.825c2.558,1.111,4.731,2.245,6.52,3.404
	c1.787,1.159,3.018,2.078,3.695,2.752l8.837-16.226c-4.542-3.09-9.851-5.771-15.936-8.041c-4.038-1.506-8.339-2.502-12.889-3.008
	v-16.283H248.39v16.501c-2.243,0.348-4.416,0.839-6.513,1.486c-4.542,1.402-8.525,3.455-11.952,6.157
	c-3.429,2.706-6.111,6.085-8.041,10.142c-1.933,4.056-2.897,8.692-2.897,13.909c0,3.961,0.603,7.366,1.811,10.214
	c1.207,2.851,3.018,5.361,5.434,7.533c2.413,2.174,5.434,4.056,9.056,5.65c3.621,1.593,7.895,3.067,12.822,4.419
	c0.096,0.027,0.187,0.054,0.283,0.081v25.514c-0.578-0.125-1.159-0.24-1.732-0.387c-3.767-0.964-7.196-2.148-10.287-3.55
	c-3.092-1.398-5.773-2.8-8.041-4.202c-2.27-1.398-3.839-2.535-4.709-3.405l-8.837,17.241c5.987,4.251,12.75,7.533,20.282,9.851
	c4.409,1.356,8.85,2.304,13.323,2.867v16.698h15.223v-16.358c2.999-0.263,5.926-0.711,8.76-1.396
	c4.587-1.109,8.644-2.873,12.169-5.287c3.525-2.413,6.325-5.578,8.403-9.49c2.075-3.911,3.115-8.62,3.115-14.126
	c0-4.731-0.775-8.715-2.318-11.952C292.196,315.22,289.998,312.443,287.149,310.125z M248.389,295.689
	c-1.059-0.434-2.034-0.884-2.892-1.357c-1.932-1.062-3.404-2.293-4.419-3.694c-1.014-1.398-1.521-3.162-1.521-5.287
	c0-3.67,1.352-6.52,4.056-8.548c1.276-0.957,2.875-1.68,4.775-2.185v21.072H248.389z M263.612,342.67v-21.63
	c1.426,0.539,2.73,1.101,3.907,1.69c2.318,1.159,4.104,2.513,5.361,4.056c1.253,1.546,1.883,3.429,1.883,5.651
	C274.762,338.228,271.041,341.635,263.612,342.67z"/>
<rect x="199.188" y="13.193" width="15.223" height="88.09"/>
<rect x="248.389" width="15.223" height="88.09"/>
<rect x="297.59" y="13.193" width="15.223" height="88.09"/>
<g>
	<path style="fill:#FFFFFF;" d="M143.798,403.112c-17.06-19.999-28.466-44.194-32.985-69.972l14.995-2.629
		c4.049,23.101,14.275,44.79,29.572,62.722L143.798,403.112z"/>
	<path style="fill:#FFFFFF;" d="M382.108,268.049c-7.946-25.423-23.257-47.643-44.275-64.257l9.439-11.943
		c23.432,18.521,40.501,43.3,49.365,71.659L382.108,268.049z"/>
	<path style="fill:#FFFFFF;" d="M327.621,196.478c-6.463-4.18-13.327-7.81-20.401-10.79l5.909-14.029
		c7.893,3.325,15.55,7.374,22.759,12.037L327.621,196.478z"/>
</g>
<g>
</g>
<g>
</g>
<g>
</g>
<g>
</g>
<g>
</g>
<g>
</g>
<g>
</g>
<g>
</g>
<g>
</g>
<g>
</g>
<g>
</g>
<g>
</g>
<g>
</g>
<g>
</g>
<g>
</g>
</svg>
