<?xml version="1.0" encoding="iso-8859-1"?>
<!-- Generator: Adobe Illustrator 19.0.0, SVG Export Plug-In . SVG Version: 6.00 Build 0)  -->
<svg version="1.1" id="Capa_1" xmlns="http://www.w3.org/2000/svg" xmlns:xlink="http://www.w3.org/1999/xlink" x="0px" y="0px"
	 viewBox="0 0 512 512" style="enable-background:new 0 0 512 512;" xml:space="preserve">
<path style="fill:#303C42;" d="M352,512c-19.938,0-38.688-7.771-52.792-21.875L107.417,309
	c-10.604-10.583-17.646-23.635-20.583-37.958c-1-5.031-1.5-10.073-1.5-15.042s0.5-10.01,1.5-14.99
	c2.938-14.365,9.979-27.427,20.375-37.813L299.333,21.75C313.417,7.719,332.125,0,352,0c41.167,0,74.667,33.5,74.667,74.667
	c0,19.948-7.771,38.698-21.875,52.802L268.708,256l135.875,128.323c14.313,14.302,22.083,33.052,22.083,53.01
	C426.667,478.5,393.167,512,352,512z"/>
<path style="fill:#1E88E5;" d="M352,21.333c-14.229,0-27.625,5.552-37.708,15.615c-0.083,0.073-0.146,0.146-0.208,0.208
	l-192,181.333c-7.208,7.219-12.25,16.542-14.333,26.76c-0.688,3.438-1.083,7.052-1.083,10.75c0,3.698,0.396,7.313,1.083,10.802
	c2.083,10.167,7.125,19.49,14.542,26.896l191.792,181.135c10.292,10.281,23.688,15.833,37.917,15.833
	c29.417,0,53.333-23.927,53.333-53.333c0-14.26-5.542-27.646-15.625-37.719L245.833,263.75c-2.125-2.01-3.333-4.813-3.333-7.75
	s1.208-5.74,3.333-7.75l144.083-136.073c9.875-9.865,15.417-23.26,15.417-37.51C405.333,45.26,381.417,21.333,352,21.333z"/>
<path style="fill:#303C42;" d="M306.75,29.406h0.208H306.75z"/>
<linearGradient id="SVGID_1_" gradientUnits="userSpaceOnUse" x1="-40.7676" y1="639.4122" x2="-23.7752" y2="631.4844" gradientTransform="matrix(21.3333 0 0 -21.3333 996.3334 13791.667)">
	<stop  offset="0" style="stop-color:#FFFFFF;stop-opacity:0.2"/>
	<stop  offset="1" style="stop-color:#FFFFFF;stop-opacity:0"/>
</linearGradient>
<path style="fill:url(#SVGID_1_);" d="M352,512c-19.938,0-38.688-7.771-52.792-21.875L107.417,309
	c-10.604-10.583-17.646-23.635-20.583-37.958c-1-5.031-1.5-10.073-1.5-15.042s0.5-10.01,1.5-14.99
	c2.938-14.365,9.979-27.427,20.375-37.813L299.333,21.75C313.417,7.719,332.125,0,352,0c41.167,0,74.667,33.5,74.667,74.667
	c0,19.948-7.771,38.698-21.875,52.802L268.708,256l135.875,128.323c14.313,14.302,22.083,33.052,22.083,53.01
	C426.667,478.5,393.167,512,352,512z"/>
<g>
</g>
<g>
</g>
<g>
</g>
<g>
</g>
<g>
</g>
<g>
</g>
<g>
</g>
<g>
</g>
<g>
</g>
<g>
</g>
<g>
</g>
<g>
</g>
<g>
</g>
<g>
</g>
<g>
</g>
</svg>
