<?xml version="1.0" encoding="iso-8859-1"?>
<!-- Generator: Adobe Illustrator 19.0.0, SVG Export Plug-In . SVG Version: 6.00 Build 0)  -->
<svg version="1.1" id="Capa_1" xmlns="http://www.w3.org/2000/svg" xmlns:xlink="http://www.w3.org/1999/xlink" x="0px" y="0px"
	 viewBox="0 0 512.005 512.005" style="enable-background:new 0 0 512.005 512.005;" xml:space="preserve">
<path style="fill:#303C42;" d="M440.888,64.609l-181.333-64c-2.292-0.812-4.813-0.812-7.104,0l-181.333,64
	c-4.26,1.51-7.115,5.542-7.115,10.063v128c0,165.646,24.563,226.188,187.198,308.188c1.51,0.76,3.156,1.146,4.802,1.146
	c1.646,0,3.292-0.385,4.802-1.146c162.635-82,187.198-142.542,187.198-308.188v-128C448.003,70.151,445.148,66.12,440.888,64.609z"
	/>
<path style="fill:#1E88E5;" d="M256.003,21.984L85.336,82.224v120.448c0,19.303,0.318,36.962,1.115,53.328h169.552V21.984z"/>
<path style="fill:#01579B;" d="M425.555,256c0.797-16.366,1.115-34.025,1.115-53.328V82.224l-170.667-60.24V256H425.555z"/>
<path style="fill:#1E88E5;" d="M256.003,256v233.38C388.137,422.014,419.801,374.145,425.555,256H256.003z"/>
<path style="fill:#01579B;" d="M86.451,256c5.754,118.145,37.418,166.014,169.552,233.38V256H86.451z"/>
<path style="opacity:0.1;enable-background:new    ;" d="M256.003,448.005C105.565,371.307,85.336,341.286,85.336,182.63v20.042
	c0,158.656,20.229,210.01,170.667,286.708c150.438-76.698,170.667-128.052,170.667-286.708V182.63
	C426.669,341.286,406.44,371.307,256.003,448.005z"/>
<path style="fill:#303C42;" d="M192.003,192.005c0,19.167,8.542,37.104,23.146,49.219l-12.375,87.958
	c-0.438,3.063,0.479,6.156,2.521,8.49c2.021,2.333,4.958,3.667,8.042,3.667h85.333c3.083,0,6.021-1.333,8.042-3.667
	c2.042-2.333,2.958-5.427,2.521-8.49l-12.375-87.958c14.604-12.115,23.146-30.052,23.146-49.219c0-35.292-28.708-64-64-64
	S192.003,156.714,192.003,192.005z"/>
<path style="fill:#5C6671;" d="M298.669,192.005c0,14.313-7.167,27.604-19.146,35.563c-3.417,2.271-5.229,6.302-4.667,10.375
	l11.542,82.063h-60.792l11.542-82.063c0.563-4.073-1.25-8.104-4.667-10.375c-11.979-7.958-19.146-21.25-19.146-35.563
	c0-23.531,19.146-42.667,42.667-42.667C279.523,149.339,298.669,168.474,298.669,192.005z"/>
<path style="opacity:0.1;enable-background:new    ;" d="M246.1,320.005l10.604-75.396c0.563-4.073-1.25-8.104-4.667-10.375
	c-11.979-7.958-19.146-21.25-19.146-35.563c0-23.531,19.146-42.667,42.667-42.667c1.314,0,2.553,0.271,3.837,0.388
	c-6.727-4.434-14.753-7.055-23.393-7.055c-23.521,0-42.667,19.135-42.667,42.667c0,14.313,7.167,27.604,19.146,35.563
	c3.417,2.271,5.229,6.302,4.667,10.375l-11.542,82.063H246.1z"/>
<linearGradient id="SVGID_1_" gradientUnits="userSpaceOnUse" x1="-45.2066" y1="639.8678" x2="-25.9781" y2="630.9016" gradientTransform="matrix(21.3333 0 0 -21.3333 996.2804 13791.7256)">
	<stop  offset="0" style="stop-color:#FFFFFF;stop-opacity:0.2"/>
	<stop  offset="1" style="stop-color:#FFFFFF;stop-opacity:0"/>
</linearGradient>
<path style="fill:url(#SVGID_1_);" d="M440.888,64.609l-181.333-64c-2.292-0.812-4.813-0.812-7.104,0l-181.333,64
	c-4.26,1.51-7.115,5.542-7.115,10.063v128c0,165.646,24.563,226.188,187.198,308.188c1.51,0.76,3.156,1.146,4.802,1.146
	c1.646,0,3.292-0.385,4.802-1.146c162.635-82,187.198-142.542,187.198-308.188v-128C448.003,70.151,445.148,66.12,440.888,64.609z"
	/>
<g>
</g>
<g>
</g>
<g>
</g>
<g>
</g>
<g>
</g>
<g>
</g>
<g>
</g>
<g>
</g>
<g>
</g>
<g>
</g>
<g>
</g>
<g>
</g>
<g>
</g>
<g>
</g>
<g>
</g>
</svg>
