<?xml version="1.0" encoding="iso-8859-1"?>
<!-- Generator: Adobe Illustrator 19.0.0, SVG Export Plug-In . SVG Version: 6.00 Build 0)  -->
<svg version="1.1" id="Capa_1" xmlns="http://www.w3.org/2000/svg" xmlns:xlink="http://www.w3.org/1999/xlink" x="0px" y="0px"
	 viewBox="0 0 512 512" style="enable-background:new 0 0 512 512;" xml:space="preserve">
<path style="fill:#303C42;" d="M444.875,109.792L338.208,3.125c-2-2-4.708-3.125-7.542-3.125h-224C83.135,0,64,19.135,64,42.667
	v426.667C64,492.865,83.135,512,106.667,512h298.667C428.865,512,448,492.865,448,469.333v-352
	C448,114.5,446.875,111.792,444.875,109.792z"/>
<path style="fill:#E6E6E6;" d="M341.333,36.417l70.25,70.25h-48.917c-11.76,0-21.333-9.573-21.333-21.333V36.417z"/>
<path style="fill:#FFFFFF;" d="M405.333,490.667H106.667c-11.76,0-21.333-9.573-21.333-21.333V42.667
	c0-11.76,9.573-21.333,21.333-21.333H320v64C320,108.865,339.135,128,362.667,128h64v341.333
	C426.667,481.094,417.094,490.667,405.333,490.667z"/>
<path style="fill:#303C42;" d="M256,170.667c-35.292,0-64,28.708-64,64c0,19.167,8.542,37.104,23.146,49.219l-12.375,87.958
	c-0.427,3.063,0.49,6.156,2.51,8.49c2.031,2.333,4.969,3.667,8.052,3.667h85.333c3.083,0,6.021-1.333,8.052-3.667
	c2.021-2.333,2.938-5.427,2.51-8.49l-12.375-87.958C311.458,271.771,320,253.833,320,234.667
	C320,199.375,291.292,170.667,256,170.667z"/>
<path style="fill:#5C6671;" d="M279.521,270.229c-3.427,2.271-5.24,6.302-4.667,10.375l11.542,82.063h-60.792l11.542-82.063
	c0.573-4.073-1.24-8.104-4.667-10.375c-11.99-7.958-19.146-21.25-19.146-35.563C213.333,211.135,232.469,192,256,192
	s42.667,19.135,42.667,42.667C298.667,248.979,291.51,262.271,279.521,270.229z"/>
<path style="opacity:0.1;enable-background:new    ;" d="M248.905,362.667l9.574-68.073c0.573-4.073-1.24-8.104-4.667-10.375
	c-11.99-7.958-19.146-21.25-19.146-35.563c0-23.531,19.135-42.667,42.667-42.667c4.016,0,7.828,0.736,11.514,1.777
	C281.017,198.224,269.283,192,256,192c-23.531,0-42.667,19.135-42.667,42.667c0,14.313,7.156,27.604,19.146,35.563
	c3.427,2.271,5.24,6.302,4.667,10.375l-11.542,82.063H248.905z"/>
<linearGradient id="SVGID_1_" gradientUnits="userSpaceOnUse" x1="-29.9792" y1="641.8542" x2="-25.75" y2="637.625" gradientTransform="matrix(21.3333 0 0 -21.3333 996.3334 13791.667)">
	<stop  offset="0" style="stop-color:#000000;stop-opacity:0.1"/>
	<stop  offset="1" style="stop-color:#000000;stop-opacity:0"/>
</linearGradient>
<path style="fill:url(#SVGID_1_);" d="M426.667,128h-64c-9.815,0-18.753-3.462-25.967-9.051l-0.255,0.161l90.223,90.223V128z"/>
<linearGradient id="SVGID_2_" gradientUnits="userSpaceOnUse" x1="-46.4381" y1="639.0643" x2="-23.653" y2="628.4362" gradientTransform="matrix(21.3333 0 0 -21.3333 996.3334 13791.667)">
	<stop  offset="0" style="stop-color:#FFFFFF;stop-opacity:0.2"/>
	<stop  offset="1" style="stop-color:#FFFFFF;stop-opacity:0"/>
</linearGradient>
<path style="fill:url(#SVGID_2_);" d="M444.875,109.792L338.208,3.125c-2-2-4.708-3.125-7.542-3.125h-224
	C83.135,0,64,19.135,64,42.667v426.667C64,492.865,83.135,512,106.667,512h298.667C428.865,512,448,492.865,448,469.333v-352
	C448,114.5,446.875,111.792,444.875,109.792z"/>
<g>
</g>
<g>
</g>
<g>
</g>
<g>
</g>
<g>
</g>
<g>
</g>
<g>
</g>
<g>
</g>
<g>
</g>
<g>
</g>
<g>
</g>
<g>
</g>
<g>
</g>
<g>
</g>
<g>
</g>
</svg>
