<?xml version="1.0" encoding="iso-8859-1"?>
<!-- Generator: Adobe Illustrator 19.0.0, SVG Export Plug-In . SVG Version: 6.00 Build 0)  -->
<svg version="1.1" id="Capa_1" xmlns="http://www.w3.org/2000/svg" xmlns:xlink="http://www.w3.org/1999/xlink" x="0px" y="0px"
	 viewBox="0 0 469.333 469.333" style="enable-background:new 0 0 469.333 469.333;" xml:space="preserve">
<path style="fill:#303C42;" d="M468.306,176.897c-0.181-0.393-1.39-2.71-3.098-3.991c-0.018-0.013-26.091-20.21-59.875-46.733
	v-40.84c0-23.531-19.146-42.667-42.667-42.667h-62.134c-15.199-12.413-28.382-23.387-37.199-31.198
	C254.852,3.967,244.761-0.002,234.664,0c-10.091,0.002-20.187,3.971-28.685,11.479c-8.798,7.802-21.979,18.775-37.178,31.188
	h-62.134C83.146,42.667,64,61.802,64,85.333v40.84c-33.784,26.523-59.857,46.72-59.875,46.733C2.6,174,1.209,176.504,1.027,176.897
	C0.401,178.257,0,179.737,0,181.333v245.333c0,23.531,19.146,42.667,42.667,42.667h384c23.521,0,42.667-19.135,42.667-42.667
	V181.333C469.333,179.737,468.934,178.257,468.306,176.897z"/>
<path style="fill:#CCCCCC;" d="M441.271,181.323c-8.335,6.469-21.022,16.337-35.938,27.999V153.27
	C420.254,164.953,432.924,174.828,441.271,181.323z"/>
<path style="fill:#96C268;" d="M85.333,148.255c44.32-4.986,79.27-39.935,84.255-84.255h130.156
	c4.986,44.32,39.935,79.27,84.255,84.255v77.784c-47.729,37.486-107.595,85.104-134.792,109.18c-4.479,3.948-18.542,9.625-29.417,0
	c-27.363-24.227-86.931-71.689-134.458-109.085V148.255z"/>
<path style="fill:#7CB342;" d="M384,85.333v41.589c-32.574-4.723-58.199-30.348-62.922-62.922h41.589
	C374.438,64,384,73.573,384,85.333z"/>
<path style="fill:#CCCCCC;" d="M220.125,27.448c9.167-8.125,19.938-8.115,29.063-0.01c4.796,4.251,10.85,9.415,17.81,15.229h-64.663
	C209.29,36.854,215.34,31.694,220.125,27.448z"/>
<path style="fill:#7CB342;" d="M106.667,64h41.589c-4.723,32.574-30.348,58.199-62.922,62.922V85.333
	C85.333,73.573,94.896,64,106.667,64z"/>
<path style="fill:#CCCCCC;" d="M64,153.276v56.108c-14.921-11.686-27.605-21.572-35.938-28.051
	C36.409,174.839,49.079,164.964,64,153.276z"/>
<path style="fill:#F2F2F2;" d="M426.667,448h-384c-11.771,0-21.333-9.573-21.333-21.333V203.117
	c44.484,34.622,147.363,115.349,184.333,148.081c8.479,7.5,18.375,11.469,28.667,11.469c10.354,0,20.646-4.073,29-11.469
	C301.754,317.191,406.669,235.228,448,203.109v223.557C448,438.427,438.438,448,426.667,448z"/>
<path style="fill:#7CB342;" d="M117.676,251.689c35.954,28.523,72.754,58.193,95.323,77.654c7.031,0.836,14.257,1.324,21.668,1.324
	c7.284,0,14.38-0.48,21.297-1.289c22.523-19.408,59.529-49.189,95.684-77.82c-3.633-39.158-54.536-70.224-116.98-70.224
	C172.152,181.333,121.206,212.47,117.676,251.689z"/>
<g>
	<path style="fill:#303C42;" d="M245.333,261.333v-10.667c0-8.823,7.188-16,16-16s16,7.177,16,16V288
		c0,5.896,4.771,10.667,10.667,10.667c5.896,0,10.667-4.771,10.667-10.667v-21.333h10.667c5.896,0,10.667-4.771,10.667-10.667
		c0-5.896-4.771-10.667-10.667-10.667h-11.206c-2.615-18.046-18.036-32-36.794-32c-20.583,0-37.333,16.75-37.333,37.333v10.667
		c0,8.823-7.188,16-16,16s-16-7.177-16-16V224c0-5.896-4.771-10.667-10.667-10.667c-5.896,0-10.667,4.771-10.667,10.667v21.333H160
		c-5.896,0-10.667,4.771-10.667,10.667c0,5.896,4.771,10.667,10.667,10.667h11.206c2.615,18.046,18.036,32,36.794,32
		C228.583,298.667,245.333,281.917,245.333,261.333z"/>
	<path style="fill:#303C42;" d="M234.667,170.667c11.771,0,21.333-9.573,21.333-21.333c0-11.76-9.562-21.333-21.333-21.333
		c-11.771,0-21.333,9.573-21.333,21.333C213.333,161.094,222.896,170.667,234.667,170.667z"/>
</g>
<linearGradient id="SVGID_1_" gradientUnits="userSpaceOnUse" x1="-61.0345" y1="619.6334" x2="-45.5779" y2="604.1807" gradientTransform="matrix(21.3333 0 0 -21.3333 1430.1112 13315.2227)">
	<stop  offset="0" style="stop-color:#000000;stop-opacity:0.1"/>
	<stop  offset="1" style="stop-color:#000000;stop-opacity:0"/>
</linearGradient>
<path style="fill:url(#SVGID_1_);" d="M427,448c11.76,0,21.333-9.573,21.333-21.333V203.105
	c-41.322,32.116-146.242,114.085-184.656,148.092c-8.354,7.396-18.656,11.469-29.01,11.469c-10.281,0-20.198-3.969-28.677-11.469
	c-36.902-32.69-140.167-113.456-184.656-148.086L266.221,448H427z"/>
<linearGradient id="SVGID_2_" gradientUnits="userSpaceOnUse" x1="-66.7201" y1="616.434" x2="-44.0353" y2="605.8546" gradientTransform="matrix(21.3333 0 0 -21.3333 1430.1112 13315.2227)">
	<stop  offset="0" style="stop-color:#FFFFFF;stop-opacity:0.2"/>
	<stop  offset="1" style="stop-color:#FFFFFF;stop-opacity:0"/>
</linearGradient>
<path style="fill:url(#SVGID_2_);" d="M468.306,176.897c-0.181-0.393-1.39-2.71-3.098-3.991
	c-0.018-0.013-26.091-20.21-59.875-46.733v-40.84c0-23.531-19.146-42.667-42.667-42.667h-62.134
	c-15.199-12.413-28.382-23.387-37.199-31.198C254.852,3.967,244.761-0.002,234.664,0c-10.091,0.002-20.187,3.971-28.685,11.479
	c-8.798,7.802-21.979,18.775-37.178,31.188h-62.134C83.146,42.667,64,61.802,64,85.333v40.84
	c-33.784,26.523-59.857,46.72-59.875,46.733C2.6,174,1.209,176.504,1.027,176.897C0.401,178.257,0,179.737,0,181.333v245.333
	c0,23.531,19.146,42.667,42.667,42.667h384c23.521,0,42.667-19.135,42.667-42.667V181.333
	C469.333,179.737,468.934,178.257,468.306,176.897z"/>
<g>
</g>
<g>
</g>
<g>
</g>
<g>
</g>
<g>
</g>
<g>
</g>
<g>
</g>
<g>
</g>
<g>
</g>
<g>
</g>
<g>
</g>
<g>
</g>
<g>
</g>
<g>
</g>
<g>
</g>
</svg>
