<?xml version="1.0" encoding="iso-8859-1"?>
<!-- Generator: Adobe Illustrator 19.0.0, SVG Export Plug-In . SVG Version: 6.00 Build 0)  -->
<svg version="1.1" id="Layer_1" xmlns="http://www.w3.org/2000/svg" xmlns:xlink="http://www.w3.org/1999/xlink" x="0px" y="0px"
	 viewBox="0 0 511.999 511.999" style="enable-background:new 0 0 511.999 511.999;" xml:space="preserve">
<path style="fill:#DB6B5E;" d="M392.757,400.893H16.565c-4.722,0-8.55-3.828-8.55-8.55V289.745c0-4.722,3.828-8.55,8.55-8.55
	h376.192V400.893z"/>
<path style="fill:#ECEEF1;" d="M290.159,375.243H37.94c-2.361,0-4.275-1.914-4.275-4.275V311.12c0-2.361,1.914-4.275,4.275-4.275
	h252.219V375.243z"/>
<path style="fill:#C7CCD4;" d="M290.159,375.243H37.94c-2.361,0-4.275-1.914-4.275-4.275V311.12c0-2.361,1.914-4.275,4.275-4.275
	h252.219V375.243z"/>
<rect x="50.764" y="323.941" style="fill:#ECEEF1;" width="222.295" height="34.199"/>
<path style="fill:#FFDB66;" d="M471.35,254.864c-30.321-30.321-73.799-39.454-112.054-27.415L199.297,67.45H126.75v72.547
	l18.137,18.137h59.849v59.849l0.608,0.608h59.849v59.849l21.557,21.557c-12.039,38.255-2.906,81.733,27.415,112.054
	c43.406,43.406,113.781,43.405,157.186,0S514.756,298.271,471.35,254.864z M410.894,387.868c-10.017-10.017-10.017-26.256,0-36.274
	c10.017-10.017,26.258-10.017,36.274,0c10.017,10.017,10.017,26.258,0,36.274C437.151,397.885,420.91,397.885,410.894,387.868z"/>
<path style="fill:#F7C14D;" d="M350.008,384.756c-35.875-43.049-29.602-92.121-26.656-106.789c0.562-2.799-0.322-5.687-2.341-7.706
	L126.749,76v63.997l18.137,18.137h59.849v59.849l0.608,0.607h59.849v59.849l21.557,21.557
	c-12.039,38.255-2.906,81.734,27.415,112.054c42.012,42.012,109.286,43.359,152.92,4.047
	C409.856,427.505,366.28,404.284,350.008,384.756z"/>
<path d="M84.964,331.96c-4.427,0-8.015,3.588-8.015,8.015v1.069c0,4.428,3.589,8.015,8.015,8.015c4.427,0,8.015-3.588,8.015-8.015
	v-1.069C92.979,335.548,89.39,331.96,84.964,331.96z"/>
<path d="M136.263,331.96c-4.427,0-8.015,3.588-8.015,8.015v1.069c0,4.428,3.589,8.015,8.015,8.015s8.015-3.588,8.015-8.015v-1.069
	C144.278,335.548,140.689,331.96,136.263,331.96z"/>
<path d="M187.561,331.96c-4.427,0-8.015,3.588-8.015,8.015v1.069c0,4.428,3.589,8.015,8.015,8.015s8.015-3.588,8.015-8.015v-1.069
	C195.577,335.548,191.988,331.96,187.561,331.96z"/>
<path d="M238.86,331.96c-4.427,0-8.015,3.588-8.015,8.015v1.069c0,4.428,3.589,8.015,8.015,8.015c4.427,0,8.015-3.588,8.015-8.015
	v-1.069C246.876,335.548,243.287,331.96,238.86,331.96z"/>
<path d="M477.017,249.197c-30.367-30.367-74.186-41.93-115.412-30.773L204.965,61.782c-1.503-1.503-3.542-2.347-5.667-2.347H126.75
	c-4.427,0-8.015,3.588-8.015,8.015v72.547c0,2.126,0.844,4.164,2.348,5.667l18.136,18.138c1.503,1.503,3.542,2.347,5.667,2.347
	h51.833v51.833c0,4.504,4.12,8.622,8.624,8.622h51.833v46.574H16.565C7.431,273.18,0,280.611,0,289.745v102.598
	c0,9.134,7.431,16.565,16.565,16.565h86.032c4.427,0,8.015-3.588,8.015-8.015c0-4.428-3.589-8.015-8.015-8.015H16.565
	c-0.295,0-0.534-0.24-0.534-0.534V289.745c0-0.294,0.239-0.534,0.534-0.534H264.51c0.037,0,0.074-0.005,0.112-0.005l9.624,9.624
	H37.94c-6.777,0-12.29,5.514-12.29,12.29v59.849c0,6.777,5.514,12.29,12.29,12.29h246.521c1.508,3.27,3.159,6.482,4.968,9.619
	H144.812c-4.427,0-8.015,3.588-8.015,8.015c0,4.428,3.589,8.015,8.015,8.015h154.431c0.405,0,0.8-0.04,1.19-0.098
	c2.519,3.08,5.208,6.054,8.062,8.909c23.231,23.23,53.746,34.845,84.261,34.845s61.03-11.615,84.261-34.845
	c3.13-3.131,3.13-8.206,0-11.336c-3.13-3.129-8.206-3.129-11.335,0c-40.211,40.211-105.638,40.211-145.851,0
	c-27.288-27.288-37.035-67.13-25.437-103.978c0.897-2.85,0.135-5.961-1.978-8.075l-19.21-19.21V218.59
	c0-4.428-3.589-8.015-8.015-8.015h-52.441v-52.44c0-2.126-0.844-4.164-2.348-5.669c-1.503-1.503-3.542-2.347-5.667-2.347h-56.529
	l-13.441-13.441V75.466h61.211l157.652,157.652c2.113,2.112,5.224,2.875,8.074,1.978c36.85-11.596,76.693-1.849,103.98,25.438
	c27.741,27.741,37.315,68.129,24.984,105.405c-1.39,4.203,0.89,8.737,5.092,10.127c4.201,1.389,8.737-0.889,10.127-5.092
	C520.131,327.91,509.07,281.248,477.017,249.197z M41.68,367.228V314.86h233.364c-2.813,17.693-1.587,35.558,3.383,52.368H41.68z"/>
<path d="M429.031,403.381c8.62,0,17.242-3.282,23.805-9.845c6.359-6.358,9.86-14.811,9.86-23.804c0-8.992-3.501-17.447-9.86-23.804
	c-6.358-6.359-14.813-9.862-23.804-9.862c-8.992,0-17.447,3.502-23.805,9.861c-6.359,6.358-9.86,14.813-9.86,23.805
	c0,8.992,3.501,17.446,9.86,23.804c0,0.001,0,0.001,0,0.001C411.79,400.1,420.41,403.381,429.031,403.381z M416.562,357.262
	c3.331-3.33,7.759-5.165,12.469-5.165c4.71,0,9.138,1.835,12.469,5.166c3.33,3.33,5.165,7.759,5.165,12.469
	c0,4.71-1.834,9.139-5.165,12.469c-6.876,6.877-18.063,6.876-24.938,0v0.001c-3.33-3.331-5.165-7.76-5.165-12.47
	C411.397,365.022,413.232,360.593,416.562,357.262z"/>
<path d="M284.313,200.832c-3.13,3.131-3.13,8.206,0,11.336l42.319,42.319c3.26,3.259,8.765,3.041,11.761-0.461
	c2.687-3.138,2.492-7.958-0.426-10.876l-42.319-42.319C292.519,197.702,287.444,197.702,284.313,200.832z"/>
<path d="M187.584,104.101c-3.13,3.131-3.13,8.206,0,11.336l72.547,72.548c3.26,3.259,8.765,3.041,11.761-0.461
	c2.687-3.138,2.492-7.958-0.426-10.876L198.919,104.1C195.788,100.972,190.713,100.972,187.584,104.101z"/>
<path d="M371.382,350.023c2.051,0,4.103-0.782,5.667-2.347l38.474-38.474c3.13-3.131,3.13-8.206,0-11.336
	c-3.13-3.129-8.206-3.129-11.335,0l-38.474,38.474C360.777,341.277,364.372,350.023,371.382,350.023z"/>
<path d="M381.325,280.766c-3.13-3.129-8.206-3.129-11.335,0l-17.1,17.1c-2.919,2.919-3.112,7.739-0.426,10.876
	c2.997,3.5,8.502,3.719,11.761,0.46l17.1-17.1C384.455,288.971,384.455,283.896,381.325,280.766z"/>
<g>
</g>
<g>
</g>
<g>
</g>
<g>
</g>
<g>
</g>
<g>
</g>
<g>
</g>
<g>
</g>
<g>
</g>
<g>
</g>
<g>
</g>
<g>
</g>
<g>
</g>
<g>
</g>
<g>
</g>
</svg>
