<?xml version="1.0" encoding="iso-8859-1"?>
<!-- Generator: Adobe Illustrator 19.0.0, SVG Export Plug-In . SVG Version: 6.00 Build 0)  -->
<svg version="1.1" id="Capa_1" xmlns="http://www.w3.org/2000/svg" xmlns:xlink="http://www.w3.org/1999/xlink" x="0px" y="0px"
	 viewBox="0 0 512 512" style="enable-background:new 0 0 512 512;" xml:space="preserve">
<path style="fill:#303C42;" d="M469.333,149.333H42.667C19.135,149.333,0,168.469,0,192v128c0,23.531,19.135,42.667,42.667,42.667
	h426.667C492.865,362.667,512,343.531,512,320V192C512,168.469,492.865,149.333,469.333,149.333z"/>
<path style="fill:#1E88E5;" d="M490.667,320c0,11.76-9.573,21.333-21.333,21.333H42.667c-11.76,0-21.333-9.573-21.333-21.333V192
	c0-11.76,9.573-21.333,21.333-21.333h426.667c11.76,0,21.333,9.573,21.333,21.333V320z"/>
<linearGradient id="SVGID_1_" gradientUnits="userSpaceOnUse" x1="-39.4735" y1="639.2515" x2="-27.5006" y2="627.2746" gradientTransform="matrix(21.3333 0 0 -21.3333 996.3334 13791.667)">
	<stop  offset="0" style="stop-color:#000000;stop-opacity:0.1"/>
	<stop  offset="1" style="stop-color:#000000;stop-opacity:0"/>
</linearGradient>
<path style="fill:url(#SVGID_1_);" d="M319.949,237.521l11.279-6.512c-0.102-0.091-0.234-0.142-0.34-0.229
	c-0.417-0.5-13.017-13.1-13.517-13.517c1.54,1.849,2.578,4.139,2.578,6.737V237.521z M451.134,232.697l-0.003-0.001
	c0.611,0.625,1.284,1.178,1.741,1.971c2.948,5.104,1.198,11.625-3.906,14.573L437.259,256l11.707,6.76
	c5.104,2.948,6.854,9.469,3.906,14.573c-1.979,3.427-5.563,5.333-9.25,5.333c-1.813,0-3.646-0.458-5.323-1.427l-11.708-6.76V288
	c0,5.896-4.771,10.667-10.667,10.667c-5.896,0-10.667-4.771-10.667-10.667v-13.521l-11.708,6.76
	c-0.091,0.052-0.197,0.027-0.288,0.077c-26.435-26.411-48.563-48.473-48.77-48.62l-0.003-0.001c0.611,0.625,1.284,1.178,1.741,1.971
	c2.948,5.104,1.198,11.625-3.906,14.573L330.617,256l11.707,6.76c5.104,2.948,6.854,9.469,3.906,14.573
	c-1.979,3.427-5.563,5.333-9.25,5.333c-1.813,0-3.646-0.458-5.323-1.427l-11.708-6.76V288c0,5.896-4.771,10.667-10.667,10.667
	s-10.667-4.771-10.667-10.667v-13.521l-11.708,6.76c-0.09,0.052-0.195,0.027-0.286,0.077c-26.435-26.411-48.563-48.473-48.77-48.62
	l-0.003-0.001c0.611,0.625,1.284,1.178,1.741,1.971c2.948,5.104,1.198,11.625-3.906,14.573L223.977,256l11.707,6.76
	c5.104,2.948,6.854,9.469,3.906,14.573c-1.979,3.427-5.563,5.333-9.25,5.333c-1.813,0-3.646-0.458-5.323-1.427l-11.708-6.76V288
	c0,5.896-4.771,10.667-10.667,10.667c-5.896,0-10.667-4.771-10.667-10.667v-13.521l-11.708,6.76
	c-0.091,0.052-0.197,0.027-0.288,0.077c-26.435-26.411-48.563-48.473-48.77-48.62l-0.003-0.001c0.611,0.625,1.284,1.178,1.741,1.971
	c2.948,5.104,1.198,11.625-3.906,14.573L117.335,256l11.707,6.76c5.104,2.948,6.854,9.469,3.906,14.573
	c-1.979,3.427-5.563,5.333-9.25,5.333c-1.813,0-3.646-0.458-5.323-1.427l-11.708-6.76V288c0,5.896-4.771,10.667-10.667,10.667
	c-5.896,0-10.667-4.771-10.667-10.667v-13.521l-11.708,6.76c-1.677,0.969-3.51,1.427-5.323,1.427c-3.688,0-7.271-1.906-9.25-5.333
	c0.161,0.28,31.493,31.596,63.938,64h346.344c11.76,0,21.333-9.573,21.333-21.333v-47.911
	C468.542,249.991,451.316,232.826,451.134,232.697z M391.272,257.915l-8.389,4.845L394.59,256l-11.707-6.76
	c-0.788-0.456-1.34-1.125-1.964-1.732C381.286,248.025,390.977,257.592,391.272,257.915z M426.591,237.521l11.279-6.512
	c-0.102-0.091-0.234-0.142-0.34-0.229c-0.417-0.5-13.017-13.1-13.517-13.517c1.54,1.849,2.578,4.139,2.578,6.737V237.521z
	 M284.63,257.915l-8.389,4.845l11.707-6.76l-11.707-6.76c-0.788-0.456-1.34-1.125-1.964-1.732
	C274.645,248.025,284.335,257.592,284.63,257.915z M213.309,237.521l11.279-6.512c-0.102-0.091-0.234-0.142-0.34-0.229
	c-0.417-0.5-13.017-13.1-13.517-13.517c1.54,1.849,2.578,4.139,2.578,6.737V237.521z M71.348,257.915l-8.389,4.845L74.665,256
	l-11.707-6.76c-0.788-0.456-1.34-1.125-1.964-1.732C61.362,248.025,71.052,257.592,71.348,257.915z M106.667,237.521l11.279-6.512
	c-0.102-0.091-0.234-0.142-0.34-0.229c-0.417-0.5-13.017-13.1-13.517-13.517c1.54,1.849,2.578,4.139,2.578,6.737V237.521z
	 M177.99,257.915l-8.389,4.845l11.707-6.76l-11.707-6.76c-0.788-0.456-1.34-1.125-1.964-1.732
	C168.004,248.025,177.694,257.592,177.99,257.915z"/>
<g>
	<path style="fill:#303C42;" d="M132.948,234.667c-2.958-5.125-9.51-6.844-14.573-3.906l-11.708,6.76V224
		c0-5.896-4.771-10.667-10.667-10.667c-5.896,0-10.667,4.771-10.667,10.667v13.521l-11.708-6.76
		c-5.094-2.938-11.625-1.219-14.573,3.906c-2.948,5.104-1.198,11.625,3.906,14.573L74.665,256l-11.707,6.76
		c-5.104,2.948-6.854,9.469-3.906,14.573c1.979,3.427,5.563,5.333,9.25,5.333c1.813,0,3.646-0.458,5.323-1.427l11.708-6.76V288
		c0,5.896,4.771,10.667,10.667,10.667c5.896,0,10.667-4.771,10.667-10.667v-13.521l11.708,6.76c1.677,0.969,3.51,1.427,5.323,1.427
		c3.688,0,7.271-1.906,9.25-5.333c2.948-5.104,1.198-11.625-3.906-14.573L117.335,256l11.707-6.76
		C134.146,246.292,135.896,239.771,132.948,234.667z"/>
	<path style="fill:#303C42;" d="M239.615,234.667c-2.969-5.125-9.5-6.844-14.573-3.906l-11.708,6.76V224
		c0-5.896-4.771-10.667-10.667-10.667S192,218.104,192,224v13.521l-11.708-6.76c-5.104-2.938-11.635-1.219-14.573,3.906
		c-2.948,5.104-1.198,11.625,3.906,14.573l11.707,6.76l-11.707,6.76c-5.104,2.948-6.854,9.469-3.906,14.573
		c1.979,3.427,5.563,5.333,9.25,5.333c1.813,0,3.646-0.458,5.323-1.427l11.708-6.76V288c0,5.896,4.771,10.667,10.667,10.667
		s10.667-4.771,10.667-10.667v-13.521l11.708,6.76c1.677,0.969,3.51,1.427,5.323,1.427c3.688,0,7.271-1.906,9.25-5.333
		c2.948-5.104,1.198-11.625-3.906-14.573L224.001,256l11.707-6.76C240.813,246.292,242.563,239.771,239.615,234.667z"/>
	<path style="fill:#303C42;" d="M346.281,234.667c-2.958-5.125-9.51-6.844-14.573-3.906L320,237.521V224
		c0-5.896-4.771-10.667-10.667-10.667s-10.667,4.771-10.667,10.667v13.521l-11.708-6.76c-5.094-2.938-11.625-1.219-14.573,3.906
		c-2.948,5.104-1.198,11.625,3.906,14.573l11.707,6.76l-11.707,6.76c-5.104,2.948-6.854,9.469-3.906,14.573
		c1.979,3.427,5.563,5.333,9.25,5.333c1.813,0,3.646-0.458,5.323-1.427l11.708-6.76V288c0,5.896,4.771,10.667,10.667,10.667
		S320,293.896,320,288v-13.521l11.708,6.76c1.677,0.969,3.51,1.427,5.323,1.427c3.688,0,7.271-1.906,9.25-5.333
		c2.948-5.104,1.198-11.625-3.906-14.573L330.668,256l11.707-6.76C347.479,246.292,349.229,239.771,346.281,234.667z"/>
	<path style="fill:#303C42;" d="M452.948,234.667c-2.948-5.125-9.5-6.844-14.573-3.906l-11.708,6.76V224
		c0-5.896-4.771-10.667-10.667-10.667c-5.896,0-10.667,4.771-10.667,10.667v13.521l-11.708-6.76
		c-5.115-2.938-11.615-1.219-14.573,3.906c-2.948,5.104-1.198,11.625,3.906,14.573l11.707,6.76l-11.707,6.76
		c-5.104,2.948-6.854,9.469-3.906,14.573c1.979,3.427,5.563,5.333,9.25,5.333c1.813,0,3.646-0.458,5.323-1.427l11.708-6.76V288
		c0,5.896,4.771,10.667,10.667,10.667c5.896,0,10.667-4.771,10.667-10.667v-13.521l11.708,6.76c1.677,0.969,3.51,1.427,5.323,1.427
		c3.688,0,7.271-1.906,9.25-5.333c2.948-5.104,1.198-11.625-3.906-14.573L437.335,256l11.707-6.76
		C454.146,246.292,455.896,239.771,452.948,234.667z"/>
</g>
<linearGradient id="SVGID_2_" gradientUnits="userSpaceOnUse" x1="-45.8794" y1="639.6946" x2="-23.5269" y2="629.2742" gradientTransform="matrix(21.3333 0 0 -21.3333 996.3334 13791.667)">
	<stop  offset="0" style="stop-color:#FFFFFF;stop-opacity:0.2"/>
	<stop  offset="1" style="stop-color:#FFFFFF;stop-opacity:0"/>
</linearGradient>
<path style="fill:url(#SVGID_2_);" d="M469.333,149.333H42.667C19.135,149.333,0,168.469,0,192v128
	c0,23.531,19.135,42.667,42.667,42.667h426.667C492.865,362.667,512,343.531,512,320V192
	C512,168.469,492.865,149.333,469.333,149.333z"/>
<g>
</g>
<g>
</g>
<g>
</g>
<g>
</g>
<g>
</g>
<g>
</g>
<g>
</g>
<g>
</g>
<g>
</g>
<g>
</g>
<g>
</g>
<g>
</g>
<g>
</g>
<g>
</g>
<g>
</g>
</svg>
