<?xml version="1.0" encoding="iso-8859-1"?>
<!-- Generator: Adobe Illustrator 19.0.0, SVG Export Plug-In . SVG Version: 6.00 Build 0)  -->
<svg version="1.1" id="Capa_1" xmlns="http://www.w3.org/2000/svg" xmlns:xlink="http://www.w3.org/1999/xlink" x="0px" y="0px"
	 viewBox="0 0 512 512" style="enable-background:new 0 0 512 512;" xml:space="preserve">
<path style="fill:#303C42;" d="M501.333,234.667c-4.844,0-9.5-0.49-13.896-1.375c2.031-9.188,3.229-19.385,3.229-30.625
	c0-17.646-14.354-32-32-32c-17.646,0-32,14.354-32,32c0,17.531,14.031,34.073,34.156,43.958c-3.081,7.158-6.747,13.16-10.535,18.315
	c-26.014-43.077-76.677-75.934-138.478-88.53c9.262-7.141,16.807-16.458,21.958-27.391c39.702-1.668,71.565-34.249,71.565-74.353
	C405.333,33.5,371.833,0,330.667,0c-29.81,0-55.401,17.684-67.362,43.007C223.725,44.807,192,77.318,192,117.333
	c0,22.383,10.108,42.264,25.763,55.962c-35.777,4.891-69.411,16.564-97.701,34.184C107.052,197.448,91.219,192,74.667,192
	C68.771,192,64,196.771,64,202.667c0,14.719,4.51,29.125,12.833,41.427c-14.302,16.698-24.406,35.292-29.656,54.573h-4.51
	C19.135,298.667,0,317.802,0,341.333c0,23.74,12.031,45.406,32.177,57.979l74.49,46.406v55.615c0,5.896,4.771,10.667,10.667,10.667
	H160c4.042,0,7.729-2.281,9.542-5.896l12.625-25.25c47.208,13.021,100.458,13.021,147.667,0l12.625,25.25
	c1.813,3.615,5.5,5.896,9.542,5.896h42.667c5.896,0,10.667-4.771,10.667-10.667v-56.479c40.75-29.979,64-71.323,64-114.188
	c0-15.542-3.115-30.527-8.65-44.745c7.227-8.059,14.656-18.559,20.327-32.203c6.542,1.479,13.375,2.281,20.323,2.281
	c5.896,0,10.667-4.771,10.667-10.667C512,239.438,507.229,234.667,501.333,234.667z M467.177,225.823
	C455.323,219.083,448,209.781,448,202.667c0-5.885,4.781-10.667,10.667-10.667c5.885,0,10.667,4.781,10.667,10.667
	C469.333,211.094,468.542,218.802,467.177,225.823z"/>
<circle style="fill:#FFF176;" cx="330.667" cy="74.667" r="53.333"/>
<path style="fill:#FFCA28;" d="M213.333,117.333c0-25.91,18.596-47.503,43.633-52.215c-0.41,3.16-0.966,6.279-0.966,9.548
	c0,5.432,0.655,10.702,1.762,15.807C256.743,92.109,256,93.93,256,96v42.667c0,5.896,4.771,10.667,10.667,10.667
	c5.896,0,10.667-4.771,10.667-10.667v-11.91c9.107,9.322,20.695,16.03,33.605,19.595c-9.68,14.859-26.151,24.315-44.272,24.315
	C237.26,170.667,213.333,146.74,213.333,117.333z"/>
<path style="fill:#FFF176;" d="M213.333,117.333c0-25.91,18.596-47.503,43.633-52.215c-0.41,3.16-0.966,6.279-0.966,9.548
	c0,5.432,0.655,10.702,1.762,15.807C256.743,92.109,256,93.93,256,96v42.667c0,5.896,4.771,10.667,10.667,10.667
	c5.896,0,10.667-4.771,10.667-10.667v-11.91c9.107,9.322,20.695,16.03,33.605,19.595c-9.68,14.859-26.151,24.315-44.272,24.315
	C237.26,170.667,213.333,146.74,213.333,117.333z"/>
<path style="opacity:0.1;enable-background:new    ;" d="M277.333,126.757v11.91c0,5.896-4.771,10.667-10.667,10.667
	c-5.896,0-10.667-4.771-10.667-10.667V96c0-2.07,0.743-3.891,1.762-5.526C256.655,85.368,256,80.099,256,74.667
	c0-3.27,0.556-6.388,0.966-9.548c-6.525,1.228-12.574,3.65-18.009,6.948c-2.581,7.556-4.29,15.516-4.29,23.934
	c0,32.931,21.952,60.923,51.601,70.817c10.112-4.074,18.617-11.17,24.671-20.466C298.029,142.786,286.44,136.078,277.333,126.757z"
	/>
<path style="fill:#303C42;" d="M330.667,106.667c5.896,0,10.667-4.771,10.667-10.667V53.333c0-5.896-4.771-10.667-10.667-10.667
	c-5.896,0-10.667,4.771-10.667,10.667V96C320,101.896,324.771,106.667,330.667,106.667z"/>
<path id="SVGCleanerId_0" style="fill:#FDD1B0;" d="M388.594,430.594c-2.875,2-4.594,5.271-4.594,8.771v51.302h-25.406
	l-13.677-27.344c-2.354-4.698-7.75-7.021-12.74-5.406c-48.229,15.146-104.125,15.146-152.354,0
	c-5.01-1.583-10.396,0.729-12.74,5.406l-13.677,27.344H128v-50.865c0-3.688-1.896-7.104-5.021-9.052l-79.51-49.542
	c-13.865-8.646-22.135-23.552-22.135-39.875c0-11.76,9.573-21.333,21.333-21.333h12.969c5.104,0,9.49-3.615,10.469-8.625
	c4.094-21.01,15.271-41.531,32.323-59.344c3.823-3.99,3.958-10.25,0.313-14.406c-5.969-6.802-10.021-14.583-12-22.906
	c9.313,2.177,17.927,6.865,24.99,13.719c3.656,3.552,9.24,4.021,13.417,1.167C160.896,205.354,207.365,192,256,192
	c105.865,0,192,62.208,192,138.667C448,368.563,426.906,404.052,388.594,430.594z"/>
<g>
	<path id="SVGCleanerId_0_1_" style="fill:#FDD1B0;" d="M388.594,430.594c-2.875,2-4.594,5.271-4.594,8.771v51.302h-25.406
		l-13.677-27.344c-2.354-4.698-7.75-7.021-12.74-5.406c-48.229,15.146-104.125,15.146-152.354,0
		c-5.01-1.583-10.396,0.729-12.74,5.406l-13.677,27.344H128v-50.865c0-3.688-1.896-7.104-5.021-9.052l-79.51-49.542
		c-13.865-8.646-22.135-23.552-22.135-39.875c0-11.76,9.573-21.333,21.333-21.333h12.969c5.104,0,9.49-3.615,10.469-8.625
		c4.094-21.01,15.271-41.531,32.323-59.344c3.823-3.99,3.958-10.25,0.313-14.406c-5.969-6.802-10.021-14.583-12-22.906
		c9.313,2.177,17.927,6.865,24.99,13.719c3.656,3.552,9.24,4.021,13.417,1.167C160.896,205.354,207.365,192,256,192
		c105.865,0,192,62.208,192,138.667C448,368.563,426.906,404.052,388.594,430.594z"/>
</g>
<path style="fill:#303C42;" d="M106.667,277.333c-11.76,0-21.333,9.573-21.333,21.333c0,11.76,9.573,21.333,21.333,21.333
	S128,310.427,128,298.667C128,286.906,118.427,277.333,106.667,277.333z"/>
<path style="opacity:0.2;fill:#FFFFFF;enable-background:new    ;" d="M98.427,252.031c-2.056,2.148-3.746,4.449-5.629,6.672
	C133.835,237.117,187.046,224,245.333,224c79.378,0,149.413,24.249,191.88,61.264C411.096,231.066,339.826,192,256,192
	c-48.635,0-95.104,13.354-130.854,37.604c-4.177,2.854-9.76,2.385-13.417-1.167c-7.063-6.854-15.677-11.542-24.99-13.719
	c1.979,8.323,6.031,16.104,12,22.906C102.385,241.781,102.25,248.042,98.427,252.031z"/>
<path style="opacity:0.1;enable-background:new    ;" d="M240,437.333c-57.671,0-110.63-10.884-152.986-28.992l35.965,22.409
	c3.125,1.948,5.021,5.365,5.021,9.052v50.865h25.406l13.677-27.344c2.344-4.677,7.729-6.99,12.74-5.406
	c48.229,15.146,104.125,15.146,152.354,0c4.99-1.615,10.385,0.708,12.74,5.406l13.677,27.344H384v-51.302
	c0-3.5,1.719-6.771,4.594-8.771c17.547-12.156,31.283-26.251,41.234-41.533C383.859,418.574,315.948,437.333,240,437.333z"/>
<path style="fill:#303C42;" d="M333.99,224.531c-44.646-14.646-111.333-14.646-155.979,0c-5.604,1.833-8.646,7.865-6.813,13.458
	c1.844,5.615,7.875,8.688,13.458,6.813c40.417-13.271,102.271-13.271,142.688,0c1.104,0.365,2.219,0.531,3.323,0.531
	c4.49,0,8.656-2.844,10.135-7.344C342.635,232.396,339.594,226.365,333.99,224.531z"/>
<linearGradient id="SVGID_1_" gradientUnits="userSpaceOnUse" x1="-43.4063" y1="637.998" x2="-24.7146" y2="629.2822" gradientTransform="matrix(21.3333 0 0 -21.3333 996.3334 13791.667)">
	<stop  offset="0" style="stop-color:#FFFFFF;stop-opacity:0.2"/>
	<stop  offset="1" style="stop-color:#FFFFFF;stop-opacity:0"/>
</linearGradient>
<path style="fill:url(#SVGID_1_);" d="M501.333,234.667c-4.844,0-9.5-0.49-13.896-1.375c2.031-9.188,3.229-19.385,3.229-30.625
	c0-17.646-14.354-32-32-32c-17.646,0-32,14.354-32,32c0,17.531,14.031,34.073,34.156,43.958c-3.081,7.158-6.747,13.16-10.535,18.315
	c-26.014-43.077-76.677-75.934-138.478-88.53c9.262-7.141,16.807-16.458,21.958-27.391c39.702-1.668,71.565-34.249,71.565-74.353
	C405.333,33.5,371.833,0,330.667,0c-29.81,0-55.401,17.684-67.362,43.007C223.725,44.807,192,77.318,192,117.333
	c0,22.383,10.108,42.264,25.763,55.962c-35.777,4.891-69.411,16.564-97.701,34.184C107.052,197.448,91.219,192,74.667,192
	C68.771,192,64,196.771,64,202.667c0,14.719,4.51,29.125,12.833,41.427c-14.302,16.698-24.406,35.292-29.656,54.573h-4.51
	C19.135,298.667,0,317.802,0,341.333c0,23.74,12.031,45.406,32.177,57.979l74.49,46.406v55.615c0,5.896,4.771,10.667,10.667,10.667
	H160c4.042,0,7.729-2.281,9.542-5.896l12.625-25.25c47.208,13.021,100.458,13.021,147.667,0l12.625,25.25
	c1.813,3.615,5.5,5.896,9.542,5.896h42.667c5.896,0,10.667-4.771,10.667-10.667v-56.479c40.75-29.979,64-71.323,64-114.188
	c0-15.542-3.115-30.527-8.65-44.745c7.227-8.059,14.656-18.559,20.327-32.203c6.542,1.479,13.375,2.281,20.323,2.281
	c5.896,0,10.667-4.771,10.667-10.667C512,239.438,507.229,234.667,501.333,234.667z M467.177,225.823
	C455.323,219.083,448,209.781,448,202.667c0-5.885,4.781-10.667,10.667-10.667c5.885,0,10.667,4.781,10.667,10.667
	C469.333,211.094,468.542,218.802,467.177,225.823z"/>
<g>
</g>
<g>
</g>
<g>
</g>
<g>
</g>
<g>
</g>
<g>
</g>
<g>
</g>
<g>
</g>
<g>
</g>
<g>
</g>
<g>
</g>
<g>
</g>
<g>
</g>
<g>
</g>
<g>
</g>
</svg>
