<?xml version="1.0" encoding="iso-8859-1"?>
<!-- Generator: Adobe Illustrator 19.0.0, SVG Export Plug-In . SVG Version: 6.00 Build 0)  -->
<svg version="1.1" id="Capa_1" xmlns="http://www.w3.org/2000/svg" xmlns:xlink="http://www.w3.org/1999/xlink" x="0px" y="0px"
	 viewBox="0 0 469.333 469.333" style="enable-background:new 0 0 469.333 469.333;" xml:space="preserve">
<g>
	<circle style="fill:#303C42;" cx="266.667" cy="32" r="10.667"/>
	<circle style="fill:#303C42;" cx="202.667" cy="32" r="10.667"/>
	<path style="fill:#303C42;" d="M459.885,306.438l-49.272-114.971c21.018-2.634,37.387-20.41,37.387-42.133V128
		c0-23.531-19.135-42.667-42.667-42.667H290.462c-9.171-4.313-25.49-13.592-38.272-24.957c4.367,2.238,9.24,3.624,14.477,3.624
		c17.646,0,32-14.354,32-32s-14.354-32-32-32c-17.646,0-32,14.354-32,32c0-17.646-14.354-32-32-32s-32,14.354-32,32s14.354,32,32,32
		c4.242,0,8.276-0.87,11.984-2.375c-11.138,9.507-24.831,18.051-35.948,23.708H64c-23.531,0-42.667,19.135-42.667,42.667v21.333
		c0,21.723,16.368,39.499,37.387,42.133L9.448,306.438C3.177,321.052,0,336.542,0,352.469c0,64.438,52.427,116.865,116.865,116.865
		h235.604c64.438,0,116.865-52.427,116.865-116.865C469.333,336.542,466.156,321.052,459.885,306.438z M219.051,85.333
		c5.086-3.776,10.178-7.975,14.932-12.531c4.689,4.609,9.79,8.772,14.898,12.531H219.051z"/>
</g>
<path style="fill:#78909C;" d="M42.667,149.333V128c0-11.76,9.573-21.333,21.333-21.333h341.333c11.76,0,21.333,9.573,21.333,21.333
	v21.333c0,11.76-9.573,21.333-21.333,21.333v-32c0-5.896-4.771-10.667-10.667-10.667h-320C68.771,128,64,132.771,64,138.667v32
	C52.24,170.667,42.667,161.094,42.667,149.333z"/>
<path style="fill:#546E7A;" d="M352.469,448H116.865c-52.677,0-95.531-42.854-95.531-95.531c0-13.021,2.594-25.677,7.719-37.635
	l55.417-129.302c0.573-1.323,0.865-2.75,0.865-4.198v-32H384v32c0,1.448,0.292,2.875,0.865,4.198l55.417,129.302
	c5.125,11.958,7.719,24.615,7.719,37.635C448,405.146,405.146,448,352.469,448z"/>
<linearGradient id="SVGID_1_" gradientUnits="userSpaceOnUse" x1="-59.9124" y1="620.2756" x2="-45.7243" y2="606.0895" gradientTransform="matrix(21.3333 0 0 -21.3333 1430.1112 13315.2227)">
	<stop  offset="0" style="stop-color:#000000;stop-opacity:0.1"/>
	<stop  offset="1" style="stop-color:#000000;stop-opacity:0"/>
</linearGradient>
<path style="fill:url(#SVGID_1_);" d="M352.469,448C405.146,448,448,405.146,448,352.469c0-13.021-2.594-25.677-7.719-37.635
	l-55.417-129.302c-0.573-1.323-0.865-2.75-0.865-4.198v-32H85.333v32L352,448H352.469z"/>
<linearGradient id="SVGID_2_" gradientUnits="userSpaceOnUse" x1="-66.7733" y1="617.0137" x2="-44.8587" y2="606.7969" gradientTransform="matrix(21.3333 0 0 -21.3333 1430.1112 13315.2227)">
	<stop  offset="0" style="stop-color:#FFFFFF;stop-opacity:0.2"/>
	<stop  offset="1" style="stop-color:#FFFFFF;stop-opacity:0"/>
</linearGradient>
<path style="fill:url(#SVGID_2_);" d="M459.885,306.438l-49.272-114.971c21.018-2.634,37.387-20.41,37.387-42.133V128
	c0-23.531-19.135-42.667-42.667-42.667H290.462c-9.171-4.313-25.49-13.592-38.272-24.957c4.367,2.238,9.24,3.624,14.477,3.624
	c17.646,0,32-14.354,32-32s-14.354-32-32-32c-17.646,0-32,14.354-32,32c0-17.646-14.354-32-32-32s-32,14.354-32,32s14.354,32,32,32
	c4.242,0,8.276-0.87,11.984-2.375c-11.138,9.507-24.831,18.051-35.948,23.708H64c-23.531,0-42.667,19.135-42.667,42.667v21.333
	c0,21.723,16.368,39.499,37.387,42.133L9.448,306.438C3.177,321.052,0,336.542,0,352.469c0,64.438,52.427,116.865,116.865,116.865
	h235.604c64.438,0,116.865-52.427,116.865-116.865C469.333,336.542,466.156,321.052,459.885,306.438z M219.051,85.333
	c5.086-3.776,10.178-7.975,14.932-12.531c4.689,4.609,9.79,8.772,14.898,12.531H219.051z"/>
<g>
</g>
<g>
</g>
<g>
</g>
<g>
</g>
<g>
</g>
<g>
</g>
<g>
</g>
<g>
</g>
<g>
</g>
<g>
</g>
<g>
</g>
<g>
</g>
<g>
</g>
<g>
</g>
<g>
</g>
</svg>
