<?xml version="1.0" encoding="iso-8859-1"?>
<!-- Generator: Adobe Illustrator 19.0.0, SVG Export Plug-In . SVG Version: 6.00 Build 0)  -->
<svg version="1.1" id="Capa_1" xmlns="http://www.w3.org/2000/svg" xmlns:xlink="http://www.w3.org/1999/xlink" x="0px" y="0px"
	 viewBox="0 0 512 512" style="enable-background:new 0 0 512 512;" xml:space="preserve">
<path style="fill:#303C42;" d="M256,0C114.844,0,0,114.844,0,256s114.844,256,256,256s256-114.844,256-256S397.156,0,256,0z"/>
<path style="fill:#1E88E5;" d="M256,490.667C126.604,490.667,21.333,385.396,21.333,256S126.604,21.333,256,21.333
	S490.667,126.604,490.667,256S385.396,490.667,256,490.667z"/>
<path style="opacity:0.2;fill:#FFFFFF;enable-background:new    ;" d="M42.667,277.333c0-129.396,105.271-234.667,234.667-234.667
	c59.277,0,113.332,22.267,154.682,58.651C388.978,52.406,326.118,21.333,256,21.333C126.604,21.333,21.333,126.604,21.333,256
	c0,70.118,31.073,132.978,79.984,176.016C64.934,390.665,42.667,336.611,42.667,277.333z"/>
<g>
	<path style="fill:#303C42;" d="M256,85.333c-47.052,0-85.333,36.365-85.333,81.063v14.938c0,5.896,4.771,10.667,10.667,10.667
		c5.896,0,10.667-4.771,10.667-10.667v-14.938c0-32.938,28.708-59.729,64-59.729s64,26.792,64,59.729v17.781
		c0,15.833-6.573,30.75-18.51,42.01l-30.938,29.167c-16.031,15.104-25.219,36.083-25.219,57.542V352
		c0,5.896,4.771,10.667,10.667,10.667c5.896,0,10.667-4.771,10.667-10.667v-39.104c0-15.844,6.573-30.76,18.51-42.021l30.938-29.167
		c16.031-15.104,25.219-36.073,25.219-57.531v-17.781C341.333,121.698,303.052,85.333,256,85.333z"/>
	<circle style="fill:#303C42;" cx="256" cy="416" r="10.667"/>
</g>
<linearGradient id="SVGID_1_" gradientUnits="userSpaceOnUse" x1="-37.6757" y1="639.814" x2="-25.7585" y2="627.8938" gradientTransform="matrix(21.3333 0 0 -21.3333 996.3334 13791.667)">
	<stop  offset="0" style="stop-color:#000000;stop-opacity:0.1"/>
	<stop  offset="1" style="stop-color:#000000;stop-opacity:0"/>
</linearGradient>
<path style="fill:url(#SVGID_1_);" d="M270.552,255.354l30.938-29.167c11.938-11.26,18.51-26.177,18.51-42.01v-17.781
	c0-32.938-28.708-59.729-64-59.729s-64,26.792-64,59.729v14.938c0,5.896-4.771,10.667-10.667,10.667
	c-2.529,0-4.754-1.005-6.581-2.473l82.6,82.599C261.061,266.081,265.281,260.32,270.552,255.354z M318.897,111.754l-0.359-0.09
	c14.022,14.451,22.796,33.576,22.796,54.732v17.781c0,21.458-9.188,42.427-25.219,57.531l-30.938,29.167
	c-11.938,11.26-18.51,26.177-18.51,42.021V352c0,5.896-4.771,10.667-10.667,10.667l103.582,103.582
	c70.125-34.694,120.578-103.216,129.559-184.251L318.897,111.754z"/>
<linearGradient id="SVGID_2_" gradientUnits="userSpaceOnUse" x1="-34.6535" y1="626.934" x2="-31.4701" y2="623.7497" gradientTransform="matrix(21.3333 0 0 -21.3333 996.3334 13791.667)">
	<stop  offset="0" style="stop-color:#000000;stop-opacity:0.1"/>
	<stop  offset="1" style="stop-color:#000000;stop-opacity:0"/>
</linearGradient>
<path style="fill:url(#SVGID_2_);" d="M264.509,409.891c1.26,1.751,2.158,3.786,2.158,6.109c0,5.891-4.776,10.667-10.667,10.667
	c-2.392,0-4.49-0.936-6.27-2.267l59.854,59.854c7.73-1.815,15.297-4.012,22.715-6.573L264.509,409.891z"/>
<linearGradient id="SVGID_3_" gradientUnits="userSpaceOnUse" x1="-45.5784" y1="639.555" x2="-23.8278" y2="629.4138" gradientTransform="matrix(21.3333 0 0 -21.3333 996.3334 13791.667)">
	<stop  offset="0" style="stop-color:#FFFFFF;stop-opacity:0.2"/>
	<stop  offset="1" style="stop-color:#FFFFFF;stop-opacity:0"/>
</linearGradient>
<path style="fill:url(#SVGID_3_);" d="M256,0C114.844,0,0,114.844,0,256s114.844,256,256,256s256-114.844,256-256S397.156,0,256,0z"
	/>
<g>
</g>
<g>
</g>
<g>
</g>
<g>
</g>
<g>
</g>
<g>
</g>
<g>
</g>
<g>
</g>
<g>
</g>
<g>
</g>
<g>
</g>
<g>
</g>
<g>
</g>
<g>
</g>
<g>
</g>
</svg>
