<?xml version="1.0" encoding="iso-8859-1"?>
<!-- Generator: Adobe Illustrator 19.0.0, SVG Export Plug-In . SVG Version: 6.00 Build 0)  -->
<svg version="1.1" id="Capa_1" xmlns="http://www.w3.org/2000/svg" xmlns:xlink="http://www.w3.org/1999/xlink" x="0px" y="0px"
	 viewBox="0 0 512 512" style="enable-background:new 0 0 512 512;" xml:space="preserve">
<path style="fill:#303C42;" d="M309.333,448c-17.646,0-32-14.354-32-32v-74.667H42.667C19.146,341.333,0,322.198,0,298.667v-85.333
	c0-23.531,19.146-42.667,42.667-42.667h234.667V96c0-17.646,14.354-32,32-32c7.938,0,15.604,3.042,21.542,8.563l13.771,12.74
	c45.313,41.927,121.167,112.094,159.979,151.01C509.375,241.115,512,248.094,512,256s-2.625,14.885-7.375,19.677
	c-38.813,38.927-114.667,109.094-159.979,151.021l-13.771,12.74C324.938,444.958,317.271,448,309.333,448z"/>
<path style="fill:#1E88E5;" d="M42.667,192c-11.771,0-21.333,9.573-21.333,21.333v85.333c0,11.76,9.563,21.333,21.333,21.333H288
	c5.896,0,10.667,4.771,10.667,10.667V416c0,5.885,4.792,10.667,10.667,10.667c3.25,0,5.625-1.563,7.042-2.875l13.771-12.75
	C375.354,369.219,451,299.24,489.5,260.625c0.583-0.573,1.167-2.24,1.167-4.625c0-2.385-0.583-4.052-1.167-4.635
	C451,212.76,375.354,142.781,330.146,100.958l-13.771-12.75c-1.417-1.313-3.792-2.875-7.042-2.875
	c-5.875,0-10.667,4.781-10.667,10.667v85.333c0,5.896-4.771,10.667-10.667,10.667H42.667z"/>
<path style="opacity:0.1;enable-background:new    ;" d="M21.333,298.667c0,11.76,9.563,21.333,21.333,21.333H288
	c5.896,0,10.667,4.771,10.667,10.667V416c0,5.885,4.792,10.667,10.667,10.667c3.25,0,5.625-1.563,7.042-2.875l13.771-12.75
	C375.354,369.219,451,299.24,489.5,260.625c0.583-0.573,1.167-2.24,1.167-4.625H21.333V298.667z"/>
<linearGradient id="SVGID_1_" gradientUnits="userSpaceOnUse" x1="-45.2187" y1="640.1111" x2="-24.4412" y2="630.4233" gradientTransform="matrix(21.3333 0 0 -21.3333 996.3334 13791.667)">
	<stop  offset="0" style="stop-color:#FFFFFF;stop-opacity:0.2"/>
	<stop  offset="1" style="stop-color:#FFFFFF;stop-opacity:0"/>
</linearGradient>
<path style="fill:url(#SVGID_1_);" d="M309.333,448c-17.646,0-32-14.354-32-32v-74.667H42.667C19.146,341.333,0,322.198,0,298.667
	v-85.333c0-23.531,19.146-42.667,42.667-42.667h234.667V96c0-17.646,14.354-32,32-32c7.938,0,15.604,3.042,21.542,8.563
	l13.771,12.74c45.313,41.927,121.167,112.094,159.979,151.01C509.375,241.115,512,248.094,512,256s-2.625,14.885-7.375,19.677
	c-38.813,38.927-114.667,109.094-159.979,151.021l-13.771,12.74C324.938,444.958,317.271,448,309.333,448z"/>
<g>
</g>
<g>
</g>
<g>
</g>
<g>
</g>
<g>
</g>
<g>
</g>
<g>
</g>
<g>
</g>
<g>
</g>
<g>
</g>
<g>
</g>
<g>
</g>
<g>
</g>
<g>
</g>
<g>
</g>
</svg>
