<?xml version="1.0" encoding="iso-8859-1"?>
<!-- Generator: Adobe Illustrator 19.0.0, SVG Export Plug-In . SVG Version: 6.00 Build 0)  -->
<svg version="1.1" id="Capa_1" xmlns="http://www.w3.org/2000/svg" xmlns:xlink="http://www.w3.org/1999/xlink" x="0px" y="0px"
	 viewBox="0 0 512 512" style="enable-background:new 0 0 512 512;" xml:space="preserve">
<path style="fill:#303C42;" d="M160,512c-41.167,0-74.667-33.5-74.667-74.667c0-19.948,7.771-38.698,21.875-52.802L243.292,256
	L107.417,127.677c-14.313-14.302-22.083-33.052-22.083-53.01C85.333,33.5,118.833,0,160,0c19.938,0,38.688,7.76,52.792,21.865
	L404.583,202.99c10.604,10.594,17.646,23.656,20.583,37.969c1,5.031,1.5,10.073,1.5,15.042c0,5.094-0.5,10.156-1.5,15.042
	c-2.938,14.323-9.979,27.375-20.375,37.76L212.688,490.24C198.583,504.271,179.896,512,160,512z"/>
<path style="fill:#1E88E5;" d="M160,21.333c-29.417,0-53.333,23.927-53.333,53.333c0,14.26,5.542,27.646,15.625,37.719
	L266.167,248.25c2.125,2.01,3.333,4.813,3.333,7.75s-1.208,5.74-3.333,7.75L122.083,399.823c-9.875,9.865-15.417,23.26-15.417,37.51
	c0,29.406,23.917,53.333,53.333,53.333c14.229,0,27.625-5.552,37.708-15.625c0.063-0.073,0.146-0.146,0.208-0.208l192-181.333
	c7.208-7.208,12.25-16.531,14.333-26.75c0.729-3.469,1.083-7.094,1.083-10.75c0-3.698-0.396-7.313-1.083-10.802
	c-2.083-10.167-7.125-19.49-14.542-26.917L197.917,37.156C187.625,26.885,174.229,21.333,160,21.333z"/>
<linearGradient id="SVGID_1_" gradientUnits="userSpaceOnUse" x1="-45.6302" y1="637.4826" x2="-28.6367" y2="629.5582" gradientTransform="matrix(21.3333 0 0 -21.3333 996.3334 13791.667)">
	<stop  offset="0" style="stop-color:#FFFFFF;stop-opacity:0.2"/>
	<stop  offset="1" style="stop-color:#FFFFFF;stop-opacity:0"/>
</linearGradient>
<path style="fill:url(#SVGID_1_);" d="M160,512c-41.167,0-74.667-33.5-74.667-74.667c0-19.948,7.771-38.698,21.875-52.802
	L243.292,256L107.417,127.677c-14.313-14.302-22.083-33.052-22.083-53.01C85.333,33.5,118.833,0,160,0
	c19.938,0,38.688,7.76,52.792,21.865L404.583,202.99c10.604,10.594,17.646,23.656,20.583,37.969c1,5.031,1.5,10.073,1.5,15.042
	c0,5.094-0.5,10.156-1.5,15.042c-2.938,14.323-9.979,27.375-20.375,37.76L212.688,490.24C198.583,504.271,179.896,512,160,512z"/>
<g>
</g>
<g>
</g>
<g>
</g>
<g>
</g>
<g>
</g>
<g>
</g>
<g>
</g>
<g>
</g>
<g>
</g>
<g>
</g>
<g>
</g>
<g>
</g>
<g>
</g>
<g>
</g>
<g>
</g>
</svg>
