<?xml version="1.0" encoding="iso-8859-1"?>
<!-- Generator: Adobe Illustrator 19.0.0, SVG Export Plug-In . SVG Version: 6.00 Build 0)  -->
<svg version="1.1" id="Capa_1" xmlns="http://www.w3.org/2000/svg" xmlns:xlink="http://www.w3.org/1999/xlink" x="0px" y="0px"
	 viewBox="0 0 512.001 512.001" style="enable-background:new 0 0 512.001 512.001;" xml:space="preserve">
<path style="fill:#303C42;" d="M512.001,10.667C512.001,4.771,507.23,0,501.334,0c-146.38,0-242.996,88.328-327.862,192.072
	C60.989,193.383,23.652,236.65,0.553,305.959c-1.094,3.25-0.542,6.833,1.458,9.615C4.021,318.354,7.24,320,10.667,320h80.917
	l10.667,10.667l-35.125,35.125c-4.167,4.167-4.167,10.917,0,15.083l6.845,6.845c-38.671,11.63-73.97,52.667-73.97,113.613
	c0,5.896,4.771,10.667,10.667,10.667c60.947,0,101.983-35.299,113.613-73.97l6.845,6.845c2.083,2.083,4.813,3.125,7.542,3.125
	c2.729,0,5.458-1.042,7.542-3.125l35.125-35.125l10.615,10.615v80.969c0,3.427,1.646,6.646,4.427,8.656
	c1.844,1.323,4.031,2.01,6.24,2.01c1.135,0,2.271-0.177,3.375-0.552c69.299-23.096,112.564-60.426,113.885-172.875
	C423.644,253.697,512.001,157.072,512.001,10.667z"/>
<path style="fill:#D32F2F;" d="M155.872,213.973c-15.238,19.284-30.21,38.87-45.069,58.402l-20.078,26.292H25.834
	C45.644,247.776,76.228,218.498,155.872,213.973z"/>
<path style="fill:#FF6F00;" d="M21.803,490.198c4.324-50.66,37.815-82.007,70.245-84.401l14.156,14.156
	C103.809,452.383,72.463,485.874,21.803,490.198z"/>
<path style="fill:#FFCA28;" d="M48.099,463.902c2.851-33.401,24.932-54.069,46.314-55.648l9.334,9.334
	C102.167,438.97,81.5,461.051,48.099,463.902z"/>
<rect x="108.498" y="349.415" transform="matrix(-0.7071 0.7071 -0.7071 -0.7071 490.0568 565.0261)" style="fill:#E6E6E6;" width="39.019" height="69.184"/>
<rect x="131.136" y="340.03" transform="matrix(-0.7071 0.7071 -0.7071 -0.7071 499.432 542.3735)" style="opacity:0.1;enable-background:new    ;" width="12.501" height="69.184"/>
<path style="fill:#D32F2F;" d="M213.282,486.167v-64.85l26.344-20.118c19.514-14.845,39.081-29.803,58.346-45.026
	C293.438,435.783,264.162,466.361,213.282,486.167z"/>
<linearGradient id="SVGID_1_" gradientUnits="userSpaceOnUse" x1="-35.7094" y1="627.7314" x2="-33.741" y2="625.7631" gradientTransform="matrix(21.3333 0 0 -21.3333 996.3276 13791.6738)">
	<stop  offset="0" style="stop-color:#000000;stop-opacity:0.1"/>
	<stop  offset="1" style="stop-color:#000000;stop-opacity:0"/>
</linearGradient>
<path style="fill:url(#SVGID_1_);" d="M213.282,486.167v-64.85l26.344-20.118c19.514-14.845,39.081-29.803,58.346-45.026
	C293.438,435.783,264.162,466.361,213.282,486.167z"/>
<path style="opacity:0.1;enable-background:new    ;" d="M213.656,443.343l26.344-20.59c18.569-14.126,37.161-28.384,55.521-42.845
	c1.053-7.465,1.965-15.188,2.452-23.736c-19.266,15.223-38.832,30.181-58.346,45.026l-26.344,20.118v21.928"/>
<path style="fill:#F2F2F2;" d="M226.719,384.219l-23.104,17.635l-93.469-93.469l17.635-23.104
	C224.417,158.261,324.271,27,490.49,21.511C485.001,187.729,353.74,287.584,226.719,384.219z"/>
<path style="opacity:0.1;enable-background:new    ;" d="M184.137,382.377l19.478,19.478l23.104-17.635
	c125.768-95.682,255.503-194.624,263.382-357.913C452.11,180.448,316.321,282.905,184.137,382.377z"/>
<circle style="fill:#303C42;" cx="352" cy="160" r="53.333"/>
<circle style="fill:#BBDEFB;" cx="352" cy="160" r="32"/>
<path style="opacity:0.1;enable-background:new    ;" d="M337.119,175.111c0-17.646,14.354-32,32-32
	c3.913,0,7.617,0.806,11.086,2.096C374.842,135.03,364.282,128,352.001,128c-17.646,0-32,14.354-32,32
	c0,13.733,8.741,25.372,20.914,29.904C338.572,185.459,337.119,180.476,337.119,175.111z"/>
<path style="opacity:0.2;fill:#FFFFFF;enable-background:new    ;" d="M146.649,225.925c3.098-3.969,6.104-8.005,9.223-11.952
	c-79.643,4.525-110.228,33.803-130.038,84.694h4.876C49.829,256.692,79.941,231.733,146.649,225.925z"/>
<linearGradient id="SVGID_2_" gradientUnits="userSpaceOnUse" x1="-43.7256" y1="638.6898" x2="-27.9169" y2="631.322" gradientTransform="matrix(21.3333 0 0 -21.3333 996.3276 13791.6738)">
	<stop  offset="0" style="stop-color:#FFFFFF;stop-opacity:0.2"/>
	<stop  offset="1" style="stop-color:#FFFFFF;stop-opacity:0"/>
</linearGradient>
<path style="fill:url(#SVGID_2_);" d="M512.001,10.667C512.001,4.771,507.23,0,501.334,0c-146.38,0-242.996,88.328-327.862,192.072
	C60.989,193.383,23.652,236.65,0.553,305.959c-1.094,3.25-0.542,6.833,1.458,9.615C4.021,318.354,7.24,320,10.667,320h80.917
	l10.667,10.667l-35.125,35.125c-4.167,4.167-4.167,10.917,0,15.083l6.845,6.845c-38.671,11.63-73.97,52.667-73.97,113.613
	c0,5.896,4.771,10.667,10.667,10.667c60.947,0,101.983-35.299,113.613-73.97l6.845,6.845c2.083,2.083,4.813,3.125,7.542,3.125
	c2.729,0,5.458-1.042,7.542-3.125l35.125-35.125l10.615,10.615v80.969c0,3.427,1.646,6.646,4.427,8.656
	c1.844,1.323,4.031,2.01,6.24,2.01c1.135,0,2.271-0.177,3.375-0.552c69.299-23.096,112.564-60.426,113.885-172.875
	C423.644,253.697,512.001,157.072,512.001,10.667z"/>
<g>
</g>
<g>
</g>
<g>
</g>
<g>
</g>
<g>
</g>
<g>
</g>
<g>
</g>
<g>
</g>
<g>
</g>
<g>
</g>
<g>
</g>
<g>
</g>
<g>
</g>
<g>
</g>
<g>
</g>
</svg>
