<?xml version="1.0" encoding="iso-8859-1"?>
<!-- Generator: Adobe Illustrator 19.0.0, SVG Export Plug-In . SVG Version: 6.00 Build 0)  -->
<svg version="1.1" id="Capa_1" xmlns="http://www.w3.org/2000/svg" xmlns:xlink="http://www.w3.org/1999/xlink" x="0px" y="0px"
	 viewBox="0 0 469.333 469.333" style="enable-background:new 0 0 469.333 469.333;" xml:space="preserve">
<path style="fill:#303C42;" d="M426.667,0h-384C19.146,0,0,19.135,0,42.667v384c0,23.531,19.146,42.667,42.667,42.667h384
	c23.521,0,42.667-19.135,42.667-42.667v-384C469.333,19.135,450.188,0,426.667,0z"/>
<path style="fill:#546E7A;" d="M448,426.667c0,11.76-9.563,21.333-21.333,21.333h-384c-11.771,0-21.333-9.573-21.333-21.333v-384
	c0-11.76,9.563-21.333,21.333-21.333h384c11.771,0,21.333,9.573,21.333,21.333V426.667z"/>
<path style="fill:#303C42;" d="M394.667,64h-320C68.771,64,64,68.771,64,74.667v32H53.333c-5.896,0-10.667,4.771-10.667,10.667v64
	c0,5.896,4.771,10.667,10.667,10.667H64v85.333H53.333c-5.896,0-10.667,4.771-10.667,10.667v64c0,5.896,4.771,10.667,10.667,10.667
	H64v32c0,5.896,4.771,10.667,10.667,10.667h320c5.896,0,10.667-4.771,10.667-10.667v-320C405.333,68.771,400.563,64,394.667,64z"/>
<path style="fill:#78909C;" d="M384,384H85.333v-32c0-5.896-4.771-10.667-10.667-10.667H64v-42.667h10.667
	c5.896,0,10.667-4.771,10.667-10.667V181.333c0-5.896-4.771-10.667-10.667-10.667H64V128h10.667c5.896,0,10.667-4.771,10.667-10.667
	v-32H384V384z"/>
<circle style="fill:#303C42;" cx="234.667" cy="234.667" r="85.333"/>
<linearGradient id="SVGID_1_" gradientUnits="userSpaceOnUse" x1="-55.9631" y1="613.0784" x2="-49.0361" y2="606.1514" gradientTransform="matrix(21.3333 0 0 -21.3333 1430.1112 13315.2227)">
	<stop  offset="0" style="stop-color:#000000;stop-opacity:0.1"/>
	<stop  offset="1" style="stop-color:#000000;stop-opacity:0"/>
</linearGradient>
<path style="fill:url(#SVGID_1_);" d="M296.51,175.938l-0.122,0.122C310.93,191.37,320,211.934,320,234.667
	C320,281.719,281.729,320,234.667,320c-22.736,0-43.299-9.072-58.608-23.612l-0.107,0.107L263.457,384H384V263.427L296.51,175.938z"
	/>
<path style="fill:#B0BEC5;" d="M234.667,170.667c13.797,0,26.505,4.488,36.967,11.941l-15.432,15.438
	c-6.346-3.747-13.648-6.046-21.535-6.046C211.146,192,192,211.135,192,234.667s19.146,42.667,42.667,42.667
	s42.667-19.135,42.667-42.667c0-7.889-2.299-15.194-6.047-21.539l15.432-15.436c7.457,10.464,11.948,23.174,11.948,36.975
	c0,35.292-28.708,64-64,64s-64-28.708-64-64S199.375,170.667,234.667,170.667z"/>
<circle style="fill:#303C42;" cx="234.667" cy="234.667" r="21.333"/>
<circle style="fill:#90A4AE;" cx="234.667" cy="234.667" r="21.333"/>
<linearGradient id="SVGID_2_" gradientUnits="userSpaceOnUse" x1="-68.6887" y1="619.0511" x2="-43.3842" y2="607.2509" gradientTransform="matrix(21.3333 0 0 -21.3333 1430.1112 13315.2227)">
	<stop  offset="0" style="stop-color:#FFFFFF;stop-opacity:0.2"/>
	<stop  offset="1" style="stop-color:#FFFFFF;stop-opacity:0"/>
</linearGradient>
<path style="fill:url(#SVGID_2_);" d="M426.667,0h-384C19.146,0,0,19.135,0,42.667v384c0,23.531,19.146,42.667,42.667,42.667h384
	c23.521,0,42.667-19.135,42.667-42.667v-384C469.333,19.135,450.188,0,426.667,0z"/>
<g>
</g>
<g>
</g>
<g>
</g>
<g>
</g>
<g>
</g>
<g>
</g>
<g>
</g>
<g>
</g>
<g>
</g>
<g>
</g>
<g>
</g>
<g>
</g>
<g>
</g>
<g>
</g>
<g>
</g>
</svg>
