<?xml version="1.0" encoding="iso-8859-1"?>
<!-- Generator: Adobe Illustrator 19.0.0, SVG Export Plug-In . SVG Version: 6.00 Build 0)  -->
<svg version="1.1" id="Layer_1" xmlns="http://www.w3.org/2000/svg" xmlns:xlink="http://www.w3.org/1999/xlink" x="0px" y="0px"
	 viewBox="0 0 512 512" style="enable-background:new 0 0 512 512;" xml:space="preserve">
<rect x="20.5" y="43" style="fill:#434A54;" width="478.5" height="382"/>
<rect x="56" y="85.34" style="fill:#656D78;" width="400" height="295.98"/>
<g>
	<rect x="372" y="427.5" style="fill:#434A54;" width="88" height="41.5"/>
	<rect x="48" y="427.5" style="fill:#434A54;" width="96" height="36"/>
</g>
<path style="fill:#AAB2BC;" d="M264,234.672c0,45.641-37.016,82.656-82.656,82.656c-45.656,0-82.672-37.016-82.672-82.656
	c0-45.656,37.016-82.672,82.672-82.672C226.984,152,264,189.016,264,234.672z"/>
<path style="fill:#CCD1D9;" d="M226.672,235.047c0,22.266-18.062,40.328-40.328,40.328s-40.328-18.062-40.328-40.328
	s18.062-40.328,40.328-40.328S226.672,212.781,226.672,235.047z"/>
<path style="fill:#F6BB42;" d="M423.328,200.344c0,30.734-24.922,55.656-55.672,55.656C336.922,256,312,231.078,312,200.344
	c0-30.75,24.922-55.672,55.656-55.672C398.406,144.672,423.328,169.594,423.328,200.344z"/>
<polygon style="fill:#FFCE54;" points="380.672,192 360,182 344,204 348.672,298.656 367.656,309.328 384.891,253.281 "/>
<path d="M501.328,32H10.672C4.781,32,0,36.781,0,42.656v384c0,5.906,4.781,10.688,10.672,10.688h31.922V480h106.734v-42.656h213.344
	V480h106.734v-42.656h31.922c5.891,0,10.672-4.781,10.672-10.688v-384C512,36.781,507.219,32,501.328,32z M128,458.656H63.938
	v-21.312H128V458.656z M448.062,458.656H384v-21.312h64.062V458.656z M490.672,416H21.328V53.344h469.344V416z"/>
<path d="M42.594,192v85.344C36.734,277.375,32,282.125,32,288v42.656c0,5.875,4.734,10.625,10.594,10.672v53.328h426.812v-320
	H42.594V128c-5.891,0-10.656,4.781-10.656,10.656v42.688C31.938,187.219,36.703,192,42.594,192z M63.938,96h384.125v277.344H63.938
	V96z"/>
<path d="M181.328,138.656c-53.016,0-96,43-96,96c0,53.031,42.984,96,96,96c53.031,0,96-42.969,96-96
	C277.328,181.656,234.359,138.656,181.328,138.656z M234.125,287.469c-14.094,14.094-32.844,21.875-52.797,21.875
	c-19.938,0-38.688-7.781-52.797-21.875c-14.094-14.109-21.859-32.859-21.859-52.812c0-19.938,7.766-38.688,21.859-52.781
	c14.11-14.11,32.86-21.876,52.797-21.876c19.953,0,38.703,7.766,52.797,21.875C248.234,195.969,256,214.719,256,234.656
	C256,254.609,248.234,273.359,234.125,287.469z"/>
<path d="M222.188,198.766c-0.312,0.172-0.609,0.375-0.906,0.578c-1.453-1.625-3-3.188-4.625-4.625
	c0.203-0.281,0.406-0.594,0.578-0.906c2.953-5.094,1.203-11.625-3.906-14.562c-5.094-2.953-11.625-1.203-14.562,3.906
	c-0.188,0.312-0.344,0.625-0.484,0.938c-2.062-0.688-4.172-1.266-6.328-1.703c0.031-0.344,0.047-0.703,0.047-1.047
	c0-5.906-4.781-10.688-10.672-10.688s-10.656,4.781-10.656,10.688c0,0.344,0.016,0.703,0.047,1.047
	c-2.156,0.438-4.266,1.016-6.328,1.703c-0.141-0.312-0.312-0.625-0.484-0.938c-2.953-5.109-9.469-6.859-14.578-3.906
	c-5.094,2.938-6.844,9.469-3.906,14.562c0.188,0.312,0.391,0.625,0.594,0.906c-1.641,1.438-3.188,3-4.625,4.625
	c-0.297-0.203-0.594-0.406-0.906-0.578c-5.109-2.953-11.625-1.203-14.578,3.891c-2.938,5.109-1.203,11.625,3.906,14.578
	c0.312,0.172,0.625,0.344,0.953,0.484c-0.688,2.062-1.266,4.172-1.703,6.344C128.703,224.016,128.359,224,128,224
	c-5.891,0-10.672,4.781-10.672,10.656c0,5.906,4.781,10.688,10.672,10.688c0.359,0,0.703-0.031,1.062-0.062
	c0.438,2.156,1.016,4.266,1.703,6.328c-0.328,0.141-0.641,0.297-0.953,0.484c-5.109,2.938-6.844,9.469-3.906,14.562
	c2.953,5.109,9.469,6.859,14.578,3.906c0.312-0.172,0.609-0.375,0.906-0.578c1.438,1.641,2.984,3.172,4.625,4.641
	c-0.203,0.281-0.406,0.578-0.594,0.906c-2.938,5.094-1.188,11.625,3.906,14.562c5.109,2.938,11.625,1.188,14.578-3.906
	c0.172-0.312,0.344-0.625,0.484-0.953c2.062,0.688,4.172,1.266,6.328,1.703c-0.031,0.344-0.047,0.703-0.047,1.062
	c0,5.891,4.766,10.656,10.656,10.656S192,293.891,192,288c0-0.359-0.016-0.719-0.047-1.062c2.156-0.438,4.266-1.016,6.328-1.703
	c0.141,0.328,0.297,0.641,0.484,0.953c2.938,5.094,9.469,6.844,14.562,3.906c5.109-2.938,6.859-9.469,3.906-14.562
	c-0.172-0.328-0.375-0.625-0.578-0.906c1.625-1.469,3.172-3,4.625-4.641c0.297,0.203,0.594,0.406,0.906,0.578
	c5.109,2.953,11.625,1.203,14.578-3.906c2.938-5.094,1.188-11.625-3.906-14.562c-0.312-0.188-0.641-0.344-0.953-0.484
	c0.688-2.062,1.266-4.172,1.703-6.328c0.344,0.031,0.703,0.062,1.062,0.062c5.891,0,10.656-4.781,10.656-10.688
	c0-5.875-4.766-10.656-10.656-10.656c-0.359,0-0.719,0.016-1.062,0.062c-0.438-2.172-1.016-4.281-1.703-6.344
	c0.312-0.141,0.641-0.312,0.953-0.484c5.094-2.953,6.844-9.469,3.906-14.578C233.812,197.562,227.297,195.812,222.188,198.766z
	 M149.328,234.656c0-17.625,14.359-32,32-32c17.656,0,32,14.375,32,32c0,17.656-14.344,32-32,32
	C163.688,266.656,149.328,252.312,149.328,234.656z"/>
<path d="M362.672,138.656c-35.344,0-64,28.656-64,64c0,24.766,14.062,46.234,34.625,56.875
	c3.516,33.938,11.438,69.812,29.375,69.812c17.922,0,25.859-35.875,29.359-69.812c20.562-10.641,34.641-32.094,34.641-56.875
	C426.672,167.312,398.016,138.656,362.672,138.656z M370.562,259.656c-2.25,20.594-5.344,32.984-7.891,40.266
	c-2.562-7.281-5.656-19.672-7.906-40.266c-2.609-23.891-2.891-47.812-2.891-57c0-5.938,4.844-10.781,10.797-10.781
	s10.781,4.844,10.781,10.781C373.453,211.844,373.172,235.781,370.562,259.656z M394.094,231.5
	c0.641-13.438,0.703-24.219,0.703-28.844c0-17.734-14.391-32.125-32.125-32.125c-17.75,0-32.125,14.391-32.125,32.125
	c0,4.625,0.047,15.406,0.688,28.844C324.266,223.891,320,213.766,320,202.656C320,179.141,339.141,160,362.672,160
	c23.516,0,42.656,19.141,42.656,42.656C405.328,213.766,401.062,223.891,394.094,231.5z"/>
<g>
</g>
<g>
</g>
<g>
</g>
<g>
</g>
<g>
</g>
<g>
</g>
<g>
</g>
<g>
</g>
<g>
</g>
<g>
</g>
<g>
</g>
<g>
</g>
<g>
</g>
<g>
</g>
<g>
</g>
</svg>
