<?xml version="1.0" encoding="iso-8859-1"?>
<!-- Generator: Adobe Illustrator 19.0.0, SVG Export Plug-In . SVG Version: 6.00 Build 0)  -->
<svg version="1.1" id="Capa_1" xmlns="http://www.w3.org/2000/svg" xmlns:xlink="http://www.w3.org/1999/xlink" x="0px" y="0px"
	 viewBox="0 0 512 512" style="enable-background:new 0 0 512 512;" xml:space="preserve">
<g>
	<path style="fill:#303C42;" d="M469.333,64h-32c-5.896,0-10.667,4.771-10.667,10.667c0,5.896,4.771,10.667,10.667,10.667h32
		c11.76,0,21.333,9.573,21.333,21.333v32c0,5.896,4.771,10.667,10.667,10.667S512,144.563,512,138.667v-32
		C512,83.135,492.865,64,469.333,64z"/>
	<path style="fill:#303C42;" d="M10.667,149.333c5.896,0,10.667-4.771,10.667-10.667v-32c0-11.76,9.573-21.333,21.333-21.333h32
		c5.896,0,10.667-4.771,10.667-10.667C85.333,68.771,80.563,64,74.667,64h-32C19.135,64,0,83.135,0,106.667v32
		C0,144.563,4.771,149.333,10.667,149.333z"/>
	<path style="fill:#303C42;" d="M256,405.333c-90.208,0-169.688-58.698-197.76-146.073c-0.677-2.115-0.677-4.406,0-6.521
		C86.313,165.365,165.792,106.667,256,106.667s169.688,58.698,197.76,146.073c0.677,2.115,0.677,4.406,0,6.521
		C425.688,346.635,346.208,405.333,256,405.333z"/>
</g>
<path style="fill:#F2F2F2;" d="M79.635,256C105.771,332.708,176.219,384,256,384s150.229-51.292,176.365-128
	C406.229,179.292,335.781,128,256,128S105.771,179.292,79.635,256z"/>
<circle style="fill:#303C42;" cx="256" cy="256" r="85.333"/>
<circle style="fill:#BBDEFB;" cx="256" cy="256" r="64"/>
<g>
	<path style="fill:#303C42;" d="M501.333,362.667c-5.896,0-10.667,4.771-10.667,10.667v32c0,11.76-9.573,21.333-21.333,21.333h-32
		c-5.896,0-10.667,4.771-10.667,10.667S431.438,448,437.333,448h32C492.865,448,512,428.865,512,405.333v-32
		C512,367.438,507.229,362.667,501.333,362.667z"/>
	<path style="fill:#303C42;" d="M74.667,426.667h-32c-11.76,0-21.333-9.573-21.333-21.333v-32c0-5.896-4.771-10.667-10.667-10.667
		S0,367.438,0,373.333v32C0,428.865,19.135,448,42.667,448h32c5.896,0,10.667-4.771,10.667-10.667S80.563,426.667,74.667,426.667z"
		/>
</g>
<path style="fill:#E53935;" d="M501.333,234.667H10.667C4.771,234.667,0,239.438,0,245.333C0,251.229,4.771,256,10.667,256h490.667
	c5.896,0,10.667-4.771,10.667-10.667C512,239.438,507.229,234.667,501.333,234.667z"/>
<linearGradient id="SVGID_1_" gradientUnits="userSpaceOnUse" x1="-39.1622" y1="638.2906" x2="-30.2431" y2="629.3675" gradientTransform="matrix(21.3333 0 0 -21.3333 996.3334 13791.667)">
	<stop  offset="0" style="stop-color:#000000;stop-opacity:0.1"/>
	<stop  offset="1" style="stop-color:#000000;stop-opacity:0"/>
</linearGradient>
<path style="fill:url(#SVGID_1_);" d="M341.333,256c0,47.052-38.281,85.333-85.333,85.333S170.667,303.052,170.667,256H79.635
	C105.771,332.708,176.219,384,256,384s150.229-51.292,176.365-128H341.333z M256,320c35.292,0,64-28.708,64-64H192
	C192,291.292,220.708,320,256,320z"/>
<linearGradient id="SVGID_2_" gradientUnits="userSpaceOnUse" x1="-47.4108" y1="640.4102" x2="-21.9955" y2="628.5585" gradientTransform="matrix(21.3333 0 0 -21.3333 996.3334 13791.667)">
	<stop  offset="0" style="stop-color:#FFFFFF;stop-opacity:0.2"/>
	<stop  offset="1" style="stop-color:#FFFFFF;stop-opacity:0"/>
</linearGradient>
<path style="fill:url(#SVGID_2_);" d="M74.667,426.667h-32c-11.76,0-21.333-9.573-21.333-21.333v-32
	c0-5.896-4.771-10.667-10.667-10.667S0,367.438,0,373.333v32C0,428.865,19.135,448,42.667,448h32
	c5.896,0,10.667-4.771,10.667-10.667S80.563,426.667,74.667,426.667z M10.667,149.333c5.896,0,10.667-4.771,10.667-10.667v-32
	c0-11.76,9.573-21.333,21.333-21.333h32c5.896,0,10.667-4.771,10.667-10.667C85.333,68.771,80.563,64,74.667,64h-32
	C19.135,64,0,83.135,0,106.667v32C0,144.563,4.771,149.333,10.667,149.333z M501.333,234.667h-54.359
	c-32.66-77.276-107.152-128-190.974-128s-158.314,50.724-190.974,128H10.667C4.771,234.667,0,239.438,0,245.333
	C0,251.229,4.771,256,10.667,256H58.24c0,1.102-0.339,2.203,0,3.26C86.313,346.635,165.792,405.333,256,405.333
	s169.688-58.698,197.76-146.073c0.339-1.057,0-2.159,0-3.26h47.573c5.896,0,10.667-4.771,10.667-10.667
	C512,239.438,507.229,234.667,501.333,234.667z M501.333,362.667c-5.896,0-10.667,4.771-10.667,10.667v32
	c0,11.76-9.573,21.333-21.333,21.333h-32c-5.896,0-10.667,4.771-10.667,10.667S431.438,448,437.333,448h32
	C492.865,448,512,428.865,512,405.333v-32C512,367.438,507.229,362.667,501.333,362.667z M469.333,64h-32
	c-5.896,0-10.667,4.771-10.667,10.667c0,5.896,4.771,10.667,10.667,10.667h32c11.76,0,21.333,9.573,21.333,21.333v32
	c0,5.896,4.771,10.667,10.667,10.667S512,144.563,512,138.667v-32C512,83.135,492.865,64,469.333,64z"/>
<g>
</g>
<g>
</g>
<g>
</g>
<g>
</g>
<g>
</g>
<g>
</g>
<g>
</g>
<g>
</g>
<g>
</g>
<g>
</g>
<g>
</g>
<g>
</g>
<g>
</g>
<g>
</g>
<g>
</g>
</svg>
