<?xml version="1.0" encoding="iso-8859-1"?>
<!-- Generator: Adobe Illustrator 19.0.0, SVG Export Plug-In . SVG Version: 6.00 Build 0)  -->
<svg version="1.1" id="Capa_1" xmlns="http://www.w3.org/2000/svg" xmlns:xlink="http://www.w3.org/1999/xlink" x="0px" y="0px"
	 viewBox="0 0 512 512" style="enable-background:new 0 0 512 512;" xml:space="preserve">
<path style="fill:#303C42;" d="M472.354,128H207.302c-20.052,0-37.615,14.24-41.76,33.875l-36.688,174.292
	c-0.563,2.677-0.854,5.427-0.854,8.188C128,366.219,145.781,384,167.646,384h265.052c20.052,0,37.615-14.24,41.76-33.875
	l36.688-174.292c0.563-2.677,0.854-5.427,0.854-8.188C512,145.781,494.219,128,472.354,128z"/>
<path style="fill:#FFFFFF;" d="M472.03,149.333c-37.053,25.724-118.544,82.258-148.988,103.115
	c-4.125,2.823-12.625,5.583-17.438,1.031c-21.904-20.602-79.698-75.913-106.967-102.051c2.698-1.228,5.569-2.095,8.665-2.095H472.03
	z"/>
<path style="fill:#FAFAFA;" d="M490.271,171.417l-36.688,174.302c-2.073,9.823-10.854,16.948-20.885,16.948H167.646
	c-10.094,0-18.313-8.219-18.313-18.313c0-1.271,0.135-2.531,0.396-3.771l36.165-171.822
	c28.121,26.936,83.732,80.158,105.074,100.249c5.906,5.563,13.375,8.51,21.594,8.51c7.604,0,15.396-2.583,22.542-7.469
	c32.09-21.99,120.888-83.612,154.625-107.039c0.408,1.516,0.938,2.991,0.938,4.633C490.667,168.917,490.531,170.177,490.271,171.417
	z"/>
<g>
	<path style="fill:#303C42;" d="M96,341.333H10.667C4.771,341.333,0,346.104,0,352c0,5.896,4.771,10.667,10.667,10.667H96
		c5.896,0,10.667-4.771,10.667-10.667C106.667,346.104,101.896,341.333,96,341.333z"/>
	<path style="fill:#303C42;" d="M106.667,277.333h-96C4.771,277.333,0,282.104,0,288c0,5.896,4.771,10.667,10.667,10.667h96
		c5.896,0,10.667-4.771,10.667-10.667C117.333,282.104,112.563,277.333,106.667,277.333z"/>
	<path style="fill:#303C42;" d="M117.333,213.333H10.667C4.771,213.333,0,218.104,0,224c0,5.896,4.771,10.667,10.667,10.667h106.667
		c5.896,0,10.667-4.771,10.667-10.667C128,218.104,123.229,213.333,117.333,213.333z"/>
	<path style="fill:#303C42;" d="M10.667,170.667H128c5.896,0,10.667-4.771,10.667-10.667c0-5.896-4.771-10.667-10.667-10.667H10.667
		C4.771,149.333,0,154.104,0,160C0,165.896,4.771,170.667,10.667,170.667z"/>
</g>
<linearGradient id="SVGID_1_" gradientUnits="userSpaceOnUse" x1="-34.3614" y1="642.2016" x2="-23.826" y2="631.6662" gradientTransform="matrix(21.3333 0 0 -21.3333 996.3334 13791.667)">
	<stop  offset="0" style="stop-color:#000000;stop-opacity:0.1"/>
	<stop  offset="1" style="stop-color:#000000;stop-opacity:0"/>
</linearGradient>
<path style="fill:url(#SVGID_1_);" d="M432.698,362.667c10.031,0,18.813-7.125,20.885-16.948l36.688-174.302
	c0.26-1.24,0.396-2.5,0.396-3.771c0-1.642-0.53-3.117-0.938-4.633c-33.737,23.427-122.535,85.049-154.625,107.039
	c-7.146,4.885-14.938,7.469-22.542,7.469c-8.219,0-15.688-2.948-21.594-8.51c-21.342-20.091-76.953-73.313-105.074-100.249
	l193.905,193.905H432.698z"/>
<linearGradient id="SVGID_2_" gradientUnits="userSpaceOnUse" x1="-46.229" y1="640.1124" x2="-24.4583" y2="629.9605" gradientTransform="matrix(21.3333 0 0 -21.3333 996.3334 13791.667)">
	<stop  offset="0" style="stop-color:#FFFFFF;stop-opacity:0.2"/>
	<stop  offset="1" style="stop-color:#FFFFFF;stop-opacity:0"/>
</linearGradient>
<path style="fill:url(#SVGID_2_);" d="M96,341.333H10.667C4.771,341.333,0,346.104,0,352c0,5.896,4.771,10.667,10.667,10.667H96
	c5.896,0,10.667-4.771,10.667-10.667C106.667,346.104,101.896,341.333,96,341.333z M10.667,170.667H128
	c5.896,0,10.667-4.771,10.667-10.667c0-5.896-4.771-10.667-10.667-10.667H10.667C4.771,149.333,0,154.104,0,160
	C0,165.896,4.771,170.667,10.667,170.667z M106.667,277.333h-96C4.771,277.333,0,282.104,0,288c0,5.896,4.771,10.667,10.667,10.667
	h96c5.896,0,10.667-4.771,10.667-10.667C117.333,282.104,112.563,277.333,106.667,277.333z M472.354,128H207.302
	c-20.052,0-37.615,14.24-41.76,33.875l-36.688,174.292c-0.563,2.677-0.854,5.427-0.854,8.188C128,366.219,145.781,384,167.646,384
	h265.052c20.052,0,37.615-14.24,41.76-33.875l36.688-174.292c0.563-2.677,0.854-5.427,0.854-8.188
	C512,145.781,494.219,128,472.354,128z M117.333,213.333H10.667C4.771,213.333,0,218.104,0,224c0,5.896,4.771,10.667,10.667,10.667
	h106.667c5.896,0,10.667-4.771,10.667-10.667C128,218.104,123.229,213.333,117.333,213.333z"/>
<g>
</g>
<g>
</g>
<g>
</g>
<g>
</g>
<g>
</g>
<g>
</g>
<g>
</g>
<g>
</g>
<g>
</g>
<g>
</g>
<g>
</g>
<g>
</g>
<g>
</g>
<g>
</g>
<g>
</g>
</svg>
