<?xml version="1.0" encoding="iso-8859-1"?>
<!-- Generator: Adobe Illustrator 19.0.0, SVG Export Plug-In . SVG Version: 6.00 Build 0)  -->
<svg version="1.1" id="Capa_1" xmlns="http://www.w3.org/2000/svg" xmlns:xlink="http://www.w3.org/1999/xlink" x="0px" y="0px"
	 viewBox="0 0 512 512" style="enable-background:new 0 0 512 512;" xml:space="preserve">
<path style="fill:#303C42;" d="M469.333,170.667V85.333c0-23.531-19.146-42.667-42.667-42.667h-384C19.146,42.667,0,61.802,0,85.333
	v85.333c0,12.805,5.786,24.174,14.746,32C5.786,210.492,0,221.862,0,234.667V320c0,23.531,19.146,42.667,42.667,42.667h384
	c23.521,0,42.667-19.135,42.667-42.667v-85.333c0-12.805-5.786-24.174-14.746-32C463.547,194.841,469.333,183.471,469.333,170.667z"
	/>
<g>
	<path style="fill:#E6E6E6;" d="M448,234.667V320c0,11.76-9.563,21.333-21.333,21.333h-384c-11.771,0-21.333-9.573-21.333-21.333
		v-85.333c0-11.76,9.563-21.333,21.333-21.333h384C438.438,213.333,448,222.906,448,234.667z"/>
	<path style="fill:#E6E6E6;" d="M42.667,192c-11.771,0-21.333-9.573-21.333-21.333V85.333C21.333,73.573,30.896,64,42.667,64h384
		C438.438,64,448,73.573,448,85.333v85.333c0,11.76-9.563,21.333-21.333,21.333H42.667z"/>
</g>
<path style="opacity:0.1;enable-background:new    ;" d="M426.667,213.333h-19.201c10.594,0,19.201,9.573,19.201,21.333V320
	c0,11.76-8.607,21.333-19.201,21.333h19.201C438.438,341.333,448,331.76,448,320v-85.333
	C448,222.906,438.438,213.333,426.667,213.333z"/>
<g>
	<path style="opacity:0.2;fill:#FFFFFF;enable-background:new    ;" d="M42.667,320v-85.333c0-11.76,8.607-21.333,19.201-21.333
		H42.667c-11.771,0-21.333,9.573-21.333,21.333V320c0,11.76,9.563,21.333,21.333,21.333h19.201
		C51.273,341.333,42.667,331.76,42.667,320z"/>
	<path style="opacity:0.2;fill:#FFFFFF;enable-background:new    ;" d="M42.667,170.667V85.333C42.667,73.573,51.273,64,61.867,64
		H42.667c-11.771,0-21.333,9.573-21.333,21.333v85.333c0,11.76,9.563,21.333,21.333,21.333h19.201
		C51.273,192,42.667,182.427,42.667,170.667z"/>
</g>
<path style="opacity:0.1;enable-background:new    ;" d="M426.667,64h-19.201c10.594,0,19.201,9.573,19.201,21.333v85.333
	c0,11.76-8.607,21.333-19.201,21.333h19.201c11.771,0,21.333-9.573,21.333-21.333V85.333C448,73.573,438.438,64,426.667,64z"/>
<g>
	<path style="fill:#303C42;" d="M74.667,170.667C68.771,170.667,64,165.896,64,160V96c0-5.896,4.771-10.667,10.667-10.667
		c5.896,0,10.667,4.771,10.667,10.667v64C85.333,165.896,80.563,170.667,74.667,170.667z"/>
	<path style="fill:#303C42;" d="M117.333,170.667c-5.896,0-10.667-4.771-10.667-10.667V96c0-5.896,4.771-10.667,10.667-10.667
		S128,90.104,128,96v64C128,165.896,123.229,170.667,117.333,170.667z"/>
	<path style="fill:#303C42;" d="M160,170.667c-5.896,0-10.667-4.771-10.667-10.667V96c0-5.896,4.771-10.667,10.667-10.667
		c5.896,0,10.667,4.771,10.667,10.667v64C170.667,165.896,165.896,170.667,160,170.667z"/>
	<path style="fill:#303C42;" d="M74.667,320C68.771,320,64,315.229,64,309.333v-64c0-5.896,4.771-10.667,10.667-10.667
		c5.896,0,10.667,4.771,10.667,10.667v64C85.333,315.229,80.563,320,74.667,320z"/>
	<path style="fill:#303C42;" d="M117.333,320c-5.896,0-10.667-4.771-10.667-10.667v-64c0-5.896,4.771-10.667,10.667-10.667
		S128,239.438,128,245.333v64C128,315.229,123.229,320,117.333,320z"/>
	<path style="fill:#303C42;" d="M160,320c-5.896,0-10.667-4.771-10.667-10.667v-64c0-5.896,4.771-10.667,10.667-10.667
		c5.896,0,10.667,4.771,10.667,10.667v64C170.667,315.229,165.896,320,160,320z"/>
	<circle style="fill:#303C42;" cx="384" cy="128" r="21.333"/>
	<circle style="fill:#303C42;" cx="320" cy="128" r="21.333"/>
	<circle style="fill:#303C42;" cx="384" cy="277.333" r="21.333"/>
	<circle style="fill:#303C42;" cx="320" cy="277.333" r="21.333"/>
	<path style="fill:#303C42;" d="M411.5,468.333c1.427,0.667,2.958,1,4.5,1c1.542,0,3.073-0.333,4.5-1
		c79.49-37.021,91.5-64.448,91.5-139.521v-55.656c0-4.615-2.969-8.708-7.365-10.146l-85.333-27.823
		c-2.146-0.688-4.458-0.688-6.604,0l-85.333,27.823c-4.396,1.438-7.365,5.531-7.365,10.146v55.656
		C320,403.885,332.01,431.313,411.5,468.333z"/>
</g>
<path style="fill:#0288D1;" d="M416,256l-74.667,24.344v47.917c0,8.44,0.137,16.109,0.503,23.188H416V256z"/>
<path style="fill:#01579B;" d="M341.836,351.448c2.448,47.444,15.663,67.001,74.164,94.875v-94.875H341.836z"/>
<path style="fill:#0288D1;" d="M416,351.448v94.875c58.501-27.874,71.716-47.431,74.164-94.875H416z"/>
<path style="opacity:0.1;enable-background:new    ;" d="M489.306,351.448c-3.879,40.471-19.02,49.353-73.306,75.219
	c-54.286-25.866-69.427-34.747-73.306-75.219h-0.858c2.448,47.444,15.663,67.001,74.164,94.875
	c58.501-27.874,71.716-47.431,74.164-94.875H489.306z"/>
<path style="fill:#01579B;" d="M490.164,351.448c0.366-7.078,0.503-14.747,0.503-23.188v-47.917L416,256v95.448H490.164z"/>
<linearGradient id="SVGID_1_" gradientUnits="userSpaceOnUse" x1="-47.0149" y1="642.259" x2="-21.8405" y2="630.5203" gradientTransform="matrix(21.3333 0 0 -21.3333 996.3334 13791.667)">
	<stop  offset="0" style="stop-color:#FFFFFF;stop-opacity:0.2"/>
	<stop  offset="1" style="stop-color:#FFFFFF;stop-opacity:0"/>
</linearGradient>
<path style="fill:url(#SVGID_1_);" d="M504.635,263.01l-35.302-11.51v-16.833c0-12.805-5.786-24.174-14.746-32
	c8.96-7.826,14.746-19.195,14.746-32V85.333c0-23.531-19.146-42.667-42.667-42.667h-384C19.146,42.667,0,61.802,0,85.333v85.333
	c0,12.805,5.786,24.174,14.746,32C5.786,210.492,0,221.862,0,234.667V320c0,23.531,19.146,42.667,42.667,42.667h278.656
	c4.641,50.568,23.988,74.841,90.177,105.667c1.427,0.667,2.958,1,4.5,1c1.542,0,3.073-0.333,4.5-1
	c79.49-37.021,91.5-64.448,91.5-139.521v-55.656C512,268.542,509.031,264.448,504.635,263.01z"/>
<g>
</g>
<g>
</g>
<g>
</g>
<g>
</g>
<g>
</g>
<g>
</g>
<g>
</g>
<g>
</g>
<g>
</g>
<g>
</g>
<g>
</g>
<g>
</g>
<g>
</g>
<g>
</g>
<g>
</g>
</svg>
