<?xml version="1.0" encoding="iso-8859-1"?>
<!-- Generator: Adobe Illustrator 19.0.0, SVG Export Plug-In . SVG Version: 6.00 Build 0)  -->
<svg version="1.1" id="Layer_1" xmlns="http://www.w3.org/2000/svg" xmlns:xlink="http://www.w3.org/1999/xlink" x="0px" y="0px"
	 viewBox="0 0 512 512" style="enable-background:new 0 0 512 512;" xml:space="preserve">
<rect x="14" y="176.331" style="fill:#656D78;" width="358" height="212.67"/>
<polygon style="fill:#434A54;" points="317,137.001 79,137.001 27,166.001 27,176.329 372,176.329 "/>
<path style="fill:#FC6E51;" d="M394.406,128.673l-46.141-26.328l-67.453,34.906c0,0-74.531,17.75-76.898,17.75l9.461,75.734
	l28.398,69.797l33.133,52.656L350.813,423l12.625-13.609l63.5-66.25l66.266-104.125l7.109-84.016L394.406,128.673z"/>
<path d="M85.336,224.001c0-5.891-4.781-10.656-10.672-10.656c-2.945,0-5.609,1.188-7.539,3.125l-21.336,21.313
	c-1.93,1.938-3.125,4.609-3.125,7.563c0,5.875,4.781,10.656,10.672,10.656c2.945,0,5.609-1.188,7.539-3.125l21.328-21.328
	C84.141,229.626,85.336,226.939,85.336,224.001z"/>
<path d="M128,224.001c0-5.891-4.773-10.656-10.672-10.656c-2.938,0-5.609,1.188-7.539,3.125l-21.336,21.313
	c-1.93,1.938-3.117,4.609-3.117,7.563C85.336,251.219,90.109,256,96,256c2.945,0,5.609-1.188,7.547-3.125l21.328-21.328
	C126.805,229.626,128,226.939,128,224.001z"/>
<path d="M170.664,224.001c0-5.891-4.773-10.656-10.664-10.656c-2.945,0-5.617,1.188-7.547,3.125l-21.328,21.313
	c-1.93,1.938-3.125,4.609-3.125,7.563c0,5.875,4.773,10.656,10.664,10.656c2.945,0,5.617-1.188,7.547-3.125l21.328-21.328
	C169.469,229.626,170.664,226.939,170.664,224.001z"/>
<path d="M85.336,330.656c0-5.875-4.781-10.656-10.672-10.656c-2.945,0-5.609,1.188-7.539,3.125l-21.328,21.328
	c-1.938,1.922-3.133,4.609-3.133,7.547c0,5.891,4.781,10.656,10.672,10.656c2.945,0,5.609-1.188,7.539-3.125l21.328-21.313
	C84.141,336.281,85.336,333.609,85.336,330.656z"/>
<path d="M128,330.656c0-5.875-4.773-10.656-10.672-10.656c-2.945,0-5.609,1.188-7.539,3.125l-21.328,21.328
	c-1.93,1.922-3.125,4.609-3.125,7.547c0,5.891,4.773,10.656,10.664,10.656c2.945,0,5.609-1.188,7.547-3.125l21.328-21.313
	C126.805,336.281,128,333.609,128,330.656z"/>
<path d="M160,320c-2.945,0-5.617,1.188-7.547,3.125l-21.328,21.328c-1.93,1.922-3.125,4.609-3.125,7.547
	c0,5.891,4.773,10.656,10.664,10.656c2.945,0,5.617-1.188,7.547-3.125l21.328-21.313c1.93-1.938,3.125-4.609,3.125-7.563
	C170.664,324.781,165.891,320,160,320z"/>
<path d="M512,148.032l-0.063-1.094c0-3.406-2.781-6.219-6.172-6.219c-28.141-1.063-98.734-8.406-149.547-53.672l-1-0.563
	l0.031-0.203c-0.969-0.594-2.125-0.938-3.281-0.938c-1.469,0-2.969,0.594-4.125,1.641c-22.891,20.422-49.813,33.109-75.031,41.016
	H64L0,170.657v234.688h322.063c8.813,7.438,17.672,14.203,26.438,20.25c1.047,0.719,2.281,1.063,3.5,1.063s2.438-0.344,3.484-1.063
	l0.984-0.656c8.469-5.875,16.984-12.438,25.469-19.594H384v-1.75C447.625,349.031,508.156,259.375,512,148.032z M70.461,149.344
	h121.57c0.281,7.188,0.805,14.313,1.547,21.313H38.461L70.461,149.344z M21.336,192.001h175.211
	c5.281,30.531,14.727,59.094,27.023,85.344H21.336V192.001z M21.336,384v-85.344h213.109c18.148,32.875,40.617,61.563,64.43,85.344
	H21.336z M352,401.875c-34.344-25.516-65.75-59.641-89.203-97.063c-14.547-23.25-26.102-47.734-34.344-72.813
	c-7.602-23.156-12.414-46.938-14.352-70.906c15.445-1.359,34.984-4.219,56.141-10.094c31.633-8.781,59.07-22.125,81.758-39.734
	c22.688,17.625,50.125,30.984,81.797,39.75c21.109,5.844,40.641,8.703,56.094,10.063C481.156,269.516,415.188,354.922,352,401.875z"
	/>
<path d="M352.109,170.657c-5.891,0-10.672,4.781-10.672,10.688l0,0v149.313l0,0c0,5.906,4.781,10.688,10.672,10.688
	s10.672-4.781,10.672-10.688l0,0l0,0V181.344l0,0C362.781,175.439,358,170.657,352.109,170.657z"/>
<g>
</g>
<g>
</g>
<g>
</g>
<g>
</g>
<g>
</g>
<g>
</g>
<g>
</g>
<g>
</g>
<g>
</g>
<g>
</g>
<g>
</g>
<g>
</g>
<g>
</g>
<g>
</g>
<g>
</g>
</svg>
