<?xml version="1.0" encoding="iso-8859-1"?>
<!-- Generator: Adobe Illustrator 19.0.0, SVG Export Plug-In . SVG Version: 6.00 Build 0)  -->
<svg version="1.1" id="Capa_1" xmlns="http://www.w3.org/2000/svg" xmlns:xlink="http://www.w3.org/1999/xlink" x="0px" y="0px"
	 viewBox="0 0 512 512" style="enable-background:new 0 0 512 512;" xml:space="preserve">
<path style="fill:#303C42;" d="M298.667,246.538V64c0-23.531-19.135-42.667-42.667-42.667S213.333,40.469,213.333,64v182.538
	c-25.382,14.803-42.667,42.021-42.667,73.462s17.285,58.659,42.667,73.462V448c0,23.531,19.135,42.667,42.667,42.667
	s42.667-19.135,42.667-42.667v-54.538c25.382-14.803,42.667-42.021,42.667-73.462S324.048,261.341,298.667,246.538z"/>
<g>
	<path style="fill:#5C6671;" d="M234.667,64c0-11.76,9.573-21.333,21.333-21.333c11.76,0,21.333,9.573,21.333,21.333v173.697
		c-6.859-1.783-13.924-3.03-21.333-3.03c-7.409,0-14.474,1.247-21.333,3.03V64z"/>
	<path style="fill:#5C6671;" d="M277.333,448c0,11.76-9.573,21.333-21.333,21.333c-11.76,0-21.333-9.573-21.333-21.333v-45.697
		c6.859,1.783,13.924,3.03,21.333,3.03c7.409,0,14.474-1.247,21.333-3.03V448z"/>
</g>
<path style="fill:#303C42;" d="M170.667,149.333c0-31.441-17.285-58.659-42.667-73.462V64c0-23.531-19.135-42.667-42.667-42.667
	S42.667,40.469,42.667,64v11.871C17.285,90.674,0,117.892,0,149.333s17.285,58.659,42.667,73.462V448
	c0,23.531,19.135,42.667,42.667,42.667S128,471.531,128,448V222.796C153.382,207.992,170.667,180.775,170.667,149.333z"/>
<g>
	<path style="fill:#5C6671;" d="M64,64c0-11.76,9.573-21.333,21.333-21.333S106.667,52.24,106.667,64v3.03
		C99.807,65.247,92.742,64,85.333,64S70.859,65.247,64,67.03V64z"/>
	<path style="fill:#5C6671;" d="M106.667,448c0,11.76-9.573,21.333-21.333,21.333S64,459.76,64,448V231.637
		c6.859,1.783,13.924,3.03,21.333,3.03s14.474-1.247,21.333-3.03V448z"/>
</g>
<path style="fill:#303C42;" d="M512,192c0-31.441-17.285-58.659-42.667-73.462V64c0-23.531-19.135-42.667-42.667-42.667
	S384,40.469,384,64v54.538c-25.382,14.803-42.667,42.021-42.667,73.462s17.285,58.659,42.667,73.462V448
	c0,23.531,19.135,42.667,42.667,42.667s42.667-19.135,42.667-42.667V265.462C494.715,250.659,512,223.441,512,192z"/>
<path style="fill:#5C6671;" d="M405.333,64c0-11.76,9.573-21.333,21.333-21.333C438.427,42.667,448,52.24,448,64v45.697
	c-6.859-1.783-13.924-3.03-21.333-3.03c-7.409,0-14.474,1.247-21.333,3.03V64z"/>
<circle style="fill:#FF8F00;" cx="426.667" cy="192" r="64"/>
<path style="fill:#5C6671;" d="M448,448c0,11.76-9.573,21.333-21.333,21.333c-11.76,0-21.333-9.573-21.333-21.333V274.303
	c6.859,1.783,13.924,3.03,21.333,3.03c7.409,0,14.474-1.247,21.333-3.03V448z"/>
<linearGradient id="SVGID_1_" gradientUnits="userSpaceOnUse" x1="-43.3844" y1="635.9453" x2="-41.0223" y2="633.5842" gradientTransform="matrix(21.3333 0 0 -21.3333 996.3334 13791.667)">
	<stop  offset="0" style="stop-color:#000000;stop-opacity:0.1"/>
	<stop  offset="1" style="stop-color:#000000;stop-opacity:0"/>
</linearGradient>
<path style="fill:url(#SVGID_1_);" d="M64,231.637v15.431l42.667,42.667v-58.098c-6.859,1.783-13.924,3.03-21.333,3.03
	S70.859,233.419,64,231.637z"/>
<linearGradient id="SVGID_2_" gradientUnits="userSpaceOnUse" x1="-35.3888" y1="627.9407" x2="-33.1498" y2="625.7018" gradientTransform="matrix(21.3333 0 0 -21.3333 996.3334 13791.667)">
	<stop  offset="0" style="stop-color:#000000;stop-opacity:0.1"/>
	<stop  offset="1" style="stop-color:#000000;stop-opacity:0"/>
</linearGradient>
<path style="fill:url(#SVGID_2_);" d="M234.667,402.303v15.844l39.842,39.842c1.645-3.023,2.824-6.315,2.824-9.99v-45.697
	c-6.859,1.783-13.924,3.03-21.333,3.03C248.591,405.333,241.526,404.086,234.667,402.303z"/>
<path style="opacity:0.1;enable-background:new    ;" d="M459.811,137.522c5.923,9.699,9.522,20.971,9.522,33.145
	c0,35.292-28.708,64-64,64c-12.173,0-23.444-3.6-33.143-9.523C383.439,243.563,403.548,256,426.667,256c35.292,0,64-28.708,64-64
	C490.667,168.882,478.23,148.771,459.811,137.522z"/>
<linearGradient id="SVGID_3_" gradientUnits="userSpaceOnUse" x1="-27.3901" y1="633.9395" x2="-25.0165" y2="631.567" gradientTransform="matrix(21.3333 0 0 -21.3333 996.3334 13791.667)">
	<stop  offset="0" style="stop-color:#000000;stop-opacity:0.1"/>
	<stop  offset="1" style="stop-color:#000000;stop-opacity:0"/>
</linearGradient>
<path style="fill:url(#SVGID_3_);" d="M405.333,274.303v15.922L448,332.892v-58.589c-6.859,1.783-13.924,3.03-21.333,3.03
	C419.258,277.333,412.193,276.086,405.333,274.303z"/>
<circle style="fill:#FF8F00;" cx="256" cy="320" r="64"/>
<path style="opacity:0.1;enable-background:new    ;" d="M289.145,265.522c5.923,9.699,9.522,20.971,9.522,33.145
	c0,35.292-28.708,64-64,64c-12.173,0-23.444-3.6-33.143-9.523C212.772,371.563,232.882,384,256,384c35.292,0,64-28.708,64-64
	C320,296.882,307.564,276.771,289.145,265.522z"/>
<circle style="fill:#FF8F00;" cx="85.333" cy="149.333" r="64"/>
<path style="opacity:0.1;enable-background:new    ;" d="M118.478,94.855C124.401,104.555,128,115.827,128,128
	c0,35.292-28.708,64-64,64c-12.173,0-23.444-3.6-33.143-9.523c11.249,18.419,31.358,30.857,54.477,30.857c35.292,0,64-28.708,64-64
	C149.333,126.215,136.897,106.104,118.478,94.855z"/>
<linearGradient id="SVGID_4_" gradientUnits="userSpaceOnUse" x1="-46.8098" y1="640.1296" x2="-22.8722" y2="628.9677" gradientTransform="matrix(21.3333 0 0 -21.3333 996.3334 13791.667)">
	<stop  offset="0" style="stop-color:#FFFFFF;stop-opacity:0.2"/>
	<stop  offset="1" style="stop-color:#FFFFFF;stop-opacity:0"/>
</linearGradient>
<path style="fill:url(#SVGID_4_);" d="M298.667,246.538V64c0-23.531-19.135-42.667-42.667-42.667S213.333,40.469,213.333,64v182.538
	c-25.382,14.803-42.667,42.021-42.667,73.462s17.285,58.659,42.667,73.462V448c0,23.531,19.135,42.667,42.667,42.667
	s42.667-19.135,42.667-42.667v-54.538c25.382-14.803,42.667-42.021,42.667-73.462S324.048,261.341,298.667,246.538z M128,75.871V64
	c0-23.531-19.135-42.667-42.667-42.667S42.667,40.469,42.667,64v11.871C17.285,90.674,0,117.892,0,149.333
	s17.285,58.659,42.667,73.462V448c0,23.531,19.135,42.667,42.667,42.667S128,471.531,128,448V222.796
	c25.382-14.803,42.667-42.021,42.667-73.462S153.382,90.674,128,75.871z M469.333,118.538V64c0-23.531-19.135-42.667-42.667-42.667
	S384,40.469,384,64v54.538c-25.382,14.803-42.667,42.021-42.667,73.462s17.285,58.659,42.667,73.462V448
	c0,23.531,19.135,42.667,42.667,42.667s42.667-19.135,42.667-42.667V265.462C494.715,250.659,512,223.441,512,192
	S494.715,133.341,469.333,118.538z"/>
<g>
</g>
<g>
</g>
<g>
</g>
<g>
</g>
<g>
</g>
<g>
</g>
<g>
</g>
<g>
</g>
<g>
</g>
<g>
</g>
<g>
</g>
<g>
</g>
<g>
</g>
<g>
</g>
<g>
</g>
</svg>
