<?xml version="1.0" encoding="iso-8859-1"?>
<!-- Generator: Adobe Illustrator 19.0.0, SVG Export Plug-In . SVG Version: 6.00 Build 0)  -->
<svg version="1.1" id="Capa_1" xmlns="http://www.w3.org/2000/svg" xmlns:xlink="http://www.w3.org/1999/xlink" x="0px" y="0px"
	 viewBox="0 0 512.005 512.005" style="enable-background:new 0 0 512.005 512.005;" xml:space="preserve">
<path style="fill:#303C42;" d="M440.888,64.609l-181.333-64c-2.292-0.812-4.813-0.812-7.104,0l-181.333,64
	c-4.26,1.51-7.115,5.542-7.115,10.063v128c0,165.646,24.563,226.188,187.198,308.188c1.51,0.76,3.156,1.146,4.802,1.146
	c1.646,0,3.292-0.385,4.802-1.146c162.635-82,187.198-142.542,187.198-308.188v-128C448.003,70.151,445.148,66.12,440.888,64.609z"
	/>
<path style="fill:#94DAFA;" d="M256.003,21.984L85.336,82.224v120.448c0,19.303,0.318,36.962,1.115,53.328h169.552V21.984z"/>
<path style="fill:#29B6F6;" d="M425.555,256c0.797-16.366,1.115-34.025,1.115-53.328V82.224l-170.667-60.24V256H425.555z"/>
<path style="fill:#94DAFA;" d="M256.003,256v233.38C388.137,422.014,419.801,374.145,425.555,256H256.003z"/>
<path style="fill:#29B6F6;" d="M86.451,256c5.754,118.145,37.418,166.014,169.552,233.38V256H86.451z"/>
<path style="opacity:0.1;enable-background:new    ;" d="M256.003,437.333C105.565,360.635,85.336,341.286,85.336,182.63v20.042
	c0,158.656,20.229,210.01,170.667,286.708c150.438-76.698,170.667-128.052,170.667-286.708V182.63
	C426.669,341.286,406.44,360.635,256.003,437.333z"/>
<path style="fill:#303C42;" d="M245.336,138.672v11.746c-24.314,4.956-42.667,26.5-42.667,52.254
	c0,29.406,23.927,53.333,53.333,53.333c17.646,0,32,14.354,32,32s-14.354,32-32,32h-42.667c-5.896,0-10.667,4.771-10.667,10.667
	c0,5.896,4.771,10.667,10.667,10.667h32v10.667c0,5.896,4.771,10.667,10.667,10.667c5.896,0,10.667-4.771,10.667-10.667v-11.746
	c24.314-4.956,42.667-26.5,42.667-52.254c0-29.406-23.927-53.333-53.333-53.333c-17.646,0-32-14.354-32-32s14.354-32,32-32h42.667
	c5.896,0,10.667-4.771,10.667-10.667c0-5.896-4.771-10.667-10.667-10.667h-32v-10.667c0-5.896-4.771-10.667-10.667-10.667
	C250.107,128.005,245.336,132.776,245.336,138.672z"/>
<linearGradient id="SVGID_1_" gradientUnits="userSpaceOnUse" x1="-45.2066" y1="639.8678" x2="-25.9781" y2="630.9016" gradientTransform="matrix(21.3333 0 0 -21.3333 996.2804 13791.7256)">
	<stop  offset="0" style="stop-color:#FFFFFF;stop-opacity:0.2"/>
	<stop  offset="1" style="stop-color:#FFFFFF;stop-opacity:0"/>
</linearGradient>
<path style="fill:url(#SVGID_1_);" d="M440.888,64.609l-181.333-64c-2.292-0.812-4.813-0.812-7.104,0l-181.333,64
	c-4.26,1.51-7.115,5.542-7.115,10.063v128c0,165.646,24.563,226.188,187.198,308.188c1.51,0.76,3.156,1.146,4.802,1.146
	c1.646,0,3.292-0.385,4.802-1.146c162.635-82,187.198-142.542,187.198-308.188v-128C448.003,70.151,445.148,66.12,440.888,64.609z"
	/>
<g>
</g>
<g>
</g>
<g>
</g>
<g>
</g>
<g>
</g>
<g>
</g>
<g>
</g>
<g>
</g>
<g>
</g>
<g>
</g>
<g>
</g>
<g>
</g>
<g>
</g>
<g>
</g>
<g>
</g>
</svg>
