<?xml version="1.0" encoding="iso-8859-1"?>
<!-- Generator: Adobe Illustrator 19.0.0, SVG Export Plug-In . SVG Version: 6.00 Build 0)  -->
<svg version="1.1" id="Capa_1" xmlns="http://www.w3.org/2000/svg" xmlns:xlink="http://www.w3.org/1999/xlink" x="0px" y="0px"
	 viewBox="0 0 512 512" style="enable-background:new 0 0 512 512;" xml:space="preserve">
<path style="fill:#303C42;" d="M448,373.333c-20.827,0-64,11.598-85.885,17.885c-2.904-30.609-42.125-41.444-82.656-49.677
	c-18.5-3.75-32.271-10.385-45.583-16.813c-16.417-7.917-31.917-15.396-52.542-15.396c-23.618,0-45.142,4.831-57.288,8.173
	c-3.211-11.172-12.32-20.177-24.421-22.59L12.75,277.542c-3.125-0.625-6.375,0.188-8.854,2.208C1.438,281.781,0,284.802,0,288
	v170.667c0,5.896,4.771,10.667,10.667,10.667H77.5c13.172,0,24.397-8.379,29.223-20.142C130.625,460.586,241.081,512,288,512
	c41.375,0,126.563-41.875,182.917-69.583c14.688-7.219,26.833-13.198,34.708-16.646C509.5,424.063,512,420.229,512,416
	C512,390.875,485.688,373.333,448,373.333z"/>
<path style="fill:#8D6E63;" d="M461.5,423.271c-51.271,25.208-137.083,67.396-173.5,67.396c-38.792,0-140.688-45.427-176.667-62.927
	c-0.04-0.02-0.085-0.013-0.125-0.031l12.551-87.904c7.772-2.431,31.518-9.138,57.574-9.138c15.75,0,27.896,5.865,43.292,13.281
	c13.813,6.667,29.479,14.219,50.583,18.51c46.354,9.396,66.125,19.031,66.125,32.208c0,2.604-0.792,4.208-2.813,5.719
	c-6.792,5.073-33.271,13.594-132.813-15.948c-5.729-1.646-11.604,1.552-13.271,7.198c-1.667,5.646,1.542,11.583,7.188,13.26
	c49.146,14.563,86.708,21.823,113.333,21.823c17.354,0,30.083-3.083,38.313-9.24c0.708-0.529,3.203-1.74,3.875-1.948
	C374,409.729,427.438,394.667,448,394.667c17.396,0,35.708,5.281,41.083,15.208C481.646,413.375,472.25,418,461.5,423.271z"/>
<linearGradient id="SVGID_1_" gradientUnits="userSpaceOnUse" x1="-42.0636" y1="629.3014" x2="-35.2037" y2="622.4414" gradientTransform="matrix(21.3333 0 0 -21.3333 996.3334 13791.667)">
	<stop  offset="0" style="stop-color:#000000;stop-opacity:0.1"/>
	<stop  offset="1" style="stop-color:#000000;stop-opacity:0"/>
</linearGradient>
<path style="fill:url(#SVGID_1_);" d="M123.428,342.117l-12.22,85.591c0.04,0.018,0.085,0.012,0.125,0.031
	c31.271,15.21,112.292,51.483,158.441,60.724L123.428,342.117z"/>
<path style="fill:#303C42;" d="M504.979,43.307L387.646,0.641c-2.354-0.854-4.938-0.854-7.292,0L263.021,43.307
	C258.802,44.839,256,48.839,256,53.328v74.667c0,109.625,19.594,139.958,123.292,190.906c1.49,0.729,3.094,1.094,4.708,1.094
	c1.615,0,3.219-0.365,4.708-1.094C492.406,267.953,512,237.62,512,127.995V53.328C512,48.839,509.198,44.839,504.979,43.307z"/>
<path style="fill:#1E88E5;" d="M384,22.016L277.333,60.797v67.198c0,11.691,0.22,22.249,0.707,32.005H384V22.016z"/>
<path style="fill:#01579B;" d="M489.96,160c0.487-9.757,0.707-20.314,0.707-32.005V60.797L384,22.016V160H489.96z"/>
<path style="fill:#1E88E5;" d="M384,160v137.432C465.757,256.816,486.273,233.743,489.96,160H384z"/>
<path style="fill:#01579B;" d="M278.04,160c3.686,73.743,24.203,96.816,105.96,137.432V160H278.04z"/>
<path style="opacity:0.1;enable-background:new    ;" d="M489.96,139.901c-0.361,7.204-0.941,13.798-1.664,20.099
	C481.621,218.193,457.77,230.018,384,266.667C310.23,230.018,286.379,218.193,279.704,160c-0.723-6.301-1.303-12.895-1.664-20.099
	c-0.487-9.757-0.707-20.314-0.707-32.005v20.099c0,11.691,0.22,22.249,0.707,32.005c3.686,73.743,24.203,96.816,105.96,137.432
	C465.757,256.816,486.273,233.743,489.96,160c0.487-9.757,0.707-20.314,0.707-32.005v-20.099
	C490.667,119.587,490.447,130.145,489.96,139.901z"/>
<path style="fill:#29B6F6;" d="M77.5,448H21.333V301.01l74.125,14.823c5.542,1.115,9.271,6.365,8.458,11.969L88.063,438.844
	C87.313,444.063,82.771,448,77.5,448z"/>
<path style="opacity:0.1;enable-background:new    ;" d="M21.333,373.333V448H77.5c5.271,0,9.813-3.938,10.563-9.156l9.353-65.51
	H21.333z"/>
<linearGradient id="SVGID_2_" gradientUnits="userSpaceOnUse" x1="-44.0278" y1="638.8325" x2="-21.9313" y2="628.5287" gradientTransform="matrix(21.3333 0 0 -21.3333 996.3334 13791.667)">
	<stop  offset="0" style="stop-color:#FFFFFF;stop-opacity:0.2"/>
	<stop  offset="1" style="stop-color:#FFFFFF;stop-opacity:0"/>
</linearGradient>
<path style="fill:url(#SVGID_2_);" d="M448,373.333c-20.827,0-64,11.598-85.885,17.885c-2.904-30.609-42.125-41.444-82.656-49.677
	c-18.5-3.75-32.271-10.385-45.583-16.813c-16.417-7.917-31.917-15.396-52.542-15.396c-23.618,0-45.142,4.831-57.288,8.173
	c-3.211-11.172-12.32-20.177-24.421-22.59L12.75,277.542c-3.125-0.625-6.375,0.188-8.854,2.208C1.438,281.781,0,284.802,0,288
	v170.667c0,5.896,4.771,10.667,10.667,10.667H77.5c13.172,0,24.397-8.379,29.223-20.142C130.625,460.586,241.081,512,288,512
	c41.375,0,126.563-41.875,182.917-69.583c14.688-7.219,26.833-13.198,34.708-16.646C509.5,424.063,512,420.229,512,416
	C512,390.875,485.688,373.333,448,373.333z M504.979,43.307L387.646,0.641c-2.354-0.854-4.938-0.854-7.292,0L263.021,43.307
	C258.802,44.839,256,48.839,256,53.328v74.667c0,109.625,19.594,139.958,123.292,190.906c1.49,0.729,3.094,1.094,4.708,1.094
	c1.615,0,3.219-0.365,4.708-1.094C492.406,267.953,512,237.62,512,127.995V53.328C512,48.839,509.198,44.839,504.979,43.307z"/>
<g>
</g>
<g>
</g>
<g>
</g>
<g>
</g>
<g>
</g>
<g>
</g>
<g>
</g>
<g>
</g>
<g>
</g>
<g>
</g>
<g>
</g>
<g>
</g>
<g>
</g>
<g>
</g>
<g>
</g>
</svg>
