<?xml version="1.0" encoding="iso-8859-1"?>
<!-- Generator: Adobe Illustrator 19.0.0, SVG Export Plug-In . SVG Version: 6.00 Build 0)  -->
<svg version="1.1" id="Capa_1" xmlns="http://www.w3.org/2000/svg" xmlns:xlink="http://www.w3.org/1999/xlink" x="0px" y="0px"
	 viewBox="0 0 512 512" style="enable-background:new 0 0 512 512;" xml:space="preserve">
<path style="fill:#303C42;" d="M405.333,384h-1.759l-29.928-164.594c-7.396-40.604-42.688-70.073-83.958-70.073h-67.375
	c-41.271,0-76.563,29.469-83.958,70.073L108.426,384h-1.759C83.146,384,64,403.135,64,426.667V448
	c0,23.531,19.146,42.667,42.667,42.667h298.667C428.854,490.667,448,471.531,448,448v-21.333C448,403.135,428.854,384,405.333,384z"
	/>
<path style="fill:#FF8F00;" d="M159.354,223.219c5.542-30.448,32.021-52.552,62.958-52.552h67.375
	c30.938,0,57.417,22.104,62.958,52.552L381.896,384H130.104L159.354,223.219z"/>
<path style="opacity:0.2;fill:#FFFFFF;enable-background:new    ;" d="M238.875,170.667h-16.563
	c-30.938,0-57.417,22.104-62.958,52.552L130.104,384H192l14.87-160.781C209.686,192.771,223.147,170.667,238.875,170.667z"/>
<path style="opacity:0.1;enable-background:new    ;" d="M352.646,223.219c-5.542-30.448-32.021-52.552-62.958-52.552h-16.563
	c15.728,0,29.189,22.104,32.005,52.552L320,384h61.896L352.646,223.219z"/>
<path style="fill:#78909C;" d="M426.667,448c0,11.76-9.563,21.333-21.333,21.333H106.667c-11.771,0-21.333-9.573-21.333-21.333
	v-21.333c0-11.76,9.563-21.333,21.333-21.333h10.667h277.333h10.667c11.771,0,21.333,9.573,21.333,21.333V448z"/>
<g>
	<path style="fill:#303C42;" d="M85.333,277.333c0-5.896-4.771-10.667-10.667-10.667h-64C4.771,266.667,0,271.438,0,277.333
		S4.771,288,10.667,288h64C80.563,288,85.333,283.229,85.333,277.333z"/>
	<path style="fill:#303C42;" d="M501.333,266.667h-64c-5.896,0-10.667,4.771-10.667,10.667S431.438,288,437.333,288h64
		c5.896,0,10.667-4.771,10.667-10.667S507.229,266.667,501.333,266.667z"/>
	<path style="fill:#303C42;" d="M413.042,197.333c1.813,0,3.646-0.458,5.333-1.427l55.417-32c5.104-2.948,6.854-9.469,3.896-14.573
		c-2.938-5.135-9.458-6.854-14.563-3.906l-55.417,32c-5.104,2.948-6.854,9.469-3.896,14.573
		C405.771,195.427,409.375,197.333,413.042,197.333z"/>
	<path style="fill:#303C42;" d="M341.333,129.531c1.688,0.969,3.521,1.427,5.333,1.427c3.667,0,7.271-1.917,9.229-5.333l32-55.427
		c2.958-5.104,1.208-11.625-3.896-14.573c-5.083-2.927-11.625-1.188-14.563,3.906l-32,55.427
		C334.479,120.063,336.229,126.583,341.333,129.531z"/>
	<path style="fill:#303C42;" d="M256,106.667c5.896,0,10.667-4.771,10.667-10.667V32c0-5.896-4.771-10.667-10.667-10.667
		c-5.896,0-10.667,4.771-10.667,10.667v64C245.333,101.896,250.104,106.667,256,106.667z"/>
	<path style="fill:#303C42;" d="M156.104,125.625c1.958,3.427,5.563,5.333,9.229,5.333c1.813,0,3.646-0.458,5.333-1.427
		c5.104-2.948,6.854-9.469,3.896-14.573l-32-55.427c-2.938-5.125-9.479-6.865-14.563-3.906c-5.104,2.948-6.854,9.469-3.896,14.573
		L156.104,125.625z"/>
	<path style="fill:#303C42;" d="M38.208,163.906l55.417,32c1.688,0.969,3.521,1.427,5.333,1.427c3.667,0,7.271-1.906,9.229-5.333
		c2.958-5.104,1.208-11.625-3.896-14.573l-55.417-32c-5.104-2.917-11.646-1.208-14.563,3.906
		C31.354,154.438,33.104,160.958,38.208,163.906z"/>
</g>
<path style="opacity:0.1;enable-background:new    ;" d="M85.333,437.333V448c0,11.76,9.563,21.333,21.333,21.333h298.667
	c11.771,0,21.333-9.573,21.333-21.333v-10.667H85.333z"/>
<linearGradient id="SVGID_1_" gradientUnits="userSpaceOnUse" x1="-45.5917" y1="638.4236" x2="-24.1301" y2="628.4138" gradientTransform="matrix(21.3333 0 0 -21.3333 996.3334 13791.667)">
	<stop  offset="0" style="stop-color:#FFFFFF;stop-opacity:0.2"/>
	<stop  offset="1" style="stop-color:#FFFFFF;stop-opacity:0"/>
</linearGradient>
<path style="fill:url(#SVGID_1_);" d="M405.333,384h-1.759l-29.928-164.594c-7.396-40.604-42.688-70.073-83.958-70.073h-67.375
	c-41.271,0-76.563,29.469-83.958,70.073L108.426,384h-1.759C83.146,384,64,403.135,64,426.667V448
	c0,23.531,19.146,42.667,42.667,42.667h298.667C428.854,490.667,448,471.531,448,448v-21.333C448,403.135,428.854,384,405.333,384z
	 M85.333,277.333c0-5.896-4.771-10.667-10.667-10.667h-64C4.771,266.667,0,271.438,0,277.333S4.771,288,10.667,288h64
	C80.563,288,85.333,283.229,85.333,277.333z M501.333,266.667h-64c-5.896,0-10.667,4.771-10.667,10.667S431.438,288,437.333,288h64
	c5.896,0,10.667-4.771,10.667-10.667S507.229,266.667,501.333,266.667z M413.042,197.333c1.813,0,3.646-0.458,5.333-1.427l55.417-32
	c5.104-2.948,6.854-9.469,3.896-14.573c-2.938-5.135-9.458-6.854-14.563-3.906l-55.417,32c-5.104,2.948-6.854,9.469-3.896,14.573
	C405.771,195.427,409.375,197.333,413.042,197.333z M341.333,129.531c1.688,0.969,3.521,1.427,5.333,1.427
	c3.667,0,7.271-1.917,9.229-5.333l32-55.427c2.958-5.104,1.208-11.625-3.896-14.573c-5.083-2.927-11.625-1.188-14.563,3.906
	l-32,55.427C334.479,120.063,336.229,126.583,341.333,129.531z M256,106.667c5.896,0,10.667-4.771,10.667-10.667V32
	c0-5.896-4.771-10.667-10.667-10.667c-5.896,0-10.667,4.771-10.667,10.667v64C245.333,101.896,250.104,106.667,256,106.667z
	 M156.104,125.625c1.958,3.427,5.563,5.333,9.229,5.333c1.813,0,3.646-0.458,5.333-1.427c5.104-2.948,6.854-9.469,3.896-14.573
	l-32-55.427c-2.938-5.125-9.479-6.865-14.563-3.906c-5.104,2.948-6.854,9.469-3.896,14.573L156.104,125.625z M38.208,163.906
	l55.417,32c1.688,0.969,3.521,1.427,5.333,1.427c3.667,0,7.271-1.906,9.229-5.333c2.958-5.104,1.208-11.625-3.896-14.573l-55.417-32
	c-5.104-2.917-11.646-1.208-14.563,3.906C31.354,154.438,33.104,160.958,38.208,163.906z"/>
<g>
</g>
<g>
</g>
<g>
</g>
<g>
</g>
<g>
</g>
<g>
</g>
<g>
</g>
<g>
</g>
<g>
</g>
<g>
</g>
<g>
</g>
<g>
</g>
<g>
</g>
<g>
</g>
<g>
</g>
</svg>
