<?xml version="1.0" encoding="iso-8859-1"?>
<!-- Generator: Adobe Illustrator 19.0.0, SVG Export Plug-In . SVG Version: 6.00 Build 0)  -->
<svg version="1.1" id="Capa_1" xmlns="http://www.w3.org/2000/svg" xmlns:xlink="http://www.w3.org/1999/xlink" x="0px" y="0px"
	 viewBox="0 0 388.8 388.8" style="enable-background:new 0 0 388.8 388.8;" xml:space="preserve">
<path style="fill:#FF5E4C;" d="M107.6,307V182.6c0-48,38.8-86.8,86.8-86.8l0,0c48,0,86.8,38.8,86.8,86.8v124.8"/>
<path style="fill:#62CAEF;" d="M339.2,341c0,18.8-15.2,34-34,34H83.6c-18.8,0-34-15.2-34-34l0,0c0-18.8,15.2-34,34-34h221.2
	C324,307,339.2,322.2,339.2,341L339.2,341z"/>
<g>
	<path style="fill:#231F20;" d="M305.2,300.6h-17.6v-118c0-51.2-41.6-93.2-93.2-93.2s-93.2,41.6-93.2,93.2V301H83.6
		c-22.4,0-40.4,18-40.4,40.4s18,40.4,40.4,40.4h221.2c22.4,0,40.4-18,40.4-40.4C345.6,319,327.2,300.6,305.2,300.6z M114,182.6
		c0-44.4,36-80.4,80.4-80.4s80.4,36,80.4,80.4v89.6H114V182.6z M114,285h160.4v15.6H114V285z M83.6,313.4h221.2
		c12.8,0,23.6,9.2,26.8,21.2H57.2C60,322.6,70.8,313.4,83.6,313.4z M305.2,368.6H83.6c-12.8,0-23.6-9.2-26.8-21.2h274.8
		C328.8,359.8,318,368.6,305.2,368.6z"/>
	<path style="fill:#231F20;" d="M194.4,69c3.6,0,6.4-2.8,6.4-6.4V13.4c0-3.6-2.8-6.4-6.4-6.4s-6.4,2.8-6.4,6.4v49.2
		C188,66.2,190.8,69,194.4,69z"/>
	<path style="fill:#231F20;" d="M62,201.4c0-3.6-2.8-6.4-6.4-6.4H6.4c-3.6,0-6.4,2.8-6.4,6.4s2.8,6.4,6.4,6.4h49.2
		C59.2,207.8,62,205,62,201.4z"/>
	<path style="fill:#231F20;" d="M84.4,116.2c1.2,1.2,2.8,1.6,4,1.6c2,0,3.6-0.8,4.8-2.4c2.4-2.8,2-6.8-0.8-9.2l-37.6-32
		c-2.8-2.4-6.8-2-9.2,0.8c-2.4,2.8-2,6.8,0.8,9.2L84.4,116.2z"/>
	<path style="fill:#231F20;" d="M306.4,125.8c1.2,0,2.8-0.4,4-1.2L350,95.4c2.8-2,3.6-6,1.2-9.2c-2-2.8-6-3.6-9.2-1.2l-39.6,29.2
		c-2.8,2-3.6,6-1.2,9.2C302.4,125,304.4,125.8,306.4,125.8z"/>
	<path style="fill:#231F20;" d="M382.4,195h-49.2c-3.6,0-6.4,2.8-6.4,6.4s2.8,6.4,6.4,6.4h49.2c3.6,0,6.4-2.8,6.4-6.4
		C388.8,197.8,386,195,382.4,195z"/>
</g>
<g>
</g>
<g>
</g>
<g>
</g>
<g>
</g>
<g>
</g>
<g>
</g>
<g>
</g>
<g>
</g>
<g>
</g>
<g>
</g>
<g>
</g>
<g>
</g>
<g>
</g>
<g>
</g>
<g>
</g>
</svg>
