<?xml version="1.0" encoding="iso-8859-1"?>
<!-- Generator: Adobe Illustrator 19.0.0, SVG Export Plug-In . SVG Version: 6.00 Build 0)  -->
<svg version="1.1" id="Capa_1" xmlns="http://www.w3.org/2000/svg" xmlns:xlink="http://www.w3.org/1999/xlink" x="0px" y="0px"
	 viewBox="0 0 512 512" style="enable-background:new 0 0 512 512;" xml:space="preserve">
<path style="fill:#303C42;" d="M496.375,139.958L372.042,15.625C361.969,5.552,348.573,0,334.323,0H177.677
	c-14.25,0-27.646,5.552-37.719,15.625L15.625,139.958C5.552,150.031,0,163.427,0,177.677v156.646
	c0,14.25,5.552,27.646,15.625,37.719l124.333,124.333C150.031,506.448,163.427,512,177.677,512h156.646
	c14.25,0,27.646-5.552,37.719-15.625l124.333-124.333C506.448,361.969,512,348.573,512,334.323V177.677
	C512,163.427,506.448,150.031,496.375,139.958z"/>
<path style="fill:#D32F2F;" d="M490.667,334.323c0,8.552-3.333,16.583-9.375,22.635L356.958,481.292
	c-6.052,6.042-14.083,9.375-22.635,9.375H177.677c-8.552,0-16.583-3.333-22.635-9.375L30.708,356.958
	c-6.042-6.052-9.375-14.083-9.375-22.635V177.677c0-8.552,3.333-16.583,9.375-22.635L155.042,30.708
	c6.052-6.042,14.083-9.375,22.635-9.375h156.646c8.552,0,16.583,3.333,22.635,9.375l124.333,124.333
	c6.042,6.052,9.375,14.083,9.375,22.635V334.323z"/>
<path style="fill:#303C42;" d="M384,128H128c-23.531,0-42.667,19.135-42.667,42.667v170.667C85.333,364.865,104.469,384,128,384h256
	c23.531,0,42.667-19.135,42.667-42.667V170.667C426.667,147.135,407.531,128,384,128z"/>
<path style="fill:#FFFFFF;" d="M384,149.333c3.003,0,5.845,0.652,8.44,1.777L267.333,252.677
	c-6.938,4.375-16.854,3.677-21.906,0.563L119.574,151.102c2.59-1.121,5.428-1.768,8.426-1.768H384z"/>
<path style="fill:#FAFAFA;" d="M405.333,341.333c0,11.76-9.573,21.333-21.333,21.333H128c-11.76,0-21.333-9.573-21.333-21.333
	V170.667c0-0.785,0.366-1.452,0.449-2.215l125.801,102.027c6.927,4.479,14.917,6.854,23.083,6.854
	c7.875,0,15.573-2.198,22.323-6.375c0.615-0.323,1.208-0.708,1.75-1.156l124.816-101.327c0.082,0.755,0.444,1.414,0.444,2.191
	V341.333z"/>
<linearGradient id="SVGID_1_" gradientUnits="userSpaceOnUse" x1="-38.1928" y1="642.0775" x2="-26.9447" y2="630.8293" gradientTransform="matrix(21.3333 0 0 -21.3333 996.3334 13791.667)">
	<stop  offset="0" style="stop-color:#000000;stop-opacity:0.1"/>
	<stop  offset="1" style="stop-color:#000000;stop-opacity:0"/>
</linearGradient>
<path style="fill:url(#SVGID_1_);" d="M384,362.667c11.76,0,21.333-9.573,21.333-21.333V170.667c0-0.777-0.362-1.436-0.444-2.191
	L280.073,269.802c-0.542,0.448-1.135,0.833-1.75,1.156c-6.75,4.177-14.448,6.375-22.323,6.375c-8.167,0-16.156-2.375-23.083-6.854
	L107.116,168.452l194.215,194.215H384z"/>
<linearGradient id="SVGID_2_" gradientUnits="userSpaceOnUse" x1="-35.7061" y1="635.4785" x2="-27.0624" y2="626.8308" gradientTransform="matrix(21.3333 0 0 -21.3333 996.3334 13791.667)">
	<stop  offset="0" style="stop-color:#000000;stop-opacity:0.1"/>
	<stop  offset="1" style="stop-color:#000000;stop-opacity:0"/>
</linearGradient>
<path style="fill:url(#SVGID_2_);" d="M417.438,144.188l-0.154,0.109c5.781,7.283,9.383,16.368,9.383,26.37v170.667
	C426.667,364.865,407.531,384,384,384H128c-11.766,0-22.432-4.784-30.158-12.509l119.176,119.176h117.305
	c8.552,0,16.583-3.333,22.635-9.375l124.333-124.333c6.042-6.052,9.375-14.083,9.375-22.635V217.602L417.438,144.188z"/>
<linearGradient id="SVGID_3_" gradientUnits="userSpaceOnUse" x1="-46.1793" y1="639.8364" x2="-23.227" y2="629.1323" gradientTransform="matrix(21.3333 0 0 -21.3333 996.3334 13791.667)">
	<stop  offset="0" style="stop-color:#FFFFFF;stop-opacity:0.2"/>
	<stop  offset="1" style="stop-color:#FFFFFF;stop-opacity:0"/>
</linearGradient>
<path style="fill:url(#SVGID_3_);" d="M496.375,139.958L372.042,15.625C361.969,5.552,348.573,0,334.323,0H177.677
	c-14.25,0-27.646,5.552-37.719,15.625L15.625,139.958C5.552,150.031,0,163.427,0,177.677v156.646
	c0,14.25,5.552,27.646,15.625,37.719l124.333,124.333C150.031,506.448,163.427,512,177.677,512h156.646
	c14.25,0,27.646-5.552,37.719-15.625l124.333-124.333C506.448,361.969,512,348.573,512,334.323V177.677
	C512,163.427,506.448,150.031,496.375,139.958z"/>
<g>
</g>
<g>
</g>
<g>
</g>
<g>
</g>
<g>
</g>
<g>
</g>
<g>
</g>
<g>
</g>
<g>
</g>
<g>
</g>
<g>
</g>
<g>
</g>
<g>
</g>
<g>
</g>
<g>
</g>
</svg>
