<?xml version="1.0" encoding="iso-8859-1"?>
<!-- Generator: Adobe Illustrator 19.0.0, SVG Export Plug-In . SVG Version: 6.00 Build 0)  -->
<svg version="1.1" id="Capa_1" xmlns="http://www.w3.org/2000/svg" xmlns:xlink="http://www.w3.org/1999/xlink" x="0px" y="0px"
	 viewBox="0 0 512 512" style="enable-background:new 0 0 512 512;" xml:space="preserve">
<circle style="fill:#303C42;" cx="256" cy="53.333" r="53.333"/>
<circle style="fill:#FAFAFA;" cx="256" cy="53.333" r="32"/>
<path style="opacity:0.1;enable-background:new    ;" d="M277.076,29.444c0.069,0.858,0.258,1.681,0.258,2.556
	c0,17.646-14.354,32-32,32c-8.105,0-15.431-3.126-21.076-8.111c1.328,16.435,14.971,29.444,31.742,29.444c17.646,0,32-14.354,32-32
	C288,43.793,283.719,35.311,277.076,29.444z"/>
<path style="fill:#303C42;" d="M329.146,213.333c12.604,0,22.854-11.063,22.854-24.667v-6.833c0-17.823-8.823-34.104-23.042-42.49
	c-17.031-10.042-43.51-22.01-72.958-22.01c-29.448,0-55.927,11.969-72.958,22.01C168.823,147.729,160,164.01,160,181.833v6.833
	c0,13.604,10.25,24.667,22.854,24.667H329.146z"/>
<path style="fill:#FAFAFA;" d="M181.333,188.667v-6.833c0-10.156,4.927-19.615,12.542-24.115
	c14.74-8.688,37.49-19.052,62.125-19.052c24.635,0,47.385,10.365,62.125,19.052c7.615,4.5,12.542,13.958,12.542,24.115v6.833
	c0,2.219-1.26,3.333-1.521,3.333H182.854C182.594,192,181.333,190.885,181.333,188.667z"/>
<path style="opacity:0.1;enable-background:new    ;" d="M318.125,157.719c-14.74-8.688-37.49-19.052-62.125-19.052
	c-1.962,0-3.809,0.434-5.743,0.559c19.165,1.451,36.699,10.497,48.327,18.493c6.527,4.5,10.75,13.958,10.75,24.115v6.833
	c0,2.219-1.081,3.333-1.303,3.333h21.116c0.26,0,1.521-1.115,1.521-3.333v-6.833C330.667,171.677,325.74,162.219,318.125,157.719z"
	/>
<g>
	<path style="fill:#303C42;" d="M282.083,339.542c1.823,1.208,3.875,1.792,5.906,1.792c3.448,0,6.833-1.667,8.885-4.75
		c3.271-4.906,1.948-11.521-2.958-14.792l-27.25-18.167v-58.292c0-5.896-4.771-10.667-10.667-10.667
		c-5.896,0-10.667,4.771-10.667,10.667v59.094l-70.938,60.813c-4.479,3.833-5,10.563-1.156,15.031
		c2.104,2.469,5.094,3.729,8.094,3.729c2.458,0,4.927-0.844,6.938-2.573l68.53-58.741L282.083,339.542z"/>
	<path style="fill:#303C42;" d="M101.333,384h37.333c5.896,0,10.667-4.771,10.667-10.667s-4.771-10.667-10.667-10.667h-21.333V352
		c0-5.896-4.771-10.667-10.667-10.667C100.771,341.333,96,346.104,96,352v11.206C77.954,365.82,64,381.242,64,400
		c0,20.583,16.75,37.333,37.333,37.333H112c8.823,0,16,7.177,16,16s-7.177,16-16,16H74.667C68.771,469.333,64,474.104,64,480
		c0,5.896,4.771,10.667,10.667,10.667H96v10.667c0,5.896,4.771,10.667,10.667,10.667c5.896,0,10.667-4.771,10.667-10.667v-11.206
		c18.046-2.615,32-18.036,32-36.794C149.333,432.75,132.583,416,112,416h-10.667c-8.823,0-16-7.177-16-16
		C85.333,391.177,92.51,384,101.333,384z"/>
	<circle style="fill:#303C42;" cx="362.667" cy="426.667" r="85.333"/>
</g>
<circle style="fill:#64B5F6;" cx="362.667" cy="426.667" r="64"/>
<path style="fill:#303C42;" d="M373.333,422.25v-27.583c0-5.896-4.771-10.667-10.667-10.667c-5.896,0-10.667,4.771-10.667,10.667v32
	c0,2.833,1.125,5.542,3.125,7.542l21.333,21.333c2.083,2.083,4.813,3.125,7.542,3.125c2.729,0,5.458-1.042,7.542-3.125
	c4.167-4.167,4.167-10.917,0-15.083L373.333,422.25z"/>
<linearGradient id="SVGID_1_" gradientUnits="userSpaceOnUse" x1="-30.0275" y1="627.5566" x2="-27.2133" y2="624.7435" gradientTransform="matrix(21.3333 0 0 -21.3333 996.3334 13791.667)">
	<stop  offset="0" style="stop-color:#000000;stop-opacity:0.1"/>
	<stop  offset="1" style="stop-color:#000000;stop-opacity:0"/>
</linearGradient>
<path style="fill:url(#SVGID_1_);" d="M371.229,388.306l-0.017,0.302c1.237,1.742,2.121,3.757,2.121,6.059v27.583l18.208,18.208
	c4.167,4.167,4.167,10.917,0,15.083c-2.083,2.083-4.813,3.125-7.542,3.125c-2.542,0-5.038-0.996-7.056-2.802l0.022,0.103
	l22.831,22.622c12.253-8.789,21.204-21.754,24.882-36.835L371.229,388.306z"/>
<linearGradient id="SVGID_2_" gradientUnits="userSpaceOnUse" x1="-41.1929" y1="635.9817" x2="-24.4925" y2="628.1945" gradientTransform="matrix(21.3333 0 0 -21.3333 996.3334 13791.667)">
	<stop  offset="0" style="stop-color:#FFFFFF;stop-opacity:0.2"/>
	<stop  offset="1" style="stop-color:#FFFFFF;stop-opacity:0"/>
</linearGradient>
<path style="fill:url(#SVGID_2_);" d="M256,106.667c29.406,0,53.333-23.927,53.333-53.333S285.406,0,256,0
	s-53.333,23.927-53.333,53.333S226.594,106.667,256,106.667z M329.146,213.333c12.604,0,22.854-11.063,22.854-24.667v-6.833
	c0-17.823-8.823-34.104-23.042-42.49c-17.031-10.042-43.51-22.01-72.958-22.01c-29.448,0-55.927,11.969-72.958,22.01
	C168.823,147.729,160,164.01,160,181.833v6.833c0,13.604,10.25,24.667,22.854,24.667H329.146z M287.99,341.333
	c3.448,0,6.833-1.667,8.885-4.75c3.271-4.906,1.948-11.521-2.958-14.792l-27.25-18.167v-58.292c0-5.896-4.771-10.667-10.667-10.667
	c-5.896,0-10.667,4.771-10.667,10.667v59.094l-70.938,60.813c-4.479,3.833-5,10.563-1.156,15.031
	c2.104,2.469,5.094,3.729,8.094,3.729c2.458,0,4.927-0.844,6.938-2.573l68.53-58.741l25.283,16.855
	C283.906,340.75,285.958,341.333,287.99,341.333z M101.333,384h37.333c5.896,0,10.667-4.771,10.667-10.667
	s-4.771-10.667-10.667-10.667h-21.333V352c0-5.896-4.771-10.667-10.667-10.667C100.771,341.333,96,346.104,96,352v11.206
	C77.954,365.82,64,381.242,64,400c0,20.583,16.75,37.333,37.333,37.333H112c8.823,0,16,7.177,16,16s-7.177,16-16,16H74.667
	C68.771,469.333,64,474.104,64,480c0,5.896,4.771,10.667,10.667,10.667H96v10.667c0,5.896,4.771,10.667,10.667,10.667
	c5.896,0,10.667-4.771,10.667-10.667v-11.206c18.046-2.615,32-18.036,32-36.794C149.333,432.75,132.583,416,112,416h-10.667
	c-8.823,0-16-7.177-16-16C85.333,391.177,92.51,384,101.333,384z M362.667,341.333c-47.052,0-85.333,38.281-85.333,85.333
	S315.615,512,362.667,512S448,473.719,448,426.667S409.719,341.333,362.667,341.333z"/>
<g>
</g>
<g>
</g>
<g>
</g>
<g>
</g>
<g>
</g>
<g>
</g>
<g>
</g>
<g>
</g>
<g>
</g>
<g>
</g>
<g>
</g>
<g>
</g>
<g>
</g>
<g>
</g>
<g>
</g>
</svg>
