<?xml version="1.0" encoding="iso-8859-1"?>
<!-- Generator: Adobe Illustrator 19.0.0, SVG Export Plug-In . SVG Version: 6.00 Build 0)  -->
<svg version="1.1" id="Layer_1" xmlns="http://www.w3.org/2000/svg" xmlns:xlink="http://www.w3.org/1999/xlink" x="0px" y="0px"
	 viewBox="0 0 511.976 511.976" style="enable-background:new 0 0 511.976 511.976;" xml:space="preserve">
<polygon style="fill:#EAC6BB;" points="346.234,148.728 332.235,132.729 309.986,117.23 227.984,135.729 115.241,203.475 
	131.99,255.987 155.238,287.469 175.237,315.718 214.735,341.31 232.734,347.716 273.489,345.966 356.984,264.97 367.983,202.975 
	"/>
<g>
	<path style="fill:#656D78;" d="M351.984,66.655l-29.342-27.999l-39.998-21.999l-51.317-3.328h-48.669l-39.998,10l13.343,17.999
		c0,0-25.998,20.655-25.998,22.655s-29.999,55.34-29.999,55.34l-19.999,62.652l14.655,29.342l124.665-79.323l66.66-15.343
		l34.654-3.328l31.998,31.998l15.343-0.672v-38.654L351.984,66.655z"/>
	<polygon style="fill:#656D78;" points="181.486,159.977 127.959,190.132 121.49,205.474 124.49,224.473 367.983,219.474 
		367.983,159.977 	"/>
</g>
<g>
	<path style="fill:#EAC6BB;" d="M216.485,192.397c0,10.453-11.312,18.921-25.249,18.921s-25.249-8.468-25.249-18.921
		s11.312-18.921,25.249-18.921S216.485,181.945,216.485,192.397z"/>
	<path style="fill:#EAC6BB;" d="M324.986,192.397c0,10.453-11.531,18.921-25.748,18.921c-14.219,0-25.749-8.468-25.749-18.921
		s11.53-18.921,25.749-18.921C313.455,173.476,324.986,181.945,324.986,192.397z"/>
	<path style="fill:#EAC6BB;" d="M338.485,344.966c0,0-4-50.498-4.5-52.997c-0.5-2.5-13.249,13.749-13.249,13.749l-37.248,33.498
		l-43.005,8.5c0,0-32.248-5-33.248-6.406s-45.247-42.092-47.497-44.842l-3.5,44.842l-17.999,16.154l13.249,17.75l58.747,30.107
		c0,0,68.503-6.609,70.003-7.109s40.248-9.25,40.248-9.25l26.498-23.498L338.485,344.966z"/>
</g>
<path style="fill:#A0D468;" d="M500.974,382.464l-26.998-48.497l-52.496-35.498l26.498-37.998h-65.996l26.998,31.233l-21.498,10.265
	l-35.498,33.498l-20.998,69.855l6.999,44.138l35.341,41.497l54.653,7.5l33.248-16.499c0,0,40.247-54.497,39.747-55.997
	S500.974,382.464,500.974,382.464z"/>
<path style="fill:#4A89DC;" d="M356.984,480.973L340.64,462.63l-9.654-24.997l-6-58.168l-25.748,16.17l-46.584,7
	c0,0-42.341-2.344-44.669-2.672s-41.998-12.327-41.998-12.327s-21.327-22.671-24.999-26.671l-99.322,38.014l-16.999,12.328
	l-10.343,32.326l-6,59.34l356.314-4.516L356.984,480.973z"/>
<path d="M485.226,333.779c-13.781-20.951-30.186-35.217-47.529-41.748l28.499-28.498c3.062-3.062,3.968-7.64,2.312-11.624
	c-1.655-4-5.53-6.594-9.842-6.594h-85.34c-0.469,0-0.906,0.031-1.343,0.094c6.343-17.358,10.093-35.716,10.093-54.387
	c0-0.359-0.031-0.703-0.031-1.078l0.031,0.031c-0.031-0.172-0.031-0.312-0.031-0.484c-0.031-4.5-0.219-8.937-0.562-13.28
	c-3.562-82.433-7.125-107.759-54.934-145.788c-28.873-22.967-63.285-30.42-95.752-30.42c-59.715,0-112.837,25.202-112.837,25.202
	l22.858,16.015c0,0-83.651,55.231-62.637,193.441c0.156,1.031,0.734,1.5,1.688,1.5c3.891,0,14.202-7.953,29.373-19.592
	c5.156,29.389,18.687,57.153,36.061,80.432l-0.25,36.967c-0.094,0.188-0.172,0.406-0.281,0.594
	c-2.781,5.438-13.655,16.905-55.45,32.842c-11.781,4.469-20.733,11.312-47.2,18.405l-1.812,0.531
	C16.202,394.309,0,416.652,0,441.868v70.104h244.516h171.466c52.934,0,95.994-43.06,95.994-95.994
	C511.974,390.322,501.724,358.824,485.226,333.779z M432.885,266.658l-16.905,16.906l-16.905-16.906H432.885z M365.764,263.533
	l28.53,28.498c-17.375,6.531-33.748,20.797-47.561,41.748c-0.5,0.781-1.031,1.578-1.531,2.375c-0.375-0.562-0.688-1.094-0.938-1.594
	c-0.125-0.188-0.188-0.406-0.281-0.594l-0.25-36.967c7.969-10.687,15.156-22.311,21.062-34.607
	C365.077,262.783,365.421,263.174,365.764,263.533z M166.378,334.123l0.094-12.78c25.67,25.405,55.028,41.31,78.042,41.31
	c23.015,0,52.38-15.904,78.066-41.31l0.062,12.78l0.031,4.5l1.781,3.938c0.156,0.344,0.438,1,0.812,1.75
	c2.125,4.155,5.312,8.062,9.187,11.732c-1.875,4.062-3.562,8.188-5.093,12.344c-18.094,12.171-46.842,25.826-84.816,25.826
	c-28.264,0-54.215-7.39-77.136-21.936c-6.984-4.453-12.624-8.938-16.858-12.688c5.734-4.671,10.359-9.749,13.187-15.248
	c0.39-0.75,0.671-1.406,0.828-1.766l1.781-3.953L166.378,334.123z M360.734,191.022c0,7.328-0.719,14.796-2.062,22.295h-28.779
	c6.624-5.625,10.623-13.062,10.623-21.327s-3.999-15.702-10.623-21.327h29.592C360.297,177.258,360.734,184.07,360.734,191.022z
	 M297.863,181.32c12.998,0,21.311,6.312,21.311,10.671c0,4.343-8.312,10.671-21.311,10.671c-13.031,0-21.344-6.328-21.344-10.671
	C276.519,187.632,284.832,181.32,297.863,181.32z M214.531,149.321c29.405-13.499,61.613-23.061,94.548-23.077
	c3.25,0,6.5,0.094,9.75,0.297l22.717,22.78H214.531z M191.189,181.32c13.015,0,21.327,6.312,21.327,10.671
	c0,4.343-8.312,10.671-21.327,10.671c-13.03,0-21.342-6.328-21.342-10.671C169.847,187.632,178.159,181.32,191.189,181.32z
	 M223.218,170.664h42.592c-6.641,5.625-10.625,13.062-10.625,21.327s3.984,15.702,10.625,21.327h-42.592
	c6.64-5.625,10.625-13.062,10.625-21.327S229.859,176.289,223.218,170.664z M353.14,234.66
	c-7.312,21.499-19.687,42.716-36.248,61.621c-12.249,13.953-25.967,25.624-39.686,33.764c-12.24,7.266-23.85,11.266-32.693,11.266
	c-8.843,0-20.452-4-32.685-11.266c-13.718-8.14-27.436-19.811-39.686-33.764c-16.577-18.904-28.951-40.122-36.248-61.621H353.14z
	 M99.726,151.853c3.64-19.218,10.093-37.044,19.139-52.965c15.046-26.436,32.561-39.06,33.764-39.904l26.514-16.952l-15.218-10.671
	c18.499-5.218,42.216-10.031,66.871-10.031c33.217,0,60.973,8.687,82.471,25.78c11.625,9.25,19.78,17.155,25.687,24.936
	c5.624,7.359,9.562,15.093,12.374,24.342c3.219,10.515,5.125,23.217,6.469,38.998l-23.843-23.905l-5.749-5.765l-8.125-0.484
	c-3.625-0.219-7.312-0.312-11-0.312c-21.279,0-43.676,3.625-66.55,10.75c-19.093,5.953-39.029,14.53-59.309,25.467
	c-35.794,19.374-66.434,42.779-86.948,58.497C95.711,182.898,96.867,166.914,99.726,151.853z M148.957,187.351
	c-0.281,1.5-0.438,3.062-0.438,4.64c0,8.265,3.984,15.702,10.625,21.327h-28.795c-0.688-3.875-1.219-7.718-1.562-11.546
	C135.052,197.131,141.801,192.272,148.957,187.351z M46.651,406.713l1.203-0.344c19.937-5.375,30.951-10.656,39.81-14.891
	c3.422-1.641,6.375-3.047,9.25-4.14c10.875-4.156,23.608-9.374,35.201-15.687c15.281,14.812,52.856,43.888,112.431,43.888
	c31.444,0,57.254-8.108,77.003-17.921c-1,6.328-1.562,12.5-1.562,18.358c0,7.327,0.844,14.483,2.406,21.327H21.606
	C23.34,423.32,32.949,411.369,46.651,406.713z M244.514,490.644H21.324v-31.998h308.693c6.187,12.438,14.998,23.343,25.717,31.998
	H244.514z M415.98,490.644c-41.154,0-74.652-33.498-74.652-74.667c0-21.702,8.906-48.7,23.218-70.464
	c15.155-23.015,33.904-36.201,51.435-36.201s36.279,13.187,51.435,36.201c14.343,21.764,23.249,48.762,23.249,70.464
	C490.664,457.146,457.166,490.644,415.98,490.644z"/>
<path d="M447.978,383.995c5.906,0,10.688-4.78,10.688-10.671s-4.781-10.672-10.688-10.672h-21.342v-10.671
	c0-5.89-4.75-10.671-10.656-10.671c-5.875,0-10.656,4.781-10.656,10.671v10.671h-21.342c-4.312,0-8.188,2.594-9.844,6.594
	c-1.656,3.984-0.75,8.562,2.312,11.624l28.873,28.874v16.92h-21.342c-5.875,0-10.656,4.781-10.656,10.672
	s4.781,10.655,10.656,10.655l0,0h21.342v10.655c0,5.906,4.781,10.672,10.656,10.672c5.906,0,10.656-4.766,10.656-10.672v-10.655
	h21.342c4.312,0,8.188-2.594,9.844-6.593c1.656-3.969,0.75-8.562-2.312-11.625L426.636,400.9v-16.905L447.978,383.995
	L447.978,383.995z"/>
<g>
</g>
<g>
</g>
<g>
</g>
<g>
</g>
<g>
</g>
<g>
</g>
<g>
</g>
<g>
</g>
<g>
</g>
<g>
</g>
<g>
</g>
<g>
</g>
<g>
</g>
<g>
</g>
<g>
</g>
</svg>
