<?xml version="1.0" encoding="iso-8859-1"?>
<!-- Generator: Adobe Illustrator 19.0.0, SVG Export Plug-In . SVG Version: 6.00 Build 0)  -->
<svg version="1.1" id="Capa_1" xmlns="http://www.w3.org/2000/svg" xmlns:xlink="http://www.w3.org/1999/xlink" x="0px" y="0px"
	 viewBox="0 0 469.333 469.333" style="enable-background:new 0 0 469.333 469.333;" xml:space="preserve">
<path style="fill:#303C42;" d="M403.233,229.374c1.272-9.288,2.1-18.199,2.1-26.707C405.333,90.917,314.417,0,202.667,0
	S0,90.917,0,202.667s90.917,202.667,202.667,202.667c8.557,0,17.462-0.823,26.707-2.102c21.854,39.372,63.824,66.102,111.96,66.102
	c70.583,0,128-57.417,128-128C469.333,293.199,442.604,251.228,403.233,229.374z"/>
<path style="fill:#FAFAFA;" d="M202.667,384c-99.979,0-181.333-81.344-181.333-181.333S102.688,21.333,202.667,21.333
	S384,102.677,384,202.667c0,5.695-0.427,11.629-1.081,17.738c-13.06-4.505-27.014-7.072-41.586-7.072c-70.583,0-128,57.417-128,128
	c0,14.576,2.566,28.534,7.074,41.596C214.319,383.579,208.391,384,202.667,384z"/>
<path style="opacity:0.1;enable-background:new    ;" d="M42.667,224c0-99.99,81.354-181.333,181.333-181.333
	c44.57,0,85.375,16.236,116.984,43.012c-33.29-39.297-82.909-64.345-138.318-64.345c-99.979,0-181.333,81.344-181.333,181.333
	c0,55.415,25.052,105.034,64.349,138.322C58.905,309.379,42.667,268.574,42.667,224z"/>
<circle style="fill:#FFCA28;" cx="341.333" cy="341.333" r="106.667"/>
<path style="opacity:0.2;fill:#FFFFFF;enable-background:new    ;" d="M256,362.667C256,303.854,303.854,256,362.667,256
	c23.966,0,45.872,8.234,63.702,21.632c-19.478-25.924-50.189-42.965-85.035-42.965c-58.813,0-106.667,47.854-106.667,106.667
	c0,34.846,17.04,65.557,42.965,85.035C264.234,408.539,256,386.633,256,362.667z"/>
<g>
	<path style="fill:#303C42;" d="M336,298.667h37.333c5.896,0,10.667-4.771,10.667-10.667c0-5.896-4.771-10.667-10.667-10.667H352
		v-10.667c0-5.896-4.771-10.667-10.667-10.667s-10.667,4.771-10.667,10.667v11.206c-18.046,2.615-32,18.036-32,36.794
		C298.667,335.25,315.417,352,336,352h10.667c8.813,0,16,7.177,16,16c0,8.823-7.188,16-16,16h-37.333
		c-5.896,0-10.667,4.771-10.667,10.667c0,5.896,4.771,10.667,10.667,10.667h21.333V416c0,5.896,4.771,10.667,10.667,10.667
		S352,421.896,352,416v-11.206c18.046-2.615,32-18.036,32-36.794c0-20.583-16.75-37.333-37.333-37.333H336c-8.813,0-16-7.177-16-16
		C320,305.844,327.188,298.667,336,298.667z"/>
	<path style="fill:#303C42;" d="M213.333,74.667c0-5.896-4.771-10.667-10.667-10.667S192,68.771,192,74.667V198.25l-60.875,60.875
		c-4.167,4.167-4.167,10.917,0,15.083c2.083,2.083,4.813,3.125,7.542,3.125s5.458-1.042,7.542-3.125l64-64
		c2-2,3.125-4.708,3.125-7.542V74.667z"/>
</g>
<linearGradient id="SVGID_1_" gradientUnits="userSpaceOnUse" x1="-60.521" y1="617.6356" x2="-53.6163" y2="610.7299" gradientTransform="matrix(21.3333 0 0 -21.3333 1430.1112 13315.2227)">
	<stop  offset="0" style="stop-color:#000000;stop-opacity:0.1"/>
	<stop  offset="1" style="stop-color:#000000;stop-opacity:0"/>
</linearGradient>
<path style="fill:url(#SVGID_1_);" d="M210.538,67.465l-0.001,0.139c1.693,1.887,2.797,4.324,2.797,7.063v128
	c0,2.833-1.125,5.542-3.125,7.542l-64,64c-2.083,2.083-4.813,3.125-7.542,3.125s-5.458-1.042-7.542-3.125l83.635,83.635
	c-0.73-5.431-1.427-10.879-1.427-16.51c0-70.583,57.417-128,128-128c5.612,0,11.038,0.697,16.451,1.422L210.538,67.465z"/>
<linearGradient id="SVGID_2_" gradientUnits="userSpaceOnUse" x1="-66.1458" y1="618.6659" x2="-44.2702" y2="608.4646" gradientTransform="matrix(21.3333 0 0 -21.3333 1430.1112 13315.2227)">
	<stop  offset="0" style="stop-color:#FFFFFF;stop-opacity:0.2"/>
	<stop  offset="1" style="stop-color:#FFFFFF;stop-opacity:0"/>
</linearGradient>
<path style="fill:url(#SVGID_2_);" d="M403.233,229.374c1.272-9.288,2.1-18.199,2.1-26.707C405.333,90.917,314.417,0,202.667,0
	S0,90.917,0,202.667s90.917,202.667,202.667,202.667c8.557,0,17.462-0.823,26.707-2.102c21.854,39.372,63.824,66.102,111.96,66.102
	c70.583,0,128-57.417,128-128C469.333,293.199,442.604,251.228,403.233,229.374z"/>
<g>
</g>
<g>
</g>
<g>
</g>
<g>
</g>
<g>
</g>
<g>
</g>
<g>
</g>
<g>
</g>
<g>
</g>
<g>
</g>
<g>
</g>
<g>
</g>
<g>
</g>
<g>
</g>
<g>
</g>
</svg>
