<?xml version="1.0" encoding="iso-8859-1"?>
<!-- Generator: Adobe Illustrator 19.0.0, SVG Export Plug-In . SVG Version: 6.00 Build 0)  -->
<svg version="1.1" id="Capa_1" xmlns="http://www.w3.org/2000/svg" xmlns:xlink="http://www.w3.org/1999/xlink" x="0px" y="0px"
	 viewBox="0 0 512 512" style="enable-background:new 0 0 512 512;" xml:space="preserve">
<path style="fill:#303C42;" d="M469.333,106.667c0-23.531-19.146-42.667-42.667-42.667h-384C19.146,64,0,83.135,0,106.667v256
	c0,23.531,19.146,42.667,42.667,42.667c0,23.531,19.146,42.667,42.667,42.667h384C492.854,448,512,428.865,512,405.333v-256
	C512,125.802,492.854,106.667,469.333,106.667z"/>
<g>
	<path style="fill:#0288D1;" d="M469.333,128v234.667c0,23.531-19.146,42.667-42.667,42.667H64c0,11.76,9.563,21.333,21.333,21.333
		h384c11.771,0,21.333-9.573,21.333-21.333v-256C490.667,137.573,481.104,128,469.333,128z"/>
	<path style="fill:#0288D1;" d="M21.333,362.667v-256c0-11.76,9.563-21.333,21.333-21.333h384c11.771,0,21.333,9.573,21.333,21.333
		v256c0,11.76-9.563,21.333-21.333,21.333h-384C30.896,384,21.333,374.427,21.333,362.667z"/>
</g>
<path style="opacity:0.1;enable-background:new    ;" d="M469.333,128v234.667c0,23.531-19.146,42.667-42.667,42.667H64
	c0,11.76,9.563,21.333,21.333,21.333h341.333c35.292,0,64-28.708,64-64V149.333C490.667,137.573,481.104,128,469.333,128z"/>
<circle style="fill:#303C42;" cx="149.333" cy="192" r="42.667"/>
<circle style="fill:#FFFFFF;" cx="149.333" cy="192" r="21.333"/>
<path style="fill:#303C42;" d="M213.063,261.052c-14.917-7.167-38.063-15.719-63.729-15.719s-48.813,8.552-63.729,15.719
	C72.271,267.469,64,280.271,64,294.458v4.875C64,310.729,73.563,320,85.333,320h128c11.771,0,21.333-9.271,21.333-20.667v-4.875
	C234.667,280.271,226.396,267.469,213.063,261.052z"/>
<linearGradient id="SVGID_1_" gradientUnits="userSpaceOnUse" x1="-41.1292" y1="635.5948" x2="-30.9752" y2="625.437" gradientTransform="matrix(21.3333 0 0 -21.3333 996.3334 13791.667)">
	<stop  offset="0" style="stop-color:#000000;stop-opacity:0.1"/>
	<stop  offset="1" style="stop-color:#000000;stop-opacity:0"/>
</linearGradient>
<path style="fill:url(#SVGID_1_);" d="M184.022,167.224l-0.048,0.053C188.979,174.267,192,182.766,192,192
	c0,23.531-19.146,42.667-42.667,42.667c-7.76,0-14.948-2.24-21.225-5.876L128,228.909l16.557,16.557l-0.281,0.259
	c1.711-0.076,3.32-0.392,5.057-0.392c25.667,0,48.813,8.552,63.729,15.719c13.333,6.417,21.604,19.219,21.604,33.406v4.875
	c0,11.396-9.563,20.667-21.333,20.667h-128c-5.87,0-11.186-2.311-15.046-6.036l-0.005,0.004L140.316,384l260.365-0.116
	L184.022,167.224z"/>
<path style="fill:#FFFFFF;" d="M213.333,298.667l-128,0.667v-4.875c0-5.917,3.646-11.354,9.521-14.177
	c12.917-6.208,32.833-13.615,54.479-13.615s41.563,7.406,54.479,13.615c5.875,2.823,9.521,8.26,9.521,14.177V298.667z"/>
<g>
	<path style="fill:#303C42;" d="M394.667,298.667h-128c-5.896,0-10.667,4.771-10.667,10.667S260.771,320,266.667,320h128
		c5.896,0,10.667-4.771,10.667-10.667S400.563,298.667,394.667,298.667z"/>
	<path style="fill:#303C42;" d="M394.667,234.667h-128c-5.896,0-10.667,4.771-10.667,10.667c0,5.896,4.771,10.667,10.667,10.667h128
		c5.896,0,10.667-4.771,10.667-10.667C405.333,239.438,400.563,234.667,394.667,234.667z"/>
	<path style="fill:#303C42;" d="M394.667,170.667h-128c-5.896,0-10.667,4.771-10.667,10.667c0,5.896,4.771,10.667,10.667,10.667h128
		c5.896,0,10.667-4.771,10.667-10.667C405.333,175.438,400.563,170.667,394.667,170.667z"/>
</g>
<linearGradient id="SVGID_2_" gradientUnits="userSpaceOnUse" x1="-47.4107" y1="640.4102" x2="-21.9956" y2="628.5586" gradientTransform="matrix(21.3333 0 0 -21.3333 996.3334 13791.667)">
	<stop  offset="0" style="stop-color:#FFFFFF;stop-opacity:0.2"/>
	<stop  offset="1" style="stop-color:#FFFFFF;stop-opacity:0"/>
</linearGradient>
<path style="fill:url(#SVGID_2_);" d="M469.333,106.667c0-23.531-19.146-42.667-42.667-42.667h-384C19.146,64,0,83.135,0,106.667
	v256c0,23.531,19.146,42.667,42.667,42.667c0,23.531,19.146,42.667,42.667,42.667h384C492.854,448,512,428.865,512,405.333v-256
	C512,125.802,492.854,106.667,469.333,106.667z"/>
<g>
</g>
<g>
</g>
<g>
</g>
<g>
</g>
<g>
</g>
<g>
</g>
<g>
</g>
<g>
</g>
<g>
</g>
<g>
</g>
<g>
</g>
<g>
</g>
<g>
</g>
<g>
</g>
<g>
</g>
</svg>
